<svg width="128" height="128" viewBox="0 0 128 128" fill="none" xmlns="http://www.w3.org/2000/svg">
<path d="M74.7416 18.3274C69.66 15.2242 63.3686 15.2242 58.287 18.3274L29.8963 35.6648C24.5011 38.96 24.5011 47.0864 29.8963 50.3816L58.287 67.7189C63.3686 70.8224 69.66 70.8224 74.7416 67.7189L103.133 50.3816C108.533 47.0864 108.533 38.96 103.133 35.6648L88.9368 26.9961" stroke="#28D1B3" stroke-width="8" stroke-linecap="round" stroke-linejoin="round"/>
<path d="M50.0139 62.666L28.727 77.4137C23.6955 80.9065 23.9097 88.6852 29.1255 91.866L43.702 100.768" stroke="#28D1B3" stroke-width="8" stroke-linecap="round" stroke-linejoin="round"/>
<path d="M58.28 109.667C63.3616 112.77 69.6582 112.77 74.7347 109.667L103.788 91.9243C109.034 88.7227 109.218 80.9024 104.137 77.4309L82.7055 62.8438" stroke="#28D1B3" stroke-width="8" stroke-linecap="round" stroke-linejoin="round"/>
</svg>
