<svg width="128" height="128" viewBox="0 0 128 128" fill="none" xmlns="http://www.w3.org/2000/svg">
<path d="M73.3958 16.8184C76.2294 17.2647 78.9899 17.9652 81.6886 18.9148C106.385 27.8354 119.171 55.0844 110.251 79.7809" stroke="#28D1B3" stroke-width="8" stroke-linecap="round" stroke-linejoin="round"/>
<path d="M28.8594 93.9062C30.4992 95.9612 32.3622 97.8657 34.4535 99.6145C38.7347 103.309 43.7528 106.309 49.3884 108.343C66.4454 114.504 84.7205 110.311 97.3334 98.9894" stroke="#28D1B3" stroke-width="8" stroke-linecap="round" stroke-linejoin="round"/>
<path d="M21.2303 81.1117C20.073 78.0914 19.1649 74.8738 18.6667 71.5527" stroke="#28D1B3" stroke-width="8" stroke-linecap="round" stroke-linejoin="round"/>
<path d="M35.6644 26.9277C33.3499 28.8374 31.186 30.9495 29.323 33.2172" stroke="#28D1B3" stroke-width="8" stroke-linecap="round" stroke-linejoin="round"/>
<path d="M21.6198 45.9062C20.2601 49.1755 19.3053 52.6472 18.75 56.2176" stroke="#28D1B3" stroke-width="8" stroke-linecap="round" stroke-linejoin="round"/>
<path d="M58.2981 16.8125C54.977 17.3159 51.7597 18.1721 48.7395 19.3812" stroke="#28D1B3" stroke-width="8" stroke-linecap="round" stroke-linejoin="round"/>
<path d="M114.662 28.9434C89.255 43.1725 73.4897 66.151 66.0017 80.2193C60.8694 71.6049 54.3617 63.9457 46.448 57.2668" stroke="#28D1B3" stroke-width="8" stroke-linecap="round" stroke-linejoin="round"/>
</svg>
