<svg width="64" height="64" viewBox="0 0 64 64" fill="none" xmlns="http://www.w3.org/2000/svg">
<path fill-rule="evenodd" clip-rule="evenodd" d="M31.6636 5.33264C39.4675 5.335 45.7952 11.6642 45.7952 19.4686V23.671C50.5322 25.3152 53.9335 29.8171 53.9335 35.1161V46.5535C53.9335 53.2451 48.5097 58.6655 41.8215 58.6655H31.9996C30.8951 58.6655 29.9996 57.7701 29.9996 56.6655C29.9996 55.5609 30.8951 54.6655 31.9996 54.6655H41.8215C46.3013 54.6655 49.9335 51.0352 49.9335 46.5535V35.1161C49.9335 30.6344 46.3013 27.0042 41.8215 27.0042H21.4455C16.9657 27.0042 13.3335 30.6344 13.3335 35.1161V46.5535C13.3335 51.0352 16.9657 54.6655 21.4455 54.6655H23.8728C24.9774 54.6655 25.8728 55.5609 25.8728 56.6655C25.8728 57.7701 24.9774 58.6655 23.8728 58.6655H21.4455C14.7573 58.6655 9.3335 53.2451 9.3335 46.5535V35.1161C9.3335 29.8168 12.7352 25.3146 17.4727 23.6707V19.4066C17.5068 11.5997 23.8596 5.30085 31.6636 5.33264ZM41.7952 19.4686V23.0042H21.4727V19.4199C21.4994 13.8222 26.0554 9.30815 31.6504 9.33264H31.6592C37.256 9.33264 41.7952 13.8719 41.7952 19.4686ZM33.6343 37.8738C33.6343 36.7692 32.7388 35.8738 31.6343 35.8738C30.5297 35.8738 29.6343 36.7692 29.6343 37.8738V43.7964C29.6343 44.901 30.5297 45.7964 31.6343 45.7964C32.7388 45.7964 33.6343 44.901 33.6343 43.7964V37.8738Z" fill="url(#paint0_linear_3681_11124)"/>
<defs>
<linearGradient id="paint0_linear_3681_11124" x1="9.3335" y1="31.999" x2="53.9335" y2="31.999" gradientUnits="userSpaceOnUse">
<stop stop-color="#4BFFAE"/>
<stop offset="1" stop-color="#1F75FF"/>
</linearGradient>
</defs>
</svg>
