<svg width="64" height="65" viewBox="0 0 64 65" fill="none" xmlns="http://www.w3.org/2000/svg">
<path fill-rule="evenodd" clip-rule="evenodd" d="M27.9955 7.87965C30.5235 6.6853 33.4739 6.6853 36.0019 7.87965L51.6627 15.2786C55.784 17.2259 55.9014 22.9434 51.8448 25.042L36.3014 33.0831C33.611 34.4751 30.3864 34.4751 27.6958 33.0831L12.1526 25.042C8.09593 22.9434 8.21315 17.2258 12.3347 15.2786L27.9955 7.87965ZM34.2931 11.4963C32.847 10.8131 31.1502 10.8131 29.704 11.4963L14.0434 18.8953C12.9057 19.4328 12.8859 20.9179 13.9905 21.4893L29.5339 29.5306C31.0718 30.326 32.9256 30.326 34.4635 29.5306L50.0067 21.4893C51.1112 20.9179 51.0915 19.4328 49.9539 18.8953L34.2931 11.4963Z" fill="#28D1B3"/>
<path fill-rule="evenodd" clip-rule="evenodd" d="M21.2502 25.7081C21.7221 26.7069 21.295 27.8991 20.2962 28.3708L14.0434 31.325C12.9057 31.8626 12.8859 33.3476 13.9905 33.9191L29.5339 41.9602C31.0718 42.7556 32.9256 42.7556 34.4635 41.9602L50.0067 33.9191C51.1112 33.3476 51.0915 31.8626 49.9539 31.325L43.7011 28.3708C42.7024 27.8991 42.2752 26.7069 42.747 25.7081C43.219 24.7094 44.411 24.2823 45.4096 24.7542L51.6627 27.7084C55.784 29.6556 55.9014 35.3732 51.8448 37.4719L36.3014 45.513C33.611 46.9047 30.3864 46.9047 27.6958 45.513L12.1526 37.4719C8.09593 35.3732 8.21315 29.6556 12.3347 27.7084L18.5876 24.7542C19.5863 24.2823 20.7784 24.7094 21.2502 25.7081Z" fill="#28D1B3"/>
<path fill-rule="evenodd" clip-rule="evenodd" d="M21.2502 38.135C21.7221 39.1339 21.295 40.3259 20.2962 40.7979L14.0434 43.752C12.9057 44.2894 12.8859 45.7744 13.9905 46.3459L29.5339 54.3872C31.0718 55.1827 32.9256 55.1827 34.4635 54.3872L50.0067 46.3459C51.1112 45.7744 51.0915 44.2894 49.9539 43.752L43.7011 40.7979C42.7024 40.3259 42.2752 39.1339 42.747 38.135C43.219 37.1363 44.411 36.7094 45.4096 37.1811L51.6627 40.1352C55.784 42.0824 55.9014 47.8 51.8448 49.8987L36.3014 57.9398C33.611 59.3318 30.3864 59.3318 27.6958 57.9398L12.1526 49.8987C8.09593 47.8 8.21315 42.0824 12.3347 40.1352L18.5876 37.1811C19.5863 36.7094 20.7784 37.1363 21.2502 38.135Z" fill="#28D1B3"/>
</svg>
