<svg width="64" height="64" viewBox="0 0 64 64" fill="none" xmlns="http://www.w3.org/2000/svg">
<path fill-rule="evenodd" clip-rule="evenodd" d="M47.3296 12.0138C48.0176 11.1498 49.276 11.0073 50.14 11.6954C50.8192 12.2364 51.4744 12.8208 52.1021 13.4484C53.3296 14.6758 54.3912 16.0088 55.2864 17.4191C55.8781 18.3517 55.6021 19.5875 54.6696 20.1794C53.7368 20.7713 52.5011 20.4951 51.9091 19.5625C51.1704 18.3984 50.2923 17.2953 49.2736 16.2768C48.7528 15.7559 48.2096 15.2717 47.648 14.8243C46.784 14.1361 46.6413 12.8778 47.3296 12.0138Z" fill="#28D1B3"/>
<path fill-rule="evenodd" clip-rule="evenodd" d="M29.2194 11.3638L20.4794 32.6898H29.3978C31.6517 32.6898 33.293 34.8264 32.7125 37.0042L29.1224 50.4672L48.8162 27.9885H38.4178C36.0504 27.9885 34.3946 25.6471 35.1837 23.4149C35.1976 23.3753 35.2128 23.3361 35.2293 23.2974L40.3141 11.3638H29.2194ZM25.6316 9.57033C26.1383 8.24305 27.4125 7.36377 28.8362 7.36377H41.1789C43.5464 7.36377 45.2021 9.70521 44.4133 11.9374C44.3992 11.977 44.384 12.0162 44.3674 12.0548L39.2829 23.9885H50.0725C53.0208 23.9885 54.5954 27.4619 52.6528 29.6795L30.524 54.9376C28.1328 57.6669 23.6941 55.2992 24.6291 51.7931L28.6565 36.6898H19.6294C17.2447 36.6898 15.5875 34.3168 16.4088 32.0781C16.4174 32.0547 16.4264 32.0315 16.4358 32.0083L25.6316 9.57033Z" fill="#28D1B3"/>
<path fill-rule="evenodd" clip-rule="evenodd" d="M17.989 13.304C18.7701 14.0851 18.7701 15.3514 17.989 16.1325C9.37168 24.7498 9.37168 38.7214 17.989 47.3387C18.7701 48.1198 18.7701 49.3859 17.989 50.167C17.208 50.948 15.9416 50.948 15.1606 50.167C4.98114 39.9875 4.98114 23.4835 15.1606 13.304C15.9416 12.523 17.208 12.523 17.989 13.304Z" fill="#28D1B3"/>
<path fill-rule="evenodd" clip-rule="evenodd" d="M57.7349 32.2708C58.8333 32.386 59.6304 33.37 59.5152 34.4687C58.9138 40.1999 56.4152 45.7738 52.0237 50.1652C48.1992 53.9895 43.4765 56.3796 38.5333 57.3295C37.4488 57.538 36.4002 56.8276 36.192 55.7428C35.9834 54.6583 36.6938 53.6098 37.7784 53.4015C41.9608 52.5978 45.9541 50.578 49.1952 47.3367C52.9152 43.6167 55.0277 38.9042 55.537 34.0511C55.6522 32.9527 56.6362 32.1556 57.7349 32.2708Z" fill="#28D1B3"/>
</svg>
