<svg width="64" height="65" viewBox="0 0 64 65" fill="none" xmlns="http://www.w3.org/2000/svg">
<path fill-rule="evenodd" clip-rule="evenodd" d="M27.9443 12.6333C26.8763 12.6333 26 13.5036 26 14.59V18.6738C26 19.7637 26.8771 20.6331 27.9443 20.6331H38.7251C39.7904 20.6331 40.6667 19.7654 40.6667 18.6739V14.59C40.6667 13.5019 39.7912 12.6333 38.7251 12.6333H27.9443ZM22 14.59C22 11.3072 24.6545 8.6333 27.9443 8.6333H38.7251C42.0165 8.6333 44.6667 11.3089 44.6667 14.59V18.6739C44.6667 21.9567 42.0173 24.6331 38.7251 24.6331H27.9443C24.6536 24.6331 22 21.9584 22 18.6738V14.59Z" fill="#28D1B3"/>
<path fill-rule="evenodd" clip-rule="evenodd" d="M13.2772 45.9666C12.2092 45.9666 11.333 46.8367 11.333 47.9231V52.0071C11.333 53.0967 12.2101 53.9663 13.2772 53.9663H24.058C25.1235 53.9663 25.9997 53.0986 25.9997 52.0071V47.9231C25.9997 46.8351 25.1243 45.9666 24.058 45.9666H13.2772ZM7.33301 47.9231C7.33301 44.6402 9.98746 41.9666 13.2772 41.9666H24.058C27.3495 41.9666 29.9997 44.642 29.9997 47.9231V52.0071C29.9997 55.2898 27.3503 57.9663 24.058 57.9663H13.2772C9.98661 57.9663 7.33301 55.2916 7.33301 52.0071V47.9231Z" fill="#28D1B3"/>
<path fill-rule="evenodd" clip-rule="evenodd" d="M42.6113 45.9666C41.5433 45.9666 40.667 46.8367 40.667 47.9231V52.0071C40.667 53.0967 41.5441 53.9663 42.6113 53.9663H53.3921C54.4574 53.9663 55.3337 53.0986 55.3337 52.0071V47.9231C55.3337 46.8351 54.4582 45.9666 53.3921 45.9666H42.6113ZM36.667 47.9231C36.667 44.6402 39.3214 41.9666 42.6113 41.9666H53.3921C56.6835 41.9666 59.3337 44.642 59.3337 47.9231V52.0071C59.3337 55.2898 56.6843 57.9663 53.3921 57.9663H42.6113C39.3206 57.9663 36.667 55.2916 36.667 52.0071V47.9231Z" fill="#28D1B3"/>
<path fill-rule="evenodd" clip-rule="evenodd" d="M33.333 20.6333C34.4375 20.6333 35.333 21.5287 35.333 22.6333V33.3001C35.333 34.4046 34.4375 35.3001 33.333 35.3001C32.2285 35.3001 31.333 34.4046 31.333 33.3001V22.6333C31.333 21.5287 32.2285 20.6333 33.333 20.6333Z" fill="#28D1B3"/>
<path fill-rule="evenodd" clip-rule="evenodd" d="M24.0003 35.3C22.1594 35.3 20.667 36.7923 20.667 38.6334V43.9667C20.667 45.0712 19.7716 45.9667 18.667 45.9667C17.5624 45.9667 16.667 45.0712 16.667 43.9667V38.6334C16.667 34.5832 19.9502 31.3 24.0003 31.3H42.667C46.7171 31.3 50.0003 34.5832 50.0003 38.6334V43.9667C50.0003 45.0712 49.1049 45.9667 48.0003 45.9667C46.8958 45.9667 46.0003 45.0712 46.0003 43.9667V38.6334C46.0003 36.7923 44.5081 35.3 42.667 35.3H24.0003Z" fill="#28D1B3"/>
</svg>
