<svg width="81" height="80" viewBox="0 0 81 80" fill="none" xmlns="http://www.w3.org/2000/svg">
<rect x="0.5" width="80" height="80" rx="24" fill="#28D1B3"/>
<path d="M24.1016 40.9654V36.6334C24.1016 33.269 26.8296 30.541 30.1958 30.541H45.8536C49.218 30.541 51.946 33.269 51.946 36.6334V47.3314C51.946 50.6976 49.218 53.4256 45.8536 53.4256H44.1998C43.3144 53.4256 42.466 53.7758 41.8394 54.4024L39.6408 56.601C38.7476 57.4942 37.3 57.4942 36.4068 56.601L34.208 54.4024C33.5815 53.7758 32.7331 53.4256 31.8478 53.4256H30.1958C26.8296 53.4256 24.1016 50.6976 24.1016 47.3314V46.3892" stroke="white" stroke-width="3" stroke-linecap="round" stroke-linejoin="round"/>
<path d="M32.2578 30.5415V28.9849C32.2578 25.6226 34.9819 22.9004 38.3578 22.9004H46.1868" stroke="white" stroke-width="3" stroke-linecap="round" stroke-linejoin="round"/>
<path d="M52.0215 45.781H54.0163C57.3787 45.781 60.1027 43.0588 60.1027 39.6828V28.9829C60.1027 25.6206 57.3787 22.8984 54.0163 22.8984H52.0215" stroke="white" stroke-width="3" stroke-linecap="round" stroke-linejoin="round"/>
<path d="M42.4081 42.2441V42.3837M42.9739 42.2741C42.9739 42.5885 42.7189 42.8431 42.4047 42.8431C42.0905 42.8431 41.8359 42.5885 41.8359 42.2741C41.8359 41.9599 42.0905 41.7051 42.4047 41.7051C42.7189 41.7051 42.9739 41.9599 42.9739 42.2741Z" stroke="white" stroke-width="3" stroke-linecap="round" stroke-linejoin="round"/>
<path d="M33.0372 42.2441V42.3837M33.6029 42.2741C33.6029 42.5885 33.3479 42.8431 33.0337 42.8431C32.7194 42.8431 32.4648 42.5885 32.4648 42.2741C32.4648 41.9599 32.7194 41.7051 33.0337 41.7051C33.3479 41.7051 33.6029 41.9599 33.6029 42.2741Z" stroke="white" stroke-width="3" stroke-linecap="round" stroke-linejoin="round"/>
</svg>
