<svg width="81" height="80" viewBox="0 0 81 80" fill="none" xmlns="http://www.w3.org/2000/svg">
<rect x="0.5" width="80" height="80" rx="24" fill="#28D1B3"/>
<path d="M41 58C31.0582 58 23 49.9398 23 40C23 30.0582 31.0582 22 41 22C50.9418 22 59 30.0582 59 40C59 47.4186 54.5112 53.7902 48.1008 56.5452" stroke="white" stroke-width="3" stroke-linecap="round" stroke-linejoin="round"/>
<path d="M37.9957 32C34.801 33.0736 32.5 36.0924 32.5 39.6492C32.5 44.1054 36.1117 47.7172 40.5679 47.7172C45.0241 47.7172 48.6377 44.1054 48.6377 39.6492C48.6377 36.2394 46.5217 33.324 43.5315 32.1429" stroke="white" stroke-width="3" stroke-linecap="round" stroke-linejoin="round"/>
<path d="M34.7095 46.6195L31.6057 49.7233M53.3291 52.8271L47.1215 46.6195M34.7076 34.2056L28.5 28M47.1215 34.2056L53.3291 28" stroke="white" stroke-width="3" stroke-linecap="round" stroke-linejoin="round"/>
</svg>
