<svg width="81" height="80" viewBox="0 0 81 80" fill="none" xmlns="http://www.w3.org/2000/svg">
<rect x="0.5" width="80" height="80" rx="24" fill="#28D1B3"/>
<path fill-rule="evenodd" clip-rule="evenodd" d="M31.2505 30.9054C32.4447 29.625 34.1296 28.9297 36.0638 28.9297H45.0308C46.9696 28.9297 48.654 29.6246 49.8456 30.9077C51.0256 32.1783 51.6104 33.9029 51.6104 35.7781V44.2294C51.6104 46.1002 51.0248 47.8222 49.8448 49.091C48.6534 50.372 46.9696 51.0668 45.0308 51.0668H36.0638C34.1259 51.0668 32.4406 50.3722 31.2469 49.0926C30.0642 47.8246 29.4746 46.1026 29.4746 44.2294V35.7781C29.4746 33.8988 30.067 32.1742 31.2505 30.9054ZM33.4443 32.9516C32.8644 33.5734 32.4746 34.523 32.4746 35.7781V44.2294C32.4746 45.4796 32.8624 46.4262 33.4407 47.0462C34.008 47.6544 34.8672 48.0668 36.0638 48.0668H45.0308C46.2278 48.0668 47.0838 47.6546 47.6482 47.0478C48.224 46.4286 48.6104 45.4818 48.6104 44.2294V35.7781C48.6104 34.5188 48.2232 33.5693 47.6474 32.9492C47.0832 32.3418 46.2278 31.9297 45.0308 31.9297H36.0638C34.8731 31.9297 34.0135 32.3413 33.4443 32.9516Z" fill="white"/>
<path fill-rule="evenodd" clip-rule="evenodd" d="M44.8303 35.5872C45.5477 36.2562 45.9133 37.1834 45.9133 38.187V41.8136C45.9133 42.8186 45.5481 43.7466 44.8279 44.4154C44.1205 45.0726 43.1921 45.3678 42.2503 45.3678H38.8325C37.8917 45.3678 36.9645 45.0718 36.2579 44.4146C35.539 43.746 35.1738 42.8184 35.1738 41.8136V38.187C35.1738 37.1826 35.5388 36.255 36.2563 35.5858C36.9619 34.9275 37.8893 34.6289 38.8325 34.6289H42.2503C43.1963 34.6289 44.1245 34.9288 44.8303 35.5872ZM42.7841 37.781C42.7253 37.7262 42.5721 37.629 42.2503 37.629H38.8325C38.5123 37.629 38.3605 37.7256 38.3027 37.7796C38.2567 37.8224 38.1739 37.924 38.1739 38.187V41.8136C38.1739 42.0768 38.2565 42.1764 38.3011 42.218C38.3579 42.271 38.5101 42.3678 38.8325 42.3678H42.2503C42.5763 42.3678 42.7295 42.2702 42.7865 42.2172C42.8309 42.176 42.9133 42.0768 42.9133 41.8136V38.187C42.9133 37.927 42.8313 37.825 42.7841 37.781Z" fill="white"/>
<path fill-rule="evenodd" clip-rule="evenodd" d="M36.5878 25.1172C37.4162 25.1172 38.0878 25.7888 38.0878 26.6172V30.434C38.0878 31.2624 37.4162 31.934 36.5878 31.934C35.7595 31.934 35.0879 31.2624 35.0879 30.434V26.6172C35.0879 25.7888 35.7595 25.1172 36.5878 25.1172Z" fill="white"/>
<path fill-rule="evenodd" clip-rule="evenodd" d="M44.4141 22.8086C45.2425 22.8086 45.9141 23.4802 45.9141 24.3086V30.4331C45.9141 31.2615 45.2425 31.9331 44.4141 31.9331C43.5857 31.9331 42.9141 31.2615 42.9141 30.4331V24.3086C42.9141 23.4802 43.5857 22.8086 44.4141 22.8086Z" fill="white"/>
<path fill-rule="evenodd" clip-rule="evenodd" d="M36.589 25.1173C37.035 25.1173 37.3966 24.7557 37.3966 24.3097C37.3966 23.8636 37.035 23.502 36.589 23.502C36.1429 23.502 35.7812 23.8636 35.7812 24.3097C35.7812 24.7557 36.1429 25.1173 36.589 25.1173ZM40.3966 24.3097C40.3966 26.4126 38.692 28.1173 36.589 28.1173C34.486 28.1173 32.7812 26.4126 32.7812 24.3097C32.7812 22.2067 34.486 20.502 36.589 20.502C38.692 20.502 40.3966 22.2067 40.3966 24.3097Z" fill="white"/>
<path fill-rule="evenodd" clip-rule="evenodd" d="M44.4121 54.8832C43.5837 54.8832 42.9121 54.2116 42.9121 53.3832V49.5664C42.9121 48.738 43.5837 48.0664 44.4121 48.0664C45.2407 48.0664 45.9121 48.738 45.9121 49.5664V53.3832C45.9121 54.2116 45.2407 54.8832 44.4121 54.8832Z" fill="white"/>
<path fill-rule="evenodd" clip-rule="evenodd" d="M36.588 57.191C35.7595 57.191 35.0879 56.5194 35.0879 55.691V49.5664C35.0879 48.738 35.7595 48.0664 36.588 48.0664C37.4164 48.0664 38.088 48.738 38.088 49.5664V55.691C38.088 56.5194 37.4164 57.191 36.588 57.191Z" fill="white"/>
<path fill-rule="evenodd" clip-rule="evenodd" d="M44.4133 54.8828C43.9671 54.8828 43.6055 55.2444 43.6055 55.6906C43.6055 56.1366 43.9671 56.4982 44.4133 56.4982C44.8593 56.4982 45.2209 56.1366 45.2209 55.6906C45.2209 55.2444 44.8593 54.8828 44.4133 54.8828ZM40.6055 55.6906C40.6055 53.5876 42.3103 51.8828 44.4133 51.8828C46.5161 51.8828 48.2209 53.5876 48.2209 55.6906C48.2209 57.7934 46.5161 59.4982 44.4133 59.4982C42.3103 59.4982 40.6055 57.7934 40.6055 55.6906Z" fill="white"/>
<path fill-rule="evenodd" clip-rule="evenodd" d="M55.3852 36.086C55.3852 36.9144 54.7136 37.586 53.8852 37.586H50.0684C49.24 37.586 48.5684 36.9144 48.5684 36.086C48.5684 35.2575 49.24 34.5859 50.0684 34.5859H53.8852C54.7136 34.5859 55.3852 35.2575 55.3852 36.086Z" fill="white"/>
<path fill-rule="evenodd" clip-rule="evenodd" d="M57.693 43.9141C57.693 44.7425 57.0214 45.4141 56.193 45.4141H50.0684C49.24 45.4141 48.5684 44.7425 48.5684 43.9141C48.5684 43.0857 49.24 42.4141 50.0684 42.4141H56.193C57.0214 42.4141 57.693 43.0857 57.693 43.9141Z" fill="white"/>
<path fill-rule="evenodd" clip-rule="evenodd" d="M55.3848 36.087C55.3848 36.5332 55.7464 36.8948 56.1924 36.8948C56.6386 36.8948 57.0002 36.5332 57.0002 36.087C57.0002 35.6409 56.6386 35.2793 56.1924 35.2793C55.7464 35.2793 55.3848 35.6409 55.3848 36.087ZM56.1924 39.8948C54.0896 39.8948 52.3848 38.19 52.3848 36.087C52.3848 33.9841 54.0896 32.2793 56.1924 32.2793C58.2954 32.2793 60.0002 33.9841 60.0002 36.087C60.0002 38.19 58.2954 39.8948 56.1924 39.8948Z" fill="white"/>
<path fill-rule="evenodd" clip-rule="evenodd" d="M25.6152 43.9141C25.6152 43.0857 26.2868 42.4141 27.1152 42.4141H30.9321C31.7605 42.4141 32.4321 43.0857 32.4321 43.9141C32.4321 44.7425 31.7605 45.4141 30.9321 45.4141H27.1152C26.2868 45.4141 25.6152 44.7425 25.6152 43.9141Z" fill="white"/>
<path fill-rule="evenodd" clip-rule="evenodd" d="M23.3086 36.086C23.3086 35.2575 23.9802 34.5859 24.8086 34.5859H30.9331C31.7615 34.5859 32.4331 35.2575 32.4331 36.086C32.4331 36.9144 31.7615 37.586 30.9331 37.586H24.8086C23.9802 37.586 23.3086 36.9144 23.3086 36.086Z" fill="white"/>
<path fill-rule="evenodd" clip-rule="evenodd" d="M25.6154 43.9133C25.6154 43.4671 25.2538 43.1055 24.8077 43.1055C24.3616 43.1055 24 43.4671 24 43.9133C24 44.3593 24.3616 44.7209 24.8077 44.7209C25.2538 44.7209 25.6154 44.3593 25.6154 43.9133ZM24.8077 40.1055C26.9106 40.1055 28.6154 41.8103 28.6154 43.9133C28.6154 46.0161 26.9106 47.7209 24.8077 47.7209C22.7048 47.7209 21 46.0161 21 43.9133C21 41.8103 22.7048 40.1055 24.8077 40.1055Z" fill="white"/>
</svg>
