<svg width="60" height="44" viewBox="0 0 60 44" fill="none" xmlns="http://www.w3.org/2000/svg">
<path d="M24.6333 0C25.5324 0 26.278 0.282455 26.8607 0.844138C27.4466 1.40744 27.7404 2.11599 27.7404 2.97143C27.7404 4.32076 26.8833 5.44574 25.174 6.34476C21.0793 8.50433 18.0868 10.5961 16.2 12.6217C14.444 14.5569 13.5675 15.9741 13.5675 16.8731C13.5675 17.7721 14.2422 18.2466 15.5899 18.4242L16.4002 18.492L17.4816 18.6275C20.4046 19.0327 22.7659 20.3723 24.5688 22.6432C26.3684 24.9158 27.2674 27.6935 27.2674 30.9781C27.2674 34.2627 26.1441 37.1421 23.8941 39.6164C21.373 42.3603 18.1127 43.7338 14.1082 43.7338C10.1038 43.7338 6.95163 42.2263 4.25459 39.2113C1.42035 36.1527 0 32.3064 0 27.671C0 23.5778 1.42035 19.3377 4.25297 14.9508C7.0856 10.5638 10.7769 6.88546 15.3204 3.91564C19.2796 1.30414 22.3834 0 24.6333 0ZM56.8962 0C57.7952 0 58.5377 0.282455 59.1236 0.844138C59.7062 1.40744 60 2.11599 60 2.97143C60 4.32076 59.1462 5.44574 57.4369 6.34476C53.3421 8.50433 50.3497 10.5961 48.4597 12.6217C46.7068 14.5569 45.8272 15.9741 45.8272 16.8731C45.8272 17.7721 46.5019 18.2466 47.8528 18.4242L48.663 18.492L49.7444 18.6275C52.6675 19.0327 55.0288 20.3723 56.8284 22.6432C58.6281 24.9158 59.5303 27.6935 59.5303 30.9781C59.5303 34.2627 58.4037 37.1421 56.157 39.6164C53.6359 42.3603 50.3755 43.7338 46.3679 43.7338C42.3603 43.7338 39.2145 42.2263 36.5175 39.2113C33.68 36.1527 32.2645 32.3064 32.2645 27.6693C32.2645 23.5762 33.6816 19.3361 36.5175 14.9492C39.3501 10.5622 43.0414 6.88384 47.5849 3.91403C51.5409 1.30414 54.6446 0 56.8962 0Z" fill="#28D1B3"/>
</svg>
