<svg width="70" height="70" viewBox="0 0 70 70" fill="none" xmlns="http://www.w3.org/2000/svg">
<rect width="70" height="70" rx="24" fill="#FE6287" fill-opacity="0.1"/>
<g clip-path="url(#clip0_4021_10592)">
<path d="M33.2252 38.495L29.3657 39.0312C27.4251 37.4562 24.9501 36.5 22.25 36.5C16.0343 36.5 11 41.5343 11 47.75C11 51.9124 13.25 55.5405 16.625 57.4812L22.25 57.5938L27.875 57.4812C31.25 55.5405 33.5 51.9125 33.5 47.75C33.5 45.3031 32.7124 43.053 31.3906 41.1969L33.2252 38.495ZM47.75 36.5C45.0501 36.5 42.5749 37.4562 40.6343 39.0312L36.6312 38.6445L38.6094 41.1969C37.2876 43.053 36.5 45.3031 36.5 47.75C36.5 51.9124 38.75 55.5405 42.125 57.4812L47.75 57.5938L53.375 57.4812C56.7499 55.5405 59 51.9125 59 47.75C59 41.5343 53.9655 36.5 47.75 36.5ZM45.9688 22.25C45.9688 16.0343 40.9344 11 34.7188 11C28.5031 11 23.4688 16.0343 23.4688 22.25C23.4688 26.4124 25.7188 30.0405 29.0938 31.9812L34.7188 32.0938L40.3438 31.9812C43.7187 30.0405 45.9688 26.4124 45.9688 22.25Z" fill="url(#paint0_linear_4021_10592)"/>
<path d="M26.4688 47.75C26.4688 45.4237 24.5763 43.5312 22.25 43.5312C19.9237 43.5312 18.0312 45.4237 18.0312 47.75C18.0312 50.0763 19.9237 51.9688 22.25 51.9688C24.5763 51.9688 26.4688 50.0763 26.4688 47.75ZM22.25 51.9688C19.1563 51.9688 16.6813 54.4156 16.625 57.4812C18.2845 58.4375 20.197 59 22.25 59C24.303 59 26.2155 58.4375 27.875 57.4812C27.8187 54.4438 25.3437 51.9688 22.25 51.9688ZM51.9688 47.75C51.9688 45.4237 50.0763 43.5312 47.75 43.5312C45.4237 43.5312 43.5312 45.4237 43.5312 47.75C43.5312 50.0763 45.4237 51.9688 47.75 51.9688C50.0763 51.9688 51.9688 50.0763 51.9688 47.75ZM47.75 51.9688C44.6563 51.9688 42.1813 54.4156 42.125 57.4812C43.7845 58.4375 45.697 59 47.75 59C49.803 59 51.7153 58.4375 53.375 57.4812C53.3187 54.4156 50.8437 51.9688 47.75 51.9688ZM34.7199 26.4688C37.0462 26.4688 38.9386 24.5763 38.9386 22.25C38.9386 19.9237 37.0462 18.0312 34.7199 18.0312C32.3936 18.0312 30.5011 19.9237 30.5011 22.25C30.5011 24.5763 32.3935 26.4688 34.7199 26.4688ZM36.4062 33.361C37.8206 33.1435 39.1496 32.6694 40.3438 31.9812C40.2875 28.9156 37.7844 26.4688 34.7188 26.4688C31.6531 26.4688 29.15 28.9437 29.0938 31.9812C30.4445 32.7597 31.9681 33.2578 33.5938 33.4235V37.0344L29.3657 39.0312C30.1531 39.6781 30.8281 40.3813 31.3906 41.1969L35 39.4812L38.6094 41.1969C39.1719 40.3813 39.8469 39.6782 40.6343 39.0312L36.4062 37.0344V33.361Z" fill="url(#paint1_linear_4021_10592)"/>
</g>
<defs>
<linearGradient id="paint0_linear_4021_10592" x1="35" y1="57.5938" x2="35" y2="11" gradientUnits="userSpaceOnUse">
<stop stop-color="#FD3A84"/>
<stop offset="1" stop-color="#FFA68D"/>
</linearGradient>
<linearGradient id="paint1_linear_4021_10592" x1="35" y1="59" x2="35" y2="18.0312" gradientUnits="userSpaceOnUse">
<stop stop-color="#FFC2CC"/>
<stop offset="1" stop-color="#FFF2F4"/>
</linearGradient>
<clipPath id="clip0_4021_10592">
<rect width="48" height="48" fill="white" transform="translate(11 11)"/>
</clipPath>
</defs>
</svg>
