<svg width="70" height="70" viewBox="0 0 70 70" fill="none" xmlns="http://www.w3.org/2000/svg">
<rect width="70" height="70" rx="24" fill="#28D1B3" fill-opacity="0.1"/>
<path d="M51.385 17.194C50.9039 16.9404 50.3624 16.8238 49.8195 16.8572C49.2767 16.8905 48.7535 17.0724 48.307 17.383C47.7422 17.8197 47.0425 18.045 46.329 18.02C45.5005 18.0352 44.6966 17.7382 44.077 17.188C43.1091 16.4063 41.9026 15.98 40.6585 15.98C39.4144 15.98 38.2079 16.4063 37.24 17.188C36.6138 17.7259 35.8156 18.0217 34.99 18.0217C34.1645 18.0217 33.3662 17.7259 32.74 17.188C31.7731 16.4064 30.5673 15.98 29.324 15.98C28.0807 15.98 26.8749 16.4064 25.908 17.188C25.29 17.7381 24.4873 18.0352 23.66 18.02C22.9496 18.045 22.2528 17.8211 21.69 17.387C21.2434 17.076 20.7198 16.8937 20.1766 16.8602C19.6334 16.8267 19.0915 16.9432 18.61 17.197C18.1236 17.4513 17.7163 17.8341 17.4325 18.3038C17.1486 18.7735 16.999 19.3121 17 19.861V54.139C16.9999 54.6877 17.1504 55.226 17.435 55.6951C17.7195 56.1643 18.1273 56.5465 18.614 56.8C19.0955 57.0537 19.6374 57.1702 20.1806 57.1367C20.7238 57.1032 21.2474 56.921 21.694 56.61C22.2568 56.1759 22.9536 55.952 23.664 55.977C24.4913 55.9618 25.294 56.2588 25.912 56.809C26.8789 57.5906 28.0847 58.0169 29.328 58.0169C30.5713 58.0169 31.7771 57.5906 32.744 56.809C33.3702 56.271 34.1685 55.9753 34.994 55.9753C35.8196 55.9753 36.6178 56.271 37.244 56.809C38.2119 57.5906 39.4184 58.017 40.6625 58.017C41.9066 58.017 43.1131 57.5906 44.081 56.809C44.7006 56.2587 45.5045 55.9617 46.333 55.977C47.0465 55.9519 47.7462 56.1773 48.311 56.614C48.7614 56.9208 49.2868 57.0991 49.8308 57.1298C50.3749 57.1606 50.917 57.0425 51.3991 56.7884C51.8811 56.5343 52.2848 56.1537 52.5669 55.6874C52.8489 55.2212 52.9987 54.6869 53 54.142V19.858C53.0005 19.3086 52.8502 18.7697 52.5654 18.2999C52.2806 17.8301 51.8723 17.4476 51.385 17.194Z" fill="#4FD79C"/>
<path d="M44.0059 42.4896H43.8498V39.9749H44.006C44.3293 39.9749 44.6024 40.3238 44.6024 40.7368C44.6024 41.137 44.9266 41.4615 45.3267 41.4615C45.7267 41.4615 46.051 41.137 46.051 40.7368C46.051 39.5175 45.1335 38.5255 44.0059 38.5255H43.8497V38.1247C43.8497 37.7245 43.5254 37.4 43.1254 37.4C42.7254 37.4 42.4011 37.7245 42.4011 38.1247V38.5255H42.245C41.1173 38.5255 40.2 39.5175 40.2 40.7368V41.7278C40.2 42.9471 41.1174 43.9391 42.245 43.9391H42.4011V46.4538H42.245C41.9218 46.4538 41.6486 46.1049 41.6486 45.6919C41.6486 45.2917 41.3243 44.9672 40.9243 44.9672C40.5242 44.9672 40.2 45.2917 40.2 45.6919C40.2 46.9112 41.1174 47.9032 42.245 47.9032H42.4011V48.304C42.4011 48.7042 42.7254 49.0287 43.1254 49.0287C43.5255 49.0287 43.8497 48.7042 43.8497 48.304V47.9032H44.0059C45.1335 47.9032 46.051 46.9112 46.051 45.6919V44.7009C46.0511 43.4816 45.1337 42.4896 44.0059 42.4896ZM42.245 42.4897C41.9218 42.4897 41.6486 42.1408 41.6486 41.7278V40.7368C41.6486 40.3238 41.9217 39.9749 42.245 39.9749H42.4011V42.4896H42.245V42.4897ZM44.6025 45.6919C44.6025 46.1049 44.3294 46.4538 44.0061 46.4538H43.8499V43.939H44.006C44.3294 43.939 44.6025 44.2879 44.6025 44.7009V45.6919Z" fill="#FFD93B"/>
<path d="M45 26H25C24.7348 26 24.4804 25.8946 24.2929 25.7071C24.1054 25.5196 24 25.2652 24 25C24 24.7348 24.1054 24.4804 24.2929 24.2929C24.4804 24.1054 24.7348 24 25 24H45C45.2652 24 45.5196 24.1054 45.7071 24.2929C45.8946 24.4804 46 24.7348 46 25C46 25.2652 45.8946 25.5196 45.7071 25.7071C45.5196 25.8946 45.2652 26 45 26Z" fill="white"/>
<path d="M45 32H25C24.7348 32 24.4804 31.8946 24.2929 31.7071C24.1054 31.5196 24 31.2652 24 31C24 30.7348 24.1054 30.4804 24.2929 30.2929C24.4804 30.1054 24.7348 30 25 30H45C45.2652 30 45.5196 30.1054 45.7071 30.2929C45.8946 30.4804 46 30.7348 46 31C46 31.2652 45.8946 31.5196 45.7071 31.7071C45.5196 31.8946 45.2652 32 45 32Z" fill="white"/>
<path d="M36 38H25C24.7348 38 24.4804 37.8946 24.2929 37.7071C24.1054 37.5196 24 37.2652 24 37C24 36.7348 24.1054 36.4804 24.2929 36.2929C24.4804 36.1054 24.7348 36 25 36H36C36.2652 36 36.5196 36.1054 36.7071 36.2929C36.8946 36.4804 37 36.7348 37 37C37 37.2652 36.8946 37.5196 36.7071 37.7071C36.5196 37.8946 36.2652 38 36 38Z" fill="white"/>
<path d="M25 44H36C36.2652 44 36.5196 43.8946 36.7071 43.7071C36.8946 43.5196 37 43.2652 37 43C37 42.7348 36.8946 42.4804 36.7071 42.2929C36.5196 42.1054 36.2652 42 36 42H25C24.7348 42 24.4804 42.1054 24.2929 42.2929C24.1054 42.4804 24 42.7348 24 43C24 43.2652 24.1054 43.5196 24.2929 43.7071C24.4804 43.8946 24.7348 44 25 44Z" fill="white"/>
<path d="M36 48H25C24.7348 48 24.4804 48.1054 24.2929 48.2929C24.1054 48.4804 24 48.7348 24 49C24 49.2652 24.1054 49.5196 24.2929 49.7071C24.4804 49.8946 24.7348 50 25 50H36C36.2652 50 36.5196 49.8946 36.7071 49.7071C36.8946 49.5196 37 49.2652 37 49C37 48.7348 36.8946 48.4804 36.7071 48.2929C36.5196 48.1054 36.2652 48 36 48Z" fill="white"/>
</svg>
