<svg width="70" height="70" viewBox="0 0 70 70" fill="none" xmlns="http://www.w3.org/2000/svg">
<rect width="70" height="70" rx="24" fill="#FFE344" fill-opacity="0.1"/>
<path d="M40.4614 51.9826C40.4614 47.6135 44.016 44.0589 48.3851 44.0589C49.8123 44.0589 51.1512 44.4401 52.309 45.1031V12.4829C52.309 12.2162 52.0928 12 51.8261 12H18.0803C17.8136 12 17.5974 12.2162 17.5974 12.4829V58.4558C17.5974 58.7225 17.8136 58.9387 18.0803 58.9387H44.5941C42.1338 57.5924 40.4614 54.9793 40.4614 51.9826Z" fill="#EAF6FF"/>
<path d="M21.9477 58.4558V12.4829C21.9477 12.2162 22.1639 12 22.4306 12H18.0803C17.8136 12 17.5974 12.2162 17.5974 12.4829V58.4558C17.5974 58.7225 17.8136 58.9387 18.0803 58.9387H22.4306C22.1639 58.9387 21.9477 58.7225 21.9477 58.4558Z" fill="#D8ECFE"/>
<path d="M33.8416 54.6272H20.8733C20.7105 54.6272 20.5786 54.4953 20.5786 54.3325V52.1234C20.5786 51.9606 20.7105 51.8287 20.8733 51.8287H33.8416C34.0044 51.8287 34.1363 51.9606 34.1363 52.1234V54.3325C34.1363 54.4953 34.0044 54.6272 33.8416 54.6272Z" fill="#4FC123"/>
<path d="M23.8378 54.3325V52.1234C23.8378 51.9607 23.9697 51.8289 24.1325 51.8289H20.8732C20.7105 51.8289 20.5786 51.9608 20.5786 52.1234V54.3325C20.5786 54.4953 20.7105 54.6271 20.8732 54.6271H24.1325C23.9697 54.6272 23.8378 54.4953 23.8378 54.3325Z" fill="#47A920"/>
<path d="M21.282 28.8088H48.6246V40.444H21.282V28.8088Z" fill="white"/>
<path d="M21.282 28.8088H23.7579V40.4441H21.282V28.8088Z" fill="#F3F0F3"/>
<path d="M38.9287 28.8088H48.6247V40.444H38.9287V28.8088Z" fill="#8AC9FE"/>
<path d="M49.033 19.8315H34.6919C34.5291 19.8315 34.3972 19.6996 34.3972 19.5368V17.3131C34.3972 17.1503 34.5291 17.0184 34.6919 17.0184H49.033C49.1957 17.0184 49.3277 17.1503 49.3277 17.3131V19.5368C49.3276 19.6996 49.1957 19.8315 49.033 19.8315Z" fill="#0593FC"/>
<path d="M37.6458 19.5368V17.3131C37.6458 17.1503 37.7777 17.0184 37.9404 17.0184H34.6918C34.529 17.0184 34.3972 17.1503 34.3972 17.3131V19.5368C34.3972 19.6996 34.5291 19.8315 34.6918 19.8315H37.9404C37.7777 19.8315 37.6458 19.6996 37.6458 19.5368Z" fill="#0182FC"/>
<path d="M45.636 44.5514C45.5085 44.4224 45.3316 44.3423 45.1359 44.3423H30.2041C29.8157 44.3423 29.501 44.6571 29.501 45.0454C29.501 45.4337 29.8157 45.7485 30.2041 45.7485H43.5032C44.1429 45.2464 44.8604 44.8393 45.636 44.5514Z" fill="#60B7FF"/>
<path d="M41.7631 47.6389H30.2041C29.8157 47.6389 29.501 47.9537 29.501 48.342C29.501 48.7304 29.8157 49.0452 30.2041 49.0452H41.0285C41.2269 48.55 41.4734 48.0793 41.7631 47.6389Z" fill="#60B7FF"/>
<path d="M27.5843 45.7485H21.282C20.8936 45.7485 20.5789 45.4337 20.5789 45.0454C20.5789 44.6571 20.8936 44.3423 21.282 44.3423H27.5844C27.9728 44.3423 28.2875 44.6571 28.2875 45.0454C28.2875 45.4337 27.9727 45.7485 27.5843 45.7485Z" fill="#60B7FF"/>
<path d="M27.5843 49.0452H21.282C20.8936 49.0452 20.5789 48.7304 20.5789 48.342C20.5789 47.9537 20.8936 47.6389 21.282 47.6389H27.5844C27.9728 47.6389 28.2875 47.9537 28.2875 48.342C28.2875 48.7304 27.9727 49.0452 27.5843 49.0452Z" fill="#60B7FF"/>
<path d="M48.3851 60C52.813 60 56.4025 56.4105 56.4025 51.9826C56.4025 47.5547 52.813 43.9652 48.3851 43.9652C43.9572 43.9652 40.3677 47.5547 40.3677 51.9826C40.3677 56.4105 43.9572 60 48.3851 60Z" fill="#FEDF30"/>
<path d="M48.3852 57.2982C51.3209 57.2982 53.7008 54.9184 53.7008 51.9826C53.7008 49.0469 51.3209 46.667 48.3852 46.667C45.4495 46.667 43.0696 49.0469 43.0696 51.9826C43.0696 54.9184 45.4495 57.2982 48.3852 57.2982Z" fill="#4FC123"/>
<path d="M46.6505 51.9826C46.6505 49.6796 48.123 47.7147 50.1756 46.9781C49.6159 46.7771 49.0132 46.667 48.3852 46.667C45.4541 46.667 43.0696 49.0516 43.0696 51.9826C43.0696 54.9137 45.4542 57.2983 48.3852 57.2983C49.0132 57.2983 49.6159 57.1881 50.1756 56.9873C48.1229 56.2506 46.6505 54.2857 46.6505 51.9826Z" fill="#47A920"/>
<path d="M48.021 54.3637C47.8346 54.3637 47.6558 54.2896 47.5238 54.1577L45.2975 51.9313C45.0229 51.6567 45.0229 51.2115 45.2975 50.937C45.5723 50.6623 46.0174 50.6624 46.2919 50.937L48.0209 52.6662L50.4782 50.2089C50.7529 49.9343 51.198 49.9343 51.4726 50.2089C51.7472 50.4835 51.7472 50.9287 51.4726 51.2032L48.5181 54.1577C48.3863 54.2896 48.2075 54.3637 48.021 54.3637Z" fill="white"/>
<path d="M25.5509 19.8575H22.7826C22.343 19.8575 21.9852 19.4998 21.9851 19.0602V19.0144C21.9851 18.5746 22.3429 18.2169 22.7826 18.2169H26.111C26.4994 18.2169 26.8141 17.9021 26.8141 17.5138C26.8141 17.1255 26.4994 16.8106 26.111 16.8106H24.8686V16.3701C24.8686 15.9818 24.5539 15.667 24.1655 15.667C23.777 15.667 23.4623 15.9818 23.4623 16.3701V16.8106H22.7826C21.5675 16.8106 20.5789 17.7992 20.5789 19.0144V19.0603C20.579 20.2753 21.5676 21.2638 22.7826 21.2638H25.5509C25.9892 21.2638 26.3457 21.6203 26.3457 22.0586C26.3457 22.4969 25.9892 22.8534 25.5509 22.8534H22.1943C21.8059 22.8534 21.4911 23.1682 21.4911 23.5565C21.4911 23.9448 21.8059 24.2596 22.1943 24.2596H23.4622V24.7001C23.4622 25.0884 23.777 25.4032 24.1654 25.4032C24.5538 25.4032 24.8685 25.0884 24.8685 24.7001V24.2596H25.5508C26.7644 24.2596 27.7519 23.2723 27.7519 22.0586C27.7519 20.8449 26.7645 19.8575 25.5509 19.8575Z" fill="#47A920"/>
<path d="M48.6246 23.1776H41.6436C41.2551 23.1776 40.9404 22.8628 40.9404 22.4745C40.9404 22.0862 41.2551 21.7714 41.6436 21.7714H48.6246C49.0131 21.7714 49.3278 22.0862 49.3278 22.4745C49.3278 22.8628 49.0131 23.1776 48.6246 23.1776Z" fill="#8AC9FE"/>
<path d="M48.6246 28.1057H21.282C20.8936 28.1057 20.5789 28.4205 20.5789 28.8088V40.444C20.5789 40.8323 20.8936 41.1471 21.282 41.1471H48.6246C49.013 41.1471 49.3278 40.8323 49.3278 40.444V28.8088C49.3278 28.4205 49.013 28.1057 48.6246 28.1057ZM21.9851 33.3904H24.5542V35.8625H21.9851V33.3904ZM38.2255 35.8625H25.9605V33.3904H38.2255V35.8625ZM39.6318 35.8625V33.3904H47.9215V35.8625H39.6318ZM47.9215 37.2687V39.7409H39.6318V37.2687H47.9215ZM38.2255 31.9841H25.9605V29.512H38.2255V31.9841ZM25.9605 37.2687H38.2255V39.7409H25.9605V37.2687ZM47.9215 31.9841H39.6318V29.512H47.9215V31.9841ZM24.5542 29.512V31.9841H21.9851V29.512H24.5542ZM21.9851 37.2687H24.5542V39.7409H21.9851V37.2687Z" fill="#B3DAFE"/>
</svg>
