<svg width="70" height="70" viewBox="0 0 70 70" fill="none" xmlns="http://www.w3.org/2000/svg">
<rect width="70" height="70" rx="24" fill="#FFD243" fill-opacity="0.1"/>
<path d="M44.8656 52.65V13.124C44.8656 11.951 43.9147 11 42.7416 11H17.7861C16.613 11 15.6621 11.951 15.6621 13.124V52.65C15.6621 53.8231 16.6131 54.774 17.7861 54.774H42.7416C43.9147 54.7741 44.8656 53.8231 44.8656 52.65Z" fill="#FFE07D"/>
<path d="M47.9882 11H41.8726C43.0457 11 43.9966 11.951 43.9966 13.124V52.65C43.9966 53.8231 43.0457 54.774 41.8726 54.774H47.9882C49.1612 54.774 50.1122 53.823 50.1122 52.65V13.124C50.1122 11.951 49.1612 11 47.9882 11Z" fill="#FFD064"/>
<path d="M46.9598 59C48.1329 59 49.0839 58.049 49.0839 56.876V17.35C49.0839 16.1775 48.134 15.227 46.9618 15.226H22.0119C20.8388 15.226 19.8879 16.177 19.8879 17.35V56.876C19.8879 58.0491 20.8389 59 22.0119 59H46.9598Z" fill="#F4FBFF"/>
<path d="M52.214 15.2258H46.0908C47.2639 15.2258 48.2149 16.1768 48.2149 17.3499V56.876C48.2149 58.049 47.2639 59 46.0908 59H52.214C53.3871 59 54.338 58.049 54.338 56.876V17.3499C54.338 16.1768 53.3871 15.2258 52.214 15.2258Z" fill="#E4F6FF"/>
<path d="M33.1978 32.2714H25.5794C24.7547 32.2714 24.0862 31.6028 24.0862 30.7781V21.3315C24.0862 20.5068 24.7547 19.8383 25.5794 19.8383H33.1978C34.0226 19.8383 34.6911 20.5068 34.6911 21.3315V30.7782C34.6911 31.6029 34.0226 32.2714 33.1978 32.2714Z" fill="#BED8FB"/>
<path d="M29.3888 27.5017C26.9737 27.5017 24.918 29.0382 24.1443 31.1867C24.3221 31.8126 24.8966 32.2715 25.5795 32.2715H33.1979C33.8808 32.2715 34.4553 31.8126 34.6331 31.1867C33.8595 29.0382 31.8039 27.5017 29.3888 27.5017Z" fill="#407093"/>
<path d="M29.3887 28.0619C30.7023 28.0619 31.7671 26.9971 31.7671 25.6835C31.7671 24.3699 30.7023 23.3051 29.3887 23.3051C28.0751 23.3051 27.0103 24.3699 27.0103 25.6835C27.0103 26.9971 28.0751 28.0619 29.3887 28.0619Z" fill="#365E7D"/>
<path d="M49.3216 38.2484H24.1442C23.7442 38.2484 23.4199 37.9241 23.4199 37.5241C23.4199 37.1241 23.7442 36.7998 24.1442 36.7998H49.3216C49.7217 36.7998 50.046 37.1241 50.046 37.5241C50.046 37.9241 49.7217 38.2484 49.3216 38.2484Z" fill="#407093"/>
<path d="M49.3216 42.9155H24.1442C23.7442 42.9155 23.4199 42.5913 23.4199 42.1912C23.4199 41.7912 23.7442 41.4669 24.1442 41.4669H49.3216C49.7217 41.4669 50.046 41.7912 50.046 42.1912C50.046 42.5913 49.7217 42.9155 49.3216 42.9155Z" fill="#407093"/>
<path d="M49.3216 47.5828H24.1442C23.7442 47.5828 23.4199 47.2585 23.4199 46.8585C23.4199 46.4584 23.7442 46.1342 24.1442 46.1342H49.3216C49.7217 46.1342 50.046 46.4584 50.046 46.8585C50.046 47.2585 49.7217 47.5828 49.3216 47.5828Z" fill="#407093"/>
<path d="M49.3216 52.25H24.1442C23.7442 52.25 23.4199 51.9257 23.4199 51.5257C23.4199 51.1257 23.7442 50.8014 24.1442 50.8014H49.3216C49.7217 50.8014 50.046 51.1257 50.046 51.5257C50.046 51.9257 49.7217 52.25 49.3216 52.25Z" fill="#407093"/>
<path d="M49.3215 28.6935H40.07C39.67 28.6935 39.3457 28.3692 39.3457 27.9692C39.3457 27.5692 39.67 27.2449 40.07 27.2449H49.3215C49.7216 27.2449 50.0459 27.5692 50.0459 27.9692C50.0459 28.3692 49.7216 28.6935 49.3215 28.6935Z" fill="#407093"/>
<path d="M49.3215 24.8649H40.07C39.67 24.8649 39.3457 24.5406 39.3457 24.1406C39.3457 23.7405 39.67 23.4163 40.07 23.4163H49.3215C49.7216 23.4163 50.0459 23.7405 50.0459 24.1406C50.0459 24.5406 49.7216 24.8649 49.3215 24.8649Z" fill="#407093"/>
</svg>
