<svg width="70" height="70" viewBox="0 0 70 70" fill="none" xmlns="http://www.w3.org/2000/svg">
<rect width="70" height="70" rx="24" fill="#A0A3FF" fill-opacity="0.14"/>
<g clip-path="url(#clip0_4021_10606)">
<path d="M53.4284 18.1739V55.8689C53.4284 57.5977 52.0261 59.0001 50.2973 59.0001H38.2973C33.7846 58.4077 31.479 55.4623 31.8169 52.8132L33.6074 15.043H50.2972C52.0261 15.0428 53.4284 16.4442 53.4284 18.1739Z" fill="#B9BBF1"/>
<path d="M38.2971 58.9999H23.8459C22.1161 58.9999 20.7148 57.5976 20.7148 55.8688V22.8908L28.5639 15.0427H33.6073L33.7096 52.813C33.3716 55.4622 36.014 58.0323 38.2971 58.9999Z" fill="#9EA2E3"/>
<path d="M49.285 18.849V51.8261C49.285 53.5558 47.8837 54.9572 46.154 54.9572H39.9748C26.0408 49.8255 22.8373 19.3726 33.3397 11H41.436L43.5712 15.9613L49.285 18.849Z" fill="#EFEDFF"/>
<path d="M39.9749 54.9572H19.7028C17.9741 54.9572 16.5718 53.5558 16.5718 51.8261V14.1311C16.5717 12.4023 17.974 11 19.7028 11H33.3399C27.1501 22.7614 30.2174 47.1709 39.9749 54.9572Z" fill="#D4D4FF"/>
<path d="M49.2854 18.8488H44.5678C42.8385 18.8488 41.4365 17.4469 41.4365 15.7176V11L49.2854 18.8488Z" fill="#D4D4FF"/>
<path d="M43.0199 42.9427V47.2076H40.4972L39.4358 42.9427C39.4358 42.1816 40.1394 41.5382 41.7585 41.4052C42.4771 41.548 43.0199 42.1816 43.0199 42.9427Z" fill="#FF8E9E"/>
<path d="M41.7584 41.4052C41.0389 41.5471 40.4971 42.1817 40.4971 42.9427V47.2076H37.9734L37.1128 45.0342L37.9734 42.9427C37.9734 42.0774 38.6755 41.3752 39.5409 41.3752H41.4522C41.5575 41.3752 41.6599 41.3858 41.7584 41.4052Z" fill="#EA5B70"/>
<path d="M37.9734 39.122V47.2076H35.3928L34.5039 39.122C34.5039 38.3503 35.2344 37.7552 36.6832 37.5796C37.4171 37.71 37.9734 38.3503 37.9734 39.122Z" fill="#BD9CDE"/>
<path d="M36.6831 37.5797C35.9492 37.7101 35.3928 38.3504 35.3928 39.1221V47.2077H32.9282L31.8167 43.7037L32.9282 39.1221C32.9282 38.2557 33.6302 37.5546 34.4957 37.5546H36.406C36.5006 37.5546 36.5933 37.5633 36.6831 37.5797Z" fill="#B18CD9"/>
<path d="M32.9281 35.5012V47.2076H30.4055L29.5059 35.5012C29.5059 34.7412 30.1322 34.1288 31.6668 33.9637C32.3862 34.1066 32.9281 34.7411 32.9281 35.5012Z" fill="#83DEFF"/>
<path d="M31.6669 33.9637C30.9483 34.1067 30.4056 34.7412 30.4056 35.5012V47.2076H27.883L26.4685 42.086L27.883 35.5012C27.883 34.6359 28.5851 33.9337 29.4505 33.9337H31.3608C31.4651 33.9338 31.5685 33.9444 31.6669 33.9637Z" fill="#2ECEFB"/>
<path d="M27.8829 31.9819V47.2077H25.3273L24.1985 31.9819C24.1985 31.2161 25.0333 30.5546 26.605 30.4415C27.3324 30.5777 27.8829 31.2161 27.8829 31.9819Z" fill="#70DCBA"/>
<path d="M26.6052 30.4415C25.8769 30.5776 25.3275 31.2161 25.3275 31.9819V47.2077H22.8376V31.9819C22.8376 31.1166 23.5388 30.4144 24.4051 30.4144H26.3155C26.4149 30.4144 26.5114 30.4241 26.6052 30.4415Z" fill="#30CD9C"/>
<path d="M43.7226 25.9897C43.7226 26.3788 43.4085 26.6929 43.0195 26.6929H30.1326C29.3402 26.3059 29.5062 25.4952 30.1551 25.2866H43.0195C43.4085 25.2866 43.7226 25.6016 43.7226 25.9897Z" fill="#676FB2"/>
<path d="M30.155 25.2866C30.141 25.7526 30.1335 26.2222 30.1325 26.6929H22.8369C22.4488 26.6929 22.1338 26.3788 22.1338 25.9897C22.1338 25.6016 22.4488 25.2866 22.8369 25.2866H30.155Z" fill="#4C5699"/>
<path d="M43.7226 22.37C43.7226 22.7581 43.4086 23.0731 43.0195 23.0731H30.2714C29.5062 22.6995 29.652 21.9305 30.4008 21.6669H43.0195C43.4086 21.6669 43.7226 21.9819 43.7226 22.37Z" fill="#676FB2"/>
<path d="M30.4007 21.6669C30.351 22.1309 30.3079 22.6006 30.2713 23.0731H22.8369C22.4488 23.0731 22.1338 22.7581 22.1338 22.37C22.1338 21.9819 22.4488 21.6669 22.8369 21.6669H30.4007Z" fill="#4C5699"/>
<path d="M38.6766 18.7504C38.6766 19.1385 38.3626 19.4535 37.9735 19.4535H30.6976C30.2232 18.9997 30.2232 18.3139 30.9535 18.0472H37.9735C38.3626 18.0472 38.6766 18.3613 38.6766 18.7504Z" fill="#676FB2"/>
<path d="M30.9536 18.0472C30.8598 18.5094 30.7745 18.9782 30.6976 19.4535H27.8823C27.4942 19.4535 27.1792 19.1385 27.1792 18.7504C27.1792 18.3613 27.4942 18.0472 27.8823 18.0472H30.9536Z" fill="#4C5699"/>
<path d="M45.167 47.2081C45.167 47.5963 44.852 47.9113 44.4639 47.9113H34.6295C33.8678 47.6108 33.5802 46.9664 33.9723 46.505H44.4639C44.852 46.505 45.167 46.8191 45.167 47.2081Z" fill="#676FB2"/>
<path d="M34.6296 47.9113H21.3931C21.0049 47.9113 20.6899 47.5963 20.6899 47.2081C20.6899 46.8191 21.0049 46.505 21.3931 46.505H33.9724C34.1824 46.985 34.4018 47.4538 34.6296 47.9113Z" fill="#4C5699"/>
</g>
<defs>
<clipPath id="clip0_4021_10606">
<rect width="48" height="48" fill="white" transform="translate(11 11)"/>
</clipPath>
</defs>
</svg>
