<svg width="70" height="70" viewBox="0 0 70 70" fill="none" xmlns="http://www.w3.org/2000/svg">
<rect width="70" height="70" rx="24" fill="#FFAA48" fill-opacity="0.17"/>
<g clip-path="url(#clip0_4021_10716)">
<circle cx="35" cy="35" r="17" fill="white"/>
<path d="M35 14C23.4024 14 14 23.4016 14 35C14 46.5984 23.4024 56 35 56C46.5976 56 56 46.5976 56 35C56 23.4024 46.5976 14 35 14ZM47.2588 35C47.2588 35.3055 47.1986 35.608 47.0817 35.8903C46.9647 36.1725 46.7934 36.429 46.5774 36.645C46.3613 36.861 46.1049 37.0324 45.8226 37.1493C45.5404 37.2662 45.2379 37.3264 44.9323 37.3264H37.3264V44.9323C37.3264 45.5493 37.0813 46.1411 36.645 46.5774C36.2087 47.0136 35.617 47.2588 35 47.2588C34.383 47.2588 33.7913 47.0136 33.355 46.5774C32.9187 46.1411 32.6736 45.5493 32.6736 44.9323V37.3264H25.0677C24.4507 37.3264 23.8589 37.0813 23.4226 36.645C22.9864 36.2087 22.7412 35.617 22.7412 35C22.7412 34.383 22.9864 33.7913 23.4226 33.355C23.8589 32.9187 24.4507 32.6736 25.0677 32.6736H32.6736V25.0677C32.6736 24.4507 32.9187 23.8589 33.355 23.4226C33.7913 22.9864 34.383 22.7412 35 22.7412C35.617 22.7412 36.2087 22.9864 36.645 23.4226C37.0813 23.8589 37.3264 24.4507 37.3264 25.0677V32.6736H44.9323C45.5493 32.6736 46.1411 32.9187 46.5774 33.355C47.0136 33.7913 47.2588 34.383 47.2588 35Z" fill="url(#paint0_linear_4021_10716)"/>
</g>
<defs>
<linearGradient id="paint0_linear_4021_10716" x1="14" y1="35" x2="56" y2="35" gradientUnits="userSpaceOnUse">
<stop stop-color="#ED6C14"/>
<stop offset="0.6" stop-color="#FF9045"/>
<stop offset="1" stop-color="#FFB54A"/>
</linearGradient>
<clipPath id="clip0_4021_10716">
<rect width="42" height="42" fill="white" transform="translate(14 14)"/>
</clipPath>
</defs>
</svg>
