<svg width="70" height="70" viewBox="0 0 70 70" fill="none" xmlns="http://www.w3.org/2000/svg">
<rect width="70" height="70" rx="24" fill="#0371FB" fill-opacity="0.1"/>
<path d="M15 15.9941H55C57.216 15.9941 59 17.7781 59 19.9941V47.4063C59 49.6223 57.216 51.4063 55 51.4063H15C12.784 51.4063 11 49.6223 11 47.4063V19.9941C11 17.7781 12.784 15.9941 15 15.9941Z" fill="url(#paint0_linear_4021_10645)"/>
<path d="M22.3984 19.8833C21.7617 19.8833 20.882 20.361 20.882 21.5825C20.882 24.0385 19.6325 25.1942 16.5125 25.1942C15.786 25.1942 14.9719 25.7895 14.9719 26.6575V40.746C14.9719 41.614 15.786 42.2093 16.5125 42.2093C19.6325 42.2093 20.882 43.365 20.882 45.821C20.882 47.0425 21.7617 47.5202 22.3984 47.5202H47.6015C48.2382 47.5202 49.1179 47.0425 49.1179 45.821C49.1179 43.365 50.3674 42.2093 53.4874 42.2093C54.2139 42.2093 55.028 41.614 55.028 40.746V26.6575C55.028 25.7896 54.2139 25.1942 53.4874 25.1942C50.3674 25.1942 49.1179 24.0385 49.1179 21.5825C49.1179 20.361 48.2382 19.8833 47.6015 19.8833H22.3984Z" fill="url(#paint1_linear_4021_10645)"/>
<path d="M22.6001 22.007V22.4054H23.4001V22.007H22.6001ZM24.5993 22.007V22.4054H25.3993V22.007H24.5993ZM26.6009 22.007V22.4054H27.4009V22.007H26.6009ZM28.6001 22.007V22.4054H29.4001V22.007H28.6001ZM30.5993 22.007V22.4054H31.3993V22.007H30.5993ZM32.6009 22.007V22.4054H33.4009V22.007H32.6009ZM34.6001 22.007V22.4054H35.4001V22.007H34.6001ZM36.5993 22.007V22.4054H37.3993V22.007H36.5993ZM38.6009 22.007V22.4054H39.4009V22.007H38.6009ZM40.6001 22.007V22.4054H41.4001V22.007H40.6001ZM42.5993 22.007V22.4054H43.3993V22.007H42.5993ZM44.6009 22.007V22.4054H45.3986V22.007H44.6009ZM46.6001 22.007V22.4054H47.4001V22.007H46.6001Z" fill="#6E98F5"/>
<path d="M28.5742 46.8565L28.6022 57.8588C28.6055 59.4763 29.7678 60.3706 31.2084 59.8642L35 58.5318L38.7911 59.8642C40.2317 60.3706 41.394 59.4763 41.3972 57.8588L41.4252 46.8565C41.4278 45.6413 28.5717 45.6413 28.5742 46.8565Z" fill="url(#paint2_linear_4021_10645)"/>
<path d="M35.0001 36.3491C39.3521 36.3491 42.8801 39.8771 42.8801 44.2291C42.8801 48.5811 39.3521 52.1091 35.0001 52.1091C30.6481 52.1091 27.1201 48.5811 27.1201 44.2291C27.1201 39.8771 30.6481 36.3491 35.0001 36.3491Z" fill="url(#paint3_linear_4021_10645)"/>
<path d="M21.6875 44.5636V44.962H22.4875V44.5636H21.6875ZM23.6867 44.5636V44.962H24.4867V44.5636H23.6867ZM25.6882 44.5636V44.962H26.4882V44.5636H25.6882Z" fill="#6E98F5"/>
<path d="M43.6375 44.5636V44.962H44.4375V44.5636H43.6375ZM45.6367 44.5636V44.962H46.4367V44.5636H45.6367ZM47.6382 44.5636V44.962H48.4382V44.5636H47.6382Z" fill="#6E98F5"/>
<path d="M26.6879 32.1788C25.5829 32.1799 24.6864 31.2847 24.686 30.1798C24.6866 29.0748 25.583 28.1797 26.6879 28.1808H43.315C44.4188 28.1814 45.3135 29.076 45.3139 30.1798C45.3134 31.2836 44.4188 32.1783 43.315 32.1788H26.6879Z" fill="url(#paint4_linear_4021_10645)"/>
<defs>
<linearGradient id="paint0_linear_4021_10645" x1="35.001" y1="55.9999" x2="35.001" y2="16.0007" gradientUnits="userSpaceOnUse">
<stop stop-color="#0056FF"/>
<stop offset="1" stop-color="#0AB0F2"/>
</linearGradient>
<linearGradient id="paint1_linear_4021_10645" x1="35" y1="19.9838" x2="35" y2="47.2782" gradientUnits="userSpaceOnUse">
<stop stop-color="#F5F8FF"/>
<stop offset="1" stop-color="#A0C9FF"/>
</linearGradient>
<linearGradient id="paint2_linear_4021_10645" x1="32.6977" y1="40.22" x2="30.4723" y2="58.2806" gradientUnits="userSpaceOnUse">
<stop stop-color="#C10B40"/>
<stop offset="1" stop-color="#F74757"/>
</linearGradient>
<linearGradient id="paint3_linear_4021_10645" x1="35.0069" y1="54.508" x2="35.0069" y2="38.749" gradientUnits="userSpaceOnUse">
<stop stop-color="#FF7E3F"/>
<stop offset="1" stop-color="#FFBE3F"/>
</linearGradient>
<linearGradient id="paint4_linear_4021_10645" x1="35.0042" y1="33.6383" x2="35.0042" y2="27.3462" gradientUnits="userSpaceOnUse">
<stop stop-color="#0056FF"/>
<stop offset="1" stop-color="#0AB0F2"/>
</linearGradient>
</defs>
</svg>
