<svg width="70" height="70" viewBox="0 0 70 70" fill="none" xmlns="http://www.w3.org/2000/svg">
<rect width="70" height="70" rx="24" fill="#9ABEFF" fill-opacity="0.2"/>
<g clip-path="url(#clip0_4021_10435)">
<path d="M11 23.8957L33.5952 11.3635C34.4691 10.8788 35.5309 10.8788 36.4048 11.3635L59 23.8957H11Z" fill="#81BDFF"/>
<path d="M35 49.027C39.1838 49.027 42.5755 45.6337 42.5755 41.4479C42.5755 37.2621 39.1838 33.8688 35 33.8688C30.8162 33.8688 27.4246 37.2621 27.4246 41.4479C27.4246 45.6337 30.8162 49.027 35 49.027Z" fill="#FFD93B"/>
<path d="M35.8804 40.7231H35.7243V38.2084H35.8805C36.2038 38.2084 36.4769 38.5573 36.4769 38.9703C36.4769 39.3705 36.8012 39.695 37.2012 39.695C37.6012 39.695 37.9255 39.3705 37.9255 38.9703C37.9255 37.751 37.0081 36.759 35.8804 36.759H35.7242V36.3582C35.7242 35.958 35.4 35.6335 34.9999 35.6335C34.5999 35.6335 34.2756 35.958 34.2756 36.3582V36.759H34.1195C32.9918 36.759 32.0745 37.751 32.0745 38.9703V39.9613C32.0745 41.1806 32.9919 42.1726 34.1195 42.1726H34.2756V44.6874H34.1195C33.7963 44.6874 33.5231 44.3384 33.5231 43.9255C33.5231 43.5252 33.1988 43.2008 32.7988 43.2008C32.3987 43.2008 32.0745 43.5252 32.0745 43.9255C32.0745 45.1448 32.9919 46.1367 34.1195 46.1367H34.2756V46.5375C34.2756 46.9377 34.5999 47.2622 34.9999 47.2622C35.4001 47.2622 35.7242 46.9377 35.7242 46.5375V46.1367H35.8804C37.0081 46.1367 37.9255 45.1448 37.9255 43.9255V42.9344C37.9256 41.7151 37.0082 40.7231 35.8804 40.7231ZM34.1195 40.7232C33.7963 40.7232 33.5231 40.3743 33.5231 39.9613V38.9703C33.5231 38.5573 33.7962 38.2084 34.1195 38.2084H34.2756V40.7231H34.1195V40.7232ZM36.477 43.9255C36.477 44.3384 36.2039 44.6874 35.8806 44.6874H35.7244V42.1725H35.8805C36.2039 42.1725 36.477 42.5215 36.477 42.9344V43.9255Z" fill="white"/>
<path d="M35 20.5909C36.4402 20.5909 37.6076 19.4229 37.6076 17.982C37.6076 16.5412 36.4402 15.3732 35 15.3732C33.5598 15.3732 32.3923 16.5412 32.3923 17.982C32.3923 19.4229 33.5598 20.5909 35 20.5909Z" fill="#006FEA"/>
<path d="M56.1026 54.6518H44.4888L47.3861 50.5717H53.2052L56.1026 54.6518Z" fill="#81BDFF"/>
<path d="M56.1026 28.2439H44.4888L47.3861 32.3242H53.2052L56.1026 28.2439Z" fill="#81BDFF"/>
<path d="M47.386 32.3242H53.205V50.5717H47.386V32.3242Z" fill="white"/>
<path d="M25.5113 54.6518H13.8975L16.7949 50.5717H22.614L25.5113 54.6518Z" fill="#81BDFF"/>
<path d="M25.5113 28.2439H13.8975L16.7949 32.3242H22.614L25.5113 28.2439Z" fill="#81BDFF"/>
<path d="M16.7947 32.3242H22.6137V50.5717H16.7947V32.3242Z" fill="white"/>
<path d="M11 23.8958H59V26.0698C59 27.2705 58.0271 28.2439 56.827 28.2439H13.173C11.9729 28.2439 11 27.2706 11 26.0698L11 23.8958Z" fill="#006FEA"/>
<path d="M11.9658 54.6519H58.0342C58.5676 54.6519 59 55.0844 59 55.6181V58.0338C59 58.5674 58.5676 59.0001 58.0342 59.0001H11.9658C11.4324 59 11 58.5674 11 58.0337V55.618C11 55.0844 11.4324 54.6519 11.9658 54.6519Z" fill="#006FEA"/>
</g>
<defs>
<clipPath id="clip0_4021_10435">
<rect width="48" height="48" fill="white" transform="translate(11 11)"/>
</clipPath>
</defs>
</svg>
