<svg width="70" height="70" viewBox="0 0 70 70" fill="none" xmlns="http://www.w3.org/2000/svg">
<rect width="70" height="70" rx="24" fill="#FF9933" fill-opacity="0.1"/>
<g clip-path="url(#clip0_4021_10527)">
<path d="M51.4297 17.3415V51.4914C51.4297 53.0153 50.1943 54.2506 48.6705 54.2506H22.881C21.3572 54.2506 20.1218 53.0153 20.1218 51.4914V17.3415C20.1218 15.8176 21.3572 14.5823 22.881 14.5823H48.6705C50.1943 14.5823 51.4297 15.8176 51.4297 17.3415Z" fill="#FF9933"/>
<path d="M51.4297 17.3415V51.4914C51.4297 53.0153 50.1943 54.2506 48.6705 54.2506H22.881C21.3572 54.2506 20.1218 53.0153 20.1218 51.4914V51.4454H40.4241C44.9531 51.4454 48.6245 47.774 48.6245 43.245V14.5823H48.6705C50.1943 14.5823 51.4297 15.8176 51.4297 17.3415Z" fill="#FF8B22"/>
<path d="M22.8806 17.3409H48.67V51.4915H22.8806V17.3409Z" fill="#E5E8F9"/>
<path d="M48.6705 17.3416V51.4915H22.8811V48.1896H34.7625C40.6202 48.1896 45.3687 43.4411 45.3687 37.5835V17.3416H48.6705Z" fill="#D6DBF2"/>
<path d="M43.7316 13.3315V17.4611C43.7316 17.9691 43.3198 18.3808 42.8119 18.3808H28.7398C28.2318 18.3808 27.8201 17.9691 27.8201 17.4611V13.3315C27.8201 12.8235 28.2318 12.4117 28.7398 12.4117H42.8119C43.3198 12.4117 43.7316 12.8235 43.7316 13.3315Z" fill="#666666"/>
<path d="M43.7316 13.3315V17.4611C43.7316 17.967 43.3177 18.3808 42.8119 18.3808H28.7398C28.2339 18.3808 27.8201 17.967 27.8201 17.4611V16.4402H38.5152C40.3243 16.4402 41.7909 14.9737 41.7909 13.1646V12.4117H42.8119C43.3177 12.4117 43.7316 12.8256 43.7316 13.3315Z" fill="#595857"/>
<path d="M45.6414 24.6793H32.3299C32.0377 24.6793 31.8005 24.4422 31.8005 24.1499C31.8005 23.8576 32.0377 23.6205 32.3299 23.6205H45.6414C45.9337 23.6205 46.1708 23.8576 46.1708 24.1499C46.1708 24.4422 45.9337 24.6793 45.6414 24.6793Z" fill="#666666"/>
<path d="M41.7405 27.5428H32.3299C32.0377 27.5428 31.8005 27.3057 31.8005 27.0134C31.8005 26.7211 32.0377 26.484 32.3299 26.484H41.7404C42.0327 26.484 42.2699 26.7211 42.2699 27.0134C42.2699 27.3057 42.0327 27.5428 41.7405 27.5428Z" fill="#666666"/>
<path d="M26.829 27.4773C26.6883 27.4773 26.5536 27.4215 26.4543 27.3222L25.5354 26.4026C25.329 26.1958 25.329 25.8608 25.5358 25.654C25.7426 25.4472 26.0779 25.4472 26.2847 25.654L26.829 26.1993L28.7277 24.3009C28.9345 24.0941 29.2696 24.0941 29.4764 24.3009C29.6832 24.5077 29.6832 24.8427 29.4764 25.0495L27.2033 27.3222C27.104 27.4215 26.9692 27.4773 26.829 27.4773Z" fill="#666666"/>
<path d="M45.6414 31.7126H32.3299C32.0377 31.7126 31.8005 31.4755 31.8005 31.1832C31.8005 30.8909 32.0377 30.6538 32.3299 30.6538H45.6414C45.9337 30.6538 46.1708 30.8909 46.1708 31.1832C46.1708 31.4755 45.9337 31.7126 45.6414 31.7126Z" fill="#666666"/>
<path d="M41.7405 34.5754H32.3299C32.0377 34.5754 31.8005 34.3383 31.8005 34.046C31.8005 33.7537 32.0377 33.5166 32.3299 33.5166H41.7404C42.0327 33.5166 42.2699 33.7537 42.2699 34.046C42.2699 34.3383 42.0327 34.5754 41.7405 34.5754Z" fill="#666666"/>
<path d="M26.8289 34.5099C26.6935 34.5099 26.558 34.4582 26.4546 34.3548L25.5357 33.4359C25.3289 33.2291 25.3289 32.8941 25.5357 32.6873C25.7425 32.4805 26.0775 32.4805 26.2843 32.6873L26.8289 33.2319L28.7277 31.3334C28.9345 31.1266 29.2695 31.1266 29.4763 31.3334C29.6831 31.5402 29.6831 31.8753 29.4763 32.0821L27.2032 34.3548C27.0998 34.4582 26.9644 34.5099 26.8289 34.5099Z" fill="#666666"/>
<path d="M45.6412 38.7453H32.3297C32.0374 38.7453 31.8003 38.5082 31.8003 38.2159C31.8003 37.9237 32.0374 37.6865 32.3297 37.6865H45.6412C45.9334 37.6865 46.1706 37.9237 46.1706 38.2159C46.1706 38.5082 45.9335 38.7453 45.6412 38.7453Z" fill="#666666"/>
<path d="M41.7402 41.6089H32.3297C32.0374 41.6089 31.8003 41.3717 31.8003 41.0795C31.8003 40.7872 32.0374 40.55 32.3297 40.55H41.7402C42.0325 40.55 42.2696 40.7872 42.2696 41.0795C42.2696 41.3717 42.0325 41.6089 41.7402 41.6089Z" fill="#666666"/>
<path d="M26.8289 41.5434C26.6935 41.5434 26.558 41.4917 26.4546 41.3883L25.5357 40.4694C25.3289 40.2626 25.3289 39.9276 25.5357 39.7208C25.7425 39.514 26.0775 39.514 26.2843 39.7208L26.8289 40.2653L28.7277 38.3669C28.9345 38.1601 29.2695 38.1601 29.4763 38.3669C29.6831 38.5737 29.6831 38.9087 29.4763 39.1155L27.2032 41.3883C27.0998 41.4917 26.9644 41.5434 26.8289 41.5434Z" fill="#666666"/>
<path d="M30.8499 44.8281V56.4849C30.8499 57.0943 30.3559 57.5883 29.7465 57.5883H16.1354C15.526 57.5883 15.032 57.0943 15.032 56.4849V44.8281C15.032 44.2187 15.526 43.7247 16.1354 43.7247H29.7465C30.3559 43.7247 30.8499 44.2187 30.8499 44.8281Z" fill="#FFC776"/>
<path d="M30.8499 44.8281V56.4849C30.8499 57.0917 30.3533 57.5883 29.7465 57.5883H16.1354C15.5285 57.5883 15.032 57.0917 15.032 56.4849V55.1873H23.7391C26.3403 55.1873 28.4489 53.0786 28.4489 50.4775V43.7247H29.7465C30.3533 43.7247 30.8499 44.2213 30.8499 44.8281Z" fill="#F4B25B"/>
<path d="M21.2573 43.7247H24.6251V47.2308H21.2573V43.7247Z" fill="#FFEAA9"/>
<path d="M25.495 53.52H19.9779C19.6856 53.52 19.4485 53.2829 19.4485 52.9906C19.4485 52.6983 19.6856 52.4612 19.9779 52.4612H25.495C25.7873 52.4612 26.0244 52.6983 26.0244 52.9906C26.0244 53.2829 25.7873 53.52 25.495 53.52Z" fill="#C48A57"/>
<path d="M25.495 51.168H19.9779C19.6856 51.168 19.4485 50.9308 19.4485 50.6385C19.4485 50.3463 19.6856 50.1091 19.9779 50.1091H25.495C25.7873 50.1091 26.0244 50.3463 26.0244 50.6385C26.0244 50.9308 25.7873 51.168 25.495 51.168Z" fill="#C48A57"/>
<path d="M51.1946 57.1148C54.3271 55.8163 55.8139 52.2244 54.5155 49.0919C53.2171 45.9595 49.6251 44.4727 46.4926 45.7711C43.3602 47.0695 41.8734 50.6614 43.1718 53.7939C44.4702 56.9264 48.0621 58.4132 51.1946 57.1148Z" fill="#77E244"/>
<path d="M54.968 51.4449C54.968 54.8464 52.2181 57.5853 48.8277 57.5853C46.4974 57.5853 44.4764 56.2932 43.4382 54.3937C44.3107 54.8685 45.3158 55.1336 46.3759 55.1336C49.7663 55.1336 52.5052 52.3947 52.5052 48.9933C52.5052 47.933 52.2401 46.9391 51.7653 46.0667C53.6758 47.1048 54.968 49.1258 54.968 51.4449Z" fill="#62D333"/>
<path d="M47.9782 53.4028C47.8428 53.4028 47.7073 53.3511 47.6039 53.2477L46.4527 52.0965C46.2459 51.8897 46.2459 51.5547 46.4527 51.3479C46.6595 51.1411 46.9945 51.1411 47.2013 51.3479L47.9782 52.1247L50.4505 49.6528C50.6573 49.446 50.9924 49.446 51.1992 49.6528C51.406 49.8596 51.406 50.1946 51.1992 50.4014L48.3525 53.2477C48.2491 53.3511 48.1137 53.4028 47.9782 53.4028Z" fill="white"/>
</g>
<defs>
<clipPath id="clip0_4021_10527">
<rect width="48" height="48" fill="white" transform="translate(11 11)"/>
</clipPath>
</defs>
</svg>
