<svg width="70" height="70" viewBox="0 0 70 70" fill="none" xmlns="http://www.w3.org/2000/svg">
<rect width="70" height="70" rx="24" fill="#477EFF" fill-opacity="0.1"/>
<g clip-path="url(#clip0_4021_10459)">
<path d="M49.3948 15.1546V55.5324C49.3948 57.1451 48.0875 58.4524 46.4748 58.4524H17.92C16.3073 58.4524 15 57.1451 15 55.5324V15.1536C15 13.5409 16.3073 12.2336 17.92 12.2336H46.4737C48.087 12.2335 49.3948 13.5413 49.3948 15.1546Z" fill="white"/>
<path d="M49.3952 15.1545V55.5325C49.3952 57.1449 48.0872 58.452 46.4748 58.452H43.4577C45.0701 58.452 46.3772 57.1449 46.3772 55.5325V15.1545C46.3772 13.5411 45.0692 12.234 43.4558 12.234H46.4738C48.0872 12.234 49.3952 13.5411 49.3952 15.1545Z" fill="#C8EFFE"/>
<path d="M40.1594 16.8004V19.3113C40.1594 19.6128 39.915 19.8572 39.6135 19.8572H24.628C24.3264 19.8572 24.082 19.6128 24.082 19.3113V16.8004C24.082 16.4989 24.3264 16.2545 24.628 16.2545H39.6134C39.915 16.2545 40.1594 16.4989 40.1594 16.8004Z" fill="#7CA1B1"/>
<path d="M56.6531 32.8327C56.531 32.8469 56.4037 32.8302 56.2827 32.778C55.9153 32.6194 55.7461 32.1929 55.9048 31.8255L61.1848 19.5974C61.2612 19.4205 61.1797 19.2152 61.0028 19.1389L59.5268 18.5015C59.1625 18.3443 58.966 17.9263 59.1123 17.5575C59.2636 17.1759 59.6989 16.9975 60.0731 17.1591L62.5495 18.2283C62.6418 18.2682 62.7285 18.3228 62.7977 18.3959C63.0058 18.6157 63.053 18.9261 62.9405 19.1864L57.2351 32.4001C57.1287 32.6464 56.9018 32.8037 56.6531 32.8327Z" fill="#7CA1B1"/>
<path d="M40.1594 16.8006V19.3114C40.1594 19.6128 39.915 19.8573 39.6136 19.8573H36.5356C36.8371 19.8573 37.0815 19.6128 37.0815 19.3114V16.8006C37.0815 16.4992 36.8371 16.2548 36.5356 16.2548H39.6136C39.915 16.2548 40.1594 16.4992 40.1594 16.8006Z" fill="#678D98"/>
<path d="M53.3396 32.7534L44.9883 52.0946L41.8763 51.6294L38.7651 49.4076L47.1155 30.0659L50.5031 30.1521L53.3396 32.7534Z" fill="#5986CB"/>
<path d="M53.3396 32.7534L44.9888 52.0942L42.5166 51.0276L42.2334 51.6827L51.2392 30.827L53.3396 32.7534Z" fill="#4278C3"/>
<path d="M60.064 13.5326C60.1079 13.9097 60.0565 14.3037 59.895 14.6785L59.0203 16.7043L56.686 16.2548L54.9023 14.9266L55.7779 12.8998C56.1617 12.0119 57.0502 11.4988 57.9618 11.5511C58.2171 11.5642 58.476 11.6235 58.7248 11.7306C59.4877 12.0601 59.9741 12.762 60.064 13.5326Z" fill="#99E6FC"/>
<path d="M59.8954 14.6781L59.0201 16.7039L57.4907 16.3468L58.4762 14.0656C58.6385 13.6917 58.6897 13.2976 58.6453 12.9198C58.5854 12.402 58.3458 11.9151 57.9623 11.5509C58.2173 11.5644 58.4762 11.6234 58.7245 11.7306C59.4877 12.06 59.9746 12.7624 60.0644 13.5323C60.1079 13.9101 60.0567 14.3033 59.8954 14.6781Z" fill="#62DBFB"/>
<path d="M60.0732 17.1591L53.3398 32.7534L47.1157 30.0659L53.5583 15.1475C53.7194 14.7745 54.1524 14.6026 54.5254 14.7637L60.0732 17.1591Z" fill="#80B4FB"/>
<path d="M60.0732 17.1591L53.3396 32.7534L50.8684 31.6859L57.601 16.0916L60.0732 17.1591Z" fill="#61A2F9"/>
<path d="M42.5166 51.0267V51.0277L38.7654 49.4076L42.5166 51.0267Z" fill="#5986CB"/>
<path d="M44.9883 52.0947L40.3106 56.4903C39.7285 57.0376 38.774 56.6256 38.7734 55.8271L38.7721 54.5464L38.7646 49.407L42.5172 51.0278L44.9883 52.0947Z" fill="#99E6FC"/>
<path d="M44.9879 52.0943L40.3102 56.4899C39.7286 57.0377 38.7741 56.6251 38.7732 55.8272L38.7722 54.5462L42.5167 51.0277L44.9879 52.0943Z" fill="#62DBFB"/>
<path d="M43.9454 25.0259H20.3051C19.905 25.0259 19.5806 24.7016 19.5806 24.3013C19.5806 23.9011 19.905 23.5768 20.3051 23.5768H43.9454C44.3457 23.5768 44.67 23.9011 44.67 24.3013C44.67 24.7016 44.3457 25.0259 43.9454 25.0259Z" fill="#7CA1B1"/>
<path d="M43.9454 29.5849H20.3051C19.905 29.5849 19.5806 29.2605 19.5806 28.8603C19.5806 28.4601 19.905 28.1357 20.3051 28.1357H43.9454C44.3457 28.1357 44.67 28.4601 44.67 28.8603C44.67 29.2605 44.3457 29.5849 43.9454 29.5849Z" fill="#7CA1B1"/>
<path d="M38.0541 34.1437H20.3051C19.905 34.1437 19.5806 33.8194 19.5806 33.4191C19.5806 33.0189 19.905 32.6946 20.3051 32.6946H38.0541C38.4543 32.6946 38.7787 33.0189 38.7787 33.4191C38.7787 33.8194 38.4543 34.1437 38.0541 34.1437Z" fill="#7CA1B1"/>
<path d="M27.4062 38.7025H20.3051C19.905 38.7025 19.5806 38.3782 19.5806 37.978C19.5806 37.5777 19.905 37.2534 20.3051 37.2534H27.4062C27.8063 37.2534 28.1307 37.5777 28.1307 37.978C28.1307 38.3782 27.8064 38.7025 27.4062 38.7025Z" fill="#7CA1B1"/>
<path d="M27.8222 52.8248C27.7362 52.8248 27.6486 52.8223 27.5594 52.8171C26.4125 52.7502 25.7394 52.1533 25.1455 51.6267C24.5884 51.1326 24.1484 50.7424 23.3184 50.6987C21.7218 50.6159 20.9313 52.0074 20.8984 52.0666C20.7055 52.4151 20.2663 52.5445 19.9164 52.3537C19.5667 52.1628 19.4355 51.7277 19.624 51.3768C19.6736 51.2845 20.8655 49.1194 23.3946 49.2517C24.7306 49.3221 25.4938 49.9987 26.107 50.5425C26.6244 51.0013 26.9983 51.3329 27.6437 51.3705C29.3598 51.4721 30.1774 50.0315 30.1855 50.0169C30.3795 49.6668 30.8204 49.5403 31.1704 49.7342C31.5204 49.9282 31.6469 50.3691 31.4531 50.7191C31.404 50.8079 30.2575 52.8247 27.8222 52.8248Z" fill="#80B4FB"/>
</g>
<defs>
<clipPath id="clip0_4021_10459">
<rect width="48" height="48" fill="white" transform="translate(15 11)"/>
</clipPath>
</defs>
</svg>
