<svg width="70" height="70" viewBox="0 0 70 70" fill="none" xmlns="http://www.w3.org/2000/svg">
<rect width="70" height="70" rx="24" fill="#26A6FE" fill-opacity="0.1"/>
<path d="M59 24.0731L35 26.5298L11 24.0731V20.3658C11 19.2881 11.8736 18.4146 12.9512 18.4146H57.0488C58.1264 18.4146 59 19.2881 59 20.3658V24.0731Z" fill="#60B7FF"/>
<path d="M57.0487 18.4146H54.1218C55.1995 18.4146 56.073 19.2881 56.073 20.3658V25.4211L58.9999 24.0731V20.3658C58.9999 19.2882 58.1264 18.4146 57.0487 18.4146Z" fill="#26A6FE"/>
<path d="M57.0488 51.5854H12.9512C11.8736 51.5854 11 50.7117 11 49.6342V24.0732H59V49.6342C59 50.7117 58.1264 51.5854 57.0488 51.5854Z" fill="white"/>
<path d="M56.073 24.0731V49.6341C56.073 50.7117 55.1995 51.5853 54.1218 51.5853H57.0487C58.1264 51.5853 58.9999 50.7117 58.9999 49.6341V24.0731H56.073Z" fill="#F7F7F7"/>
<path d="M28.8335 29.6341V28.0732C28.8335 27.6421 29.1829 27.2927 29.614 27.2927H55.2927C55.7237 27.2927 56.0731 27.6421 56.0731 28.0732V29.6341C56.0731 30.0652 55.7237 30.4146 55.2927 30.4146H29.614C29.1829 30.4146 28.8335 30.0652 28.8335 29.6341Z" fill="#60B7FF"/>
<path d="M55.2926 27.2927H52.3657C52.7968 27.2927 53.1462 27.6421 53.1462 28.0732V29.6341C53.1462 30.0652 52.7968 30.4146 52.3657 30.4146H55.2926C55.7237 30.4146 56.0731 30.0652 56.0731 29.6341V28.0732C56.0731 27.6421 55.7237 27.2927 55.2926 27.2927Z" fill="#26A6FE"/>
<path d="M13.9689 41.0395H25.592C25.6192 40.9498 25.6341 40.8547 25.6341 40.7561V28.2683C25.6341 27.7295 25.1973 27.2927 24.6585 27.2927H14.9024C14.3636 27.2927 13.9268 27.7295 13.9268 28.2683V40.7561C13.9268 40.8547 13.9418 40.9498 13.9689 41.0395Z" fill="#FD8087"/>
<path d="M19.7805 35.878C21.343 35.878 22.6097 34.6113 22.6097 33.0488C22.6097 31.4862 21.343 30.2195 19.7805 30.2195C18.2179 30.2195 16.9512 31.4862 16.9512 33.0488C16.9512 34.6113 18.2179 35.878 19.7805 35.878Z" fill="#FED2A4"/>
<path d="M25.5921 41.0395C25.2495 38.133 22.7791 35.8781 19.7806 35.8781C16.7821 35.8781 14.3117 38.1331 13.969 41.0395C14.0904 41.44 14.4623 41.7317 14.9025 41.7317H24.6586C25.0989 41.7317 25.4707 41.4401 25.5921 41.0395Z" fill="#FFE177"/>
<path d="M25.5919 41.0395C25.2493 38.133 22.7789 35.8781 19.7804 35.8781C19.2759 35.8781 18.7869 35.9433 18.3198 36.0633C20.843 36.7141 22.7071 39.0052 22.7071 41.7317H24.6584C25.0987 41.7317 25.4705 41.4401 25.5919 41.0395Z" fill="#FFD15B"/>
<path d="M32.6586 34.0446H29.5366C29.1483 34.0446 28.8335 33.7297 28.8335 33.3414C28.8335 32.9531 29.1483 32.6383 29.5366 32.6383H32.6586C33.0469 32.6383 33.3617 32.9531 33.3617 33.3414C33.3617 33.7297 33.047 34.0446 32.6586 34.0446Z" fill="#B3DAFE"/>
<path d="M38.7074 37.1665H35.5854C35.1971 37.1665 34.8823 36.8517 34.8823 36.4634C34.8823 36.0751 35.1971 35.7603 35.5854 35.7603H38.7074C39.0957 35.7603 39.4105 36.0751 39.4105 36.4634C39.4105 36.8517 39.0957 37.1665 38.7074 37.1665Z" fill="#B3DAFE"/>
<path d="M38.7074 43.4104H35.5854C35.1971 43.4104 34.8823 43.0956 34.8823 42.7073C34.8823 42.319 35.1971 42.0042 35.5854 42.0042H38.7074C39.0957 42.0042 39.4105 42.319 39.4105 42.7073C39.4105 43.0956 39.0957 43.4104 38.7074 43.4104Z" fill="#B3DAFE"/>
<path d="M44.756 37.1665H41.634C41.2457 37.1665 40.9309 36.8517 40.9309 36.4634C40.9309 36.0751 41.2457 35.7603 41.634 35.7603H44.756C45.1443 35.7603 45.4591 36.0751 45.4591 36.4634C45.4591 36.8517 45.1443 37.1665 44.756 37.1665Z" fill="#B3DAFE"/>
<path d="M51.1952 34.0446H35.5854C35.1971 34.0446 34.8823 33.7297 34.8823 33.3414C34.8823 32.9531 35.1971 32.6383 35.5854 32.6383H51.1952C51.5835 32.6383 51.8983 32.9531 51.8983 33.3414C51.8983 33.7297 51.5835 34.0446 51.1952 34.0446Z" fill="#B3DAFE"/>
<path d="M32.6586 40.2885H29.5366C29.1483 40.2885 28.8335 39.9736 28.8335 39.5853C28.8335 39.197 29.1483 38.8822 29.5366 38.8822H32.6586C33.0469 38.8822 33.3617 39.197 33.3617 39.5853C33.3617 39.9736 33.047 40.2885 32.6586 40.2885Z" fill="#B3DAFE"/>
<path d="M51.1952 40.2885H35.5854C35.1971 40.2885 34.8823 39.9736 34.8823 39.5853C34.8823 39.197 35.1971 38.8822 35.5854 38.8822H51.1952C51.5835 38.8822 51.8983 39.197 51.8983 39.5853C51.8983 39.9736 51.5835 40.2885 51.1952 40.2885Z" fill="#B3DAFE"/>
<path d="M55.3699 49.3616C54.9816 49.3616 54.6667 49.0468 54.6667 48.6585V45.5365C54.6667 45.1482 54.9816 44.8334 55.3699 44.8334C55.7582 44.8334 56.073 45.1482 56.073 45.5365V48.6585C56.073 49.0468 55.7583 49.3616 55.3699 49.3616Z" fill="#7A6D79"/>
<path d="M52.4431 48.386C52.0548 48.386 51.74 48.0712 51.74 47.6829V45.5365C51.74 45.1482 52.0548 44.8334 52.4431 44.8334C52.8314 44.8334 53.1462 45.1482 53.1462 45.5365V47.6829C53.1462 48.0712 52.8314 48.386 52.4431 48.386Z" fill="#7A6D79"/>
<path d="M49.5164 49.3616C49.128 49.3616 48.8132 49.0468 48.8132 48.6585V45.5365C48.8132 45.1482 49.128 44.8334 49.5164 44.8334C49.9047 44.8334 50.2195 45.1482 50.2195 45.5365V48.6585C50.2195 49.0468 49.9047 49.3616 49.5164 49.3616Z" fill="#7A6D79"/>
<path d="M46.5896 48.386C46.2013 48.386 45.8865 48.0712 45.8865 47.6829V45.5365C45.8865 45.1482 46.2013 44.8334 46.5896 44.8334C46.9779 44.8334 47.2927 45.1482 47.2927 45.5365V47.6829C47.2927 48.0712 46.9779 48.386 46.5896 48.386Z" fill="#7A6D79"/>
<path d="M43.6626 48.386C43.2743 48.386 42.9595 48.0712 42.9595 47.6829V45.5365C42.9595 45.1482 43.2743 44.8334 43.6626 44.8334C44.0509 44.8334 44.3657 45.1482 44.3657 45.5365V47.6829C44.3657 48.0712 44.0509 48.386 43.6626 48.386Z" fill="#7A6D79"/>
<path d="M40.7358 49.3616C40.3475 49.3616 40.0327 49.0468 40.0327 48.6585V45.5365C40.0327 45.1482 40.3475 44.8334 40.7358 44.8334C41.1242 44.8334 41.439 45.1482 41.439 45.5365V48.6585C41.439 49.0468 41.1242 49.3616 40.7358 49.3616Z" fill="#7A6D79"/>
</svg>
