<svg width="48" height="49" viewBox="0 0 48 49" fill="none" xmlns="http://www.w3.org/2000/svg">
<path d="M19.9484 41.7202H10.4534C8.74044 41.7202 7.34844 40.3267 7.34844 38.6152V8.15021C7.34844 6.43721 8.74194 5.04521 10.4534 5.04521H22.2149C22.3829 5.04521 22.5449 5.06771 22.7084 5.09321V11.7052C22.7084 14.1697 24.7139 16.1752 27.1784 16.1752H33.7904C33.8174 16.3387 33.8384 16.5037 33.8384 16.6732V22.2667C33.8384 23.0122 34.4429 23.6167 35.1884 23.6167C35.9339 23.6167 36.5384 23.0122 36.5384 22.2667V16.6732C36.5384 15.1222 35.9339 13.6627 34.8359 12.5662L26.3159 4.04471C25.2194 2.94821 23.7629 2.34521 22.2149 2.34521H10.4534C7.25244 2.34521 4.64844 4.94921 4.64844 8.15021V38.6152C4.64844 41.8162 7.25244 44.4202 10.4534 44.4202H19.9484C20.6939 44.4202 21.2984 43.8157 21.2984 43.0702C21.2984 42.3247 20.6939 41.7202 19.9484 41.7202ZM31.9289 13.4752H27.1769C26.2004 13.4752 25.4069 12.6817 25.4069 11.7052V6.95321L31.9289 13.4752Z" fill="black"/>
<path d="M19.9484 41.7202H10.4534C8.74044 41.7202 7.34844 40.3267 7.34844 38.6152V8.15021C7.34844 6.43721 8.74194 5.04521 10.4534 5.04521H22.2149C22.3829 5.04521 22.5449 5.06771 22.7084 5.09321V11.7052C22.7084 14.1697 24.7139 16.1752 27.1784 16.1752H33.7904C33.8174 16.3387 33.8384 16.5037 33.8384 16.6732V22.2667C33.8384 23.0122 34.4429 23.6167 35.1884 23.6167C35.9339 23.6167 36.5384 23.0122 36.5384 22.2667V16.6732C36.5384 15.1222 35.9339 13.6627 34.8359 12.5662L26.3159 4.04471C25.2194 2.94821 23.7629 2.34521 22.2149 2.34521H10.4534C7.25244 2.34521 4.64844 4.94921 4.64844 8.15021V38.6152C4.64844 41.8162 7.25244 44.4202 10.4534 44.4202H19.9484C20.6939 44.4202 21.2984 43.8157 21.2984 43.0702C21.2984 42.3247 20.6939 41.7202 19.9484 41.7202ZM31.9289 13.4752H27.1769C26.2004 13.4752 25.4069 12.6817 25.4069 11.7052V6.95321L31.9289 13.4752Z" fill="url(#paint0_linear_3940_9376)"/>
<path d="M11.6273 22.6238H29.5568C30.3023 22.6238 30.9068 22.0193 30.9068 21.2738C30.9068 20.5283 30.3023 19.9238 29.5568 19.9238H11.6273C10.8818 19.9238 10.2773 20.5283 10.2773 21.2738C10.2773 22.0193 10.8818 22.6238 11.6273 22.6238Z" fill="black"/>
<path d="M11.6273 22.6238H29.5568C30.3023 22.6238 30.9068 22.0193 30.9068 21.2738C30.9068 20.5283 30.3023 19.9238 29.5568 19.9238H11.6273C10.8818 19.9238 10.2773 20.5283 10.2773 21.2738C10.2773 22.0193 10.8818 22.6238 11.6273 22.6238Z" fill="url(#paint1_linear_3940_9376)"/>
<path d="M11.6273 15.3577H18.8153C19.5608 15.3577 20.1653 14.7532 20.1653 14.0077C20.1653 13.2622 19.5608 12.6577 18.8153 12.6577H11.6273C10.8818 12.6577 10.2773 13.2622 10.2773 14.0077C10.2773 14.7532 10.8818 15.3577 11.6273 15.3577Z" fill="black"/>
<path d="M11.6273 15.3577H18.8153C19.5608 15.3577 20.1653 14.7532 20.1653 14.0077C20.1653 13.2622 19.5608 12.6577 18.8153 12.6577H11.6273C10.8818 12.6577 10.2773 13.2622 10.2773 14.0077C10.2773 14.7532 10.8818 15.3577 11.6273 15.3577Z" fill="url(#paint2_linear_3940_9376)"/>
<path d="M20.7884 27.1851H11.6234C10.8779 27.1851 10.2734 27.7896 10.2734 28.5351C10.2734 29.2806 10.8779 29.8851 11.6234 29.8851H20.7884C21.5339 29.8851 22.1384 29.2806 22.1384 28.5351C22.1384 27.7896 21.5339 27.1851 20.7884 27.1851Z" fill="black"/>
<path d="M20.7884 27.1851H11.6234C10.8779 27.1851 10.2734 27.7896 10.2734 28.5351C10.2734 29.2806 10.8779 29.8851 11.6234 29.8851H20.7884C21.5339 29.8851 22.1384 29.2806 22.1384 28.5351C22.1384 27.7896 21.5339 27.1851 20.7884 27.1851Z" fill="url(#paint3_linear_3940_9376)"/>
<path d="M11.6234 37.16H18.3884C19.1339 37.16 19.7384 36.5555 19.7384 35.81C19.7384 35.0645 19.1339 34.46 18.3884 34.46H11.6234C10.8779 34.46 10.2734 35.0645 10.2734 35.81C10.2734 36.5555 10.8764 37.16 11.6234 37.16Z" fill="black"/>
<path d="M11.6234 37.16H18.3884C19.1339 37.16 19.7384 36.5555 19.7384 35.81C19.7384 35.0645 19.1339 34.46 18.3884 34.46H11.6234C10.8779 34.46 10.2734 35.0645 10.2734 35.81C10.2734 36.5555 10.8764 37.16 11.6234 37.16Z" fill="url(#paint4_linear_3940_9376)"/>
<path d="M32.8148 25.9702C27.0038 25.9702 22.2773 30.6967 22.2773 36.5077C22.2773 42.3187 27.0038 47.0452 32.8148 47.0452C38.6258 47.0452 43.3523 42.3187 43.3523 36.5077C43.3523 30.6967 38.6258 25.9702 32.8148 25.9702ZM32.8148 44.3452C28.4933 44.3452 24.9773 40.8292 24.9773 36.5077C24.9773 32.1862 28.4933 28.6702 32.8148 28.6702C37.1363 28.6702 40.6523 32.1862 40.6523 36.5077C40.6523 40.8292 37.1363 44.3452 32.8148 44.3452Z" fill="black"/>
<path d="M32.8148 25.9702C27.0038 25.9702 22.2773 30.6967 22.2773 36.5077C22.2773 42.3187 27.0038 47.0452 32.8148 47.0452C38.6258 47.0452 43.3523 42.3187 43.3523 36.5077C43.3523 30.6967 38.6258 25.9702 32.8148 25.9702ZM32.8148 44.3452C28.4933 44.3452 24.9773 40.8292 24.9773 36.5077C24.9773 32.1862 28.4933 28.6702 32.8148 28.6702C37.1363 28.6702 40.6523 32.1862 40.6523 36.5077C40.6523 40.8292 37.1363 44.3452 32.8148 44.3452Z" fill="url(#paint5_linear_3940_9376)"/>
<path d="M33.8184 32.1081C33.5619 31.8246 33.1974 31.6611 32.8149 31.6611C32.4324 31.6611 32.0679 31.8231 31.8114 32.1081L29.5404 34.6296C29.0409 35.1831 29.0859 36.0366 29.6409 36.5361C30.1674 37.0101 30.9594 36.9771 31.4649 36.4971V40.0041C31.4649 40.7496 32.0694 41.3541 32.8149 41.3541C33.5604 41.3541 34.1649 40.7496 34.1649 40.0041V36.4956C34.4229 36.7416 34.7484 36.8826 35.0859 36.8826C35.4069 36.8826 35.7309 36.7686 35.9889 36.5361C36.5439 36.0366 36.5874 35.1846 36.0894 34.6296L33.8184 32.1081Z" fill="black"/>
<path d="M33.8184 32.1081C33.5619 31.8246 33.1974 31.6611 32.8149 31.6611C32.4324 31.6611 32.0679 31.8231 31.8114 32.1081L29.5404 34.6296C29.0409 35.1831 29.0859 36.0366 29.6409 36.5361C30.1674 37.0101 30.9594 36.9771 31.4649 36.4971V40.0041C31.4649 40.7496 32.0694 41.3541 32.8149 41.3541C33.5604 41.3541 34.1649 40.7496 34.1649 40.0041V36.4956C34.4229 36.7416 34.7484 36.8826 35.0859 36.8826C35.4069 36.8826 35.7309 36.7686 35.9889 36.5361C36.5439 36.0366 36.5874 35.1846 36.0894 34.6296L33.8184 32.1081Z" fill="url(#paint6_linear_3940_9376)"/>
<defs>
<linearGradient id="paint0_linear_3940_9376" x1="-0.666562" y1="6.10191" x2="47.1993" y2="31.9676" gradientUnits="userSpaceOnUse">
<stop stop-color="#4BFFAE"/>
<stop offset="1" stop-color="#1F75FF"/>
</linearGradient>
<linearGradient id="paint1_linear_3940_9376" x1="6.83909" y1="20.1649" x2="8.1433" y2="27.2695" gradientUnits="userSpaceOnUse">
<stop stop-color="#4BFFAE"/>
<stop offset="1" stop-color="#1F75FF"/>
</linearGradient>
<linearGradient id="paint2_linear_3940_9376" x1="8.62934" y1="12.8988" x2="11.0822" y2="19.3034" gradientUnits="userSpaceOnUse">
<stop stop-color="#4BFFAE"/>
<stop offset="1" stop-color="#1F75FF"/>
</linearGradient>
<linearGradient id="paint3_linear_3940_9376" x1="8.29594" y1="27.4261" x2="10.4232" y2="34.0912" gradientUnits="userSpaceOnUse">
<stop stop-color="#4BFFAE"/>
<stop offset="1" stop-color="#1F75FF"/>
</linearGradient>
<linearGradient id="paint4_linear_3940_9376" x1="8.69594" y1="34.701" x2="11.2288" y2="41.0316" gradientUnits="userSpaceOnUse">
<stop stop-color="#4BFFAE"/>
<stop offset="1" stop-color="#1F75FF"/>
</linearGradient>
<linearGradient id="paint5_linear_3940_9376" x1="18.7648" y1="27.8519" x2="45.8613" y2="47.1707" gradientUnits="userSpaceOnUse">
<stop stop-color="#4BFFAE"/>
<stop offset="1" stop-color="#1F75FF"/>
</linearGradient>
<linearGradient id="paint6_linear_3940_9376" x1="27.9863" y1="32.5266" x2="38.9267" y2="38.3548" gradientUnits="userSpaceOnUse">
<stop stop-color="#4BFFAE"/>
<stop offset="1" stop-color="#1F75FF"/>
</linearGradient>
</defs>
</svg>
