<svg width="48" height="49" viewBox="0 0 48 49" fill="none" xmlns="http://www.w3.org/2000/svg">
<path fill-rule="evenodd" clip-rule="evenodd" d="M43.2527 5.44182C41.9185 4.11048 40.1108 3.36249 38.226 3.36182H9.77268C7.88788 3.36182 6.08027 4.11055 4.74751 5.44331C3.41475 6.77607 2.66602 8.58368 2.66602 10.4685V38.9218C2.66602 40.8066 3.41475 42.6142 4.74751 43.947C6.08027 45.2798 7.88788 46.0285 9.77268 46.0285H38.226C40.1108 46.0285 41.9184 45.2798 43.2512 43.947C44.584 42.6142 45.3327 40.8066 45.3327 38.9218V10.4685C45.332 8.58367 44.584 6.77601 43.2527 5.44182ZM6.75935 7.45515C7.55884 6.65578 8.64213 6.20521 9.77268 6.20182H38.226C39.3565 6.20533 40.4397 6.65598 41.2391 7.45538C42.0385 8.25477 42.4892 9.33797 42.4927 10.4685V14.7351H5.50602V10.4685C5.50941 9.33793 5.95998 8.25464 6.75935 7.45515ZM41.2393 41.9352C40.4399 42.7345 39.3566 43.1851 38.226 43.1885H9.77268C8.64217 43.185 7.55897 42.7343 6.75958 41.9349C5.96018 41.1355 5.50953 40.0523 5.50602 38.9218V17.5885H42.4927V38.9218C42.4893 40.0524 42.0387 41.1357 41.2393 41.9352Z" fill="black"/>
<path fill-rule="evenodd" clip-rule="evenodd" d="M43.2527 5.44182C41.9185 4.11048 40.1108 3.36249 38.226 3.36182H9.77268C7.88788 3.36182 6.08027 4.11055 4.74751 5.44331C3.41475 6.77607 2.66602 8.58368 2.66602 10.4685V38.9218C2.66602 40.8066 3.41475 42.6142 4.74751 43.947C6.08027 45.2798 7.88788 46.0285 9.77268 46.0285H38.226C40.1108 46.0285 41.9184 45.2798 43.2512 43.947C44.584 42.6142 45.3327 40.8066 45.3327 38.9218V10.4685C45.332 8.58367 44.584 6.77601 43.2527 5.44182ZM6.75935 7.45515C7.55884 6.65578 8.64213 6.20521 9.77268 6.20182H38.226C39.3565 6.20533 40.4397 6.65598 41.2391 7.45538C42.0385 8.25477 42.4892 9.33797 42.4927 10.4685V14.7351H5.50602V10.4685C5.50941 9.33793 5.95998 8.25464 6.75935 7.45515ZM41.2393 41.9352C40.4399 42.7345 39.3566 43.1851 38.226 43.1885H9.77268C8.64217 43.185 7.55897 42.7343 6.75958 41.9349C5.96018 41.1355 5.50953 40.0523 5.50602 38.9218V17.5885H42.4927V38.9218C42.4893 40.0524 42.0387 41.1357 41.2393 41.9352Z" fill="url(#paint0_linear_3940_9385)"/>
<path fill-rule="evenodd" clip-rule="evenodd" d="M15.4668 24.6953H14.0401C12.9096 24.6988 11.8264 25.1495 11.027 25.9489C10.2276 26.7483 9.77695 27.8315 9.77344 28.962V36.0686C9.77344 36.447 9.92375 36.8099 10.1913 37.0775C10.4589 37.345 10.8217 37.4953 11.2001 37.4953C11.5785 37.4953 11.9414 37.345 12.2089 37.0775C12.4765 36.8099 12.6268 36.447 12.6268 36.0686V34.3486H16.8934V36.0686C16.8742 36.2667 16.8966 36.4666 16.9593 36.6554C17.0219 36.8443 17.1233 37.0179 17.257 37.1653C17.3908 37.3126 17.5538 37.4303 17.7358 37.5109C17.9177 37.5915 18.1145 37.6331 18.3134 37.6331C18.5124 37.6331 18.7092 37.5915 18.8911 37.5109C19.073 37.4303 19.2361 37.3126 19.3698 37.1653C19.5036 37.0179 19.605 36.8443 19.6676 36.6554C19.7302 36.4666 19.7527 36.2667 19.7334 36.0686V28.962C19.7299 27.8315 19.2793 26.7483 18.4799 25.9489C17.6805 25.1495 16.5973 24.6988 15.4668 24.6953ZM12.6268 31.4953V28.962C12.6219 28.7757 12.6562 28.5904 12.7274 28.4182C12.7986 28.2459 12.9051 28.0905 13.0401 27.962C13.3041 27.6933 13.6635 27.54 14.0401 27.5353H15.4668C15.843 27.5422 16.2019 27.6947 16.468 27.9607C16.7341 28.2268 16.8866 28.5857 16.8934 28.962V31.4953H12.6268Z" fill="black"/>
<path fill-rule="evenodd" clip-rule="evenodd" d="M15.4668 24.6953H14.0401C12.9096 24.6988 11.8264 25.1495 11.027 25.9489C10.2276 26.7483 9.77695 27.8315 9.77344 28.962V36.0686C9.77344 36.447 9.92375 36.8099 10.1913 37.0775C10.4589 37.345 10.8217 37.4953 11.2001 37.4953C11.5785 37.4953 11.9414 37.345 12.2089 37.0775C12.4765 36.8099 12.6268 36.447 12.6268 36.0686V34.3486H16.8934V36.0686C16.8742 36.2667 16.8966 36.4666 16.9593 36.6554C17.0219 36.8443 17.1233 37.0179 17.257 37.1653C17.3908 37.3126 17.5538 37.4303 17.7358 37.5109C17.9177 37.5915 18.1145 37.6331 18.3134 37.6331C18.5124 37.6331 18.7092 37.5915 18.8911 37.5109C19.073 37.4303 19.2361 37.3126 19.3698 37.1653C19.5036 37.0179 19.605 36.8443 19.6676 36.6554C19.7302 36.4666 19.7527 36.2667 19.7334 36.0686V28.962C19.7299 27.8315 19.2793 26.7483 18.4799 25.9489C17.6805 25.1495 16.5973 24.6988 15.4668 24.6953ZM12.6268 31.4953V28.962C12.6219 28.7757 12.6562 28.5904 12.7274 28.4182C12.7986 28.2459 12.9051 28.0905 13.0401 27.962C13.3041 27.6933 13.6635 27.54 14.0401 27.5353H15.4668C15.843 27.5422 16.2019 27.6947 16.468 27.9607C16.7341 28.2268 16.8866 28.5857 16.8934 28.962V31.4953H12.6268Z" fill="url(#paint1_linear_3940_9385)"/>
<path fill-rule="evenodd" clip-rule="evenodd" d="M28.4656 24.6953H23.9989C23.6206 24.6953 23.2577 24.8456 22.9901 25.1132C22.7226 25.3807 22.5723 25.7436 22.5723 26.122V36.0686C22.5723 36.447 22.7226 36.8099 22.9901 37.0775C23.2577 37.345 23.6206 37.4953 23.9989 37.4953C24.3773 37.4953 24.7402 37.345 25.0077 37.0775C25.2753 36.8099 25.4256 36.447 25.4256 36.0686V34.3486H28.4656C29.5999 34.3444 30.687 33.8942 31.4923 33.0953C31.8939 32.6933 32.2106 32.2147 32.4237 31.6879C32.6367 31.1611 32.7416 30.5968 32.7323 30.0286V28.962C32.7345 28.4027 32.6261 27.8486 32.4133 27.3314C32.2005 26.8143 31.8875 26.3443 31.4923 25.9486C30.687 25.1497 29.5999 24.6995 28.4656 24.6953ZM29.8923 30.0286C29.8924 30.2143 29.856 30.3982 29.7851 30.5698C29.7142 30.7414 29.6101 30.8973 29.4789 31.0286C29.2087 31.2944 28.8446 31.4429 28.4656 31.442H25.4256V27.442H28.4656C28.8462 27.446 29.2101 27.5992 29.4789 27.8686C29.6139 27.9972 29.7204 28.1526 29.7916 28.3248C29.8628 28.4971 29.8971 28.6823 29.8923 28.8686V30.0286Z" fill="black"/>
<path fill-rule="evenodd" clip-rule="evenodd" d="M28.4656 24.6953H23.9989C23.6206 24.6953 23.2577 24.8456 22.9901 25.1132C22.7226 25.3807 22.5723 25.7436 22.5723 26.122V36.0686C22.5723 36.447 22.7226 36.8099 22.9901 37.0775C23.2577 37.345 23.6206 37.4953 23.9989 37.4953C24.3773 37.4953 24.7402 37.345 25.0077 37.0775C25.2753 36.8099 25.4256 36.447 25.4256 36.0686V34.3486H28.4656C29.5999 34.3444 30.687 33.8942 31.4923 33.0953C31.8939 32.6933 32.2106 32.2147 32.4237 31.6879C32.6367 31.1611 32.7416 30.5968 32.7323 30.0286V28.962C32.7345 28.4027 32.6261 27.8486 32.4133 27.3314C32.2005 26.8143 31.8875 26.3443 31.4923 25.9486C30.687 25.1497 29.5999 24.6995 28.4656 24.6953ZM29.8923 30.0286C29.8924 30.2143 29.856 30.3982 29.7851 30.5698C29.7142 30.7414 29.6101 30.8973 29.4789 31.0286C29.2087 31.2944 28.8446 31.4429 28.4656 31.442H25.4256V27.442H28.4656C28.8462 27.446 29.2101 27.5992 29.4789 27.8686C29.6139 27.9972 29.7204 28.1526 29.7916 28.3248C29.8628 28.4971 29.8971 28.6823 29.8923 28.8686V30.0286Z" fill="url(#paint2_linear_3940_9385)"/>
<path fill-rule="evenodd" clip-rule="evenodd" d="M36.7997 24.6953C36.4213 24.6953 36.0585 24.8456 35.7909 25.1132C35.5234 25.3807 35.373 25.7436 35.373 26.122V36.0686C35.373 36.447 35.5234 36.8099 35.7909 37.0775C36.0585 37.345 36.4213 37.4953 36.7997 37.4953C37.1781 37.4953 37.541 37.345 37.8085 37.0775C38.0761 36.8099 38.2264 36.447 38.2264 36.0686V26.122C38.2264 25.7436 38.0761 25.3807 37.8085 25.1132C37.541 24.8456 37.1781 24.6953 36.7997 24.6953Z" fill="black"/>
<path fill-rule="evenodd" clip-rule="evenodd" d="M36.7997 24.6953C36.4213 24.6953 36.0585 24.8456 35.7909 25.1132C35.5234 25.3807 35.373 25.7436 35.373 26.122V36.0686C35.373 36.447 35.5234 36.8099 35.7909 37.0775C36.0585 37.345 36.4213 37.4953 36.7997 37.4953C37.1781 37.4953 37.541 37.345 37.8085 37.0775C38.0761 36.8099 38.2264 36.447 38.2264 36.0686V26.122C38.2264 25.7436 38.0761 25.3807 37.8085 25.1132C37.541 24.8456 37.1781 24.6953 36.7997 24.6953Z" fill="url(#paint3_linear_3940_9385)"/>
<path fill-rule="evenodd" clip-rule="evenodd" d="M11.2001 11.8953C11.4823 11.8953 11.7581 11.8117 11.9927 11.6549C12.2273 11.4981 12.4102 11.2753 12.5182 11.0146C12.6262 10.7539 12.6544 10.4671 12.5994 10.1903C12.5443 9.91358 12.4084 9.65938 12.2089 9.45985C12.0094 9.26033 11.7552 9.12445 11.4784 9.06941C11.2017 9.01436 10.9148 9.04261 10.6541 9.15059C10.3935 9.25857 10.1706 9.44143 10.0139 9.67605C9.85711 9.91066 9.77344 10.1865 9.77344 10.4687C9.77344 10.847 9.92375 11.2099 10.1913 11.4775C10.4589 11.745 10.8217 11.8953 11.2001 11.8953Z" fill="black"/>
<path fill-rule="evenodd" clip-rule="evenodd" d="M11.2001 11.8953C11.4823 11.8953 11.7581 11.8117 11.9927 11.6549C12.2273 11.4981 12.4102 11.2753 12.5182 11.0146C12.6262 10.7539 12.6544 10.4671 12.5994 10.1903C12.5443 9.91358 12.4084 9.65938 12.2089 9.45985C12.0094 9.26033 11.7552 9.12445 11.4784 9.06941C11.2017 9.01436 10.9148 9.04261 10.6541 9.15059C10.3935 9.25857 10.1706 9.44143 10.0139 9.67605C9.85711 9.91066 9.77344 10.1865 9.77344 10.4687C9.77344 10.847 9.92375 11.2099 10.1913 11.4775C10.4589 11.745 10.8217 11.8953 11.2001 11.8953Z" fill="url(#paint4_linear_3940_9385)"/>
<path fill-rule="evenodd" clip-rule="evenodd" d="M16.8935 11.8953C17.1757 11.8953 17.4515 11.8117 17.6861 11.6549C17.9208 11.4981 18.1036 11.2753 18.2116 11.0146C18.3196 10.7539 18.3478 10.4671 18.2928 10.1903C18.2377 9.91358 18.1019 9.65938 17.9023 9.45985C17.7028 9.26033 17.4486 9.12445 17.1719 9.06941C16.8951 9.01436 16.6083 9.04261 16.3476 9.15059C16.0869 9.25857 15.8641 9.44143 15.7073 9.67605C15.5505 9.91066 15.4669 10.1865 15.4669 10.4687C15.4651 10.6565 15.5008 10.8428 15.5718 11.0167C15.6429 11.1906 15.7479 11.3486 15.8808 11.4814C16.0136 11.6143 16.1716 11.7193 16.3455 11.7904C16.5194 11.8614 16.7057 11.8971 16.8935 11.8953Z" fill="black"/>
<path fill-rule="evenodd" clip-rule="evenodd" d="M16.8935 11.8953C17.1757 11.8953 17.4515 11.8117 17.6861 11.6549C17.9208 11.4981 18.1036 11.2753 18.2116 11.0146C18.3196 10.7539 18.3478 10.4671 18.2928 10.1903C18.2377 9.91358 18.1019 9.65938 17.9023 9.45985C17.7028 9.26033 17.4486 9.12445 17.1719 9.06941C16.8951 9.01436 16.6083 9.04261 16.3476 9.15059C16.0869 9.25857 15.8641 9.44143 15.7073 9.67605C15.5505 9.91066 15.4669 10.1865 15.4669 10.4687C15.4651 10.6565 15.5008 10.8428 15.5718 11.0167C15.6429 11.1906 15.7479 11.3486 15.8808 11.4814C16.0136 11.6143 16.1716 11.7193 16.3455 11.7904C16.5194 11.8614 16.7057 11.8971 16.8935 11.8953Z" fill="url(#paint5_linear_3940_9385)"/>
<defs>
<linearGradient id="paint0_linear_3940_9385" x1="-4.4451" y1="7.17134" x2="50.412" y2="46.2825" gradientUnits="userSpaceOnUse">
<stop stop-color="#4BFFAE"/>
<stop offset="1" stop-color="#1F75FF"/>
</linearGradient>
<linearGradient id="paint1_linear_3940_9385" x1="8.11233" y1="25.8505" x2="22.9611" y2="34.0059" gradientUnits="userSpaceOnUse">
<stop stop-color="#4BFFAE"/>
<stop offset="1" stop-color="#1F75FF"/>
</linearGradient>
<linearGradient id="paint2_linear_3940_9385" x1="20.8788" y1="25.8382" x2="35.8028" y2="34.2843" gradientUnits="userSpaceOnUse">
<stop stop-color="#4BFFAE"/>
<stop offset="1" stop-color="#1F75FF"/>
</linearGradient>
<linearGradient id="paint3_linear_3940_9385" x1="34.8975" y1="25.8382" x2="40.2945" y2="26.6959" gradientUnits="userSpaceOnUse">
<stop stop-color="#4BFFAE"/>
<stop offset="1" stop-color="#1F75FF"/>
</linearGradient>
<linearGradient id="paint4_linear_3940_9385" x1="9.29788" y1="9.29675" x2="12.9665" y2="11.9123" gradientUnits="userSpaceOnUse">
<stop stop-color="#4BFFAE"/>
<stop offset="1" stop-color="#1F75FF"/>
</linearGradient>
<linearGradient id="paint5_linear_3940_9385" x1="14.9912" y1="9.29676" x2="18.6599" y2="11.9124" gradientUnits="userSpaceOnUse">
<stop stop-color="#4BFFAE"/>
<stop offset="1" stop-color="#1F75FF"/>
</linearGradient>
</defs>
</svg>
