<svg width="48" height="49" viewBox="0 0 48 49" fill="none" xmlns="http://www.w3.org/2000/svg">
<g clip-path="url(#clip0_3940_9349)">
<path d="M31.0876 18.0766C30.5064 18.0766 30.0283 17.6078 30.0189 17.0172L30.0001 14.6641C29.9908 14.0734 30.4689 13.5953 31.0595 13.5859H31.0689C31.6501 13.5859 32.1283 14.0547 32.1376 14.6453L32.1564 16.9984C32.1658 17.5891 31.6876 18.0672 31.097 18.0766C31.0876 18.0766 31.0876 18.0766 31.0876 18.0766Z" fill="black"/>
<path d="M31.0876 18.0766C30.5064 18.0766 30.0283 17.6078 30.0189 17.0172L30.0001 14.6641C29.9908 14.0734 30.4689 13.5953 31.0595 13.5859H31.0689C31.6501 13.5859 32.1283 14.0547 32.1376 14.6453L32.1564 16.9984C32.1658 17.5891 31.6876 18.0672 31.097 18.0766C31.0876 18.0766 31.0876 18.0766 31.0876 18.0766Z" fill="url(#paint0_linear_3940_9349)"/>
<path d="M19.6322 11.6453C19.0509 11.6453 18.5728 11.1766 18.5634 10.5953L18.5353 8.24219C18.5259 7.65156 19.004 7.17344 19.5853 7.16406H19.5947C20.1759 7.16406 20.654 7.63281 20.6634 8.21406L20.6915 10.5672C20.7009 11.1578 20.2228 11.6359 19.6415 11.6453C19.6415 11.6453 19.6415 11.6453 19.6322 11.6453Z" fill="black"/>
<path d="M19.6322 11.6453C19.0509 11.6453 18.5728 11.1766 18.5634 10.5953L18.5353 8.24219C18.5259 7.65156 19.004 7.17344 19.5853 7.16406H19.5947C20.1759 7.16406 20.654 7.63281 20.6634 8.21406L20.6915 10.5672C20.7009 11.1578 20.2228 11.6359 19.6415 11.6453C19.6415 11.6453 19.6415 11.6453 19.6322 11.6453Z" fill="url(#paint1_linear_3940_9349)"/>
<path d="M42.5159 20.7951C41.9253 20.7951 41.4471 20.317 41.4471 19.7358L41.4284 10.0139L31.5846 15.5826C31.069 15.8733 30.4221 15.6951 30.1315 15.1795C29.8409 14.6639 30.019 14.017 30.5346 13.7264L41.9628 7.25764C42.2909 7.07014 42.694 7.07014 43.0221 7.26701C43.3503 7.45451 43.5471 7.81076 43.5565 8.18576L43.5846 19.7264C43.5846 20.317 43.1065 20.7951 42.5159 20.7951Z" fill="black"/>
<path d="M42.5159 20.7951C41.9253 20.7951 41.4471 20.317 41.4471 19.7358L41.4284 10.0139L31.5846 15.5826C31.069 15.8733 30.4221 15.6951 30.1315 15.1795C29.8409 14.6639 30.019 14.017 30.5346 13.7264L41.9628 7.25764C42.2909 7.07014 42.694 7.07014 43.0221 7.26701C43.3503 7.45451 43.5471 7.81076 43.5565 8.18576L43.5846 19.7264C43.5846 20.317 43.1065 20.7951 42.5159 20.7951Z" fill="url(#paint2_linear_3940_9349)"/>
<path d="M31.0605 15.7234C30.8824 15.7234 30.7043 15.6766 30.5355 15.5828L19.0887 9.16094C18.7512 8.97344 18.5449 8.61719 18.5449 8.23281C18.5449 7.84844 18.7512 7.49219 19.0887 7.30469L30.5168 0.835938C30.8449 0.648438 31.2387 0.648438 31.5668 0.835938L43.0137 7.25781C43.3512 7.44531 43.5574 7.80156 43.5574 8.18594C43.5574 8.57031 43.3512 8.92656 43.0137 9.11406L31.5855 15.5828C31.4262 15.6766 31.248 15.7234 31.0605 15.7234ZM21.7793 8.22344L31.0605 13.4359L40.323 8.19531L31.0418 2.98281L21.7793 8.22344Z" fill="black"/>
<path d="M31.0605 15.7234C30.8824 15.7234 30.7043 15.6766 30.5355 15.5828L19.0887 9.16094C18.7512 8.97344 18.5449 8.61719 18.5449 8.23281C18.5449 7.84844 18.7512 7.49219 19.0887 7.30469L30.5168 0.835938C30.8449 0.648438 31.2387 0.648438 31.5668 0.835938L43.0137 7.25781C43.3512 7.44531 43.5574 7.80156 43.5574 8.18594C43.5574 8.57031 43.3512 8.92656 43.0137 9.11406L31.5855 15.5828C31.4262 15.6766 31.248 15.7234 31.0605 15.7234ZM21.7793 8.22344L31.0605 13.4359L40.323 8.19531L31.0418 2.98281L21.7793 8.22344Z" fill="url(#paint3_linear_3940_9349)"/>
<path d="M13.5379 40.2389C13.3598 40.2389 13.1816 40.192 13.0129 40.0982L1.56602 33.6764C1.22852 33.4889 1.02227 33.1326 1.02227 32.7482L0.994141 18.0764C0.994141 17.7014 1.19102 17.3451 1.51914 17.1576C1.84727 16.9701 2.25039 16.9607 2.57852 17.1482L14.0348 23.5795C14.3723 23.767 14.5785 24.1232 14.5785 24.5076L14.5973 36.8451C14.5973 37.4357 14.1191 37.9139 13.5285 37.9139C13.5098 37.9139 13.4816 37.9139 13.4535 37.9139L14.0535 38.2514C14.5691 38.542 14.7473 39.1889 14.466 39.7045C14.2785 40.042 13.9129 40.2389 13.5379 40.2389ZM3.15039 32.1201L12.666 37.4639C12.5441 37.2857 12.4691 37.0795 12.4691 36.8451L12.4504 25.1264L3.13164 19.8951L3.15039 32.1201Z" fill="black"/>
<path d="M13.5379 40.2389C13.3598 40.2389 13.1816 40.192 13.0129 40.0982L1.56602 33.6764C1.22852 33.4889 1.02227 33.1326 1.02227 32.7482L0.994141 18.0764C0.994141 17.7014 1.19102 17.3451 1.51914 17.1576C1.84727 16.9701 2.25039 16.9607 2.57852 17.1482L14.0348 23.5795C14.3723 23.767 14.5785 24.1232 14.5785 24.5076L14.5973 36.8451C14.5973 37.4357 14.1191 37.9139 13.5285 37.9139C13.5098 37.9139 13.4816 37.9139 13.4535 37.9139L14.0535 38.2514C14.5691 38.542 14.7473 39.1889 14.466 39.7045C14.2785 40.042 13.9129 40.2389 13.5379 40.2389ZM3.15039 32.1201L12.666 37.4639C12.5441 37.2857 12.4691 37.0795 12.4691 36.8451L12.4504 25.1264L3.13164 19.8951L3.15039 32.1201Z" fill="url(#paint4_linear_3940_9349)"/>
<path d="M13.5186 25.5763C13.1436 25.5763 12.7874 25.3794 12.5905 25.0325C12.2999 24.5169 12.478 23.87 12.9936 23.5794L24.4218 17.1107C24.7499 16.9232 25.153 16.9232 25.4811 17.12C25.8093 17.3075 26.0061 17.6638 26.0155 18.0388L26.0249 20.3919C26.0249 20.9825 25.5468 21.4607 24.9655 21.4607C24.3749 21.4607 23.8968 20.9825 23.8968 20.4013V19.8669L14.053 25.4357C13.8749 25.5294 13.6968 25.5763 13.5186 25.5763Z" fill="black"/>
<path d="M13.5186 25.5763C13.1436 25.5763 12.7874 25.3794 12.5905 25.0325C12.2999 24.5169 12.478 23.87 12.9936 23.5794L24.4218 17.1107C24.7499 16.9232 25.153 16.9232 25.4811 17.12C25.8093 17.3075 26.0061 17.6638 26.0155 18.0388L26.0249 20.3919C26.0249 20.9825 25.5468 21.4607 24.9655 21.4607C24.3749 21.4607 23.8968 20.9825 23.8968 20.4013V19.8669L14.053 25.4357C13.8749 25.5294 13.6968 25.5763 13.5186 25.5763Z" fill="url(#paint5_linear_3940_9349)"/>
<path d="M13.5479 40.2391C13.1729 40.2391 12.8167 40.0423 12.6198 39.6954C12.3292 39.1798 12.5073 38.5329 13.0229 38.2423L18.7135 35.0173C19.2292 34.7266 19.876 34.9048 20.1667 35.4204C20.4573 35.936 20.2792 36.5829 19.7635 36.8735L14.0729 40.0985C13.9042 40.2016 13.726 40.2391 13.5479 40.2391Z" fill="black"/>
<path d="M13.5479 40.2391C13.1729 40.2391 12.8167 40.0423 12.6198 39.6954C12.3292 39.1798 12.5073 38.5329 13.0229 38.2423L18.7135 35.0173C19.2292 34.7266 19.876 34.9048 20.1667 35.4204C20.4573 35.936 20.2792 36.5829 19.7635 36.8735L14.0729 40.0985C13.9042 40.2016 13.726 40.2391 13.5479 40.2391Z" fill="url(#paint6_linear_3940_9349)"/>
<path d="M13.5191 25.5765C13.341 25.5765 13.1629 25.5296 12.9941 25.4358L1.53789 19.014C1.20039 18.8265 0.994141 18.4702 0.994141 18.0858C0.994141 17.7015 1.20039 17.3452 1.53789 17.1577L12.966 10.689C13.2941 10.5015 13.6879 10.5015 14.016 10.689L25.4723 17.1202C25.8098 17.3077 26.016 17.664 26.016 18.0483C26.016 18.4327 25.8098 18.789 25.4723 18.9765L14.0441 25.4452C13.8754 25.5296 13.6973 25.5765 13.5191 25.5765ZM4.23789 18.0765L13.5191 23.289L22.7816 18.0483L13.5004 12.8358L4.23789 18.0765Z" fill="black"/>
<path d="M13.5191 25.5765C13.341 25.5765 13.1629 25.5296 12.9941 25.4358L1.53789 19.014C1.20039 18.8265 0.994141 18.4702 0.994141 18.0858C0.994141 17.7015 1.20039 17.3452 1.53789 17.1577L12.966 10.689C13.2941 10.5015 13.6879 10.5015 14.016 10.689L25.4723 17.1202C25.8098 17.3077 26.016 17.664 26.016 18.0483C26.016 18.4327 25.8098 18.789 25.4723 18.9765L14.0441 25.4452C13.8754 25.5296 13.6973 25.5765 13.5191 25.5765ZM4.23789 18.0765L13.5191 23.289L22.7816 18.0483L13.5004 12.8358L4.23789 18.0765Z" fill="url(#paint7_linear_3940_9349)"/>
<path d="M34.5008 48.6949C34.3227 48.6949 34.1445 48.648 33.9758 48.5543L22.5289 42.1324C22.1914 41.9449 21.9852 41.5887 21.9852 41.2043L21.957 26.5324C21.957 26.1574 22.1539 25.8012 22.482 25.6137C22.8102 25.4262 23.2133 25.4168 23.5414 25.6043L34.9977 32.0355C35.3352 32.223 35.5414 32.5793 35.5414 32.9637L35.5602 45.3012C35.5602 45.8918 35.082 46.3699 34.4914 46.3699C34.4727 46.3699 34.4445 46.3699 34.4164 46.3699L35.0164 46.7074C35.532 46.998 35.7102 47.6449 35.4289 48.1605C35.2414 48.498 34.8758 48.6949 34.5008 48.6949ZM24.1133 40.5762L33.6289 45.9199C33.507 45.7418 33.432 45.5355 33.432 45.3012L33.4133 33.5824L24.0945 28.3605L24.1133 40.5762Z" fill="black"/>
<path d="M34.5008 48.6949C34.3227 48.6949 34.1445 48.648 33.9758 48.5543L22.5289 42.1324C22.1914 41.9449 21.9852 41.5887 21.9852 41.2043L21.957 26.5324C21.957 26.1574 22.1539 25.8012 22.482 25.6137C22.8102 25.4262 23.2133 25.4168 23.5414 25.6043L34.9977 32.0355C35.3352 32.223 35.5414 32.5793 35.5414 32.9637L35.5602 45.3012C35.5602 45.8918 35.082 46.3699 34.4914 46.3699C34.4727 46.3699 34.4445 46.3699 34.4164 46.3699L35.0164 46.7074C35.532 46.998 35.7102 47.6449 35.4289 48.1605C35.2414 48.498 34.8758 48.6949 34.5008 48.6949ZM24.1133 40.5762L33.6289 45.9199C33.507 45.7418 33.432 45.5355 33.432 45.3012L33.4133 33.5824L24.0945 28.3605L24.1133 40.5762Z" fill="url(#paint8_linear_3940_9349)"/>
<path d="M34.5096 48.6953C34.1346 48.6953 33.7784 48.4985 33.5815 48.1516C33.2909 47.636 33.469 46.9891 33.9846 46.6985L44.869 40.5391L44.8503 28.3235L35.0065 33.8922C34.4909 34.1828 33.844 34.0047 33.5534 33.4891C33.2628 32.9735 33.4409 32.3266 33.9565 32.036L45.3846 25.5672C45.7128 25.3797 46.1159 25.3797 46.444 25.5766C46.7721 25.7641 46.969 26.1203 46.9784 26.4953L47.0065 41.1672C47.0065 41.5516 46.8003 41.9078 46.4628 42.0953L35.0346 48.5641C34.8659 48.6485 34.6878 48.6953 34.5096 48.6953Z" fill="black"/>
<path d="M34.5096 48.6953C34.1346 48.6953 33.7784 48.4985 33.5815 48.1516C33.2909 47.636 33.469 46.9891 33.9846 46.6985L44.869 40.5391L44.8503 28.3235L35.0065 33.8922C34.4909 34.1828 33.844 34.0047 33.5534 33.4891C33.2628 32.9735 33.4409 32.3266 33.9565 32.036L45.3846 25.5672C45.7128 25.3797 46.1159 25.3797 46.444 25.5766C46.7721 25.7641 46.969 26.1203 46.9784 26.4953L47.0065 41.1672C47.0065 41.5516 46.8003 41.9078 46.4628 42.0953L35.0346 48.5641C34.8659 48.6485 34.6878 48.6953 34.5096 48.6953Z" fill="url(#paint9_linear_3940_9349)"/>
<path d="M34.482 34.0232C34.3039 34.0232 34.1258 33.9764 33.957 33.8826L22.5008 27.4607C22.1633 27.2732 21.957 26.917 21.957 26.5326C21.957 26.1482 22.1633 25.792 22.5008 25.6045L33.9289 19.1357C34.257 18.9482 34.6508 18.9482 34.9789 19.1357L46.4352 25.567C46.7727 25.7545 46.9789 26.1107 46.9789 26.4951C46.9789 26.8795 46.7727 27.2357 46.4352 27.4232L35.007 33.892C34.8383 33.9857 34.6602 34.0232 34.482 34.0232ZM25.2008 26.5326L34.482 31.7451L43.7445 26.5045L34.4633 21.292L25.2008 26.5326Z" fill="black"/>
<path d="M34.482 34.0232C34.3039 34.0232 34.1258 33.9764 33.957 33.8826L22.5008 27.4607C22.1633 27.2732 21.957 26.917 21.957 26.5326C21.957 26.1482 22.1633 25.792 22.5008 25.6045L33.9289 19.1357C34.257 18.9482 34.6508 18.9482 34.9789 19.1357L46.4352 25.567C46.7727 25.7545 46.9789 26.1107 46.9789 26.4951C46.9789 26.8795 46.7727 27.2357 46.4352 27.4232L35.007 33.892C34.8383 33.9857 34.6602 34.0232 34.482 34.0232ZM25.2008 26.5326L34.482 31.7451L43.7445 26.5045L34.4633 21.292L25.2008 26.5326Z" fill="url(#paint10_linear_3940_9349)"/>
</g>
<defs>
<linearGradient id="paint0_linear_3940_9349" x1="29.6406" y1="13.9869" x2="33.3838" y2="15.2685" gradientUnits="userSpaceOnUse">
<stop stop-color="#4BFFAE"/>
<stop offset="1" stop-color="#1F75FF"/>
</linearGradient>
<linearGradient id="paint1_linear_3940_9349" x1="18.1757" y1="7.56417" x2="21.9173" y2="8.84792" gradientUnits="userSpaceOnUse">
<stop stop-color="#4BFFAE"/>
<stop offset="1" stop-color="#1F75FF"/>
</linearGradient>
<linearGradient id="paint2_linear_3940_9349" x1="27.7268" y1="8.33932" x2="45.2757" y2="20.7737" gradientUnits="userSpaceOnUse">
<stop stop-color="#4BFFAE"/>
<stop offset="1" stop-color="#1F75FF"/>
</linearGradient>
<linearGradient id="paint3_linear_3940_9349" x1="14.3762" y1="2.03711" x2="34.5188" y2="25.9392" gradientUnits="userSpaceOnUse">
<stop stop-color="#4BFFAE"/>
<stop offset="1" stop-color="#1F75FF"/>
</linearGradient>
<linearGradient id="paint4_linear_3940_9349" x1="-1.27332" y1="19.086" x2="21.192" y2="28.4677" gradientUnits="userSpaceOnUse">
<stop stop-color="#4BFFAE"/>
<stop offset="1" stop-color="#1F75FF"/>
</linearGradient>
<linearGradient id="paint5_linear_3940_9349" x1="10.1889" y1="17.7395" x2="21.8116" y2="30.8107" gradientUnits="userSpaceOnUse">
<stop stop-color="#4BFFAE"/>
<stop offset="1" stop-color="#1F75FF"/>
</linearGradient>
<linearGradient id="paint6_linear_3940_9349" x1="11.1762" y1="35.3566" x2="18.4617" y2="42.9385" gradientUnits="userSpaceOnUse">
<stop stop-color="#4BFFAE"/>
<stop offset="1" stop-color="#1F75FF"/>
</linearGradient>
<linearGradient id="paint7_linear_3940_9349" x1="-3.17617" y1="11.8901" x2="16.9652" y2="35.7997" gradientUnits="userSpaceOnUse">
<stop stop-color="#4BFFAE"/>
<stop offset="1" stop-color="#1F75FF"/>
</linearGradient>
<linearGradient id="paint8_linear_3940_9349" x1="19.6896" y1="27.5421" x2="42.1549" y2="36.9238" gradientUnits="userSpaceOnUse">
<stop stop-color="#4BFFAE"/>
<stop offset="1" stop-color="#1F75FF"/>
</linearGradient>
<linearGradient id="paint9_linear_3940_9349" x1="31.1487" y1="27.5052" x2="53.6114" y2="36.8609" gradientUnits="userSpaceOnUse">
<stop stop-color="#4BFFAE"/>
<stop offset="1" stop-color="#1F75FF"/>
</linearGradient>
<linearGradient id="paint10_linear_3940_9349" x1="17.7867" y1="20.3369" x2="37.9281" y2="44.2464" gradientUnits="userSpaceOnUse">
<stop stop-color="#4BFFAE"/>
<stop offset="1" stop-color="#1F75FF"/>
</linearGradient>
<clipPath id="clip0_3940_9349">
<rect width="48" height="48" fill="white" transform="translate(0 0.695312)"/>
</clipPath>
</defs>
</svg>
