<svg width="64" height="64" viewBox="0 0 64 64" fill="none" xmlns="http://www.w3.org/2000/svg">
<rect width="64" height="64" rx="19.2" fill="#28D1B3"/>
<path fill-rule="evenodd" clip-rule="evenodd" d="M17.7436 18.464C18.5467 17.5999 19.678 17.1351 20.9616 17.1195H26.6209C26.9725 17.1155 27.3131 17.1468 27.6381 17.2124C28.503 17.3874 29.2624 17.8038 29.8498 18.4312C30.3717 18.9851 30.7186 19.6687 30.8967 20.4241C30.9912 20.8257 31.0389 21.2468 31.0397 21.6796L31.0474 41.855C31.0498 42.6862 30.8748 43.4878 30.517 44.1823C30.3442 44.5174 30.1295 44.8276 29.8708 45.1033C29.0661 45.9675 27.9349 46.4315 26.649 46.4471H20.9896C19.7044 46.4635 18.5701 45.9995 17.7638 45.1355C16.9638 44.2878 16.5732 43.1355 16.5701 41.8878L16.5647 21.7116C16.5616 20.464 16.9491 19.3116 17.7436 18.464ZM19.5022 20.0952C19.1905 20.4319 18.9631 20.9593 18.9647 21.6952L18.9701 41.8878C18.9716 42.6236 19.2021 43.151 19.5161 43.4878C19.8216 43.8236 20.2919 44.0471 20.9849 44.0471H26.6443C27.3365 44.0471 27.8068 43.8073 28.1099 43.4713C28.4232 43.1355 28.6489 42.6073 28.6474 41.8713L28.6397 21.6796C28.6381 20.9437 28.4092 20.3999 28.0959 20.0796C27.792 19.7437 27.3202 19.5038 26.6272 19.5195H20.9678C20.6334 19.5273 20.3506 19.5835 20.1131 19.678C19.8608 19.7788 19.6592 19.9218 19.5022 20.0952Z" fill="white"/>
<path fill-rule="evenodd" clip-rule="evenodd" d="M37.6679 17.1836L43.3273 17.168C44.6124 17.168 45.7468 17.632 46.5547 18.4961C47.3531 19.3437 47.7438 20.4961 47.7468 21.7281L47.7593 26.1922C47.7609 27.4242 47.3774 28.5758 46.582 29.4398C46.1319 29.9242 45.5788 30.2829 44.9531 30.507C44.4625 30.6829 43.9265 30.7766 43.3609 30.7835H37.7015C36.4172 30.7835 35.2828 30.336 34.4742 29.4718C33.6766 28.6078 33.2859 27.4555 33.2828 26.2242L33.2695 21.7602C33.2679 21.0133 33.4094 20.2961 33.6983 19.6547C33.8859 19.2375 34.1359 18.8523 34.4492 18.5117C35.2539 17.6484 36.3851 17.1836 37.6679 17.1836ZM43.3319 19.568L37.6726 19.5836C36.9836 19.5836 36.5132 19.8242 36.2086 20.1445C36.0265 20.3398 35.8734 20.6055 35.7774 20.9383C35.7086 21.1781 35.6687 21.4523 35.6695 21.7602L35.6828 26.2242C35.6843 26.9602 35.9132 27.4875 36.2281 27.8242C36.5319 28.1602 37.0039 28.3836 37.6969 28.3836H43.3547C44.0476 28.368 44.5195 28.1437 44.8219 27.8078C45.1335 27.4719 45.3609 26.9445 45.3593 26.1922L45.3468 21.7445V21.7281C45.3452 20.9922 45.1164 20.4641 44.8023 20.1281C44.4969 19.8078 44.0249 19.568 43.3319 19.568Z" fill="white"/>
<path fill-rule="evenodd" clip-rule="evenodd" d="M37.668 32.8163L43.3273 32.7998C44.6124 32.7998 45.7468 33.2638 46.5547 34.128C47.3531 34.9756 47.7438 36.128 47.7468 37.36L47.7593 42.2396C47.7609 43.4716 47.3774 44.624 46.582 45.4881C45.7788 46.3513 44.6476 46.8163 43.3609 46.8163L37.7016 46.8318C36.4172 46.8318 35.2828 46.3678 34.4742 45.5036C33.6766 44.6561 33.2859 43.5036 33.2828 42.2716L33.2696 37.392C33.2664 36.16 33.6539 35.0076 34.4492 34.1443C35.2539 33.2803 36.3851 32.8163 37.668 32.8163ZM43.332 35.1998L37.6726 35.2163C36.9851 35.2163 36.5132 35.4561 36.2086 35.7756C35.8953 36.128 35.668 36.6561 35.6696 37.392L35.6828 42.2553C35.6843 43.0076 35.9132 43.5358 36.2281 43.8716C36.4265 44.0811 36.6976 44.2561 37.0547 44.3521C37.243 44.403 37.4563 44.4318 37.6953 44.4318L43.3547 44.4163C44.0476 44.4163 44.5195 44.1756 44.8219 43.8553C45.1336 43.5193 45.3609 42.9756 45.3593 42.2396L45.3468 37.3756C45.346 37.0076 45.2913 36.6936 45.1984 36.4288C45.1008 36.1529 44.9625 35.9318 44.8024 35.76C44.632 35.5811 44.4102 35.428 44.1273 35.3272C43.9024 35.2467 43.639 35.1998 43.332 35.1998Z" fill="white"/>
</svg>
