<svg width="48" height="48" viewBox="0 0 48 48" fill="none" xmlns="http://www.w3.org/2000/svg">
<path d="M43.8343 18.127C44.2226 18.127 44.5375 17.8123 44.5375 17.4239V4.04728C44.5375 1.81556 42.7218 0 40.4901 0H7.50978C5.27806 0 3.4624 1.81556 3.4624 4.04728V43.9527C3.4624 46.1844 5.27806 48 7.50978 48H40.4901C42.7218 48 44.5374 46.1844 44.5374 43.9527V20.2364C44.5374 19.848 44.2226 19.5333 43.8342 19.5333C43.4459 19.5333 43.1311 19.848 43.1311 20.2364V43.9528C43.1311 45.409 41.9463 46.5938 40.4901 46.5938H7.50978C6.05347 46.5938 4.86875 45.409 4.86875 43.9528V4.04728C4.86865 2.59106 6.05347 1.40625 7.50978 1.40625H40.4901C41.9464 1.40625 43.1311 2.59106 43.1311 4.04728V17.4239C43.1312 17.8122 43.446 18.127 43.8343 18.127Z" fill="url(#paint0_linear_3504_2181)"/>
<path d="M8.74414 26.4007C8.35583 26.4007 8.04102 26.7154 8.04102 27.1038V33.3337C8.04102 34.4428 8.94336 35.3451 10.0524 35.3451H20.6748C21.7839 35.3451 22.6862 34.4428 22.6862 33.3337V7.13836C22.6862 6.0293 21.7839 5.12695 20.6748 5.12695H10.0524C8.94327 5.12695 8.04102 6.0293 8.04102 7.13836V24.2914C8.04102 24.6798 8.35583 24.9945 8.74414 24.9945C9.13245 24.9945 9.44727 24.6798 9.44727 24.2914V7.13836C9.44727 6.80461 9.71877 6.5332 10.0524 6.5332H20.6748C21.0084 6.5332 21.2799 6.8047 21.2799 7.13836V33.3338C21.2799 33.6675 21.0084 33.939 20.6748 33.939H10.0524C9.71877 33.939 9.44727 33.6675 9.44727 33.3338V27.1039C9.44727 26.7155 9.13245 26.4007 8.74414 26.4007Z" fill="url(#paint1_linear_3504_2181)"/>
<path d="M39.9592 7.13836C39.9592 6.0293 39.0569 5.12695 37.9477 5.12695H27.3255C26.2163 5.12695 25.314 6.0293 25.314 7.13836V18.2265C25.314 19.3356 26.2163 20.238 27.3255 20.238H37.9477C39.0569 20.238 39.9592 19.3356 39.9592 18.2265V7.13836ZM38.553 18.2265C38.553 18.5603 38.2815 18.8317 37.9477 18.8317H27.3255C26.9917 18.8317 26.7202 18.5603 26.7202 18.2265V7.13836C26.7202 6.80461 26.9917 6.5332 27.3255 6.5332H37.9477C38.2815 6.5332 38.553 6.8047 38.553 7.13836V18.2265Z" fill="url(#paint2_linear_3504_2181)"/>
<path d="M39.9592 25.1823C39.9592 24.0732 39.0569 23.1709 37.9477 23.1709H27.3255C26.2163 23.1709 25.314 24.0732 25.314 25.1823V33.083C25.314 34.1921 26.2163 35.0944 27.3255 35.0944H37.9477C39.0569 35.0944 39.9592 34.1921 39.9592 33.083V25.1823ZM38.553 33.0831C38.553 33.4168 38.2815 33.6882 37.9477 33.6882H27.3255C26.9917 33.6882 26.7202 33.4167 26.7202 33.0831V25.1823C26.7202 24.8486 26.9917 24.5771 27.3255 24.5771H37.9477C38.2815 24.5771 38.553 24.8486 38.553 25.1823V33.0831Z" fill="url(#paint3_linear_3504_2181)"/>
<path d="M39.9593 38.4062C39.9593 38.0178 39.6445 37.7031 39.2562 37.7031H8.74414C8.35583 37.7031 8.04102 38.0178 8.04102 38.4062C8.04102 38.7947 8.35583 39.1094 8.74414 39.1094H39.2562C39.6445 39.1094 39.9593 38.7947 39.9593 38.4062Z" fill="url(#paint4_linear_3504_2181)"/>
<path d="M8.74414 41.4668C8.35583 41.4668 8.04102 41.7815 8.04102 42.1699C8.04102 42.5583 8.35583 42.873 8.74414 42.873H21.983C22.3714 42.873 22.6862 42.5583 22.6862 42.1699C22.6862 41.7815 22.3714 41.4668 21.983 41.4668H8.74414Z" fill="url(#paint5_linear_3504_2181)"/>
<path d="M34.4368 10.1787H30.8359C30.4476 10.1787 30.1328 10.4934 30.1328 10.8818C30.1328 11.2702 30.4476 11.585 30.8359 11.585H31.9332V14.4827C31.9332 14.8711 32.248 15.1858 32.6363 15.1858C33.0246 15.1858 33.3394 14.8711 33.3394 14.4827V11.585H34.4368C34.8251 11.585 35.1399 11.2702 35.1399 10.8818C35.1399 10.4934 34.8251 10.1787 34.4368 10.1787Z" fill="url(#paint6_linear_3504_2181)"/>
<path d="M12.418 11.8242H16.0654C16.4537 11.8242 16.7685 11.5095 16.7685 11.1211C16.7685 10.7327 16.4537 10.418 16.0654 10.418H12.418C12.0297 10.418 11.7148 10.7327 11.7148 11.1211C11.7148 11.5095 12.0297 11.8242 12.418 11.8242Z" fill="url(#paint7_linear_3504_2181)"/>
<path d="M12.418 23.2422H16.0654C16.4537 23.2422 16.7685 22.9275 16.7685 22.5391C16.7685 22.1507 16.4537 21.8359 16.0654 21.8359H12.418C12.0297 21.8359 11.7148 22.1507 11.7148 22.5391C11.7148 22.9274 12.0297 23.2422 12.418 23.2422Z" fill="url(#paint8_linear_3504_2181)"/>
<path d="M12.418 15.6299H17.5228C17.9111 15.6299 18.2259 15.3152 18.2259 14.9268C18.2259 14.5384 17.9111 14.2236 17.5228 14.2236H12.418C12.0297 14.2236 11.7148 14.5384 11.7148 14.9268C11.7148 15.3151 12.0297 15.6299 12.418 15.6299Z" fill="url(#paint9_linear_3504_2181)"/>
<path d="M12.418 19.4365H17.5228C17.9111 19.4365 18.2259 19.1218 18.2259 18.7334C18.2259 18.345 17.9111 18.0303 17.5228 18.0303H12.418C12.0297 18.0303 11.7148 18.345 11.7148 18.7334C11.7148 19.1218 12.0297 19.4365 12.418 19.4365Z" fill="url(#paint10_linear_3504_2181)"/>
<defs>
<linearGradient id="paint0_linear_3504_2181" x1="3.4624" y1="26.7" x2="44.536" y2="26.9613" gradientUnits="userSpaceOnUse">
<stop stop-color="#28D1B3"/>
<stop offset="1" stop-color="#0084FF"/>
</linearGradient>
<linearGradient id="paint1_linear_3504_2181" x1="8.04102" y1="21.9358" x2="22.6861" y2="21.9886" gradientUnits="userSpaceOnUse">
<stop stop-color="#28D1B3"/>
<stop offset="1" stop-color="#0084FF"/>
</linearGradient>
<linearGradient id="paint2_linear_3504_2181" x1="25.314" y1="13.5324" x2="39.9585" y2="13.638" gradientUnits="userSpaceOnUse">
<stop stop-color="#28D1B3"/>
<stop offset="1" stop-color="#0084FF"/>
</linearGradient>
<linearGradient id="paint3_linear_3504_2181" x1="25.314" y1="29.8033" x2="39.9581" y2="29.9371" gradientUnits="userSpaceOnUse">
<stop stop-color="#28D1B3"/>
<stop offset="1" stop-color="#0084FF"/>
</linearGradient>
<linearGradient id="paint4_linear_3504_2181" x1="8.04102" y1="38.4854" x2="39.076" y2="43.7217" gradientUnits="userSpaceOnUse">
<stop stop-color="#28D1B3"/>
<stop offset="1" stop-color="#0084FF"/>
</linearGradient>
<linearGradient id="paint5_linear_3504_2181" x1="8.04102" y1="42.249" x2="22.599" y2="43.376" gradientUnits="userSpaceOnUse">
<stop stop-color="#28D1B3"/>
<stop offset="1" stop-color="#0084FF"/>
</linearGradient>
<linearGradient id="paint6_linear_3504_2181" x1="30.1328" y1="12.9639" x2="35.1397" y2="13.0011" gradientUnits="userSpaceOnUse">
<stop stop-color="#28D1B3"/>
<stop offset="1" stop-color="#0084FF"/>
</linearGradient>
<linearGradient id="paint7_linear_3504_2181" x1="11.7148" y1="11.2002" x2="16.765" y2="11.3351" gradientUnits="userSpaceOnUse">
<stop stop-color="#28D1B3"/>
<stop offset="1" stop-color="#0084FF"/>
</linearGradient>
<linearGradient id="paint8_linear_3504_2181" x1="11.7148" y1="22.6182" x2="16.765" y2="22.7531" gradientUnits="userSpaceOnUse">
<stop stop-color="#28D1B3"/>
<stop offset="1" stop-color="#0084FF"/>
</linearGradient>
<linearGradient id="paint9_linear_3504_2181" x1="11.7148" y1="15.0059" x2="18.2182" y2="15.2297" gradientUnits="userSpaceOnUse">
<stop stop-color="#28D1B3"/>
<stop offset="1" stop-color="#0084FF"/>
</linearGradient>
<linearGradient id="paint10_linear_3504_2181" x1="11.7148" y1="18.8125" x2="18.2182" y2="19.0363" gradientUnits="userSpaceOnUse">
<stop stop-color="#28D1B3"/>
<stop offset="1" stop-color="#0084FF"/>
</linearGradient>
</defs>
</svg>
