<svg width="64" height="65" viewBox="0 0 64 65" fill="none" xmlns="http://www.w3.org/2000/svg">
<path fill-rule="evenodd" clip-rule="evenodd" d="M27.9443 12.3984C26.8763 12.3984 26 13.2688 26 14.3552V18.439C26 19.5288 26.8771 20.3983 27.9443 20.3983H38.7251C39.7904 20.3983 40.6667 19.5305 40.6667 18.439V14.3552C40.6667 13.2671 39.7912 12.3984 38.7251 12.3984H27.9443ZM22 14.3552C22 11.0723 24.6545 8.39844 27.9443 8.39844H38.7251C42.0165 8.39844 44.6667 11.074 44.6667 14.3552V18.439C44.6667 21.7219 42.0173 24.3983 38.7251 24.3983H27.9443C24.6536 24.3983 22 21.7236 22 18.439V14.3552Z" fill="#28D1B3"/>
<path fill-rule="evenodd" clip-rule="evenodd" d="M13.2772 45.7324C12.2092 45.7324 11.333 46.6026 11.333 47.689V51.773C11.333 52.8626 12.2101 53.7322 13.2772 53.7322H24.058C25.1235 53.7322 25.9997 52.8644 25.9997 51.773V47.689C25.9997 46.601 25.1243 45.7324 24.058 45.7324H13.2772ZM7.33301 47.689C7.33301 44.406 9.98746 41.7324 13.2772 41.7324H24.058C27.3495 41.7324 29.9997 44.4079 29.9997 47.689V51.773C29.9997 55.0556 27.3503 57.7322 24.058 57.7322H13.2772C9.98661 57.7322 7.33301 55.0575 7.33301 51.773V47.689Z" fill="#28D1B3"/>
<path fill-rule="evenodd" clip-rule="evenodd" d="M42.6113 45.7324C41.5433 45.7324 40.667 46.6026 40.667 47.689V51.773C40.667 52.8626 41.5441 53.7322 42.6113 53.7322H53.3921C54.4574 53.7322 55.3337 52.8644 55.3337 51.773V47.689C55.3337 46.601 54.4582 45.7324 53.3921 45.7324H42.6113ZM36.667 47.689C36.667 44.406 39.3214 41.7324 42.6113 41.7324H53.3921C56.6835 41.7324 59.3337 44.4079 59.3337 47.689V51.773C59.3337 55.0556 56.6843 57.7322 53.3921 57.7322H42.6113C39.3206 57.7322 36.667 55.0575 36.667 51.773V47.689Z" fill="#28D1B3"/>
<path fill-rule="evenodd" clip-rule="evenodd" d="M33.333 20.3984C34.4375 20.3984 35.333 21.2939 35.333 22.3984V33.0652C35.333 34.1698 34.4375 35.0652 33.333 35.0652C32.2285 35.0652 31.333 34.1698 31.333 33.0652V22.3984C31.333 21.2939 32.2285 20.3984 33.333 20.3984Z" fill="#28D1B3"/>
<path fill-rule="evenodd" clip-rule="evenodd" d="M24.0003 35.0664C22.1594 35.0664 20.667 36.5587 20.667 38.3997V43.7331C20.667 44.8376 19.7716 45.7331 18.667 45.7331C17.5624 45.7331 16.667 44.8376 16.667 43.7331V38.3997C16.667 34.3496 19.9502 31.0664 24.0003 31.0664H42.667C46.7171 31.0664 50.0003 34.3496 50.0003 38.3997V43.7331C50.0003 44.8376 49.1049 45.7331 48.0003 45.7331C46.8958 45.7331 46.0003 44.8376 46.0003 43.7331V38.3997C46.0003 36.5587 44.5081 35.0664 42.667 35.0664H24.0003Z" fill="#28D1B3"/>
</svg>
