<svg width="64" height="64" viewBox="0 0 64 64" fill="none" xmlns="http://www.w3.org/2000/svg">
<path d="M6 22C6.53043 22 7.03914 21.7893 7.41421 21.4142C7.78929 21.0391 8 20.5304 8 20V10C8 9.46957 8.21071 8.96086 8.58579 8.58579C8.96086 8.21071 9.46957 8 10 8H21C21.5304 8 22.0391 7.78929 22.4142 7.41421C22.7893 7.03914 23 6.53043 23 6C23 5.46957 22.7893 4.96086 22.4142 4.58579C22.0391 4.21071 21.5304 4 21 4H10C8.4087 4 6.88258 4.63214 5.75736 5.75736C4.63214 6.88258 4 8.4087 4 10V20C4 20.5304 4.21071 21.0391 4.58579 21.4142C4.96086 21.7893 5.46957 22 6 22Z" fill="url(#paint0_linear_3669_10750)"/>
<path d="M54 4H43C42.4696 4 41.9609 4.21071 41.5858 4.58579C41.2107 4.96086 41 5.46957 41 6C41 6.53043 41.2107 7.03914 41.5858 7.41421C41.9609 7.78929 42.4696 8 43 8H54C54.5304 8 55.0391 8.21071 55.4142 8.58579C55.7893 8.96086 56 9.46957 56 10V20C56 20.5304 56.2107 21.0391 56.5858 21.4142C56.9609 21.7893 57.4696 22 58 22C58.5304 22 59.0391 21.7893 59.4142 21.4142C59.7893 21.0391 60 20.5304 60 20V10C60 8.4087 59.3679 6.88258 58.2426 5.75736C57.1174 4.63214 55.5913 4 54 4Z" fill="url(#paint1_linear_3669_10750)"/>
<path d="M58 42C57.4696 42 56.9609 42.2107 56.5858 42.5858C56.2107 42.9609 56 43.4696 56 44V54C56 54.5304 55.7893 55.0391 55.4142 55.4142C55.0391 55.7893 54.5304 56 54 56H43C42.4696 56 41.9609 56.2107 41.5858 56.5858C41.2107 56.9609 41 57.4696 41 58C41 58.5304 41.2107 59.0391 41.5858 59.4142C41.9609 59.7893 42.4696 60 43 60H54C55.5913 60 57.1174 59.3679 58.2426 58.2426C59.3679 57.1174 60 55.5913 60 54V44C60 43.4696 59.7893 42.9609 59.4142 42.5858C59.0391 42.2107 58.5304 42 58 42Z" fill="url(#paint2_linear_3669_10750)"/>
<path d="M21 56H10C9.46957 56 8.96086 55.7893 8.58579 55.4142C8.21071 55.0391 8 54.5304 8 54V44C8 43.4696 7.78929 42.9609 7.41421 42.5858C7.03914 42.2107 6.53043 42 6 42C5.46957 42 4.96086 42.2107 4.58579 42.5858C4.21071 42.9609 4 43.4696 4 44V54C4 55.5913 4.63214 57.1174 5.75736 58.2426C6.88258 59.3679 8.4087 60 10 60H21C21.5304 60 22.0391 59.7893 22.4142 59.4142C22.7893 59.0391 23 58.5304 23 58C23 57.4696 22.7893 56.9609 22.4142 56.5858C22.0391 56.2107 21.5304 56 21 56Z" fill="url(#paint3_linear_3669_10750)"/>
<path d="M58 30H6C5.46957 30 4.96086 30.2107 4.58579 30.5858C4.21071 30.9609 4 31.4696 4 32C4 32.5304 4.21071 33.0391 4.58579 33.4142C4.96086 33.7893 5.46957 34 6 34H58C58.5304 34 59.0391 33.7893 59.4142 33.4142C59.7893 33.0391 60 32.5304 60 32C60 31.4696 59.7893 30.9609 59.4142 30.5858C59.0391 30.2107 58.5304 30 58 30Z" fill="url(#paint4_linear_3669_10750)"/>
<defs>
<linearGradient id="paint0_linear_3669_10750" x1="4" y1="13" x2="23" y2="13" gradientUnits="userSpaceOnUse">
<stop stop-color="#4BFFAE"/>
<stop offset="1" stop-color="#1F75FF"/>
</linearGradient>
<linearGradient id="paint1_linear_3669_10750" x1="41" y1="13" x2="60" y2="13" gradientUnits="userSpaceOnUse">
<stop stop-color="#4BFFAE"/>
<stop offset="1" stop-color="#1F75FF"/>
</linearGradient>
<linearGradient id="paint2_linear_3669_10750" x1="41" y1="51" x2="60" y2="51" gradientUnits="userSpaceOnUse">
<stop stop-color="#4BFFAE"/>
<stop offset="1" stop-color="#1F75FF"/>
</linearGradient>
<linearGradient id="paint3_linear_3669_10750" x1="4" y1="51" x2="23" y2="51" gradientUnits="userSpaceOnUse">
<stop stop-color="#4BFFAE"/>
<stop offset="1" stop-color="#1F75FF"/>
</linearGradient>
<linearGradient id="paint4_linear_3669_10750" x1="4" y1="32" x2="60" y2="32" gradientUnits="userSpaceOnUse">
<stop stop-color="#4BFFAE"/>
<stop offset="1" stop-color="#1F75FF"/>
</linearGradient>
</defs>
</svg>
