<svg width="64" height="65" viewBox="0 0 64 65" fill="none" xmlns="http://www.w3.org/2000/svg">
<path fill-rule="evenodd" clip-rule="evenodd" d="M32.0005 9.64258C32.6736 9.64258 33.3013 9.98103 33.6712 10.5432C36.0811 14.2054 37.6349 16.0173 40.5352 18.6873C41.348 19.4354 41.4003 20.7006 40.6523 21.5133C39.904 22.326 38.6389 22.3783 37.8261 21.6302C36.3123 20.2367 35.1187 19.0362 34.0005 17.7296L34.0008 53.8581C34.0008 54.9627 33.1053 55.8581 32.0008 55.8581C30.8963 55.8581 30.0008 54.9627 30.0008 53.8581L30.0005 17.7295C28.8824 19.0361 27.6888 20.2367 26.1748 21.6302C25.3622 22.3783 24.0969 22.326 23.3488 21.5133C22.6008 20.7006 22.6531 19.4354 23.4658 18.6873C26.3662 16.0173 27.92 14.2054 30.3299 10.5432C30.6997 9.98103 31.3275 9.64258 32.0005 9.64258Z" fill="#28D1B3"/>
<path fill-rule="evenodd" clip-rule="evenodd" d="M43.9438 26.9654C44.1401 25.8784 45.1803 25.1563 46.2673 25.3525C49.7662 25.984 51.9091 26.1144 55.8571 25.8527C55.8785 25.8513 55.8998 25.8502 55.9209 25.8495C56.6302 25.8222 57.3315 26.1741 57.7193 26.8272C58.071 27.4192 58.0819 28.1189 57.8102 28.6987C56.5377 32.3149 56.0918 34.4018 55.7571 37.8829C55.6513 38.9824 54.6742 39.788 53.5747 39.6824C52.4753 39.5765 51.6697 38.5994 51.7755 37.5C51.9462 35.7237 52.1499 34.2538 52.4577 32.7954C49.7942 35.0562 47.8515 37.5362 46.4707 40.2005C44.3926 44.2104 43.5211 48.7669 43.5209 53.8589C43.5209 54.9634 42.6254 55.8589 41.5209 55.8587C40.4163 55.8587 39.5209 54.9632 39.5209 53.8587C39.5211 48.3155 40.4705 43.0856 42.9193 38.36C44.5331 35.2459 46.7697 32.4066 49.7281 29.8664C48.4214 29.7573 47.0993 29.5672 45.5569 29.2888C44.4699 29.0925 43.7478 28.0525 43.9438 26.9654Z" fill="#28D1B3"/>
<path fill-rule="evenodd" clip-rule="evenodd" d="M20.0562 26.9654C20.2523 28.0525 19.5302 29.0925 18.4432 29.2888C16.9006 29.5672 15.5787 29.7573 14.272 29.8664C17.2303 32.4066 19.4668 35.2459 21.0808 38.36C23.5297 43.0856 24.479 48.3155 24.4791 53.8587C24.4791 54.9632 23.5837 55.8587 22.4792 55.8587C21.3746 55.8589 20.4791 54.9634 20.4791 53.8589C20.479 48.7669 19.6073 44.2104 17.5293 40.2005C16.1486 37.5362 14.2058 35.0562 11.5424 32.7954C11.8501 34.2538 12.0538 35.7237 12.2246 37.5C12.3303 38.5994 11.5247 39.5765 10.4252 39.6824C9.32573 39.788 8.34869 38.9824 8.24296 37.8829C7.90821 34.4018 7.46227 32.3149 6.18989 28.6987C5.91821 28.1189 5.92909 27.4192 6.28064 26.8272C6.66848 26.1741 7.36989 25.8222 8.07904 25.8495C8.10029 25.8502 8.1216 25.8513 8.14291 25.8527C12.0909 26.1144 14.2339 25.984 17.7327 25.3525C18.8197 25.1563 19.8599 25.8784 20.0562 26.9654Z" fill="#28D1B3"/>
</svg>
