<svg width="600" height="450" viewBox="0 0 600 450" fill="none" xmlns="http://www.w3.org/2000/svg">
<g clip-path="url(#clip0_3028_6287)">
<g style="mix-blend-mode:darken">
<g opacity="0.33">
<path d="M50.7778 11.5579H0.595093V-38.6094H50.7623V11.5579H50.7778ZM0.982305 11.1706H50.3751V-38.2222H0.982305V11.1706Z" fill="#0FAC90"/>
<path d="M100.558 11.5579H50.3906V-38.6094H100.558V11.5579ZM50.7778 11.1706H100.171V-38.2222H50.7778V11.1706Z" fill="#0FAC90"/>
<path d="M150.338 11.5579H100.171V-38.6094H150.338V11.5579ZM100.558 11.1706H149.951V-38.2222H100.558V11.1706Z" fill="#0FAC90"/>
<path d="M200.133 11.5579H149.966V-38.6094H200.133V11.5579ZM150.338 11.1706H199.731V-38.2222H150.338V11.1706Z" fill="#0FAC90"/>
<path d="M249.913 11.5579H199.746V-38.6094H249.913V11.5579ZM200.133 11.1706H249.526V-38.2222H200.133V11.1706Z" fill="#0FAC90"/>
<path d="M299.694 11.5579H249.526V-38.6094H299.694V11.5579ZM249.914 11.1706H299.306V-38.2222H249.914V11.1706Z" fill="#0FAC90"/>
<path d="M349.473 11.5579H299.306V-38.6094H349.473V11.5579ZM299.693 11.1706H349.086V-38.2222H299.693V11.1706Z" fill="#0FAC90"/>
<path d="M399.269 11.5579H349.102V-38.6094H399.269V11.5579ZM349.473 11.1706H398.866V-38.2222H349.473V11.1706Z" fill="#0FAC90"/>
<path d="M449.049 11.5579H398.882V-38.6094H449.049V11.5579ZM399.269 11.1706H448.662V-38.2222H399.269V11.1706Z" fill="#0FAC90"/>
<path d="M498.829 11.5579H448.662V-38.6094H498.829V11.5579ZM449.049 11.1706H498.442V-38.2222H449.049V11.1706Z" fill="#0FAC90"/>
<path d="M548.624 11.5579H498.457V-38.6094H548.624V11.5579ZM498.829 11.1706H548.222V-38.2222H498.829V11.1706Z" fill="#0FAC90"/>
<path d="M598.405 11.5579H548.237V-38.6094H598.405V11.5579ZM548.625 11.1706H598.017V-38.2222H548.625V11.1706Z" fill="#0FAC90"/>
</g>
<g opacity="0.33">
<path d="M50.778 61.3372H0.595276V11.1699H50.7625V61.3372H50.778ZM0.982488 60.9499H50.3753V11.5571H0.982488V60.9499Z" fill="#0FAC90"/>
<path d="M100.558 61.3372H50.3908V11.1699H100.558V61.3372ZM50.778 60.9499H100.171V11.5571H50.778V60.9499Z" fill="#0FAC90"/>
<path d="M150.338 61.3372H100.171V11.1699H150.338V61.3372ZM100.558 60.9499H149.951V11.5571H100.558V60.9499Z" fill="#0FAC90"/>
<path d="M200.134 61.3372H149.966V11.1699H200.134V61.3372ZM150.338 60.9499H199.731V11.5571H150.338V60.9499Z" fill="#0FAC90"/>
<path d="M249.914 61.3372H199.746V11.1699H249.914V61.3372ZM200.133 60.9499H249.526V11.5571H200.133V60.9499Z" fill="#0FAC90"/>
<path d="M299.694 61.3372H249.526V11.1699H299.694V61.3372ZM249.914 60.9499H299.306V11.5571H249.914V60.9499Z" fill="#0FAC90"/>
<path d="M349.474 61.3372H299.306V11.1699H349.474V61.3372ZM299.694 60.9499H349.086V11.5571H299.694V60.9499Z" fill="#0FAC90"/>
<path d="M399.269 61.3372H349.102V11.1699H399.269V61.3372ZM349.473 60.9499H398.866V11.5571H349.473V60.9499Z" fill="#0FAC90"/>
<path d="M449.049 61.3372H398.882V11.1699H449.049V61.3372ZM399.269 60.9499H448.662V11.5571H399.269V60.9499Z" fill="#0FAC90"/>
<path d="M498.829 61.3372H448.662V11.1699H498.829V61.3372ZM449.049 60.9499H498.442V11.5571H449.049V60.9499Z" fill="#0FAC90"/>
<path d="M548.624 61.3372H498.457V11.1699H548.624V61.3372ZM498.829 60.9499H548.222V11.5571H498.829V60.9499Z" fill="#0FAC90"/>
<path d="M598.404 61.3372H548.237V11.1699H598.404V61.3372ZM548.624 60.9499H598.017V11.5571H548.624V60.9499Z" fill="#0FAC90"/>
</g>
<g opacity="0.33">
<path d="M50.778 111.134H0.595276V60.9668H50.7625V111.134H50.778ZM0.982488 110.747H50.3753V61.354H0.982488V110.747Z" fill="#0FAC90"/>
<path d="M100.558 111.134H50.3908V60.9668H100.558V111.134ZM50.778 110.747H100.171V61.354H50.778V110.747Z" fill="#0FAC90"/>
<path d="M150.338 111.134H100.171V60.9668H150.338V111.134ZM100.558 110.747H149.951V61.354H100.558V110.747Z" fill="#0FAC90"/>
<path d="M200.134 111.134H149.966V60.9668H200.134V111.134ZM150.338 110.747H199.731V61.354H150.338V110.747Z" fill="#0FAC90"/>
<path d="M249.914 111.134H199.746V60.9668H249.914V111.134ZM200.133 110.747H249.526V61.354H200.133V110.747Z" fill="#0FAC90"/>
<path d="M299.694 111.134H249.526V60.9668H299.694V111.134ZM249.914 110.747H299.306V61.354H249.914V110.747Z" fill="#0FAC90"/>
<path d="M349.474 111.134H299.306V60.9668H349.474V111.134ZM299.694 110.747H349.086V61.354H299.694V110.747Z" fill="#0FAC90"/>
<path d="M399.269 111.134H349.102V60.9668H399.269V111.134ZM349.473 110.747H398.866V61.354H349.473V110.747Z" fill="#0FAC90"/>
<path d="M449.049 111.134H398.882V60.9668H449.049V111.134ZM399.269 110.747H448.662V61.354H399.269V110.747Z" fill="#0FAC90"/>
<path d="M498.829 111.134H448.662V60.9668H498.829V111.134ZM449.049 110.747H498.442V61.354H449.049V110.747Z" fill="#0FAC90"/>
<path d="M548.624 111.134H498.457V60.9668H548.624V111.134ZM498.829 110.747H548.222V61.354H498.829V110.747Z" fill="#0FAC90"/>
<path d="M598.404 111.134H548.237V60.9668H598.404V111.134ZM548.624 110.747H598.017V61.354H548.624V110.747Z" fill="#0FAC90"/>
</g>
<g opacity="0.33">
<path d="M50.7778 160.913H0.595093V110.746H50.7623V160.913H50.7778ZM0.982305 160.526H50.3751V111.133H0.982305V160.526Z" fill="#0FAC90"/>
<path d="M100.558 160.913H50.3906V110.746H100.558V160.913ZM50.7778 160.526H100.171V111.133H50.7778V160.526Z" fill="#0FAC90"/>
<path d="M150.338 160.913H100.171V110.746H150.338V160.913ZM100.558 160.526H149.951V111.133H100.558V160.526Z" fill="#0FAC90"/>
<path d="M200.133 160.913H149.966V110.746H200.133V160.913ZM150.338 160.526H199.731V111.133H150.338V160.526Z" fill="#0FAC90"/>
<path d="M249.913 160.913H199.746V110.746H249.913V160.913ZM200.133 160.526H249.526V111.133H200.133V160.526Z" fill="#0FAC90"/>
<path d="M299.694 160.913H249.526V110.746H299.694V160.913ZM249.914 160.526H299.306V111.133H249.914V160.526Z" fill="#0FAC90"/>
<path d="M349.473 160.913H299.306V110.746H349.473V160.913ZM299.693 160.526H349.086V111.133H299.693V160.526Z" fill="#0FAC90"/>
<path d="M399.269 160.913H349.102V110.746H399.269V160.913ZM349.473 160.526H398.866V111.133H349.473V160.526Z" fill="#0FAC90"/>
<path d="M449.049 160.913H398.882V110.746H449.049V160.913ZM399.269 160.526H448.662V111.133H399.269V160.526Z" fill="#0FAC90"/>
<path d="M498.829 160.913H448.662V110.746H498.829V160.913ZM449.049 160.526H498.442V111.133H449.049V160.526Z" fill="#0FAC90"/>
<path d="M548.624 160.913H498.457V110.746H548.624V160.913ZM498.829 160.526H548.222V111.133H498.829V160.526Z" fill="#0FAC90"/>
<path d="M598.405 160.913H548.237V110.746H598.405V160.913ZM548.625 160.526H598.017V111.133H548.625V160.526Z" fill="#0FAC90"/>
</g>
<g opacity="0.33">
<path d="M50.778 210.693H0.595276V160.525H50.7625V210.693H50.778ZM0.982488 210.305H50.3753V160.913H0.982488V210.305Z" fill="#0FAC90"/>
<path d="M100.558 210.693H50.3908V160.525H100.558V210.693ZM50.778 210.305H100.171V160.913H50.778V210.305Z" fill="#0FAC90"/>
<path d="M150.338 210.693H100.171V160.525H150.338V210.693ZM100.558 210.305H149.951V160.913H100.558V210.305Z" fill="#0FAC90"/>
<path d="M200.134 210.693H149.966V160.525H200.134V210.693ZM150.338 210.305H199.731V160.913H150.338V210.305Z" fill="#0FAC90"/>
<path d="M249.914 210.693H199.746V160.525H249.914V210.693ZM200.133 210.305H249.526V160.913H200.133V210.305Z" fill="#0FAC90"/>
<path d="M299.694 210.693H249.526V160.525H299.694V210.693ZM249.914 210.305H299.306V160.913H249.914V210.305Z" fill="#0FAC90"/>
<path d="M349.474 210.693H299.306V160.525H349.474V210.693ZM299.694 210.305H349.086V160.913H299.694V210.305Z" fill="#0FAC90"/>
<path d="M399.269 210.693H349.102V160.525H399.269V210.693ZM349.473 210.305H398.866V160.913H349.473V210.305Z" fill="#0FAC90"/>
<path d="M449.049 210.693H398.882V160.525H449.049V210.693ZM399.269 210.305H448.662V160.913H399.269V210.305Z" fill="#0FAC90"/>
<path d="M498.829 210.693H448.662V160.525H498.829V210.693ZM449.049 210.305H498.442V160.913H449.049V210.305Z" fill="#0FAC90"/>
<path d="M548.624 210.693H498.457V160.525H548.624V210.693ZM498.829 210.305H548.222V160.913H498.829V210.305Z" fill="#0FAC90"/>
<path d="M598.404 210.693H548.237V160.525H598.404V210.693ZM548.624 210.305H598.017V160.913H548.624V210.305Z" fill="#0FAC90"/>
</g>
<g opacity="0.33">
<path d="M50.7778 260.474H0.595093V210.307H50.7623V260.474H50.7778ZM0.982305 260.087H50.3751V210.694H0.982305V260.087Z" fill="#0FAC90"/>
<path d="M100.558 260.474H50.3906V210.307H100.558V260.474ZM50.7778 260.087H100.171V210.694H50.7778V260.087Z" fill="#0FAC90"/>
<path d="M150.338 260.474H100.171V210.307H150.338V260.474ZM100.558 260.087H149.951V210.694H100.558V260.087Z" fill="#0FAC90"/>
<path d="M200.133 260.474H149.966V210.307H200.133V260.474ZM150.338 260.087H199.731V210.694H150.338V260.087Z" fill="#0FAC90"/>
<path d="M249.913 260.474H199.746V210.307H249.913V260.474ZM200.133 260.087H249.526V210.694H200.133V260.087Z" fill="#0FAC90"/>
<path d="M299.694 260.474H249.526V210.307H299.694V260.474ZM249.914 260.087H299.306V210.694H249.914V260.087Z" fill="#0FAC90"/>
<path d="M349.473 260.474H299.306V210.307H349.473V260.474ZM299.693 260.087H349.086V210.694H299.693V260.087Z" fill="#0FAC90"/>
<path d="M399.269 260.474H349.102V210.307H399.269V260.474ZM349.473 260.087H398.866V210.694H349.473V260.087Z" fill="#0FAC90"/>
<path d="M449.049 260.474H398.882V210.307H449.049V260.474ZM399.269 260.087H448.662V210.694H399.269V260.087Z" fill="#0FAC90"/>
<path d="M498.829 260.474H448.662V210.307H498.829V260.474ZM449.049 260.087H498.442V210.694H449.049V260.087Z" fill="#0FAC90"/>
<path d="M548.624 260.474H498.457V210.307H548.624V260.474ZM498.829 260.087H548.222V210.694H498.829V260.087Z" fill="#0FAC90"/>
<path d="M598.405 260.474H548.237V210.307H598.405V260.474ZM548.625 260.087H598.017V210.694H548.625V260.087Z" fill="#0FAC90"/>
</g>
<g opacity="0.33">
<path d="M50.7778 310.269H0.595093V260.102H50.7623V310.269H50.7778ZM0.982305 309.882H50.3751V260.489H0.982305V309.882Z" fill="#0FAC90"/>
<path d="M100.558 310.269H50.3906V260.102H100.558V310.269ZM50.7778 309.882H100.171V260.489H50.7778V309.882Z" fill="#0FAC90"/>
<path d="M150.338 310.269H100.171V260.102H150.338V310.269ZM100.558 309.882H149.951V260.489H100.558V309.882Z" fill="#0FAC90"/>
<path d="M200.133 310.269H149.966V260.102H200.133V310.269ZM150.338 309.882H199.731V260.489H150.338V309.882Z" fill="#0FAC90"/>
<path d="M249.913 310.269H199.746V260.102H249.913V310.269ZM200.133 309.882H249.526V260.489H200.133V309.882Z" fill="#0FAC90"/>
<path d="M299.694 310.269H249.526V260.102H299.694V310.269ZM249.914 309.882H299.306V260.489H249.914V309.882Z" fill="#0FAC90"/>
<path d="M349.473 310.269H299.306V260.102H349.473V310.269ZM299.693 309.882H349.086V260.489H299.693V309.882Z" fill="#0FAC90"/>
<path d="M399.269 310.269H349.102V260.102H399.269V310.269ZM349.473 309.882H398.866V260.489H349.473V309.882Z" fill="#0FAC90"/>
<path d="M449.049 310.269H398.882V260.102H449.049V310.269ZM399.269 309.882H448.662V260.489H399.269V309.882Z" fill="#0FAC90"/>
<path d="M498.829 310.269H448.662V260.102H498.829V310.269ZM449.049 309.882H498.442V260.489H449.049V309.882Z" fill="#0FAC90"/>
<path d="M548.624 310.269H498.457V260.102H548.624V310.269ZM498.829 309.882H548.222V260.489H498.829V309.882Z" fill="#0FAC90"/>
<path d="M598.405 310.269H548.237V260.102H598.405V310.269ZM548.625 309.882H598.017V260.489H548.625V309.882Z" fill="#0FAC90"/>
</g>
<g opacity="0.33">
<path d="M50.778 360.05H0.595276V309.883H50.7625V360.05H50.778ZM0.982488 359.663H50.3753V310.27H0.982488V359.663Z" fill="#0FAC90"/>
<path d="M100.558 360.05H50.3908V309.883H100.558V360.05ZM50.778 359.663H100.171V310.27H50.778V359.663Z" fill="#0FAC90"/>
<path d="M150.338 360.05H100.171V309.883H150.338V360.05ZM100.558 359.663H149.951V310.27H100.558V359.663Z" fill="#0FAC90"/>
<path d="M200.134 360.05H149.966V309.883H200.134V360.05ZM150.338 359.663H199.731V310.27H150.338V359.663Z" fill="#0FAC90"/>
<path d="M249.914 360.05H199.746V309.883H249.914V360.05ZM200.133 359.663H249.526V310.27H200.133V359.663Z" fill="#0FAC90"/>
<path d="M299.694 360.05H249.526V309.883H299.694V360.05ZM249.914 359.663H299.306V310.27H249.914V359.663Z" fill="#0FAC90"/>
<path d="M349.474 360.05H299.306V309.883H349.474V360.05ZM299.694 359.663H349.086V310.27H299.694V359.663Z" fill="#0FAC90"/>
<path d="M399.269 360.05H349.102V309.883H399.269V360.05ZM349.473 359.663H398.866V310.27H349.473V359.663Z" fill="#0FAC90"/>
<path d="M449.049 360.05H398.882V309.883H449.049V360.05ZM399.269 359.663H448.662V310.27H399.269V359.663Z" fill="#0FAC90"/>
<path d="M498.829 360.05H448.662V309.883H498.829V360.05ZM449.049 359.663H498.442V310.27H449.049V359.663Z" fill="#0FAC90"/>
<path d="M548.624 360.05H498.457V309.883H548.624V360.05ZM498.829 359.663H548.222V310.27H498.829V359.663Z" fill="#0FAC90"/>
<path d="M598.404 360.05H548.237V309.883H598.404V360.05ZM548.624 359.663H598.017V310.27H548.624V359.663Z" fill="#0FAC90"/>
</g>
<g opacity="0.33">
<path d="M50.778 409.829H0.595276V359.662H50.7625V409.829H50.778ZM0.982488 409.442H50.3753V360.049H0.982488V409.442Z" fill="#0FAC90"/>
<path d="M100.558 409.829H50.3908V359.662H100.558V409.829ZM50.778 409.442H100.171V360.049H50.778V409.442Z" fill="#0FAC90"/>
<path d="M150.338 409.829H100.171V359.662H150.338V409.829ZM100.558 409.442H149.951V360.049H100.558V409.442Z" fill="#0FAC90"/>
<path d="M200.134 409.829H149.966V359.662H200.134V409.829ZM150.338 409.442H199.731V360.049H150.338V409.442Z" fill="#0FAC90"/>
<path d="M249.914 409.829H199.746V359.662H249.914V409.829ZM200.133 409.442H249.526V360.049H200.133V409.442Z" fill="#0FAC90"/>
<path d="M299.694 409.829H249.526V359.662H299.694V409.829ZM249.914 409.442H299.306V360.049H249.914V409.442Z" fill="#0FAC90"/>
<path d="M349.474 409.829H299.306V359.662H349.474V409.829ZM299.694 409.442H349.086V360.049H299.694V409.442Z" fill="#0FAC90"/>
<path d="M399.269 409.829H349.102V359.662H399.269V409.829ZM349.473 409.442H398.866V360.049H349.473V409.442Z" fill="#0FAC90"/>
<path d="M449.049 409.829H398.882V359.662H449.049V409.829ZM399.269 409.442H448.662V360.049H399.269V409.442Z" fill="#0FAC90"/>
<path d="M498.829 409.829H448.662V359.662H498.829V409.829ZM449.049 409.442H498.442V360.049H449.049V409.442Z" fill="#0FAC90"/>
<path d="M548.624 409.829H498.457V359.662H548.624V409.829ZM498.829 409.442H548.222V360.049H498.829V409.442Z" fill="#0FAC90"/>
<path d="M598.404 409.829H548.237V359.662H598.404V409.829ZM548.624 409.442H598.017V360.049H548.624V409.442Z" fill="#0FAC90"/>
</g>
<g opacity="0.33">
<path d="M50.7778 459.624H0.595093V409.457H50.7623V459.624H50.7778ZM0.982305 459.237H50.3751V409.844H0.982305V459.237Z" fill="#0FAC90"/>
<path d="M100.558 459.624H50.3906V409.457H100.558V459.624ZM50.7778 459.237H100.171V409.844H50.7778V459.237Z" fill="#0FAC90"/>
<path d="M150.338 459.624H100.171V409.457H150.338V459.624ZM100.558 459.237H149.951V409.844H100.558V459.237Z" fill="#0FAC90"/>
<path d="M200.133 459.624H149.966V409.457H200.133V459.624ZM150.338 459.237H199.731V409.844H150.338V459.237Z" fill="#0FAC90"/>
<path d="M249.913 459.624H199.746V409.457H249.913V459.624ZM200.133 459.237H249.526V409.844H200.133V459.237Z" fill="#0FAC90"/>
<path d="M299.694 459.624H249.526V409.457H299.694V459.624ZM249.914 459.237H299.306V409.844H249.914V459.237Z" fill="#0FAC90"/>
<path d="M349.473 459.624H299.306V409.457H349.473V459.624ZM299.693 459.237H349.086V409.844H299.693V459.237Z" fill="#0FAC90"/>
<path d="M399.269 459.624H349.102V409.457H399.269V459.624ZM349.473 459.237H398.866V409.844H349.473V459.237Z" fill="#0FAC90"/>
<path d="M449.049 459.624H398.882V409.457H449.049V459.624ZM399.269 459.237H448.662V409.844H399.269V459.237Z" fill="#0FAC90"/>
<path d="M498.829 459.624H448.662V409.457H498.829V459.624ZM449.049 459.237H498.442V409.844H449.049V459.237Z" fill="#0FAC90"/>
<path d="M548.624 459.624H498.457V409.457H548.624V459.624ZM498.829 459.237H548.222V409.844H498.829V459.237Z" fill="#0FAC90"/>
<path d="M598.405 459.624H548.237V409.457H598.405V459.624ZM548.625 459.237H598.017V409.844H548.625V459.237Z" fill="#0FAC90"/>
</g>
</g>
<rect width="600" height="450" fill="url(#paint0_radial_3028_6287)"/>
<path d="M499 111L300 111L300 225" stroke="#28D1B3" stroke-width="2" stroke-dasharray="6 4"/>
<path d="M300 249L300 360L169 360" stroke="#28D1B3" stroke-width="2" stroke-dasharray="6 4"/>
<g filter="url(#filter0_bd_3028_6287)">
<rect x="220" y="145" width="160" height="160" rx="38.4" fill="white" fill-opacity="0.19" shape-rendering="crispEdges"/>
<rect x="220.8" y="145.8" width="158.4" height="158.4" rx="37.6" stroke="url(#paint1_linear_3028_6287)" stroke-width="1.6" shape-rendering="crispEdges"/>
</g>
<g filter="url(#filter1_d_3028_6287)">
<circle cx="300" cy="225.001" r="45.7143" fill="url(#paint2_linear_3028_6287)"/>
<path fill-rule="evenodd" clip-rule="evenodd" d="M302.816 200.621C309.269 200.621 315.331 203.128 319.895 207.691C324.45 212.254 326.965 218.316 326.965 224.77C326.965 231.223 324.458 237.286 319.895 241.849C315.331 246.404 309.269 248.919 302.816 248.919H283.663C280.907 248.919 278.667 246.679 278.667 243.922V205.617C278.667 202.861 280.907 200.621 283.663 200.621H302.816ZM289.476 213.019C288.46 214.035 288.46 215.692 289.476 216.708L293.398 220.63C294.414 221.646 296.071 221.646 297.087 220.63C298.102 219.614 298.102 217.957 297.087 216.941L293.164 213.019C292.149 212.003 290.491 212.003 289.476 213.019ZM305.38 232.614C304.364 231.598 304.364 229.941 305.38 228.925C306.396 227.91 308.053 227.91 309.069 228.925L312.991 232.848C314.007 233.863 314.007 235.521 312.991 236.536C311.975 237.552 310.318 237.552 309.302 236.536L305.38 232.614ZM312.991 213.019C311.975 212.003 310.318 212.003 309.302 213.019L305.38 216.941C304.364 217.957 304.364 219.614 305.38 220.63C306.396 221.646 308.053 221.646 309.069 220.63L312.991 216.708C314.007 215.692 314.007 214.035 312.991 213.019ZM293.398 228.917C294.414 227.901 296.071 227.901 297.087 228.917C298.102 229.933 298.102 231.59 297.087 232.606L293.164 236.536C292.149 237.552 290.491 237.552 289.476 236.536C288.46 235.52 288.46 233.863 289.476 232.847L293.398 228.917ZM303.715 223.004L302.991 222.28C302.016 221.297 300.434 221.297 299.46 222.28L298.736 223.004C297.761 223.979 297.761 225.561 298.736 226.535L299.46 227.26C300.434 228.234 302.016 228.234 302.991 227.26L303.715 226.535C304.69 225.561 304.69 223.979 303.715 223.004Z" fill="white"/>
</g>
<g filter="url(#filter2_bd_3028_6287)">
<rect x="49" y="297" width="120" height="120" rx="28.8" fill="white" fill-opacity="0.3" shape-rendering="crispEdges"/>
<rect x="49.6" y="297.6" width="118.8" height="118.8" rx="28.2" stroke="url(#paint3_linear_3028_6287)" stroke-width="1.2" shape-rendering="crispEdges"/>
</g>
<g clip-path="url(#clip1_3028_6287)">
<path d="M145 383.404H111.4C110.075 383.404 109 382.328 109 381.004C109 379.679 109 334.328 109 333.004C109 331.679 110.075 330.604 111.4 330.604H145C146.325 330.604 147.4 331.679 147.4 333.004V381.004C147.4 382.328 146.325 383.404 145 383.404Z" fill="#ECEFF1"/>
<path d="M121 345.001H111.4C110.075 345.001 109 343.926 109 342.601C109 341.276 110.075 340.201 111.4 340.201H121C122.325 340.201 123.4 341.276 123.4 342.601C123.4 343.926 122.325 345.001 121 345.001Z" fill="#388E3C"/>
<path d="M121 354.601H111.4C110.075 354.601 109 353.526 109 352.201C109 350.876 110.075 349.801 111.4 349.801H121C122.325 349.801 123.4 350.876 123.4 352.201C123.4 353.526 122.325 354.601 121 354.601Z" fill="#388E3C"/>
<path d="M121 364.2H111.4C110.075 364.2 109 363.125 109 361.8C109 360.476 110.075 359.4 111.4 359.4H121C122.325 359.4 123.4 360.476 123.4 361.8C123.4 363.125 122.325 364.2 121 364.2Z" fill="#388E3C"/>
<path d="M121 373.802H111.4C110.075 373.802 109 372.727 109 371.402C109 370.077 110.075 369.002 111.4 369.002H121C122.325 369.002 123.4 370.077 123.4 371.402C123.4 372.727 122.325 373.802 121 373.802Z" fill="#388E3C"/>
<path d="M135.4 345.001H130.6C129.275 345.001 128.2 343.926 128.2 342.601C128.2 341.276 129.275 340.201 130.6 340.201H135.4C136.725 340.201 137.8 341.276 137.8 342.601C137.8 343.926 136.725 345.001 135.4 345.001Z" fill="#388E3C"/>
<path d="M135.4 354.601H130.6C129.275 354.601 128.2 353.526 128.2 352.201C128.2 350.876 129.275 349.801 130.6 349.801H135.4C136.725 349.801 137.8 350.876 137.8 352.201C137.8 353.526 136.725 354.601 135.4 354.601Z" fill="#388E3C"/>
<path d="M135.4 364.2H130.6C129.275 364.2 128.2 363.125 128.2 361.8C128.2 360.476 129.275 359.4 130.6 359.4H135.4C136.725 359.4 137.8 360.476 137.8 361.8C137.8 363.125 136.725 364.2 135.4 364.2Z" fill="#388E3C"/>
<path d="M135.4 373.802H130.6C129.275 373.802 128.2 372.727 128.2 371.402C128.2 370.077 129.275 369.002 130.6 369.002H135.4C136.725 369.002 137.8 370.077 137.8 371.402C137.8 372.727 136.725 373.802 135.4 373.802Z" fill="#388E3C"/>
<path d="M112.931 321.551C112.384 321.095 111.65 320.899 110.958 321.043L72.5584 328.243C71.4208 328.454 70.6 329.443 70.6 330.599V383.399C70.6 384.551 71.4208 385.545 72.5584 385.756L110.958 392.956C111.102 392.985 111.251 392.999 111.4 392.999C111.957 392.999 112.499 392.807 112.931 392.447C113.483 391.991 113.8 391.31 113.8 390.599V323.399C113.8 322.684 113.483 322.007 112.931 321.551Z" fill="#2E7D32"/>
<path d="M103.605 365.024L96.0161 356.35L103.691 346.482C104.507 345.435 104.315 343.928 103.274 343.112C102.232 342.296 100.725 342.488 99.9041 343.53L92.7953 352.669L86.8049 345.824C85.9265 344.816 84.4097 344.725 83.4209 345.598C82.4225 346.472 82.3217 347.989 83.1953 348.982L89.7953 356.528L83.1041 365.13C82.2881 366.176 82.4801 367.683 83.5217 368.499C83.9633 368.84 84.4865 369.003 85.0001 369.003C85.7153 369.003 86.4209 368.686 86.8961 368.077L93.0161 360.205L99.9953 368.178C100.471 368.725 101.133 369.003 101.8 369.003C102.362 369.003 102.923 368.806 103.379 368.408C104.378 367.534 104.479 366.018 103.605 365.024Z" fill="#FAFAFA"/>
</g>
<g filter="url(#filter3_bd_3028_6287)">
<rect x="449" y="41" width="120" height="120" rx="28.8" fill="white" fill-opacity="0.3" shape-rendering="crispEdges"/>
<rect x="449.6" y="41.6" width="118.8" height="118.8" rx="28.2" stroke="url(#paint4_linear_3028_6287)" stroke-width="1.2" shape-rendering="crispEdges"/>
</g>
<path fill-rule="evenodd" clip-rule="evenodd" d="M508.998 74C505.839 74.0003 502.735 74.8323 499.999 76.4123C497.263 77.9923 494.991 80.2647 493.411 83.001C491.831 85.7374 491 88.8413 491 92.0008C491 95.1603 491.832 98.2641 493.412 101C494.451 102.8 495.79 104.4 497.364 105.733L494.445 110.016C494.298 110.005 494.15 110 494 110C490.686 110 488 112.686 488 116C488 119.314 490.686 122 494 122C497.314 122 500 119.314 500 116C500 115.065 499.786 114.181 499.405 113.392L505.799 104.008L503 102.392C501.176 101.339 499.661 99.8244 498.608 98.0002C497.555 96.1761 497 94.1069 497 92.0005C497 89.8942 497.554 87.8249 498.607 86.0007C499.66 84.1765 501.175 82.6616 502.999 81.6082C504.823 80.5549 506.892 80.0002 508.999 80C511.105 79.9998 513.174 80.554 514.999 81.6069C516.823 82.6598 518.338 84.1744 519.391 85.9984C520.445 87.8224 521 89.8916 521 91.9979L527 91.9969C526.999 88.8373 526.167 85.7336 524.587 82.9976C523.007 80.2616 520.734 77.9898 517.998 76.4104C515.262 74.831 512.158 73.9997 508.998 74ZM514.406 94.6057L517.535 99.1981C519.675 98.3751 521.96 97.9651 524.27 98C527.52 98.0491 530.697 98.9776 533.462 100.687C536.228 102.396 538.478 104.823 539.976 107.708C541.473 110.594 542.161 113.831 541.966 117.076C541.771 120.321 540.701 123.453 538.869 126.139C537.038 128.825 534.513 130.965 531.563 132.331C528.613 133.697 525.348 134.239 522.115 133.899C518.882 133.559 515.802 132.35 513.2 130.4L516.8 125.599C518.534 126.899 520.588 127.705 522.743 127.932C524.898 128.159 527.075 127.798 529.042 126.887C531.008 125.976 532.691 124.549 533.912 122.759C535.133 120.968 535.847 118.88 535.977 116.717C536.106 114.553 535.648 112.395 534.65 110.471C533.652 108.548 532.151 106.93 530.308 105.791C528.464 104.651 526.346 104.032 524.179 103.999C522.012 103.967 519.877 104.521 518 105.605L515.589 106.996L509.447 97.9836C509.3 97.9945 509.15 98 509 98C505.686 98 503 95.3137 503 92C503 88.6863 505.686 86 509 86C512.314 86 515 88.6863 515 92C515 92.9337 514.787 93.8177 514.406 94.6057ZM476.731 110.926C477.564 108.093 479.081 105.508 481.148 103.4L485.432 107.601C484.054 109.006 483.042 110.729 482.487 112.618C481.932 114.507 481.85 116.503 482.248 118.431C482.646 120.358 483.513 122.159 484.771 123.672C486.029 125.186 487.641 126.368 489.463 127.112C491.285 127.856 493.263 128.141 495.221 127.94C497.179 127.74 499.058 127.061 500.692 125.963C502.326 124.865 503.665 123.382 504.591 121.645C505.516 119.908 506 117.969 506 116.001L506 113H518.802C519.84 111.207 521.779 110 524 110C527.314 110 530 112.686 530 116C530 119.314 527.314 122 524 122C521.779 122 519.84 120.794 518.803 119H511.749C511.427 120.904 510.8 122.751 509.886 124.466C508.498 127.072 506.489 129.297 504.039 130.943C501.588 132.59 498.769 133.609 495.832 133.909C492.894 134.21 489.928 133.783 487.194 132.666C484.461 131.55 482.044 129.778 480.157 127.507C478.269 125.237 476.97 122.536 476.372 119.645C475.775 116.753 475.898 113.759 476.731 110.926Z" fill="url(#paint5_linear_3028_6287)"/>
</g>
<defs>
<filter id="filter0_bd_3028_6287" x="191.84" y="123.24" width="216.32" height="216.32" filterUnits="userSpaceOnUse" color-interpolation-filters="sRGB">
<feFlood flood-opacity="0" result="BackgroundImageFix"/>
<feGaussianBlur in="BackgroundImageFix" stdDeviation="4"/>
<feComposite in2="SourceAlpha" operator="in" result="effect1_backgroundBlur_3028_6287"/>
<feColorMatrix in="SourceAlpha" type="matrix" values="0 0 0 0 0 0 0 0 0 0 0 0 0 0 0 0 0 0 127 0" result="hardAlpha"/>
<feOffset dy="6.4"/>
<feGaussianBlur stdDeviation="14.08"/>
<feComposite in2="hardAlpha" operator="out"/>
<feColorMatrix type="matrix" values="0 0 0 0 0 0 0 0 0 0 0 0 0 0 0 0 0 0 0.1 0"/>
<feBlend mode="normal" in2="effect1_backgroundBlur_3028_6287" result="effect2_dropShadow_3028_6287"/>
<feBlend mode="normal" in="SourceGraphic" in2="effect2_dropShadow_3028_6287" result="shape"/>
</filter>
<filter id="filter1_d_3028_6287" x="221.714" y="151.287" width="156.571" height="156.571" filterUnits="userSpaceOnUse" color-interpolation-filters="sRGB">
<feFlood flood-opacity="0" result="BackgroundImageFix"/>
<feColorMatrix in="SourceAlpha" type="matrix" values="0 0 0 0 0 0 0 0 0 0 0 0 0 0 0 0 0 0 127 0" result="hardAlpha"/>
<feOffset dy="4.57143"/>
<feGaussianBlur stdDeviation="16.2857"/>
<feComposite in2="hardAlpha" operator="out"/>
<feColorMatrix type="matrix" values="0 0 0 0 0.156863 0 0 0 0 0.819608 0 0 0 0 0.701961 0 0 0 0.56 0"/>
<feBlend mode="normal" in2="BackgroundImageFix" result="effect1_dropShadow_3028_6287"/>
<feBlend mode="normal" in="SourceGraphic" in2="effect1_dropShadow_3028_6287" result="shape"/>
</filter>
<filter id="filter2_bd_3028_6287" x="27.88" y="280.68" width="162.24" height="162.24" filterUnits="userSpaceOnUse" color-interpolation-filters="sRGB">
<feFlood flood-opacity="0" result="BackgroundImageFix"/>
<feGaussianBlur in="BackgroundImageFix" stdDeviation="3"/>
<feComposite in2="SourceAlpha" operator="in" result="effect1_backgroundBlur_3028_6287"/>
<feColorMatrix in="SourceAlpha" type="matrix" values="0 0 0 0 0 0 0 0 0 0 0 0 0 0 0 0 0 0 127 0" result="hardAlpha"/>
<feOffset dy="4.8"/>
<feGaussianBlur stdDeviation="10.56"/>
<feComposite in2="hardAlpha" operator="out"/>
<feColorMatrix type="matrix" values="0 0 0 0 0 0 0 0 0 0 0 0 0 0 0 0 0 0 0.1 0"/>
<feBlend mode="normal" in2="effect1_backgroundBlur_3028_6287" result="effect2_dropShadow_3028_6287"/>
<feBlend mode="normal" in="SourceGraphic" in2="effect2_dropShadow_3028_6287" result="shape"/>
</filter>
<filter id="filter3_bd_3028_6287" x="427.88" y="24.68" width="162.24" height="162.24" filterUnits="userSpaceOnUse" color-interpolation-filters="sRGB">
<feFlood flood-opacity="0" result="BackgroundImageFix"/>
<feGaussianBlur in="BackgroundImageFix" stdDeviation="3"/>
<feComposite in2="SourceAlpha" operator="in" result="effect1_backgroundBlur_3028_6287"/>
<feColorMatrix in="SourceAlpha" type="matrix" values="0 0 0 0 0 0 0 0 0 0 0 0 0 0 0 0 0 0 127 0" result="hardAlpha"/>
<feOffset dy="4.8"/>
<feGaussianBlur stdDeviation="10.56"/>
<feComposite in2="hardAlpha" operator="out"/>
<feColorMatrix type="matrix" values="0 0 0 0 0 0 0 0 0 0 0 0 0 0 0 0 0 0 0.1 0"/>
<feBlend mode="normal" in2="effect1_backgroundBlur_3028_6287" result="effect2_dropShadow_3028_6287"/>
<feBlend mode="normal" in="SourceGraphic" in2="effect2_dropShadow_3028_6287" result="shape"/>
</filter>
<radialGradient id="paint0_radial_3028_6287" cx="0" cy="0" r="1" gradientUnits="userSpaceOnUse" gradientTransform="translate(300 225) rotate(38.474) scale(373.296 497.728)">
<stop stop-color="white" stop-opacity="0"/>
<stop offset="1" stop-color="white"/>
</radialGradient>
<linearGradient id="paint1_linear_3028_6287" x1="205.6" y1="127.4" x2="420" y2="385" gradientUnits="userSpaceOnUse">
<stop stop-color="#0FAC90"/>
<stop offset="0.5" stop-color="white" stop-opacity="0"/>
<stop offset="1" stop-color="#0FAC90"/>
</linearGradient>
<linearGradient id="paint2_linear_3028_6287" x1="278.057" y1="179.287" x2="334.514" y2="262.259" gradientUnits="userSpaceOnUse">
<stop stop-color="#2AE9C7"/>
<stop offset="1" stop-color="#0FAC90"/>
</linearGradient>
<linearGradient id="paint3_linear_3028_6287" x1="38.2" y1="283.8" x2="199" y2="477" gradientUnits="userSpaceOnUse">
<stop stop-color="#0FAC90"/>
<stop offset="0.5" stop-color="white" stop-opacity="0"/>
<stop offset="1" stop-color="#0FAC90"/>
</linearGradient>
<linearGradient id="paint4_linear_3028_6287" x1="438.2" y1="27.8" x2="599" y2="221" gradientUnits="userSpaceOnUse">
<stop stop-color="#0FAC90"/>
<stop offset="0.5" stop-color="white" stop-opacity="0"/>
<stop offset="1" stop-color="#0FAC90"/>
</linearGradient>
<linearGradient id="paint5_linear_3028_6287" x1="476.6" y1="57.8" x2="535.4" y2="131" gradientUnits="userSpaceOnUse">
<stop stop-color="#5F9FFF"/>
<stop offset="1" stop-color="#1F44FF"/>
</linearGradient>
<clipPath id="clip0_3028_6287">
<rect width="600" height="450" fill="white"/>
</clipPath>
<clipPath id="clip1_3028_6287">
<rect width="76.8" height="76.8" fill="white" transform="translate(70.6 318.6)"/>
</clipPath>
</defs>
</svg>
