<svg width="48" height="48" viewBox="0 0 48 48" fill="none" xmlns="http://www.w3.org/2000/svg">
<g clip-path="url(#clip0_3504_9693)">
<path d="M11.3907 19.1037H17.818C18.4958 19.1037 19.0474 18.5523 19.0474 17.8745V13.2893C19.0474 12.4911 18.2677 11.8955 17.4975 12.1033C15.8156 12.5563 14.1593 11.1632 14.2741 9.43659C14.3793 7.85447 15.9525 6.71325 17.4932 7.12537C18.2628 7.33106 19.0474 6.74531 19.0474 5.94375V1.22925C19.0474 0.551438 18.4959 0 17.818 0H2.74397C1.23094 0 0 1.23384 0 2.75044V5.62744C0 6.01584 0.314812 6.33056 0.703125 6.33056C1.09144 6.33056 1.40625 6.01584 1.40625 5.62744V2.75044C1.40625 2.00925 2.00634 1.40625 2.74397 1.40625H17.6411V5.71556C15.3217 5.23322 13.0282 6.97763 12.8709 9.34331C12.7002 11.9099 15.1139 14.0394 17.6411 13.514V17.6975H10.2685C9.75403 17.6975 9.35016 18.318 9.69384 18.8057C10.9228 20.5491 9.53672 23.0038 7.41825 22.8608C5.46234 22.7275 4.36641 20.4192 5.50387 18.8057C5.84756 18.318 5.44359 17.6975 4.92919 17.6975H1.40625V8.43497C1.40625 8.04656 1.09144 7.73184 0.703125 7.73184C0.314812 7.73184 0 8.04656 0 8.43497V17.8745C0 18.5523 0.551438 19.1037 1.22925 19.1037H3.80569C3.05747 21.5017 4.81069 24.0927 7.32263 24.2638C10.0577 24.4505 12.2075 21.724 11.3907 19.1037Z" fill="url(#paint0_linear_3504_9693)"/>
<path d="M45.256 11.1982H30.1818C29.504 11.1982 28.9526 11.7497 28.9526 12.4275V16.9143C26.6332 16.4316 24.3397 18.1756 24.1824 20.5415C24.0117 23.1078 26.4254 25.2384 28.9526 24.7115V28.8957H22.4529C22.0497 28.8957 21.6728 29.0934 21.4445 29.4247C21.2132 29.7603 21.1622 30.1894 21.308 30.5725C21.9087 32.1509 20.7853 33.9436 19.0908 34.059C17.2518 34.1853 15.8523 32.3017 16.5136 30.5697C16.6593 30.1883 16.6086 29.7607 16.3781 29.4259C16.1495 29.0939 15.772 28.8957 15.3683 28.8957H12.5408C11.863 28.8957 11.3115 29.4471 11.3115 30.125V45.249C11.3115 46.7656 12.5425 47.9994 14.0555 47.9994H45.2561C46.769 47.9996 47.9999 46.7658 47.9999 45.2492V41.3035C47.9999 40.9151 47.6852 40.6004 47.2968 40.6004C46.9084 40.6004 46.5937 40.9151 46.5937 41.3035V45.2492C46.5937 45.9904 45.9937 46.5934 45.256 46.5934H30.3588V43.8123C30.3588 43.2324 29.7191 42.9402 29.2801 43.2178C28.0261 44.01 26.2925 43.0504 26.3026 41.5517C26.3126 40.0641 28.0062 39.1051 29.2801 39.9099C29.7428 40.2023 30.3588 39.8735 30.3588 39.3155V30.3021H35.0544C35.6098 30.3021 35.9485 29.6599 35.6345 29.2016C35.2406 28.6265 35.0299 27.9383 35.0299 27.2404C35.0353 22.6968 41.9172 22.7019 41.9227 27.2404C41.9227 27.9384 41.712 28.6266 41.3181 29.2016C40.9841 29.6893 41.3868 30.3021 41.8982 30.3021H46.5937V38.4974C46.5937 38.8858 46.9084 39.2005 47.2968 39.2005C47.6852 39.2005 47.9999 38.8858 47.9999 38.4974V13.9488C47.9999 12.4321 46.769 11.1982 45.256 11.1982ZM28.9526 44.8478V46.5934H14.0554C13.3178 46.5934 12.7177 45.9904 12.7177 45.2492V30.3021H15.1188C14.3038 32.9132 16.4489 35.65 19.1864 35.4621C21.6981 35.2911 23.4521 32.7008 22.7019 30.3021H28.9526V38.2789C27.0583 37.8711 25.1278 39.2566 24.9169 41.1876C24.6734 43.4172 26.7367 45.3265 28.9526 44.8478ZM43.0422 28.8959C43.2314 28.3705 43.329 27.8137 43.329 27.2447C43.329 20.8155 33.538 20.8791 33.625 27.3106C33.6322 27.8566 33.7285 28.391 33.9103 28.8959H30.3588V23.7206C30.2497 23.1261 29.9066 22.9185 29.3293 23.0978C27.5774 24.0157 25.4549 22.5984 25.5855 20.6349C25.7061 18.8229 27.7116 17.6811 29.3293 18.5285C29.9066 18.7077 30.2498 18.5001 30.3588 17.9056V12.6045H45.256C45.9936 12.6045 46.5937 13.2076 46.5937 13.9488V28.8959H43.0422Z" fill="url(#paint1_linear_3504_9693)"/>
<path d="M25.6406 13.8435C25.6406 14.2319 25.9553 14.5466 26.3438 14.5466C26.7322 14.5466 27.0469 14.2319 27.0469 13.8435V10.8908L31.1331 6.80462H40.3237C40.6281 7.83784 41.5846 8.59449 42.7151 8.59449C44.0898 8.59449 45.2081 7.47615 45.2081 6.10149C45.2081 4.72684 44.0898 3.6084 42.7151 3.6084C41.5846 3.6084 40.6281 4.36505 40.3237 5.39837H30.8418C30.6553 5.39837 30.4765 5.47243 30.3445 5.60424L25.8465 10.1023C25.7147 10.2342 25.6406 10.413 25.6406 10.5995V13.8435ZM42.7151 5.01465C43.3144 5.01465 43.8019 5.50215 43.8019 6.10149C43.8019 6.70074 43.3144 7.18824 42.7151 7.18824C42.1158 7.18824 41.6283 6.70074 41.6283 6.10149C41.6283 5.50215 42.1158 5.01465 42.7151 5.01465Z" fill="url(#paint2_linear_3504_9693)"/>
<path d="M22.4448 4.88447V14.9688C22.4448 15.3572 22.7596 15.6719 23.1479 15.6719C23.5362 15.6719 23.851 15.3572 23.851 14.9688V4.88447C24.8842 4.58016 25.6409 3.62363 25.6409 2.49309C25.6409 1.11844 24.5224 0 23.1479 0C21.7732 0 20.6548 1.11844 20.6548 2.49309C20.6548 3.62363 21.4114 4.58006 22.4448 4.88447ZM23.1479 1.40625C23.7471 1.40625 24.2346 1.89375 24.2346 2.49309C24.2346 3.08681 23.7558 3.57019 23.1642 3.579C23.1588 3.57891 23.1534 3.57816 23.1479 3.57816C23.1423 3.57816 23.137 3.57881 23.1316 3.579C22.5399 3.57019 22.061 3.08681 22.061 2.49309C22.061 1.89375 22.5486 1.40625 23.1479 1.40625Z" fill="url(#paint3_linear_3504_9693)"/>
<path d="M17.7272 23.3906C17.7272 22.0159 16.6089 20.8975 15.2342 20.8975C13.8596 20.8975 12.7412 22.0159 12.7412 23.3906C12.7412 24.7652 13.8596 25.8836 15.2342 25.8836C15.6664 25.8836 16.0732 25.7729 16.4279 25.5787L18.1405 27.2912V30.7499C18.1405 31.1383 18.4553 31.4531 18.8436 31.4531C19.2319 31.4531 19.5467 31.1383 19.5467 30.7499V26.9999C19.5467 26.8135 19.4726 26.6347 19.3407 26.5027L17.4222 24.5842C17.6166 24.2294 17.7272 23.8227 17.7272 23.3906ZM14.1475 23.3906C14.1475 22.7912 14.635 22.3037 15.2342 22.3037C15.8335 22.3037 16.321 22.7912 16.321 23.3906C16.321 23.9899 15.8335 24.4774 15.2342 24.4774C14.635 24.4774 14.1475 23.9899 14.1475 23.3906Z" fill="url(#paint4_linear_3504_9693)"/>
</g>
<defs>
<linearGradient id="paint0_linear_3504_9693" x1="4.69825e-10" y1="13.5018" x2="19.0468" y2="13.6129" gradientUnits="userSpaceOnUse">
<stop stop-color="#28D1B3"/>
<stop offset="1" stop-color="#0084FF"/>
</linearGradient>
<linearGradient id="paint1_linear_3504_9693" x1="11.3115" y1="31.6689" x2="47.9981" y2="31.9408" gradientUnits="userSpaceOnUse">
<stop stop-color="#28D1B3"/>
<stop offset="1" stop-color="#0084FF"/>
</linearGradient>
<linearGradient id="paint2_linear_3504_9693" x1="25.6406" y1="9.69277" x2="45.2048" y2="9.95293" gradientUnits="userSpaceOnUse">
<stop stop-color="#28D1B3"/>
<stop offset="1" stop-color="#0084FF"/>
</linearGradient>
<linearGradient id="paint3_linear_3504_9693" x1="20.6548" y1="8.7175" x2="25.6409" y2="8.72929" gradientUnits="userSpaceOnUse">
<stop stop-color="#28D1B3"/>
<stop offset="1" stop-color="#0084FF"/>
</linearGradient>
<linearGradient id="paint4_linear_3504_9693" x1="12.7412" y1="26.769" x2="19.5466" y2="26.8016" gradientUnits="userSpaceOnUse">
<stop stop-color="#28D1B3"/>
<stop offset="1" stop-color="#0084FF"/>
</linearGradient>
<clipPath id="clip0_3504_9693">
<rect width="48" height="48" fill="white"/>
</clipPath>
</defs>
</svg>
