<svg width="64" height="65" viewBox="0 0 64 65" fill="none" xmlns="http://www.w3.org/2000/svg">
<path fill-rule="evenodd" clip-rule="evenodd" d="M17.5219 17.9245C16.2101 19.331 15.3904 21.4136 15.3904 24.0436V40.4733C15.3904 43.0952 16.2061 45.1722 17.5149 46.5749C18.8092 47.9621 20.7319 48.8496 23.2841 48.8496H40.7182C43.2712 48.8496 45.1883 47.9624 46.4771 46.577C47.7814 45.1752 48.5936 43.0981 48.5936 40.4733V24.0436C48.5936 21.4082 47.7803 19.3257 46.476 17.9215C45.1872 16.534 43.271 15.6465 40.7182 15.6465H23.2841C20.7427 15.6465 18.8195 16.5334 17.5219 17.9245ZM14.5969 15.1962C16.7276 12.9118 19.7512 11.6465 23.2841 11.6465H40.7182C44.2603 11.6465 47.2816 12.9112 49.4067 15.1992C51.5166 17.4705 52.5936 20.5865 52.5936 24.0436V40.4733C52.5936 43.9229 51.5155 47.0338 49.4056 49.3016C47.2806 51.5858 44.2598 52.8496 40.7182 52.8496H23.2841C19.7439 52.8496 16.7197 51.5861 14.5902 49.3037C12.4753 47.037 11.3904 43.9258 11.3904 40.4733V24.0436C11.3904 20.581 12.4804 17.4652 14.5969 15.1962Z" fill="#28D1B3"/>
<path fill-rule="evenodd" clip-rule="evenodd" d="M25.6353 48.8535C26.7398 48.8535 27.6353 49.7487 27.6353 50.8535V56.2426C27.6353 57.3471 26.7398 58.2426 25.6353 58.2426C24.5307 58.2426 23.6353 57.3471 23.6353 56.2426V50.8535C23.6353 49.7487 24.5307 48.8535 25.6353 48.8535ZM38.3657 48.8535C39.4702 48.8535 40.3657 49.7487 40.3657 50.8535V56.2426C40.3657 57.3471 39.4702 58.2426 38.3657 58.2426C37.2612 58.2426 36.3657 57.3471 36.3657 56.2426V50.8535C36.3657 49.7487 37.2612 48.8535 38.3657 48.8535Z" fill="#28D1B3"/>
<path fill-rule="evenodd" clip-rule="evenodd" d="M5.99976 25.8965C5.99976 24.7919 6.8952 23.8965 7.99976 23.8965H13.389C14.4936 23.8965 15.389 24.7919 15.389 25.8965C15.389 27.001 14.4936 27.8965 13.389 27.8965H7.99976C6.8952 27.8965 5.99976 27.001 5.99976 25.8965ZM5.99976 38.6066C5.99976 37.5021 6.8952 36.6066 7.99976 36.6066H13.389C14.4936 36.6066 15.389 37.5021 15.389 38.6066C15.389 39.7112 14.4936 40.6066 13.389 40.6066H7.99976C6.8952 40.6066 5.99976 39.7112 5.99976 38.6066Z" fill="#28D1B3"/>
<path fill-rule="evenodd" clip-rule="evenodd" d="M25.6353 6.25977C26.7398 6.25977 27.6353 7.15518 27.6353 8.25977V13.649C27.6353 14.7536 26.7398 15.649 25.6353 15.649C24.5307 15.649 23.6353 14.7536 23.6353 13.649V8.25977C23.6353 7.15518 24.5307 6.25977 25.6353 6.25977ZM38.3657 6.25977C39.4702 6.25977 40.3657 7.15518 40.3657 8.25977V13.649C40.3657 14.7536 39.4702 15.649 38.3657 15.649C37.2612 15.649 36.3657 14.7536 36.3657 13.649V8.25977C36.3657 7.15518 37.2612 6.25977 38.3657 6.25977Z" fill="#28D1B3"/>
<path fill-rule="evenodd" clip-rule="evenodd" d="M48.5884 25.8965C48.5884 24.7919 49.4838 23.8965 50.5884 23.8965H55.9985C57.103 23.8965 57.9985 24.7919 57.9985 25.8965C57.9985 27.001 57.103 27.8965 55.9985 27.8965H50.5884C49.4838 27.8965 48.5884 27.001 48.5884 25.8965ZM48.5884 38.6066C48.5884 37.5021 49.4838 36.6066 50.5884 36.6066H55.9985C57.103 36.6066 57.9985 37.5021 57.9985 38.6066C57.9985 39.7112 57.103 40.6066 55.9985 40.6066H50.5884C49.4838 40.6066 48.5884 39.7112 48.5884 38.6066Z" fill="#28D1B3"/>
<path fill-rule="evenodd" clip-rule="evenodd" d="M27.5648 22.9375C28.3555 22.9334 29.0744 23.3956 29.399 24.1166L35.9803 38.7388C36.4336 39.7463 35.9846 40.9303 34.9774 41.3836C33.9702 41.8369 32.7862 41.3879 32.3328 40.3807L27.6011 29.8681L23.0103 40.3615C22.5676 41.3735 21.3883 41.8348 20.3764 41.3921C19.3644 40.9492 18.903 39.77 19.3457 38.758L25.7429 24.1359C26.0599 23.4114 26.7739 22.9417 27.5648 22.9375Z" fill="#28D1B3"/>
<path fill-rule="evenodd" clip-rule="evenodd" d="M32.4421 37.7969H22.8918V33.7969H32.4421V37.7969Z" fill="#28D1B3"/>
<path fill-rule="evenodd" clip-rule="evenodd" d="M41.2126 23.4746C42.3172 23.4746 43.2126 24.37 43.2126 25.4746V39.5589C43.2126 40.6635 42.3172 41.5589 41.2126 41.5589C40.1081 41.5589 39.2126 40.6635 39.2126 39.5589V25.4746C39.2126 24.37 40.1081 23.4746 41.2126 23.4746Z" fill="#28D1B3"/>
</svg>
