<svg width="48" height="48" viewBox="0 0 48 48" fill="none" xmlns="http://www.w3.org/2000/svg">
<g clip-path="url(#clip0_3504_9684)">
<path fill-rule="evenodd" clip-rule="evenodd" d="M3.23883 26.0821H2.74039C1.59544 26.0821 0.658691 25.1453 0.658691 24.0004C0.658691 22.8554 1.59544 21.9187 2.74039 21.9187H3.23883C4.21596 12.0582 12.0578 4.21645 21.9183 3.23942V2.74087C21.9183 1.59593 22.8549 0.65918 23.9999 0.65918C25.1448 0.65918 26.0816 1.59593 26.0816 2.74087V3.23942C35.942 4.21654 43.7838 12.0582 44.7609 21.9187H45.2594C46.4044 21.9187 47.341 22.8554 47.341 24.0004C47.341 25.1453 46.4044 26.0821 45.2594 26.0821H44.7609C43.7838 35.9425 35.942 43.7843 26.0816 44.7614V45.2599C26.0816 46.4049 25.1448 47.3415 23.9999 47.3415C22.8549 47.3415 21.9183 46.4049 21.9183 45.2599V44.7614C12.0578 43.7844 4.21596 35.9425 3.23883 26.0821ZM4.75272 21.9187H8.53973C9.46688 14.9696 14.9692 9.46727 21.9183 8.54012V4.7533C12.8898 5.71819 5.71761 12.8903 4.75272 21.9187ZM10.0521 21.9751C10.9671 22.1936 11.6529 23.0208 11.6529 24.0004C11.6529 24.9799 10.9671 25.8071 10.0521 26.0256C10.9387 32.1878 15.8125 37.0616 21.9747 37.9481C22.1932 37.033 23.0203 36.3474 23.9999 36.3474C24.9794 36.3474 25.8066 37.033 26.0251 37.9481C32.1873 37.0615 37.061 32.1877 37.9476 26.0256C37.0325 25.807 36.3469 24.9799 36.3469 24.0004C36.3469 23.0208 37.0325 22.1937 37.9476 21.9751C37.061 15.813 32.1873 10.9392 26.0251 10.0526C25.8066 10.9677 24.9794 11.6533 23.9999 11.6533C23.0203 11.6533 22.1932 10.9677 21.9746 10.0526C15.8125 10.9391 10.9387 15.8129 10.0521 21.9751ZM8.53973 26.0821H4.75272C5.71761 35.1105 12.8898 42.2826 21.9183 43.2475V39.4605C14.9692 38.5334 9.46688 33.0311 8.53973 26.0821ZM26.0816 4.7533V8.54022C33.0306 9.46737 38.5329 14.9696 39.46 21.9187H43.247C42.2821 12.8903 35.1099 5.71819 26.0816 4.7533ZM43.247 26.0821H39.46C38.5329 33.0311 33.0306 38.5333 26.0816 39.4605V43.2475C35.1099 42.2826 42.2821 35.1104 43.247 26.0821ZM23.9999 45.8357C24.3166 45.8357 24.5757 45.5766 24.5757 45.2599V38.4291C24.5757 38.1124 24.3166 37.8533 23.9999 37.8533C23.6832 37.8533 23.4242 38.1124 23.4242 38.4291V45.2599C23.4242 45.5766 23.6832 45.8357 23.9999 45.8357ZM23.9999 2.16506C23.6832 2.16506 23.4242 2.42417 23.4242 2.74087V9.57174C23.4242 9.88845 23.6832 10.1475 23.9999 10.1475C24.3166 10.1475 24.5757 9.88845 24.5757 9.57174V2.74087C24.5757 2.42417 24.3166 2.16506 23.9999 2.16506ZM32.5516 17.9878L32.5515 34.1078C32.5515 34.5237 32.2145 34.8608 31.7985 34.8608H16.2012C15.7853 34.8608 15.4482 34.5237 15.4482 34.1078V13.8929C15.4482 13.4771 15.7853 13.1399 16.2012 13.1399H27.491C27.6823 13.1399 27.8685 13.2129 28.0098 13.3472L32.3173 17.4421C32.4684 17.5857 32.5515 17.7835 32.5516 17.9878ZM26.738 14.6458H16.9541V33.3549H31.0456V18.7408H27.491C27.0752 18.7408 26.738 18.4037 26.738 17.9878V14.6458ZM29.9137 17.2349L28.2439 15.6475V17.2349H29.9137ZM19.3844 31.7838C18.9689 31.7838 18.6315 31.4465 18.6315 31.0309C18.6315 30.6153 18.9689 30.2779 19.3844 30.2779H28.6173C29.0329 30.2779 29.3702 30.6153 29.3702 31.0309C29.3702 31.4465 29.0329 31.7838 28.6173 31.7838H19.3844ZM19.3844 20.902C18.9689 20.902 18.6315 20.5646 18.6315 20.1491C18.6315 19.7335 18.9689 19.3961 19.3844 19.3961H28.6173C29.0329 19.3961 29.3702 19.7335 29.3702 20.1491C29.3702 20.5646 29.0329 20.902 28.6173 20.902H19.3844ZM19.3844 28.1565C18.9689 28.1565 18.6315 27.8192 18.6315 27.4036C18.6315 26.988 18.9689 26.6506 19.3844 26.6506H28.6173C29.0329 26.6506 29.3702 26.988 29.3702 27.4036C29.3702 27.8192 29.0329 28.1565 28.6173 28.1565H19.3844ZM19.3844 24.5293C18.9689 24.5293 18.6315 24.1919 18.6315 23.7764C18.6315 23.3607 18.9689 23.0234 19.3844 23.0234H28.6173C29.0329 23.0234 29.3702 23.3607 29.3702 23.7764C29.3702 24.1919 29.0329 24.5293 28.6173 24.5293H19.3844ZM2.16457 24.0004C2.16457 24.3171 2.42368 24.5762 2.74039 24.5762H9.57126C9.88787 24.5762 10.147 24.3171 10.147 24.0004C10.147 23.6837 9.88787 23.4245 9.57126 23.4245H2.74039C2.42368 23.4245 2.16457 23.6837 2.16457 24.0004ZM45.8352 24.0004C45.8352 23.6837 45.5761 23.4245 45.2594 23.4245H38.4286C38.1119 23.4245 37.8528 23.6837 37.8528 24.0004C37.8528 24.3171 38.1119 24.5762 38.4286 24.5762H45.2594C45.5761 24.5762 45.8352 24.3171 45.8352 24.0004Z" fill="url(#paint0_linear_3504_9684)"/>
</g>
<defs>
<linearGradient id="paint0_linear_3504_9684" x1="0.658691" y1="26.6262" x2="47.3387" y2="26.9732" gradientUnits="userSpaceOnUse">
<stop stop-color="#28D1B3"/>
<stop offset="1" stop-color="#0084FF"/>
</linearGradient>
<clipPath id="clip0_3504_9684">
<rect width="48" height="48" fill="white"/>
</clipPath>
</defs>
</svg>
