<svg width="64" height="64" viewBox="0 0 64 64" fill="none" xmlns="http://www.w3.org/2000/svg">
<path fill-rule="evenodd" clip-rule="evenodd" d="M58.6718 18.854C58.6718 19.7727 59.4172 20.5181 60.3359 20.5181C61.2547 20.5181 62.0001 19.7727 62.0001 18.854V14.0129C62.0001 10.4269 59.0836 7.50781 55.4949 7.50781H50.6539C49.7352 7.50781 48.9898 8.2532 48.9898 9.17192C48.9898 10.0906 49.7352 10.836 50.6539 10.836H55.4949C57.246 10.836 58.6718 12.2618 58.6718 14.0129V18.854ZM3.00005 18.8541C3.00005 19.7729 3.74544 20.5182 4.66415 20.5182C5.58287 20.5182 6.32826 19.7729 6.32826 18.8541V14.0131C6.32826 12.262 7.75407 10.8362 9.50518 10.8362H14.3462C15.2649 10.8362 16.0103 10.0908 16.0103 9.17207C16.0103 8.25336 15.2649 7.50797 14.3462 7.50797H9.50518C5.91652 7.50797 3.00005 10.4271 3.00005 14.0131V18.8541ZM3.50292 19.196C3.65055 19.6978 4.1148 20.0644 4.66415 20.0644C5.33221 20.0644 5.87441 19.5222 5.87441 18.8541V14.0131C5.87441 12.0113 7.50342 10.3823 9.50518 10.3823H14.3462C15.0143 10.3823 15.5565 9.84014 15.5565 9.17207C15.5565 9.09253 15.5488 9.01477 15.5341 8.9395C15.5488 9.01472 15.5564 9.09243 15.5564 9.17192C15.5564 9.83998 15.0142 10.3822 14.3462 10.3822H9.50514C7.50337 10.3822 5.87436 12.0112 5.87436 14.013V18.854C5.87436 19.522 5.33217 20.0642 4.66411 20.0642C4.11481 20.0642 3.6506 19.6977 3.50292 19.196ZM9.50514 56.8258H14.3462C15.2649 56.8258 16.0103 56.0804 16.0103 55.1617C16.0103 54.243 15.2649 53.4976 14.3462 53.4976H9.50514C7.75402 53.4976 6.32821 52.0718 6.32821 50.3207V45.4797C6.32821 44.5609 5.58282 43.8156 4.66411 43.8156C3.74539 43.8156 3 44.5609 3 45.4797V50.3207C3 53.9067 5.91648 56.8258 9.50514 56.8258ZM50.6539 56.8258H55.4949C59.0836 56.8258 62.0001 53.9067 62.0001 50.3207V45.4797C62.0001 44.5609 61.2547 43.8156 60.3359 43.8156C59.4172 43.8156 58.6718 44.5609 58.6718 45.4797V50.3207C58.6718 52.0718 57.246 53.4976 55.4949 53.4976H50.6539C49.7352 53.4976 48.9898 54.243 48.9898 55.1617C48.9898 56.0804 49.7352 56.8258 50.6539 56.8258ZM12.7319 31.768C12.6654 32.0291 12.6654 32.3033 12.7319 32.5645C14.843 41.1709 22.9893 47.1432 32.5 47.1432C42.0106 47.1432 50.1569 41.1709 52.2681 32.5647C52.3346 32.3035 52.3346 32.0294 52.2682 31.7682C50.1572 23.1617 42.0108 17.1893 32.5 17.1893C22.9893 17.1893 14.843 23.1616 12.7319 31.768ZM32.5 43.815C24.6277 43.815 17.9525 39.0217 16.0653 32.1662C17.9525 25.3108 24.6253 20.5175 32.5 20.5175C40.3747 20.5175 47.0475 25.3108 48.9347 32.1662C47.0475 39.0217 40.3723 43.815 32.5 43.815ZM24.7846 32.1662C24.7846 36.4204 28.2459 39.8816 32.5 39.8816C36.7542 39.8816 40.2154 36.4204 40.2154 32.1662C40.2154 27.912 36.7542 24.4508 32.5 24.4508C28.2459 24.4508 24.7846 27.912 24.7846 32.1662ZM28.1129 32.1662C28.1129 29.7471 30.0809 27.779 32.5 27.779C34.9192 27.779 36.8872 29.7471 36.8872 32.1662C36.8872 34.5854 34.9192 36.5534 32.5 36.5534C30.0809 36.5534 28.1129 34.5854 28.1129 32.1662Z" fill="url(#paint0_linear_3669_10848)"/>
<defs>
<linearGradient id="paint0_linear_3669_10848" x1="-1.53846" y1="6.29698" x2="69.2611" y2="56.6741" gradientUnits="userSpaceOnUse">
<stop stop-color="#4BFFAE"/>
<stop offset="1" stop-color="#1F75FF"/>
</linearGradient>
</defs>
</svg>
