<svg width="203" height="60" viewBox="0 0 203 60" fill="none" xmlns="http://www.w3.org/2000/svg">
<g clip-path="url(#clip0_2735_11799)">
<path d="M195.49 0H7.98999C3.84785 0 0.48999 3.35786 0.48999 7.5V52.5C0.48999 56.6421 3.84785 60 7.98999 60H195.49C199.632 60 202.99 56.6421 202.99 52.5V7.5C202.99 3.35786 199.632 0 195.49 0Z" fill="black"/>
<path d="M195.49 1.2C198.97 1.2 201.79 4.02 201.79 7.5V52.5C201.79 55.98 198.97 58.8 195.49 58.8H7.98999C4.50999 58.8 1.68999 55.98 1.68999 52.5V7.5C1.68999 4.02 4.50999 1.2 7.98999 1.2H195.49ZM195.49 0H7.98999C3.86499 0 0.48999 3.375 0.48999 7.5V52.5C0.48999 56.625 3.86499 60 7.98999 60H195.49C199.615 60 202.99 56.625 202.99 52.5V7.5C202.99 3.375 199.615 0 195.49 0Z" fill="#A6A6A6"/>
<path d="M71.6194 15.3597C71.6194 16.6197 71.2444 17.6247 70.4944 18.3597C69.6544 19.2447 68.5444 19.6947 67.1944 19.6947C65.8444 19.6947 64.7944 19.2447 63.8794 18.3447C62.9644 17.4447 62.5144 16.3197 62.5144 14.9997C62.5144 13.6797 62.9644 12.5547 63.8794 11.6547C64.7944 10.7547 65.8894 10.3047 67.1944 10.3047C67.8394 10.3047 68.4544 10.4247 69.0394 10.6797C69.6244 10.9347 70.0894 11.2647 70.4494 11.6847L69.6544 12.4797C69.0544 11.7747 68.2444 11.4147 67.1944 11.4147C66.2494 11.4147 65.4244 11.7447 64.7344 12.4197C64.0444 13.0797 63.6994 13.9497 63.6994 15.0147C63.6994 16.0797 64.0444 16.9497 64.7344 17.6097C65.4244 18.2697 66.2494 18.6147 67.1944 18.6147C68.1994 18.6147 69.0394 18.2847 69.7144 17.6097C70.1494 17.1747 70.4044 16.5597 70.4644 15.7797H67.1944V14.6997H71.5594C71.6044 14.9397 71.6194 15.1647 71.6194 15.3747V15.3597Z" fill="white" stroke="white" stroke-width="0.3" stroke-miterlimit="10"/>
<path d="M78.5339 11.61H74.4389V14.46H78.1289V15.54H74.4389V18.39H78.5339V19.5H73.2839V10.5H78.5339V11.61Z" fill="white" stroke="white" stroke-width="0.3" stroke-miterlimit="10"/>
<path d="M83.4101 19.5H82.2551V11.61H79.7351V10.5H85.9151V11.61H83.3951V19.5H83.4101Z" fill="white" stroke="white" stroke-width="0.3" stroke-miterlimit="10"/>
<path d="M90.3992 19.5V10.5H91.5542V19.5H90.3992Z" fill="white" stroke="white" stroke-width="0.3" stroke-miterlimit="10"/>
<path d="M96.6845 19.5H95.5295V11.61H93.0095V10.5H99.1895V11.61H96.6695V19.5H96.6845Z" fill="white" stroke="white" stroke-width="0.3" stroke-miterlimit="10"/>
<path d="M110.905 18.3297C110.02 19.2447 108.925 19.6947 107.605 19.6947C106.285 19.6947 105.19 19.2447 104.305 18.3297C103.42 17.4147 102.985 16.3047 102.985 14.9997C102.985 13.6947 103.42 12.5697 104.305 11.6697C105.19 10.7547 106.285 10.3047 107.605 10.3047C108.925 10.3047 110.005 10.7547 110.905 11.6697C111.79 12.5847 112.24 13.6947 112.24 14.9997C112.24 16.3047 111.79 17.4297 110.92 18.3297H110.905ZM105.16 17.5797C105.82 18.2547 106.645 18.5847 107.605 18.5847C108.565 18.5847 109.39 18.2547 110.05 17.5797C110.71 16.9047 111.055 16.0497 111.055 14.9997C111.055 13.9497 110.725 13.0947 110.05 12.4197C109.39 11.7447 108.565 11.4147 107.605 11.4147C106.645 11.4147 105.82 11.7447 105.16 12.4197C104.5 13.0947 104.155 13.9497 104.155 14.9997C104.155 16.0497 104.485 16.9047 105.16 17.5797Z" fill="white" stroke="white" stroke-width="0.3" stroke-miterlimit="10"/>
<path d="M113.86 19.5V10.5H115.27L119.65 17.505H119.695L119.65 15.765V10.5H120.805V19.5H119.605L115.03 12.165H114.985L115.03 13.905V19.515H113.875L113.86 19.5Z" fill="white" stroke="white" stroke-width="0.3" stroke-miterlimit="10"/>
<path d="M102.701 32.6242C99.1755 32.6242 96.2955 35.3092 96.2955 38.9992C96.2955 42.6892 99.1755 45.3742 102.701 45.3742C106.226 45.3742 109.106 42.6742 109.106 38.9992C109.106 35.3242 106.226 32.6242 102.701 32.6242ZM102.701 42.8692C100.766 42.8692 99.1005 41.2792 99.1005 38.9992C99.1005 36.7192 100.766 35.1292 102.701 35.1292C104.636 35.1292 106.301 36.7042 106.301 38.9992C106.301 41.2942 104.636 42.8692 102.701 42.8692ZM88.7205 32.6242C85.1955 32.6242 82.3155 35.3092 82.3155 38.9992C82.3155 42.6892 85.1955 45.3742 88.7205 45.3742C92.2455 45.3742 95.1255 42.6742 95.1255 38.9992C95.1255 35.3242 92.2455 32.6242 88.7205 32.6242ZM88.7205 42.8692C86.7855 42.8692 85.1205 41.2792 85.1205 38.9992C85.1205 36.7192 86.7855 35.1292 88.7205 35.1292C90.6555 35.1292 92.3205 36.7042 92.3205 38.9992C92.3205 41.2942 90.6555 42.8692 88.7205 42.8692ZM72.1005 34.5892V37.2892H78.5805C78.3855 38.8042 77.8755 39.9292 77.1105 40.6942C76.1655 41.6392 74.6955 42.6742 72.1155 42.6742C68.1255 42.6742 65.0055 39.4642 65.0055 35.4742C65.0055 31.4842 68.1255 28.2742 72.1155 28.2742C74.2605 28.2742 75.8355 29.1142 76.9905 30.2092L78.8955 28.3042C77.2755 26.7592 75.1305 25.5742 72.1005 25.5742C66.6405 25.5742 62.0505 30.0142 62.0505 35.4892C62.0505 40.9642 66.6405 45.4042 72.1005 45.4042C75.0555 45.4042 77.2755 44.4442 79.0155 42.6292C80.8005 40.8442 81.3555 38.3242 81.3555 36.2992C81.3555 35.6692 81.3105 35.0842 81.2055 34.6042H72.1005V34.5892ZM140.066 36.6892C139.541 35.2642 137.921 32.6242 134.606 32.6242C131.291 32.6242 128.591 35.2042 128.591 38.9992C128.591 42.5692 131.291 45.3742 134.921 45.3742C137.846 45.3742 139.541 43.5892 140.231 42.5542L138.056 41.0992C137.336 42.1642 136.346 42.8692 134.921 42.8692C133.496 42.8692 132.476 42.2092 131.831 40.9342L140.366 37.4092L140.081 36.6892H140.066ZM131.366 38.8192C131.291 36.3592 133.271 35.0992 134.696 35.0992C135.806 35.0992 136.751 35.6542 137.066 36.4492L131.366 38.8192ZM124.436 44.9992H127.241V26.2492H124.436V44.9992ZM119.846 34.0492H119.756C119.126 33.2992 117.926 32.6242 116.396 32.6242C113.201 32.6242 110.276 35.4292 110.276 39.0292C110.276 42.6292 113.201 45.3892 116.396 45.3892C117.926 45.3892 119.126 44.7142 119.756 43.9342H119.846V44.8492C119.846 47.2942 118.541 48.5992 116.441 48.5992C114.731 48.5992 113.666 47.3692 113.231 46.3342L110.786 47.3542C111.491 49.0492 113.351 51.1192 116.441 51.1192C119.726 51.1192 122.501 49.1842 122.501 44.4742V33.0142H119.846V34.0492ZM116.621 42.8692C114.686 42.8692 113.066 41.2492 113.066 39.0292C113.066 36.8092 114.686 35.1442 116.621 35.1442C118.556 35.1442 120.026 36.7942 120.026 39.0292C120.026 41.2642 118.526 42.8692 116.621 42.8692ZM153.206 26.2492H146.501V44.9992H149.306V37.8892H153.221C156.326 37.8892 159.371 35.6392 159.371 32.0692C159.371 28.4992 156.326 26.2492 153.221 26.2492H153.206ZM153.266 35.2792H149.291V28.8442H153.266C155.366 28.8442 156.551 30.5842 156.551 32.0542C156.551 33.5242 155.366 35.2642 153.266 35.2642V35.2792ZM170.576 32.5942C168.551 32.5942 166.451 33.4942 165.581 35.4592L168.071 36.4942C168.596 35.4592 169.586 35.1142 170.621 35.1142C172.061 35.1142 173.546 35.9842 173.561 37.5292V37.7242C173.051 37.4392 171.971 37.0042 170.636 37.0042C167.951 37.0042 165.236 38.4742 165.236 41.2192C165.236 43.7242 167.426 45.3442 169.886 45.3442C171.761 45.3442 172.811 44.5042 173.456 43.5142H173.546V44.9692H176.246V37.7842C176.246 34.4542 173.756 32.5942 170.546 32.5942H170.576ZM170.231 42.8692C169.316 42.8692 168.041 42.4042 168.041 41.2792C168.041 39.8392 169.631 39.2842 171.011 39.2842C172.241 39.2842 172.826 39.5542 173.561 39.9142C173.351 41.6542 171.851 42.8842 170.231 42.8842V42.8692ZM186.101 32.9992L182.891 41.1292H182.801L179.471 32.9992H176.456L181.451 44.3692L178.601 50.6842H181.526L189.221 32.9992H186.116H186.101ZM160.901 44.9992H163.706V26.2492H160.901V44.9992Z" fill="white"/>
<path d="M31.5695 29.1302L15.5945 46.0802C16.0895 47.9252 17.7695 49.2752 19.7645 49.2752C20.5595 49.2752 21.3095 49.0652 21.9545 48.6752L21.9995 48.6452L39.9695 38.2802L31.5545 29.1152L31.5695 29.1302Z" fill="#EA4335"/>
<path d="M47.7247 26.2513H47.7097L39.9547 21.7363L31.2097 29.5213L39.9847 38.2963L47.7097 33.8413C49.0597 33.1063 49.9747 31.6813 49.9747 30.0463C49.9747 28.4113 49.0747 26.9863 47.7247 26.2663V26.2513Z" fill="#FBBC04"/>
<path d="M15.5951 13.9219C15.5051 14.2819 15.4451 14.6419 15.4451 15.0319V44.9869C15.4451 45.3769 15.4901 45.7369 15.5951 46.0969L32.1101 29.5819L15.5951 13.9219Z" fill="#4285F4"/>
<path d="M31.6895 30.0009L39.9545 21.7359L21.9995 11.3259C21.3545 10.9359 20.5895 10.7109 19.7645 10.7109C17.7695 10.7109 16.0895 12.0759 15.5945 13.9059L31.6895 29.9859V30.0009Z" fill="#34A853"/>
</g>
<defs>
<clipPath id="clip0_2735_11799">
<rect width="202.5" height="60" fill="white" transform="translate(0.48999)"/>
</clipPath>
</defs>
</svg>
