<svg width="515" height="515" viewBox="0 0 515 515" fill="none" xmlns="http://www.w3.org/2000/svg">
<g clip-path="url(#clip0_3529_9442)">
<g filter="url(#filter0_d_3529_9442)">
<g filter="url(#filter1_b_3529_9442)">
<rect x="50" y="93" width="400" height="295.135" rx="16" fill="white"/>
<rect x="51" y="94" width="398" height="293.135" rx="15" stroke="url(#paint0_linear_3529_9442)" stroke-width="2"/>
</g>
<path d="M66 94H434C442.284 94 449 100.716 449 109V132H51V109C51 100.716 57.7157 94 66 94Z" fill="url(#paint1_linear_3529_9442)" stroke="url(#paint2_linear_3529_9442)" stroke-width="2"/>
<path d="M79.5666 114.054C79.5666 111.263 77.3039 109 74.5128 109C71.7217 109 69.459 111.263 69.459 114.054C69.459 116.845 71.7217 119.108 74.5128 119.108C77.3039 119.108 79.5666 116.845 79.5666 114.054Z" fill="white"/>
<path d="M96.4123 114.054C96.4123 111.263 94.1496 109 91.3585 109C88.5674 109 86.3047 111.263 86.3047 114.054C86.3047 116.845 88.5674 119.108 91.3585 119.108C94.1496 119.108 96.4123 116.845 96.4123 114.054Z" fill="white"/>
<path d="M113.259 114.054C113.259 111.263 110.996 109 108.205 109C105.414 109 103.151 111.263 103.151 114.054C103.151 116.845 105.414 119.108 108.205 119.108C110.996 119.108 113.259 116.845 113.259 114.054Z" fill="white"/>
</g>
<g filter="url(#filter2_d_3529_9442)">
<g filter="url(#filter3_b_3529_9442)">
<rect x="355" y="342" width="80" height="80" rx="14.2222" fill="white"/>
<rect x="355.444" y="342.444" width="79.1111" height="79.1111" rx="13.7778" stroke="url(#paint3_linear_3529_9442)" stroke-width="0.888889"/>
</g>
<g opacity="0.9" filter="url(#filter4_b_3529_9442)">
<circle cx="395" cy="382.001" r="26.6667" fill="url(#paint4_linear_3529_9442)"/>
<circle cx="395" cy="382.001" r="26.2222" stroke="url(#paint5_linear_3529_9442)" stroke-width="0.888889"/>
</g>
<path d="M383.412 384.984C383.423 384.991 383.434 384.997 383.444 385.003C383.469 385.019 383.494 385.034 383.52 385.048C383.533 385.055 383.546 385.061 383.559 385.067C383.584 385.079 383.608 385.091 383.633 385.101C383.647 385.107 383.661 385.112 383.676 385.117C383.7 385.126 383.725 385.135 383.75 385.143C383.766 385.148 383.782 385.151 383.798 385.155C383.822 385.161 383.846 385.168 383.871 385.173C383.891 385.177 383.911 385.179 383.932 385.182C383.952 385.185 383.973 385.189 383.994 385.191C384.036 385.195 384.078 385.198 384.12 385.198C384.162 385.198 384.204 385.195 384.246 385.191C384.267 385.189 384.288 385.185 384.309 385.182C384.329 385.179 384.349 385.177 384.369 385.173C384.394 385.168 384.418 385.161 384.443 385.155C384.459 385.151 384.474 385.148 384.49 385.143C384.515 385.135 384.54 385.126 384.565 385.117C384.579 385.112 384.593 385.107 384.608 385.101C384.633 385.091 384.657 385.079 384.681 385.067C384.694 385.061 384.708 385.055 384.721 385.048C384.747 385.034 384.771 385.019 384.796 385.003C384.807 384.997 384.818 384.991 384.828 384.984C384.86 384.963 384.89 384.94 384.92 384.917C384.923 384.914 384.926 384.912 384.929 384.91C384.964 384.881 384.998 384.85 385.03 384.818L388.865 380.983C389.366 380.482 389.366 379.673 388.865 379.173C388.365 378.672 387.556 378.672 387.055 379.173L385.482 380.746C386.097 376.042 390.13 372.398 395 372.398C398.108 372.398 401.027 373.908 402.81 376.439C403.22 377.016 404.019 377.154 404.595 376.747C405.172 376.339 405.31 375.54 404.903 374.963C402.64 371.754 398.938 369.838 395 369.838C388.672 369.838 383.459 374.697 382.892 380.88L381.185 379.173C380.685 378.672 379.876 378.672 379.375 379.173C378.875 379.673 378.875 380.482 379.375 380.983L383.21 384.818C383.243 384.85 383.276 384.881 383.312 384.91C383.315 384.912 383.318 384.914 383.321 384.917C383.35 384.94 383.381 384.963 383.412 384.984Z" fill="white"/>
<path d="M410.625 383.013L406.785 379.173C406.284 378.673 405.476 378.673 404.975 379.173L401.135 383.013C400.635 383.514 400.635 384.323 401.135 384.823C401.636 385.324 402.445 385.324 402.945 384.823L404.518 383.25C403.904 387.954 399.87 391.598 395 391.598C391.892 391.598 388.973 390.088 387.19 387.557C386.781 386.98 385.984 386.843 385.405 387.249C384.828 387.657 384.69 388.456 385.097 389.033C387.359 392.242 391.062 394.158 395 394.158C401.328 394.158 406.542 389.299 407.108 383.116L408.815 384.823C409.065 385.073 409.392 385.198 409.72 385.198C410.048 385.198 410.375 385.073 410.625 384.823C411.125 384.323 411.125 383.514 410.625 383.013Z" fill="white"/>
</g>
<g opacity="0.61" filter="url(#filter5_f_3529_9442)">
<circle cx="250.458" cy="240.597" r="86.1509" fill="url(#paint6_radial_3529_9442)"/>
</g>
<path opacity="0.4" d="M339.569 241C339.569 290.468 299.468 330.569 250 330.569C200.532 330.569 160.431 290.468 160.431 241C160.431 191.532 200.532 151.431 250 151.431C299.468 151.431 339.569 191.532 339.569 241Z" stroke="white" stroke-width="0.861509"/>
<path opacity="0.4" d="M315.502 240.598C315.502 276.52 286.381 305.642 250.458 305.642C214.535 305.642 185.414 276.52 185.414 240.598C185.414 204.675 214.535 175.554 250.458 175.554C286.381 175.554 315.502 204.675 315.502 240.598Z" stroke="white" stroke-width="0.861509"/>
<path opacity="0.4" d="M290.519 240.597C290.519 262.722 272.583 280.658 250.459 280.658C228.334 280.658 210.399 262.722 210.399 240.597C210.399 218.473 228.334 200.537 250.459 200.537C272.583 200.537 290.519 218.473 290.519 240.597Z" stroke="#28D1B3" stroke-width="0.861509"/>
<path opacity="0.4" d="M271.566 240.596C271.566 252.253 262.116 261.703 250.459 261.703C238.802 261.703 229.352 252.253 229.352 240.596C229.352 228.939 238.802 219.489 250.459 219.489C262.116 219.489 271.566 228.939 271.566 240.596Z" stroke="#28D1B3" stroke-width="0.861509"/>
<g filter="url(#filter6_d_3529_9442)">
<rect x="207.814" y="197.951" width="85.2894" height="85.2894" rx="42.6447" fill="url(#paint7_linear_3529_9442)" stroke="url(#paint8_linear_3529_9442)" stroke-width="0.861509"/>
<path fill-rule="evenodd" clip-rule="evenodd" d="M253.043 219.059C258.798 219.059 264.205 221.294 268.275 225.364C272.337 229.434 274.58 234.841 274.58 240.596C274.58 246.352 272.345 251.759 268.275 255.829C264.205 259.891 258.798 262.134 253.043 262.134H235.961C233.503 262.134 231.505 260.136 231.505 257.678V223.515C231.505 221.056 233.503 219.059 235.961 219.059H253.043ZM241.145 230.116C240.239 231.023 240.239 232.5 241.145 233.407L244.643 236.905C245.549 237.811 247.027 237.811 247.933 236.905C248.839 235.999 248.839 234.521 247.933 233.615L244.435 230.116C243.529 229.21 242.051 229.21 241.145 230.116ZM255.329 247.593C254.423 246.687 254.423 245.209 255.329 244.303C256.235 243.396 257.713 243.396 258.619 244.303L262.117 247.801C263.023 248.707 263.023 250.185 262.117 251.091C261.211 251.997 259.733 251.997 258.827 251.091L255.329 247.593ZM262.117 230.116C261.211 229.21 259.733 229.21 258.827 230.116L255.329 233.614C254.423 234.52 254.423 235.998 255.329 236.904C256.235 237.81 257.713 237.81 258.619 236.904L262.117 233.406C263.023 232.5 263.023 231.022 262.117 230.116ZM244.643 244.294C245.549 243.388 247.027 243.388 247.933 244.294C248.839 245.2 248.839 246.678 247.933 247.584L244.435 251.089C243.529 251.995 242.051 251.995 241.145 251.089C240.239 250.183 240.239 248.705 241.145 247.799L244.643 244.294ZM253.845 239.022L253.199 238.376C252.33 237.5 250.919 237.5 250.05 238.376L249.404 239.022C248.535 239.891 248.535 241.302 249.404 242.171L250.05 242.817C250.919 243.686 252.33 243.686 253.199 242.817L253.845 242.171C254.714 241.302 254.714 239.891 253.845 239.022Z" fill="white"/>
</g>
<g filter="url(#filter7_d_3529_9442)">
<rect x="316" y="154" width="176.384" height="66.7683" rx="16" fill="url(#paint9_linear_3529_9442)" shape-rendering="crispEdges"/>
<path d="M370.144 193.836L370.123 193.772L381.526 183.332V178.304H363.234V183.332H374.166L374.188 183.374L362.892 193.836V198.864H381.74V193.836H370.144ZM392.971 177.812C390.853 177.812 389.142 178.133 387.815 178.775C386.575 179.331 385.526 180.251 384.82 181.406C384.136 182.561 383.708 183.866 383.558 185.214L389.12 185.984C389.313 184.808 389.719 183.952 390.318 183.46C391.003 182.947 391.859 182.69 392.715 182.711C393.848 182.711 394.661 183.011 395.175 183.61C395.688 184.209 395.945 185.043 395.945 186.156V186.712H390.597C387.88 186.712 385.933 187.311 384.735 188.53C383.537 189.728 382.959 191.333 382.959 193.301C382.959 195.334 383.558 196.831 384.735 197.815C385.911 198.799 387.409 199.291 389.206 199.291C391.431 199.291 393.142 198.521 394.341 196.981C395.047 196.04 395.56 194.97 395.817 193.815H396.009L396.779 198.842H401.807V186.113C401.807 183.481 401.122 181.428 399.732 179.994C398.341 178.561 396.073 177.812 392.971 177.812ZM394.726 193.536C393.934 194.2 392.886 194.542 391.581 194.542C390.511 194.542 389.762 194.349 389.334 193.986C389.12 193.815 388.971 193.579 388.864 193.344C388.757 193.087 388.693 192.83 388.714 192.552C388.693 192.296 388.735 192.039 388.842 191.804C388.949 191.568 389.078 191.354 389.249 191.162C389.441 190.991 389.655 190.841 389.912 190.755C390.169 190.67 390.425 190.627 390.682 190.648H395.945V190.991C395.945 191.483 395.859 191.975 395.646 192.403C395.41 192.83 395.111 193.237 394.726 193.536ZM432.25 178.304H426.303V198.885H432.25V178.304ZM467.358 178.304C465.668 178.304 464.363 178.903 463.378 180.08C462.694 180.936 462.159 182.198 461.795 183.866H461.624L460.854 178.304H455.784V198.885H461.731V188.338C461.731 187.011 462.052 185.984 462.672 185.278C463.293 184.572 464.448 184.209 466.117 184.209H468.385V178.304H467.358ZM449.879 178.967C448.488 178.133 446.734 177.726 444.616 177.726C441.279 177.726 438.69 178.668 436.807 180.572C434.925 182.476 433.983 185.086 433.983 188.402C433.941 190.413 434.368 192.403 435.267 194.221C436.08 195.826 437.342 197.173 438.904 198.072C440.487 198.992 442.348 199.441 444.53 199.441C446.413 199.441 447.975 199.142 449.237 198.564C450.414 198.051 451.462 197.238 452.232 196.189C452.981 195.184 453.537 194.029 453.858 192.83L448.724 191.397C448.51 192.189 448.082 192.895 447.526 193.494C446.948 194.071 445.985 194.371 444.616 194.371C442.99 194.371 441.792 193.9 441 192.98C440.423 192.317 440.059 191.354 439.909 190.113H453.944C454.008 189.536 454.029 189.044 454.029 188.659V187.375C454.072 185.664 453.708 183.952 452.981 182.39C452.318 180.957 451.227 179.759 449.879 178.967ZM444.445 182.647C446.862 182.647 448.232 183.824 448.553 186.198H440.016C440.145 185.407 440.487 184.658 440.979 184.016C441.749 183.096 442.905 182.647 444.445 182.647ZM429.341 170.003C428.892 169.982 428.442 170.067 428.036 170.217C427.608 170.388 427.244 170.624 426.923 170.923C426.602 171.244 426.367 171.608 426.196 172.036C426.025 172.442 425.961 172.891 425.982 173.341C425.961 173.79 426.046 174.239 426.217 174.646C426.388 175.074 426.624 175.437 426.945 175.758C427.266 176.079 427.651 176.314 428.057 176.486C428.464 176.657 428.913 176.721 429.362 176.7C429.812 176.721 430.261 176.635 430.667 176.486C431.074 176.314 431.459 176.079 431.78 175.758C432.101 175.437 432.336 175.052 432.486 174.646C432.635 174.218 432.721 173.79 432.7 173.341C432.721 172.891 432.657 172.442 432.486 172.036C432.315 171.629 432.079 171.244 431.758 170.923C431.437 170.602 431.074 170.367 430.646 170.196C430.239 170.067 429.79 169.982 429.341 170.003ZM417.061 177.726C415.028 177.726 413.402 178.368 412.183 179.631C411.263 180.572 410.6 181.984 410.172 183.845H409.979L409.209 178.283H404.139V204.768H410.086V193.857H410.3C410.471 194.585 410.728 195.291 411.049 195.975C411.563 197.066 412.376 198.008 413.424 198.628C414.494 199.206 415.713 199.505 416.932 199.484C419.414 199.484 421.318 198.521 422.623 196.574C423.928 194.628 424.57 191.932 424.57 188.466C424.57 185.107 423.95 182.476 422.687 180.593C421.425 178.689 419.542 177.726 417.061 177.726ZM417.66 192.638C416.975 193.643 415.884 194.136 414.408 194.136C413.809 194.157 413.189 194.05 412.632 193.793C412.076 193.536 411.584 193.151 411.22 192.681C410.45 191.718 410.065 190.392 410.065 188.701V188.316C410.065 186.605 410.45 185.3 411.22 184.401C411.99 183.503 413.06 183.054 414.408 183.054C415.906 183.054 416.997 183.524 417.681 184.487C418.366 185.45 418.708 186.776 418.708 188.488C418.708 190.263 418.366 191.654 417.66 192.638Z" fill="white"/>
<path d="M360.581 193.836H340V198.885H360.581V193.836Z" fill="white"/>
</g>
<g filter="url(#filter8_d_3529_9442)">
<rect x="23" y="317" width="148" height="53.372" rx="16" fill="url(#paint10_linear_3529_9442)" shape-rendering="crispEdges"/>
<path fill-rule="evenodd" clip-rule="evenodd" d="M92.5073 340.583C89.6155 340.583 87.1856 338.605 86.4967 335.928H79.3836C77.8667 335.928 76.5722 337.025 76.3229 338.521L76.0677 340.052C75.8257 341.505 75.0905 342.769 74.051 343.686C75.0905 344.603 75.8257 345.867 76.0677 347.32L76.3229 348.851C76.5722 350.347 77.8667 351.444 79.3836 351.444H80.2907C80.9795 348.767 83.4095 346.789 86.3012 346.789C89.7288 346.789 92.5073 349.568 92.5073 352.995C92.5073 356.423 89.7288 359.201 86.3012 359.201C83.4095 359.201 80.9795 357.223 80.2907 354.547H79.3836C76.3498 354.547 73.7609 352.353 73.2621 349.361L73.0068 347.83C72.7576 346.334 71.4631 345.238 69.9462 345.238H67.4876C66.7987 347.914 64.3688 349.892 61.477 349.892C58.5853 349.892 56.1553 347.914 55.4665 345.238H51.9725C51.2836 347.914 48.8537 349.892 45.9619 349.892C42.5344 349.892 39.7559 347.114 39.7559 343.686C39.7559 340.258 42.5344 337.48 45.9619 337.48C48.8537 337.48 51.2836 339.458 51.9725 342.135H55.4665C56.1553 339.458 58.5853 337.48 61.477 337.48C64.3688 337.48 66.7987 339.458 67.4876 342.135H69.9462C71.4631 342.135 72.7576 341.038 73.0068 339.542L73.2621 338.011C73.7609 335.019 76.3498 332.825 79.3836 332.825H86.4967C87.1856 330.149 89.6155 328.171 92.5073 328.171C95.9348 328.171 98.7133 330.949 98.7133 334.377C98.7133 337.804 95.9348 340.583 92.5073 340.583ZM92.5073 337.48C94.2209 337.48 95.6103 336.091 95.6103 334.377C95.6103 332.663 94.2209 331.274 92.5073 331.274C90.7936 331.274 89.4043 332.663 89.4043 334.377C89.4043 336.091 90.7936 337.48 92.5073 337.48ZM45.9619 346.789C47.6756 346.789 49.0649 345.4 49.0649 343.686C49.0649 341.972 47.6756 340.583 45.9619 340.583C44.2482 340.583 42.8589 341.972 42.8589 343.686C42.8589 345.4 44.2482 346.789 45.9619 346.789ZM64.5801 343.686C64.5801 345.4 63.1907 346.789 61.477 346.789C59.7634 346.789 58.374 345.4 58.374 343.686C58.374 341.972 59.7634 340.583 61.477 340.583C63.1907 340.583 64.5801 341.972 64.5801 343.686ZM89.4043 352.995C89.4043 354.709 88.0149 356.098 86.3012 356.098C84.5876 356.098 83.1982 354.709 83.1982 352.995C83.1982 351.281 84.5876 349.892 86.3012 349.892C88.0149 349.892 89.4043 351.281 89.4043 352.995Z" fill="white"/>
<path fill-rule="evenodd" clip-rule="evenodd" d="M135.954 341.588V341.441C137.036 340.898 138.119 339.962 138.119 338.113C138.119 335.452 135.929 333.85 132.903 333.85C129.802 333.85 127.588 335.55 127.588 338.163C127.588 339.937 128.621 340.898 129.753 341.441V341.588C128.498 342.032 126.997 343.363 126.997 345.581C126.997 348.267 129.212 350.14 132.878 350.14C136.544 350.14 138.685 348.267 138.685 345.581C138.685 343.363 137.209 342.057 135.954 341.588ZM132.878 336.117C134.108 336.117 135.019 336.906 135.019 338.237C135.019 339.567 134.084 340.356 132.878 340.356C131.672 340.356 130.663 339.567 130.663 338.237C130.663 336.881 131.623 336.117 132.878 336.117ZM132.878 347.774C131.451 347.774 130.294 346.863 130.294 345.31C130.294 343.905 131.254 342.845 132.853 342.845C134.428 342.845 135.388 343.88 135.388 345.359C135.388 346.863 134.281 347.774 132.878 347.774Z" fill="white"/>
<path d="M142.481 349.894H145.631V343.215C145.631 341.021 146.96 340.06 148.461 340.06C149.937 340.06 151.094 341.046 151.094 343.067V349.894H154.243V342.426C154.243 339.197 152.373 337.324 149.445 337.324C147.6 337.324 146.566 338.064 145.828 339.025H145.631L145.36 337.571H142.481V349.894Z" fill="white"/>
<path d="M114.601 349.894H111.451V337.571H114.33L114.601 339.025H114.798C115.536 338.064 116.569 337.324 118.415 337.324C121.343 337.324 123.213 339.197 123.213 342.426V349.894H120.063V343.067C120.063 341.046 118.907 340.06 117.43 340.06C115.93 340.06 114.601 341.021 114.601 343.215V349.894Z" fill="white"/>
</g>
</g>
<defs>
<filter id="filter0_d_3529_9442" x="24.8" y="79.8" width="450.4" height="345.535" filterUnits="userSpaceOnUse" color-interpolation-filters="sRGB">
<feFlood flood-opacity="0" result="BackgroundImageFix"/>
<feColorMatrix in="SourceAlpha" type="matrix" values="0 0 0 0 0 0 0 0 0 0 0 0 0 0 0 0 0 0 127 0" result="hardAlpha"/>
<feOffset dy="12"/>
<feGaussianBlur stdDeviation="12.6"/>
<feComposite in2="hardAlpha" operator="out"/>
<feColorMatrix type="matrix" values="0 0 0 0 0.248093 0 0 0 0 0.448503 0 0 0 0 0.41348 0 0 0 0.2 0"/>
<feBlend mode="normal" in2="BackgroundImageFix" result="effect1_dropShadow_3529_9442"/>
<feBlend mode="normal" in="SourceGraphic" in2="effect1_dropShadow_3529_9442" result="shape"/>
</filter>
<filter id="filter1_b_3529_9442" x="46.9" y="89.9" width="406.2" height="301.335" filterUnits="userSpaceOnUse" color-interpolation-filters="sRGB">
<feFlood flood-opacity="0" result="BackgroundImageFix"/>
<feGaussianBlur in="BackgroundImageFix" stdDeviation="1.55"/>
<feComposite in2="SourceAlpha" operator="in" result="effect1_backgroundBlur_3529_9442"/>
<feBlend mode="normal" in="SourceGraphic" in2="effect1_backgroundBlur_3529_9442" result="shape"/>
</filter>
<filter id="filter2_d_3529_9442" x="313.8" y="300.8" width="162.4" height="162.4" filterUnits="userSpaceOnUse" color-interpolation-filters="sRGB">
<feFlood flood-opacity="0" result="BackgroundImageFix"/>
<feColorMatrix in="SourceAlpha" type="matrix" values="0 0 0 0 0 0 0 0 0 0 0 0 0 0 0 0 0 0 127 0" result="hardAlpha"/>
<feOffset/>
<feGaussianBlur stdDeviation="20.6"/>
<feComposite in2="hardAlpha" operator="out"/>
<feColorMatrix type="matrix" values="0 0 0 0 0 0 0 0 0 0 0 0 0 0 0 0 0 0 0.25 0"/>
<feBlend mode="normal" in2="BackgroundImageFix" result="effect1_dropShadow_3529_9442"/>
<feBlend mode="normal" in="SourceGraphic" in2="effect1_dropShadow_3529_9442" result="shape"/>
</filter>
<filter id="filter3_b_3529_9442" x="351.444" y="338.444" width="87.1111" height="87.1111" filterUnits="userSpaceOnUse" color-interpolation-filters="sRGB">
<feFlood flood-opacity="0" result="BackgroundImageFix"/>
<feGaussianBlur in="BackgroundImageFix" stdDeviation="1.77778"/>
<feComposite in2="SourceAlpha" operator="in" result="effect1_backgroundBlur_3529_9442"/>
<feBlend mode="normal" in="SourceGraphic" in2="effect1_backgroundBlur_3529_9442" result="shape"/>
</filter>
<filter id="filter4_b_3529_9442" x="365.285" y="352.286" width="59.4282" height="59.4282" filterUnits="userSpaceOnUse" color-interpolation-filters="sRGB">
<feFlood flood-opacity="0" result="BackgroundImageFix"/>
<feGaussianBlur in="BackgroundImageFix" stdDeviation="1.52381"/>
<feComposite in2="SourceAlpha" operator="in" result="effect1_backgroundBlur_3529_9442"/>
<feBlend mode="normal" in="SourceGraphic" in2="effect1_backgroundBlur_3529_9442" result="shape"/>
</filter>
<filter id="filter5_f_3529_9442" x="90.5625" y="80.7011" width="319.792" height="319.792" filterUnits="userSpaceOnUse" color-interpolation-filters="sRGB">
<feFlood flood-opacity="0" result="BackgroundImageFix"/>
<feBlend mode="normal" in="SourceGraphic" in2="BackgroundImageFix" result="shape"/>
<feGaussianBlur stdDeviation="36.8726" result="effect1_foregroundBlur_3529_9442"/>
</filter>
<filter id="filter6_d_3529_9442" x="191.617" y="188.647" width="117.682" height="117.683" filterUnits="userSpaceOnUse" color-interpolation-filters="sRGB">
<feFlood flood-opacity="0" result="BackgroundImageFix"/>
<feColorMatrix in="SourceAlpha" type="matrix" values="0 0 0 0 0 0 0 0 0 0 0 0 0 0 0 0 0 0 127 0" result="hardAlpha"/>
<feOffset dy="6.89207"/>
<feGaussianBlur stdDeviation="7.8828"/>
<feComposite in2="hardAlpha" operator="out"/>
<feColorMatrix type="matrix" values="0 0 0 0 0.0470588 0 0 0 0 0.639216 0 0 0 0 0.537255 0 0 0 0.29 0"/>
<feBlend mode="normal" in2="BackgroundImageFix" result="effect1_dropShadow_3529_9442"/>
<feBlend mode="normal" in="SourceGraphic" in2="effect1_dropShadow_3529_9442" result="shape"/>
</filter>
<filter id="filter7_d_3529_9442" x="284.1" y="135.1" width="240.185" height="130.569" filterUnits="userSpaceOnUse" color-interpolation-filters="sRGB">
<feFlood flood-opacity="0" result="BackgroundImageFix"/>
<feColorMatrix in="SourceAlpha" type="matrix" values="0 0 0 0 0 0 0 0 0 0 0 0 0 0 0 0 0 0 127 0" result="hardAlpha"/>
<feOffset dy="13"/>
<feGaussianBlur stdDeviation="15.95"/>
<feComposite in2="hardAlpha" operator="out"/>
<feColorMatrix type="matrix" values="0 0 0 0 0 0 0 0 0 0 0 0 0 0 0 0 0 0 0.25 0"/>
<feBlend mode="normal" in2="BackgroundImageFix" result="effect1_dropShadow_3529_9442"/>
<feBlend mode="normal" in="SourceGraphic" in2="effect1_dropShadow_3529_9442" result="shape"/>
</filter>
<filter id="filter8_d_3529_9442" x="-8.9" y="298.1" width="211.8" height="117.172" filterUnits="userSpaceOnUse" color-interpolation-filters="sRGB">
<feFlood flood-opacity="0" result="BackgroundImageFix"/>
<feColorMatrix in="SourceAlpha" type="matrix" values="0 0 0 0 0 0 0 0 0 0 0 0 0 0 0 0 0 0 127 0" result="hardAlpha"/>
<feOffset dy="13"/>
<feGaussianBlur stdDeviation="15.95"/>
<feComposite in2="hardAlpha" operator="out"/>
<feColorMatrix type="matrix" values="0 0 0 0 0 0 0 0 0 0 0 0 0 0 0 0 0 0 0.25 0"/>
<feBlend mode="normal" in2="BackgroundImageFix" result="effect1_dropShadow_3529_9442"/>
<feBlend mode="normal" in="SourceGraphic" in2="effect1_dropShadow_3529_9442" result="shape"/>
</filter>
<linearGradient id="paint0_linear_3529_9442" x1="250" y1="93" x2="250" y2="388.135" gradientUnits="userSpaceOnUse">
<stop stop-color="white"/>
<stop offset="1" stop-color="white" stop-opacity="0"/>
</linearGradient>
<linearGradient id="paint1_linear_3529_9442" x1="50" y1="113" x2="450" y2="113" gradientUnits="userSpaceOnUse">
<stop stop-color="#0FAC90"/>
<stop offset="1" stop-color="#28D1B3"/>
</linearGradient>
<linearGradient id="paint2_linear_3529_9442" x1="60" y1="92.9999" x2="545" y2="145" gradientUnits="userSpaceOnUse">
<stop stop-color="white"/>
<stop offset="1" stop-color="white" stop-opacity="0"/>
</linearGradient>
<linearGradient id="paint3_linear_3529_9442" x1="395" y1="342" x2="395" y2="422" gradientUnits="userSpaceOnUse">
<stop stop-color="white"/>
<stop offset="1" stop-color="white" stop-opacity="0"/>
</linearGradient>
<linearGradient id="paint4_linear_3529_9442" x1="395" y1="355.334" x2="395" y2="408.667" gradientUnits="userSpaceOnUse">
<stop stop-color="#1168FF"/>
<stop offset="1" stop-color="#28D1B3"/>
</linearGradient>
<linearGradient id="paint5_linear_3529_9442" x1="395" y1="355.334" x2="395" y2="408.667" gradientUnits="userSpaceOnUse">
<stop stop-color="#28D1B3"/>
<stop offset="1" stop-color="#1168FF" stop-opacity="0"/>
</linearGradient>
<radialGradient id="paint6_radial_3529_9442" cx="0" cy="0" r="1" gradientUnits="userSpaceOnUse" gradientTransform="translate(158.371 349.666) rotate(-46.5605) scale(268.861 449.326)">
<stop stop-color="white"/>
<stop offset="0.508732" stop-color="#28D1B3"/>
<stop offset="1" stop-color="white"/>
</radialGradient>
<linearGradient id="paint7_linear_3529_9442" x1="229.782" y1="197.521" x2="280.611" y2="291.569" gradientUnits="userSpaceOnUse">
<stop stop-color="#28D1B3"/>
<stop offset="1" stop-color="#0364FF"/>
</linearGradient>
<linearGradient id="paint8_linear_3529_9442" x1="244.715" y1="200.392" x2="244.715" y2="283.671" gradientUnits="userSpaceOnUse">
<stop stop-color="#0FAC90"/>
<stop offset="0.940108" stop-color="#2AE9C7"/>
</linearGradient>
<linearGradient id="paint9_linear_3529_9442" x1="343" y1="154" x2="404.192" y2="220.768" gradientUnits="userSpaceOnUse">
<stop stop-color="#FF7639"/>
<stop offset="1" stop-color="#FF9341"/>
</linearGradient>
<linearGradient id="paint10_linear_3529_9442" x1="75.6624" y1="302.656" x2="207.361" y2="420.483" gradientUnits="userSpaceOnUse">
<stop stop-color="#FF6C8F"/>
<stop offset="1" stop-color="#9806E1"/>
</linearGradient>
<clipPath id="clip0_3529_9442">
<rect width="515" height="515" fill="white"/>
</clipPath>
</defs>
</svg>
