<svg width="64" height="64" viewBox="0 0 64 64" fill="none" xmlns="http://www.w3.org/2000/svg">
<path fill-rule="evenodd" clip-rule="evenodd" d="M31.1767 23.5527C30.0538 23.5527 29.1434 24.4631 29.1434 25.586C29.1434 26.7089 30.0538 27.6193 31.1767 27.6193C32.2997 27.6193 33.2101 26.7089 33.2101 25.586C33.2101 24.4631 32.2997 23.5527 31.1767 23.5527ZM25.1434 25.586C25.1434 22.2539 27.8447 19.5527 31.1767 19.5527C34.5087 19.5527 37.2101 22.2539 37.2101 25.586C37.2101 28.9183 34.5087 31.6193 31.1767 31.6193C27.8447 31.6193 25.1434 28.9183 25.1434 25.586Z" fill="#28D1B3"/>
<path fill-rule="evenodd" clip-rule="evenodd" d="M22.5881 39.7402C21.4652 39.7402 20.5548 40.6506 20.5548 41.7736C20.5548 42.8965 21.4652 43.8069 22.5881 43.8069C23.7111 43.8069 24.6214 42.8965 24.6214 41.7736C24.6214 40.6506 23.7111 39.7402 22.5881 39.7402ZM16.5548 41.7736C16.5548 38.4416 19.256 35.7402 22.5881 35.7402C25.9202 35.7402 28.6214 38.4416 28.6214 41.7736C28.6214 45.1058 25.9202 47.8069 22.5881 47.8069C19.256 47.8069 16.5548 45.1058 16.5548 41.7736Z" fill="#28D1B3"/>
<path fill-rule="evenodd" clip-rule="evenodd" d="M41.0361 38.7402C39.9132 38.7402 39.0028 39.6506 39.0028 40.7736C39.0028 41.8965 39.9132 42.8069 41.0361 42.8069C42.1591 42.8069 43.0695 41.8965 43.0695 40.7736C43.0695 39.6506 42.1591 38.7402 41.0361 38.7402ZM35.0028 40.7736C35.0028 37.4416 37.7039 34.7402 41.0361 34.7402C44.3681 34.7402 47.0695 37.4416 47.0695 40.7736C47.0695 44.1058 44.3681 46.8069 41.0361 46.8069C37.7039 46.8069 35.0028 44.1058 35.0028 40.7736Z" fill="#28D1B3"/>
<path fill-rule="evenodd" clip-rule="evenodd" d="M14.8698 31.798C15.6491 32.5807 15.6463 33.8471 14.8635 34.6263C10.1377 39.3311 8.91116 44.8017 10.9713 48.3697C12.3102 50.6889 14.9674 52.1913 18.5197 52.4996C22.0641 52.8071 26.3072 51.8865 30.345 49.5553L30.3589 49.5473C33.1495 47.966 35.5586 45.7908 37.4157 43.1756C38.0554 42.2751 39.3037 42.0633 40.2045 42.7028C41.105 43.3423 41.3167 44.5908 40.677 45.4916C38.4823 48.5823 35.6354 51.1535 32.3378 53.0236C27.6797 55.7113 22.6281 56.8711 18.174 56.4847C13.7256 56.0988 9.679 54.1316 7.50716 50.3697C4.13519 44.5295 6.71228 37.0969 12.0414 31.7916C12.8242 31.0124 14.0905 31.0151 14.8698 31.798Z" fill="#28D1B3"/>
<path fill-rule="evenodd" clip-rule="evenodd" d="M20.8404 13.6178C23.3988 9.95838 27.1258 7.4375 31.4692 7.4375C38.5351 7.4375 43.8399 13.9461 45.5519 21.7284C45.7892 22.8072 45.1071 23.8741 44.0284 24.1114C42.9495 24.3487 41.8826 23.6666 41.6455 22.5878C40.1132 15.6234 35.7839 11.4375 31.4692 11.4375C28.7916 11.4375 26.1617 12.9875 24.1187 15.9097C22.0802 18.8255 20.7558 22.9604 20.7558 27.6227V27.6349C20.7356 30.9301 21.4709 34.1861 22.9051 37.1528C23.3859 38.1475 22.9695 39.3432 21.9751 39.824C20.9806 40.3048 19.7847 39.8883 19.3039 38.8939C17.6045 35.3787 16.7328 31.5208 16.7558 27.6165C16.757 22.2377 18.2784 17.2824 20.8404 13.6178Z" fill="#28D1B3"/>
<path fill-rule="evenodd" clip-rule="evenodd" d="M33.2543 25.8997C33.3444 24.7988 34.3098 23.9793 35.4106 24.0693C39.281 24.3856 43.0295 25.5729 46.3762 27.5421C51.0327 30.2325 54.5628 34.0272 56.4551 38.0776C58.345 42.1229 58.6647 46.6109 56.493 50.3728C53.0308 56.3699 44.9906 57.7752 37.5407 55.5661C36.4818 55.252 35.8778 54.1389 36.1916 53.08C36.5058 52.0211 37.6188 51.4171 38.6778 51.7312C45.3191 53.7005 50.9143 52.0355 53.029 48.3728C54.3679 46.0536 54.3404 43.0011 52.8311 39.7707C51.3252 36.5475 48.4063 33.3331 44.3687 31.0019L44.354 30.9933C41.5252 29.3275 38.3564 28.3235 35.0847 28.056C33.9839 27.9659 33.1644 27.0005 33.2543 25.8997Z" fill="#28D1B3"/>
</svg>
