<svg width="48" height="48" viewBox="0 0 48 48" fill="none" xmlns="http://www.w3.org/2000/svg">
<g clip-path="url(#clip0_3504_2149)">
<path d="M15.6897 29.5379C15.8855 29.6196 16.1058 29.6202 16.302 29.5395C16.4983 29.4588 16.6545 29.3033 16.7361 29.1075L17.8641 26.3996H22.1313L23.2594 29.1075C23.4294 29.5154 23.898 29.708 24.3057 29.538C24.7136 29.3679 24.9062 28.8994 24.7362 28.4916L20.7362 18.8916C20.6119 18.5936 20.3207 18.3994 19.9978 18.3994C19.6749 18.3994 19.3837 18.5936 19.2594 18.8916L15.2595 28.4916C15.1777 28.6874 15.1772 28.9077 15.2579 29.1039C15.3386 29.3001 15.4938 29.4562 15.6897 29.5379ZM19.9977 21.2795L21.4642 24.7995H18.5313L19.9977 21.2795Z" fill="url(#paint0_linear_3504_2149)"/>
<path fill-rule="evenodd" clip-rule="evenodd" d="M26.3977 28.0004C25.9558 28.0004 25.5977 28.3586 25.5977 28.8004C25.5977 29.2423 25.9558 29.6004 26.3977 29.6004H31.1977C31.6395 29.6004 31.9977 29.2423 31.9977 28.8004C31.9977 28.3586 31.6395 28.0004 31.1977 28.0004H29.5977V20.0004H31.1977C31.6395 20.0004 31.9977 19.6423 31.9977 19.2004C31.9977 18.7586 31.6395 18.4004 31.1977 18.4004H26.3977C25.9558 18.4004 25.5977 18.7586 25.5977 19.2004C25.5977 19.6423 25.9558 20.0004 26.3977 20.0004H27.9977V28.0004H26.3977Z" fill="url(#paint1_linear_3504_2149)"/>
<path d="M0.797768 35.2C0.797768 36.9673 2.23049 38.4 3.99775 38.4C4.39858 38.3985 4.79548 38.3209 5.16734 38.1712C7.05852 39.6192 9.72736 40.3744 13.0073 40.3744C13.5017 40.3744 14.0154 40.3512 14.5361 40.3176C16.8593 45.0648 20.2113 48 23.9977 48C27.7841 48 31.1361 45.0648 33.4601 40.32C33.9817 40.3536 34.4945 40.3768 34.9889 40.3768C38.2688 40.3768 40.9377 39.6215 42.8289 38.1735C43.2007 38.3223 43.5972 38.3991 43.9977 38.4C45.4101 38.396 46.6528 37.4664 47.0556 36.1126C47.4584 34.7589 46.9261 33.3011 45.7457 32.5256C45.8576 29.9496 44.8616 27.0263 42.8345 24C44.8616 20.9744 45.8577 18.0511 45.7457 15.4743C47.1287 14.5818 47.6065 12.7841 46.8492 11.3226C46.0918 9.86118 44.3475 9.21501 42.8208 9.83031C40.6472 8.16714 37.4377 7.43035 33.4608 7.68954C31.1394 2.93843 27.7858 0 23.9978 0C20.2098 0 16.8562 2.93843 14.5322 7.68962C10.557 7.432 7.34897 8.16958 5.17214 9.83039C3.64644 9.22005 1.90658 9.86716 1.1505 11.3262C0.394415 12.7852 0.868944 14.5799 2.24734 15.4744C2.13695 18.0497 3.13372 20.9728 5.16096 24C3.13372 27.0264 2.13695 29.9496 2.24978 32.5257C1.34497 33.1145 0.798792 34.1205 0.797768 35.2ZM2.3978 35.2C2.3978 34.3164 3.11412 33.6 3.99783 33.6C4.88153 33.6 5.59785 34.3163 5.59785 35.2C5.59785 36.0837 4.88153 36.8 3.99783 36.8C3.57345 36.8 3.16648 36.6315 2.86642 36.3314C2.56637 36.0314 2.3978 35.6244 2.3978 35.2ZM15.525 9.37602C17.6548 9.63104 19.753 10.102 21.7874 10.7817C20.3555 11.4207 18.9571 12.1326 17.5978 12.9145C16.2338 13.7017 14.9125 14.5608 13.6394 15.488C14.0588 13.392 14.6907 11.344 15.525 9.37602ZM34.3554 15.488C33.0827 14.5607 31.7617 13.7016 30.3978 12.9145C29.0405 12.1335 27.6445 11.4217 26.2153 10.7817C28.2477 10.1023 30.3437 9.63143 32.4714 9.37602C33.3052 11.3441 33.9364 13.392 34.3554 15.488ZM32.4706 38.6241C30.3408 38.369 28.2426 37.8981 26.2082 37.2184C27.6401 36.5793 29.0385 35.8675 30.3978 35.0856C31.7618 34.2983 33.0831 33.4393 34.3562 32.512C33.9368 34.6081 33.305 36.6559 32.4706 38.6241ZM29.5978 14.3008C31.4019 15.3391 33.1266 16.5095 34.7578 17.8024C35.052 19.8552 35.199 21.9263 35.1978 24C35.1993 26.0737 35.0525 28.1449 34.7586 30.1976C33.1271 31.4905 31.4021 32.661 29.5978 33.6993C27.7993 34.7395 25.9277 35.648 23.9978 36.4176C22.0678 35.6476 20.1962 34.7385 18.3978 33.6976C16.5937 32.6593 14.869 31.489 13.2378 30.196C12.6522 26.085 12.6522 21.9118 13.2378 17.8008C14.8691 16.5084 16.5938 15.3386 18.3978 14.3007C20.1978 13.2597 22.071 12.3507 24.0026 11.5807C25.9309 12.3511 27.801 13.2601 29.5978 14.3008ZM36.5578 19.3144C38.1534 20.727 39.6026 22.2968 40.8834 24C39.6044 25.703 38.157 27.2728 36.5635 28.6856C36.7205 27.1288 36.7988 25.5649 36.7979 24C36.7983 22.4352 36.7195 20.8713 36.5619 19.3144H36.5578ZM11.4378 28.6856C9.84176 27.2735 8.39251 25.7036 7.11214 24C8.39117 22.2971 9.83846 20.7273 11.4321 19.3144C11.1174 22.4302 11.1174 25.5698 11.4321 28.6856H11.4378ZM17.6026 35.0856C18.9599 35.8666 20.3558 36.5784 21.785 37.2184C19.7526 37.8977 17.6566 38.3686 15.5289 38.6241C14.6948 36.6559 14.0633 34.6081 13.6441 32.512C14.9155 33.4393 16.2353 34.2983 17.5978 35.0856H17.6026ZM23.9978 46.4C20.993 46.4 18.2626 44.0169 16.249 40.1513C18.9003 39.7754 21.5001 39.0979 23.9978 38.1321C26.4964 39.0984 29.0973 39.7758 31.7498 40.1513C29.7322 44.0169 27.0026 46.4 23.9978 46.4ZM43.9978 36.8C43.1142 36.8 42.3978 36.0837 42.3978 35.2C42.3978 34.3163 43.1141 33.6 43.9978 33.6C44.8815 33.6 45.5979 34.3163 45.5979 35.2C45.5979 36.0837 44.8815 36.8 43.9978 36.8ZM44.1658 32.0168C44.109 32.0168 44.0554 32 43.9978 32C42.2304 32 40.7978 33.4327 40.7978 35.2C40.8008 35.9154 41.0458 36.6087 41.493 37.1672C39.7506 38.3168 37.2074 38.8632 34.161 38.7488C35.1529 36.2709 35.8559 33.6868 36.2562 31.048C38.3254 29.3818 40.198 27.4853 41.8378 25.3952C43.1885 27.3563 43.9922 29.6419 44.1658 32.0168ZM45.5978 12.8C45.5978 13.6836 44.8815 14.4 43.9978 14.4C43.1141 14.4 42.3977 13.6837 42.3977 12.8C42.3977 11.9163 43.1141 11.2 43.9978 11.2C44.8815 11.2 45.5978 11.9164 45.5978 12.8ZM41.493 10.8328C41.0459 11.3913 40.8008 12.0846 40.7978 12.8C40.7978 14.5673 42.2305 16 43.9978 16C44.0554 16 44.1089 15.9864 44.1658 15.9832C43.9923 18.3581 43.1888 20.6439 41.8378 22.6048C40.1977 20.5146 38.3248 18.6181 36.2554 16.952C35.8546 14.313 35.1507 11.729 34.1578 9.25122C37.2066 9.13604 39.7514 9.68001 41.493 10.8328ZM23.9978 1.60003C27.0026 1.60003 29.733 3.98322 31.7466 7.84882C29.0966 8.22501 26.4981 8.90243 24.0018 9.86802C21.5032 8.90172 18.9023 8.2243 16.2498 7.84882C18.2634 3.98322 20.993 1.60003 23.9978 1.60003ZM3.99775 11.2C4.88138 11.2 5.59778 11.9164 5.59778 12.8001C5.59778 13.6838 4.88146 14.4001 3.99775 14.4001C3.11404 14.4001 2.39772 13.6838 2.39772 12.8001C2.39772 11.9164 3.11412 11.2 3.99775 11.2ZM3.82981 15.9832C3.88657 15.9832 3.94019 16 3.99783 16C5.76516 16 7.1978 14.5673 7.1978 12.8C7.19481 12.0846 6.94979 11.3912 6.50259 10.8328C8.24418 9.68324 10.7874 9.13761 13.8346 9.25122C12.8428 11.7291 12.1397 14.3132 11.7394 16.952C9.67044 18.6181 7.79783 20.5143 6.15781 22.604C4.80658 20.6435 4.00294 18.358 3.82981 15.9832ZM6.15781 25.396C7.79862 27.4855 9.6717 29.3817 11.741 31.048C12.1417 33.6872 12.8453 36.2715 13.8378 38.7496C10.793 38.8647 8.24819 38.3168 6.50581 37.1672C6.95184 36.6083 7.19568 35.915 7.1978 35.2C7.1978 33.4327 5.76509 32 3.99783 32C3.94019 32 3.88665 32.0144 3.82981 32.0168C4.00326 29.6421 4.80682 27.3567 6.15781 25.396Z" fill="url(#paint2_linear_3504_2149)"/>
</g>
<defs>
<linearGradient id="paint0_linear_3504_2149" x1="15.1978" y1="24.6296" x2="24.7977" y2="24.6908" gradientUnits="userSpaceOnUse">
<stop stop-color="#28D1B3"/>
<stop offset="1" stop-color="#0084FF"/>
</linearGradient>
<linearGradient id="paint1_linear_3504_2149" x1="25.5977" y1="24.6304" x2="31.9976" y2="24.6576" gradientUnits="userSpaceOnUse">
<stop stop-color="#28D1B3"/>
<stop offset="1" stop-color="#0084FF"/>
</linearGradient>
<linearGradient id="paint2_linear_3504_2149" x1="0.791992" y1="26.7" x2="47.2054" y2="27.0336" gradientUnits="userSpaceOnUse">
<stop stop-color="#28D1B3"/>
<stop offset="1" stop-color="#0084FF"/>
</linearGradient>
<clipPath id="clip0_3504_2149">
<rect width="48" height="48" fill="white"/>
</clipPath>
</defs>
</svg>
