<svg width="600" height="450" viewBox="0 0 600 450" fill="none" xmlns="http://www.w3.org/2000/svg">
<g clip-path="url(#clip0_3039_18458)">
<g filter="url(#filter0_d_3039_18458)">
<path d="M169 76.6597C169 70.7725 174.582 66 181.469 66H714.976C721.863 66 727.445 70.7725 727.445 76.6597V378.005C727.445 383.892 721.863 388.665 714.976 388.665H182.66C175.116 388.665 169 383.436 169 376.987V76.6597Z" fill="white"/>
<path d="M169 77.6779C169 71.2284 174.963 66 182.318 66H298.815V388.665H182.318C174.963 388.665 169 383.436 169 376.987V77.6779Z" fill="#FAFAFA"/>
<path d="M186.96 125.967H221.587V133.958H186.96V125.967Z" fill="#EAEAEA"/>
<path d="M186.96 181.164H221.587V189.155H186.96V181.164Z" fill="#EAEAEA"/>
<path d="M187.058 234.658H240.211V242.495H187.058V234.658Z" fill="#EAEAEA"/>
<path d="M186.96 288.151H221.587V296.142H186.96V288.151Z" fill="#EAEAEA"/>
<path d="M187.058 140.96H260.314V149.137H187.058V140.96Z" fill="#EAEAEA"/>
<path d="M187.058 196.155H240.211V204.333H187.058V196.155Z" fill="#EAEAEA"/>
<path d="M187.058 249.65H221.471V257.828H187.058V249.65Z" fill="#EAEAEA"/>
<path d="M187.058 303.145H253.84V311.322H187.058V303.145Z" fill="#EAEAEA"/>
<path d="M186.96 156.154H240.232V164.145H186.96V156.154Z" fill="#EAEAEA"/>
<path d="M187.058 211.488H265.084V219.325H187.058V211.488Z" fill="#EAEAEA"/>
<path d="M186.96 264.845H240.232V272.836H186.96V264.845Z" fill="#EAEAEA"/>
<path d="M186.96 318.339H240.232V326.33H186.96V318.339Z" fill="#EAEAEA"/>
<path d="M169 78.4661C169 71.5813 174.581 66 181.466 66H715.559C722.444 66 728.026 71.5813 728.026 78.4661V104.433H169V78.4661Z" fill="#3B3B3B"/>
<path d="M389.317 89.3474V81.5322H395.568V83.1957H391.25V84.6584H394.129V86.266H391.25V89.3474H389.317Z" fill="white"/>
<path d="M395.281 86.4C395.281 85.9758 395.364 85.5776 395.529 85.2054C395.701 84.8258 395.93 84.4983 396.214 84.2229C396.507 83.9475 396.848 83.7316 397.238 83.5753C397.635 83.4116 398.058 83.3298 398.508 83.3298C398.958 83.3298 399.378 83.4116 399.767 83.5753C400.165 83.7316 400.506 83.9475 400.791 84.2229C401.083 84.4983 401.312 84.8258 401.476 85.2054C401.649 85.5776 401.735 85.9758 401.735 86.4C401.735 86.8243 401.649 87.2262 401.476 87.6058C401.312 87.9779 401.083 88.3018 400.791 88.5772C400.506 88.8525 400.165 89.0684 399.767 89.2247C399.378 89.381 398.958 89.4591 398.508 89.4591C398.058 89.4591 397.635 89.381 397.238 89.2247C396.848 89.0684 396.507 88.8525 396.214 88.5772C395.93 88.3018 395.701 87.9779 395.529 87.6058C395.364 87.2262 395.281 86.8243 395.281 86.4ZM398.508 87.8961C398.913 87.8961 399.254 87.751 399.531 87.4607C399.816 87.1704 399.959 86.8168 399.959 86.4C399.959 85.9758 399.816 85.6184 399.531 85.3282C399.254 85.0379 398.913 84.8928 398.508 84.8928C398.103 84.8928 397.759 85.0379 397.474 85.3282C397.196 85.6184 397.058 85.9758 397.058 86.4C397.058 86.8168 397.196 87.1704 397.474 87.4607C397.759 87.751 398.103 87.8961 398.508 87.8961Z" fill="white"/>
<path d="M402.589 89.3474V83.4414H404.411V84.0331C404.606 83.8023 404.834 83.6237 405.097 83.4972C405.359 83.3707 405.651 83.3074 405.974 83.3074C406.146 83.3148 406.285 83.3298 406.39 83.3521C406.495 83.367 406.585 83.4005 406.66 83.4526V85.0268C406.54 84.9747 406.405 84.9337 406.255 84.904C406.105 84.8667 405.951 84.8482 405.794 84.8482C405.509 84.8482 405.243 84.9151 404.995 85.0491C404.756 85.183 404.561 85.3655 404.411 85.5962V89.3474H402.589Z" fill="white"/>
<path d="M407.443 89.3474V83.4414H409.264V83.821C409.474 83.6573 409.702 83.5345 409.95 83.4526C410.205 83.3707 410.471 83.3298 410.748 83.3298C411.115 83.3298 411.449 83.4042 411.749 83.5531C412.056 83.6945 412.311 83.8917 412.513 84.1447C412.753 83.8842 413.038 83.6833 413.368 83.5419C413.698 83.4005 414.057 83.3298 414.447 83.3298C415.122 83.3298 415.673 83.5531 416.1 83.9996C416.535 84.4462 416.752 85.0156 416.752 85.7078V89.3474H414.931V85.9535C414.931 85.6334 414.841 85.3766 414.661 85.1831C414.489 84.9821 414.256 84.8816 413.964 84.8816C413.761 84.8816 413.578 84.9226 413.413 85.0044C413.248 85.0789 413.106 85.1868 412.986 85.3282C412.993 85.3877 412.997 85.451 412.997 85.518C413.004 85.5775 413.008 85.6408 413.008 85.7078V89.3474H411.187V85.9535C411.187 85.6334 411.097 85.3766 410.917 85.1831C410.744 84.9821 410.512 84.8816 410.22 84.8816C410.017 84.8816 409.834 84.9188 409.669 84.9933C409.511 85.0603 409.376 85.1645 409.264 85.3059V89.3474H407.443Z" fill="white"/>
<path d="M428.681 87.5726C428.965 87.5726 429.208 87.6768 429.41 87.8852C429.619 88.0861 429.724 88.328 429.724 88.6109C429.724 88.8937 429.619 89.1393 429.41 89.3477C429.208 89.5487 428.965 89.6492 428.681 89.6492C428.397 89.6492 428.15 89.5487 427.941 89.3477C427.739 89.1393 427.638 88.8937 427.638 88.6109C427.638 88.328 427.739 88.0861 427.941 87.8852C428.15 87.6768 428.397 87.5726 428.681 87.5726Z" fill="white"/>
<path d="M432.582 89.6269C431.953 89.6269 431.438 89.4557 431.034 89.1133C430.63 88.7709 430.428 88.3318 430.428 87.7959C430.428 87.2376 430.641 86.8022 431.068 86.4896C431.501 86.177 432.103 86.0207 432.873 86.0207C433.105 86.0207 433.333 86.0356 433.557 86.0653C433.782 86.0951 434.002 86.1361 434.219 86.1882V85.8979C434.219 85.6002 434.122 85.3806 433.927 85.2392C433.74 85.0903 433.46 85.0159 433.086 85.0159C432.854 85.0159 432.593 85.0531 432.301 85.1275C432.01 85.202 431.673 85.321 431.292 85.4848L430.641 84.1562C431.12 83.9404 431.587 83.7803 432.043 83.6761C432.507 83.5645 432.963 83.5087 433.411 83.5087C434.234 83.5087 434.873 83.7059 435.329 84.1004C435.785 84.4874 436.013 85.0345 436.013 85.7416V89.5264H434.219V89.1691C433.98 89.3329 433.725 89.4519 433.456 89.5264C433.195 89.5934 432.903 89.6269 432.582 89.6269ZM432.155 87.7624C432.155 87.9484 432.238 88.0936 432.402 88.1978C432.567 88.302 432.795 88.3541 433.086 88.3541C433.303 88.3541 433.505 88.3318 433.692 88.2871C433.886 88.2424 434.062 88.1717 434.219 88.075V87.3158C434.047 87.2711 433.871 87.2376 433.692 87.2153C433.512 87.193 433.329 87.1818 433.142 87.1818C432.828 87.1818 432.585 87.2339 432.413 87.3381C432.241 87.4349 432.155 87.5763 432.155 87.7624Z" fill="white"/>
<path d="M438.002 83.0732C437.725 83.0732 437.489 82.9765 437.295 82.783C437.101 82.5894 437.003 82.355 437.003 82.0796C437.003 81.8042 437.101 81.5697 437.295 81.3762C437.489 81.1827 437.725 81.0859 438.002 81.0859C438.278 81.0859 438.514 81.1827 438.708 81.3762C438.902 81.5697 439 81.8042 439 82.0796C439 82.355 438.902 82.5894 438.708 82.783C438.514 82.9765 438.278 83.0732 438.002 83.0732ZM438.91 83.6203V89.5264H437.093V83.6203H438.91Z" fill="white"/>
<path d="M420.191 89.3041H418.018L420.94 85.3409L418.15 81.6191H420.411L422.065 83.9356L423.719 81.6191H425.892L423.146 85.3409L426.124 89.3041H423.863L422.021 86.7351L420.191 89.3041Z" fill="white"/>
<path fill-rule="evenodd" clip-rule="evenodd" d="M376.419 78C378.401 78 380.264 78.77 381.665 80.1719C383.065 81.5737 383.837 83.4361 383.837 85.4187C383.837 87.4012 383.067 89.2636 381.665 90.6654C380.264 92.0648 378.401 92.8373 376.419 92.8373H370.535C369.688 92.8373 369 92.1492 369 91.3024V79.5349C369 78.6881 369.688 78 370.535 78H376.419ZM372.321 81.8064C372.009 82.1185 372.009 82.6276 372.321 82.9397L373.526 84.1446C373.838 84.4567 374.347 84.4567 374.659 84.1446C374.971 83.8325 374.971 83.3234 374.659 83.0113L373.454 81.8064C373.142 81.4943 372.633 81.4943 372.321 81.8064ZM377.206 87.8262C376.894 87.5142 376.894 87.0051 377.206 86.693C377.518 86.3809 378.027 86.3809 378.339 86.693L379.544 87.8979C379.856 88.21 379.856 88.719 379.544 89.0311C379.232 89.3432 378.723 89.3432 378.411 89.0311L377.206 87.8262ZM379.544 81.8064C379.232 81.4943 378.723 81.4943 378.411 81.8064L377.206 83.0113C376.894 83.3234 376.894 83.8325 377.206 84.1446C377.518 84.4567 378.027 84.4567 378.339 84.1446L379.544 82.9397C379.856 82.6276 379.856 82.1185 379.544 81.8064ZM373.526 86.693C373.838 86.3809 374.347 86.3809 374.659 86.693C374.971 87.0051 374.971 87.5142 374.659 87.8262L373.454 89.0337C373.142 89.3458 372.633 89.3458 372.321 89.0337C372.009 88.7216 372.009 88.2125 372.321 87.9004L373.526 86.693ZM376.694 84.8755L376.472 84.6529C376.173 84.3511 375.686 84.3511 375.387 84.6529L375.165 84.8755C374.865 85.1748 374.865 85.6609 375.165 85.9602L375.387 86.1827C375.686 86.482 376.173 86.482 376.472 86.1827L376.694 85.9602C376.994 85.6609 376.994 85.1748 376.694 84.8755Z" fill="white"/>
<path d="M198.607 85.3486C198.607 82.7668 196.514 80.6738 193.932 80.6738C191.35 80.6738 189.257 82.7668 189.257 85.3486C189.257 87.9304 191.35 90.0234 193.932 90.0234C196.514 90.0234 198.607 87.9304 198.607 85.3486Z" fill="#F17474"/>
<path d="M214.189 85.3486C214.189 82.7668 212.096 80.6738 209.515 80.6738C206.933 80.6738 204.84 82.7668 204.84 85.3486C204.84 87.9304 206.933 90.0234 209.515 90.0234C212.096 90.0234 214.189 87.9304 214.189 85.3486Z" fill="#FFC75C"/>
<path d="M229.772 85.3486C229.772 82.7668 227.679 80.6738 225.097 80.6738C222.515 80.6738 220.422 82.7668 220.422 85.3486C220.422 87.9304 222.515 90.0234 225.097 90.0234C227.679 90.0234 229.772 87.9304 229.772 85.3486Z" fill="#8DFF66"/>
</g>
<rect x="315.5" y="119.5" width="305" height="247" fill="#1F44FF" fill-opacity="0.04" stroke="#1F44FF" stroke-dasharray="4 8"/>
<g filter="url(#filter1_bd_3039_18458)">
<rect x="147" y="153" width="120" height="120" rx="28.8" fill="white" fill-opacity="0.2" shape-rendering="crispEdges"/>
<rect x="147.6" y="153.6" width="118.8" height="118.8" rx="28.2" stroke="url(#paint0_linear_3039_18458)" stroke-width="1.2" shape-rendering="crispEdges"/>
</g>
<path d="M187 173C184.25 173 182 175.25 182 178V248C182 250.75 184.25 253 187 253H237C239.75 253 242 250.75 242 248V193L222 173H187Z" fill="#EEEEEE"/>
<path d="M227 193H242L222 173V188C222 190.75 224.25 193 227 193Z" fill="#D7D7D8"/>
<path d="M232 238C232 239.375 230.875 240.5 229.5 240.5H174.5C173.125 240.5 172 239.375 172 238V213C172 211.625 173.125 210.5 174.5 210.5H229.5C230.875 210.5 232 211.625 232 213V238Z" fill="#FF553F"/>
<path d="M229.5 240.5H182V243H229.5C230.875 243 232 241.875 232 240.5V238C232 239.375 230.875 240.5 229.5 240.5Z" fill="#CAD1D8"/>
<path d="M210.438 231.016C210.116 231.016 209.86 230.927 209.673 230.75C209.496 230.563 209.407 230.297 209.407 229.953V220.938C209.407 220.594 209.496 220.333 209.673 220.156C209.86 219.969 210.126 219.875 210.47 219.875H215.923C216.194 219.875 216.397 219.943 216.532 220.078C216.668 220.214 216.735 220.406 216.735 220.656C216.735 220.917 216.668 221.12 216.532 221.266C216.397 221.401 216.194 221.469 215.923 221.469H211.407V224.578H215.595C215.855 224.578 216.053 224.646 216.188 224.781C216.334 224.917 216.407 225.109 216.407 225.359C216.407 225.62 216.334 225.823 216.188 225.969C216.053 226.104 215.855 226.172 215.595 226.172H211.407V229.953C211.407 230.661 211.084 231.016 210.438 231.016Z" fill="white"/>
<path d="M198.568 230.891C198.224 230.891 197.958 230.802 197.771 230.625C197.594 230.438 197.505 230.172 197.505 229.828V220.938C197.505 220.594 197.594 220.333 197.771 220.156C197.958 219.969 198.224 219.875 198.568 219.875H201.599C203.443 219.875 204.865 220.349 205.865 221.297C206.875 222.245 207.38 223.604 207.38 225.375C207.38 226.26 207.25 227.047 206.99 227.734C206.74 228.411 206.365 228.984 205.865 229.453C205.375 229.922 204.771 230.281 204.052 230.531C203.344 230.771 202.526 230.891 201.599 230.891H198.568ZM199.505 229.234H201.474C202.12 229.234 202.677 229.156 203.146 229C203.625 228.833 204.021 228.594 204.333 228.281C204.656 227.958 204.896 227.557 205.052 227.078C205.208 226.589 205.287 226.021 205.287 225.375C205.287 224.083 204.969 223.12 204.333 222.484C203.698 221.849 202.745 221.531 201.474 221.531H199.505V229.234Z" fill="white"/>
<path d="M188.312 231.016C187.99 231.016 187.74 230.927 187.562 230.75C187.396 230.563 187.312 230.307 187.312 229.984V220.891C187.312 220.557 187.401 220.307 187.578 220.141C187.755 219.964 188.005 219.875 188.328 219.875H192.094C193.302 219.875 194.234 220.177 194.891 220.781C195.547 221.385 195.875 222.229 195.875 223.313C195.875 224.396 195.547 225.245 194.891 225.859C194.234 226.464 193.302 226.766 192.094 226.766H189.313V229.984C189.313 230.307 189.229 230.563 189.063 230.75C188.896 230.927 188.646 231.016 188.312 231.016ZM189.313 225.188H191.781C192.49 225.188 193.026 225.031 193.391 224.719C193.755 224.396 193.938 223.927 193.938 223.313C193.938 222.698 193.755 222.234 193.391 221.922C193.026 221.609 192.49 221.453 191.781 221.453H189.313V225.188Z" fill="white"/>
<g filter="url(#filter2_bd_3039_18458)">
<rect x="254" y="267" width="100" height="100" rx="24" fill="white" fill-opacity="0.2" shape-rendering="crispEdges"/>
<rect x="254.5" y="267.5" width="99" height="99" rx="23.5" stroke="url(#paint1_linear_3039_18458)" shape-rendering="crispEdges"/>
</g>
<g clip-path="url(#clip1_3039_18458)">
<path d="M287.333 283.668C285.042 283.668 283.167 285.543 283.167 287.835V346.168C283.167 348.46 285.042 350.335 287.333 350.335H329C331.292 350.335 333.167 348.46 333.167 346.168V300.335L316.5 283.668H287.333Z" fill="#EEEEEE"/>
<path d="M320.667 300.335H333.167L316.5 283.668V296.168C316.5 298.46 318.375 300.335 320.667 300.335Z" fill="#D7D7D8"/>
<path d="M324.833 337.835C324.833 338.98 323.896 339.918 322.75 339.918H276.917C275.771 339.918 274.833 338.98 274.833 337.835V317.001C274.833 315.855 275.771 314.918 276.917 314.918H322.75C323.896 314.918 324.833 315.855 324.833 317.001V337.835Z" fill="#6F23E2"/>
<path d="M322.75 339.917H283.167V342.001H322.75C323.896 342.001 324.833 341.063 324.833 339.917V337.834C324.833 338.98 323.896 339.917 322.75 339.917Z" fill="#CAD1D8"/>
<path d="M309.591 332.171C308.575 332.171 307.716 331.98 307.013 331.598C306.318 331.216 305.789 330.673 305.424 329.97C305.06 329.267 304.878 328.434 304.878 327.47C304.878 326.741 304.982 326.086 305.19 325.504C305.407 324.922 305.715 324.428 306.114 324.02C306.522 323.603 307.017 323.286 307.599 323.069C308.18 322.843 308.84 322.73 309.578 322.73C310.064 322.73 310.55 322.791 311.036 322.913C311.531 323.026 311.996 323.221 312.43 323.499C312.577 323.594 312.673 323.711 312.716 323.85C312.768 323.989 312.777 324.132 312.742 324.28C312.707 324.419 312.642 324.54 312.547 324.645C312.451 324.749 312.33 324.814 312.182 324.84C312.043 324.866 311.887 324.831 311.713 324.736C311.384 324.545 311.049 324.406 310.711 324.319C310.372 324.232 309.995 324.189 309.578 324.189C308.936 324.189 308.393 324.319 307.95 324.579C307.508 324.831 307.174 325.2 306.948 325.686C306.731 326.172 306.622 326.767 306.622 327.47C306.622 328.538 306.878 329.349 307.391 329.905C307.903 330.461 308.662 330.738 309.669 330.738C310.016 330.738 310.368 330.704 310.724 330.634C311.08 330.565 311.427 330.469 311.766 330.348L311.44 331.09V328.316H310.008C309.791 328.316 309.621 328.26 309.5 328.147C309.387 328.034 309.331 327.882 309.331 327.691C309.331 327.492 309.387 327.34 309.5 327.236C309.621 327.132 309.791 327.079 310.008 327.079H312.156C312.373 327.079 312.538 327.14 312.651 327.262C312.772 327.375 312.833 327.539 312.833 327.757V330.921C312.833 331.112 312.794 331.272 312.716 331.402C312.647 331.533 312.529 331.628 312.364 331.689C311.983 331.828 311.544 331.945 311.049 332.04C310.555 332.127 310.068 332.171 309.591 332.171Z" fill="white"/>
<path d="M296.218 332.145C295.966 332.145 295.771 332.075 295.632 331.937C295.502 331.798 295.437 331.598 295.437 331.338V323.59C295.437 323.321 295.502 323.117 295.632 322.978C295.771 322.831 295.949 322.757 296.166 322.757C296.366 322.757 296.513 322.796 296.609 322.874C296.713 322.943 296.834 323.065 296.973 323.239L301.96 329.71H301.622V323.551C301.622 323.299 301.687 323.104 301.817 322.965C301.956 322.826 302.151 322.757 302.403 322.757C302.655 322.757 302.846 322.826 302.976 322.965C303.106 323.104 303.171 323.299 303.171 323.551V331.364C303.171 331.607 303.11 331.798 302.989 331.937C302.867 332.075 302.702 332.145 302.494 332.145C302.294 332.145 302.134 332.106 302.012 332.028C301.899 331.95 301.774 331.824 301.635 331.65L296.661 325.179H296.986V331.338C296.986 331.598 296.921 331.798 296.791 331.937C296.661 332.075 296.47 332.145 296.218 332.145Z" fill="white"/>
<path d="M287.776 332.144C287.507 332.144 287.299 332.07 287.151 331.923C287.012 331.767 286.943 331.554 286.943 331.285V323.707C286.943 323.429 287.017 323.221 287.164 323.082C287.312 322.934 287.52 322.86 287.789 322.86H290.927C291.934 322.86 292.711 323.112 293.258 323.616C293.805 324.119 294.078 324.822 294.078 325.725C294.078 326.628 293.805 327.335 293.258 327.847C292.711 328.351 291.934 328.603 290.927 328.603H288.609V331.285C288.609 331.554 288.54 331.767 288.401 331.923C288.262 332.07 288.054 332.144 287.776 332.144ZM288.609 327.287H290.667C291.257 327.287 291.704 327.157 292.008 326.897C292.312 326.628 292.464 326.237 292.464 325.725C292.464 325.213 292.312 324.826 292.008 324.566C291.704 324.306 291.257 324.175 290.667 324.175H288.609V327.287Z" fill="white"/>
</g>
<g filter="url(#filter3_bd_3039_18458)">
<rect x="128" y="315" width="90" height="90" rx="21.6" fill="white" fill-opacity="0.2" shape-rendering="crispEdges"/>
<rect x="128.45" y="315.45" width="89.1" height="89.1" rx="21.15" stroke="url(#paint2_linear_3039_18458)" stroke-width="0.9" shape-rendering="crispEdges"/>
</g>
<path d="M158 330C155.937 330 154.25 331.687 154.25 333.75V386.25C154.25 388.313 155.937 390 158 390H195.5C197.563 390 199.25 388.313 199.25 386.25V345L184.25 330H158Z" fill="#EEEEEE"/>
<path d="M188 345H199.25L184.25 330V341.25C184.25 343.313 185.937 345 188 345Z" fill="#D7D7D8"/>
<path d="M191.75 378.75C191.75 379.781 190.906 380.625 189.875 380.625H148.625C147.594 380.625 146.75 379.781 146.75 378.75V360C146.75 358.969 147.594 358.125 148.625 358.125H189.875C190.906 358.125 191.75 358.969 191.75 360V378.75Z" fill="#1ABFFE"/>
<path d="M189.875 380.625H154.25V382.5H189.875C190.906 382.5 191.75 381.656 191.75 380.625V378.75C191.75 379.781 190.906 380.625 189.875 380.625Z" fill="#CAD1D8"/>
<path d="M176.176 373.652C175.261 373.652 174.488 373.48 173.855 373.137C173.23 372.793 172.754 372.305 172.426 371.672C172.097 371.039 171.933 370.289 171.933 369.422C171.933 368.766 172.027 368.176 172.215 367.652C172.41 367.129 172.687 366.684 173.047 366.316C173.414 365.941 173.859 365.656 174.383 365.461C174.906 365.258 175.5 365.156 176.164 365.156C176.601 365.156 177.039 365.211 177.476 365.32C177.922 365.422 178.34 365.598 178.73 365.848C178.863 365.934 178.949 366.039 178.988 366.164C179.035 366.289 179.043 366.418 179.011 366.551C178.98 366.676 178.922 366.785 178.836 366.879C178.75 366.973 178.64 367.031 178.508 367.055C178.383 367.078 178.242 367.047 178.086 366.961C177.789 366.789 177.488 366.664 177.183 366.586C176.879 366.508 176.539 366.469 176.164 366.469C175.586 366.469 175.097 366.586 174.699 366.82C174.301 367.047 174 367.379 173.797 367.816C173.601 368.254 173.504 368.789 173.504 369.422C173.504 370.383 173.734 371.113 174.195 371.613C174.656 372.113 175.34 372.363 176.246 372.363C176.558 372.363 176.875 372.332 177.195 372.27C177.515 372.207 177.828 372.121 178.133 372.012L177.84 372.68V370.184H176.551C176.355 370.184 176.203 370.133 176.094 370.031C175.992 369.93 175.941 369.793 175.941 369.621C175.941 369.441 175.992 369.305 176.094 369.211C176.203 369.117 176.355 369.07 176.551 369.07H178.484C178.679 369.07 178.828 369.125 178.929 369.234C179.039 369.336 179.094 369.484 179.094 369.68V372.527C179.094 372.699 179.058 372.844 178.988 372.961C178.926 373.078 178.82 373.164 178.672 373.219C178.328 373.344 177.933 373.449 177.488 373.535C177.043 373.613 176.605 373.652 176.176 373.652Z" fill="white"/>
<path d="M165.365 373.629C165.123 373.629 164.936 373.563 164.803 373.43C164.678 373.289 164.615 373.098 164.615 372.855V366.035C164.615 365.785 164.682 365.598 164.815 365.473C164.947 365.34 165.135 365.273 165.377 365.273H168.201C169.108 365.273 169.807 365.5 170.299 365.953C170.791 366.406 171.037 367.039 171.037 367.852C171.037 368.664 170.791 369.301 170.299 369.762C169.807 370.215 169.108 370.441 168.201 370.441H166.115V372.855C166.115 373.098 166.053 373.289 165.928 373.43C165.803 373.563 165.615 373.629 165.365 373.629ZM166.115 369.258H167.967C168.498 369.258 168.901 369.141 169.174 368.906C169.447 368.664 169.584 368.313 169.584 367.852C169.584 367.391 169.447 367.043 169.174 366.809C168.901 366.574 168.498 366.457 167.967 366.457H166.115V369.258Z" fill="white"/>
<path d="M160.109 373.617C159.891 373.625 159.719 373.566 159.594 373.441C159.469 373.316 159.406 373.156 159.406 372.961C159.406 372.813 159.453 372.684 159.547 372.574C159.633 372.457 159.762 372.395 159.934 372.387L160.285 372.363C160.629 372.34 160.887 372.234 161.059 372.047C161.238 371.852 161.328 371.574 161.328 371.215V365.941C161.328 365.691 161.391 365.504 161.516 365.379C161.648 365.246 161.836 365.18 162.078 365.18C162.32 365.18 162.504 365.246 162.629 365.379C162.762 365.504 162.828 365.691 162.828 365.941V371.203C162.828 371.695 162.738 372.113 162.559 372.457C162.387 372.801 162.129 373.07 161.785 373.266C161.441 373.453 161.016 373.563 160.508 373.594L160.109 373.617Z" fill="white"/>
<g filter="url(#filter4_bd_3039_18458)">
<rect x="43" y="215" width="80" height="80" rx="19.2" fill="white" fill-opacity="0.2" shape-rendering="crispEdges"/>
<rect x="43.4" y="215.4" width="79.2" height="79.2" rx="18.8" stroke="url(#paint3_linear_3039_18458)" stroke-width="0.8" shape-rendering="crispEdges"/>
</g>
<g clip-path="url(#clip2_3039_18458)">
<path d="M69.6666 228.332C67.8333 228.332 66.3333 229.832 66.3333 231.665V278.332C66.3333 280.165 67.8333 281.665 69.6666 281.665H103C104.833 281.665 106.333 280.165 106.333 278.332V241.665L92.9999 228.332H69.6666Z" fill="#EEEEEE"/>
<path d="M96.3333 241.665H106.333L92.9999 228.332V238.332C92.9999 240.165 94.4999 241.665 96.3333 241.665Z" fill="#D7D7D8"/>
<path d="M99.6666 271.665C99.6666 272.582 98.9166 273.332 98 273.332H61.3333C60.4166 273.332 59.6666 272.582 59.6666 271.665V254.999C59.6666 254.082 60.4166 253.332 61.3333 253.332H98C98.9166 253.332 99.6666 254.082 99.6666 254.999V271.665Z" fill="#2B6DFF"/>
<path d="M90.1676 267.092C89.9524 267.092 89.7857 267.033 89.6676 266.915C89.5565 266.79 89.501 266.62 89.501 266.405V260.342C89.501 260.12 89.56 259.953 89.6781 259.842C89.7961 259.724 89.9628 259.665 90.1781 259.665H92.6885C93.494 259.665 94.1156 259.866 94.5531 260.269C94.9906 260.672 95.2093 261.234 95.2093 261.957C95.2093 262.679 94.9906 263.245 94.5531 263.655C94.1156 264.057 93.494 264.259 92.6885 264.259H90.8343V266.405C90.8343 266.62 90.7788 266.79 90.6676 266.915C90.5565 267.033 90.3899 267.092 90.1676 267.092ZM90.8343 263.207H92.4801C92.9524 263.207 93.31 263.103 93.5531 262.894C93.7961 262.679 93.9176 262.366 93.9176 261.957C93.9176 261.547 93.7961 261.238 93.5531 261.03C93.31 260.821 92.9524 260.717 92.4801 260.717H90.8343V263.207Z" fill="white"/>
<path d="M83.0377 267.009C82.8085 267.009 82.6314 266.95 82.5064 266.832C82.3884 266.707 82.3293 266.53 82.3293 266.3V260.373C82.3293 260.144 82.3884 259.971 82.5064 259.853C82.6314 259.728 82.8085 259.665 83.0377 259.665H85.5377C86.0516 259.665 86.4891 259.741 86.8502 259.894C87.2113 260.047 87.4856 260.266 87.6731 260.55C87.8675 260.835 87.9648 261.175 87.9648 261.571C87.9648 262.016 87.8363 262.391 87.5793 262.696C87.3224 263.002 86.9717 263.207 86.5273 263.311V263.155C87.0412 263.231 87.4405 263.425 87.7252 263.738C88.0099 264.05 88.1523 264.457 88.1523 264.957C88.1523 265.609 87.93 266.116 87.4856 266.478C87.0481 266.832 86.437 267.009 85.6523 267.009H83.0377ZM83.6106 265.998H85.4856C85.9578 265.998 86.305 265.908 86.5273 265.728C86.7495 265.54 86.8606 265.262 86.8606 264.894C86.8606 264.519 86.7495 264.241 86.5273 264.061C86.305 263.88 85.9578 263.79 85.4856 263.79H83.6106V265.998ZM83.6106 262.78H85.3085C85.7668 262.78 86.1071 262.693 86.3293 262.519C86.5585 262.339 86.6731 262.075 86.6731 261.728C86.6731 261.38 86.5585 261.12 86.3293 260.946C86.1071 260.766 85.7668 260.675 85.3085 260.675H83.6106V262.78Z" fill="white"/>
<path d="M76.8223 267.009C76.5931 267.009 76.416 266.95 76.291 266.832C76.173 266.707 76.114 266.53 76.114 266.3V260.373C76.114 260.144 76.173 259.971 76.291 259.853C76.416 259.728 76.5931 259.665 76.8223 259.665H80.541C80.7146 259.665 80.8466 259.71 80.9369 259.8C81.0341 259.891 81.0827 260.019 81.0827 260.186C81.0827 260.359 81.0341 260.495 80.9369 260.592C80.8466 260.682 80.7146 260.728 80.541 260.728H77.3952V262.748H80.3119C80.4924 262.748 80.6278 262.794 80.7181 262.884C80.8084 262.974 80.8535 263.106 80.8535 263.28C80.8535 263.453 80.8084 263.585 80.7181 263.675C80.6278 263.766 80.4924 263.811 80.3119 263.811H77.3952V265.946H80.541C80.7146 265.946 80.8466 265.991 80.9369 266.082C81.0341 266.172 81.0827 266.304 81.0827 266.478C81.0827 266.651 81.0341 266.783 80.9369 266.873C80.8466 266.964 80.7146 267.009 80.541 267.009H76.8223Z" fill="white"/>
<path d="M67.1005 267.092C66.913 267.092 66.7602 267.047 66.6421 266.957C66.531 266.867 66.4408 266.724 66.3713 266.53L64.1942 260.374C64.1178 260.151 64.1317 259.964 64.2359 259.811C64.347 259.658 64.531 259.582 64.788 259.582C64.9755 259.582 65.1213 259.627 65.2255 259.717C65.3296 259.801 65.413 259.936 65.4755 260.124L67.3505 265.686H66.9338L68.8921 260.134C68.9616 259.947 69.0484 259.808 69.1526 259.717C69.2567 259.627 69.3921 259.582 69.5588 259.582C69.7255 259.582 69.8574 259.627 69.9546 259.717C70.0519 259.808 70.1352 259.95 70.2046 260.145L72.1005 265.686H71.7359L73.6421 260.124C73.7046 259.943 73.788 259.808 73.8921 259.717C73.9963 259.627 74.1387 259.582 74.3192 259.582C74.5415 259.582 74.7046 259.658 74.8088 259.811C74.913 259.964 74.9269 260.151 74.8505 260.374L72.6526 266.54C72.5831 266.728 72.4928 266.867 72.3817 266.957C72.2706 267.047 72.1213 267.092 71.9338 267.092C71.7463 267.092 71.597 267.047 71.4859 266.957C71.3748 266.867 71.2845 266.724 71.2151 266.53L69.4026 261.363H69.6421L67.8088 266.54C67.7394 266.728 67.6491 266.867 67.538 266.957C67.4338 267.047 67.288 267.092 67.1005 267.092Z" fill="white"/>
<path d="M97.9999 273.333H66.3333V274.999H97.9999C98.9166 274.999 99.6666 274.249 99.6666 273.333V271.666C99.6666 272.583 98.9166 273.333 97.9999 273.333Z" fill="#CAD1D8"/>
</g>
<g opacity="0.9" filter="url(#filter5_b_3039_18458)">
<circle cx="335" cy="253" r="35" fill="url(#paint4_linear_3039_18458)"/>
</g>
<g clip-path="url(#clip3_3039_18458)">
<path d="M342.562 263.471C341.85 262.759 340.695 262.759 339.984 263.471L336.823 266.632V256.901C336.823 255.894 336.006 255.077 334.999 255.077C333.993 255.077 333.176 255.894 333.176 256.901V266.919L330.015 263.758C329.302 263.046 328.148 263.046 327.436 263.758C326.724 264.471 326.724 265.625 327.436 266.337L333.566 272.466C333.922 272.823 334.389 273.001 334.855 273.001C335.322 273.001 335.788 272.823 336.144 272.466L342.561 266.05C343.274 265.337 343.274 264.183 342.561 263.471H342.562Z" fill="white"/>
<path d="M328.727 243.064C329.193 243.064 329.66 242.886 330.016 242.53L333.177 239.369V249.1C333.177 250.107 333.994 250.924 335.001 250.924C336.007 250.924 336.824 250.107 336.824 249.1V239.083L339.985 242.244C340.698 242.956 341.852 242.956 342.564 242.244C343.275 241.531 343.276 240.377 342.564 239.665L336.433 233.534C335.72 232.822 334.566 232.822 333.854 233.534L327.438 239.951C326.725 240.664 326.725 241.818 327.438 242.53C327.794 242.886 328.26 243.064 328.727 243.064Z" fill="white"/>
<path d="M321.37 254.824H331.101C332.108 254.824 332.925 254.007 332.925 253C332.925 251.993 332.108 251.176 331.101 251.176H321.083L324.243 248.015C324.955 247.303 324.955 246.148 324.243 245.437C323.53 244.724 322.376 244.724 321.664 245.437L315.534 251.568C314.822 252.28 314.822 253.435 315.534 254.146L321.951 260.563C322.308 260.919 322.774 261.097 323.24 261.097C323.707 261.097 324.173 260.919 324.53 260.563C325.242 259.85 325.242 258.696 324.53 257.984L321.37 254.824Z" fill="white"/>
<path d="M348.63 251.177H338.899C337.892 251.177 337.075 251.994 337.075 253.001C337.075 254.007 337.892 254.824 338.899 254.824H348.917L345.756 257.985C345.044 258.698 345.044 259.852 345.756 260.564C346.112 260.92 346.579 261.098 347.045 261.098C347.512 261.098 347.978 260.92 348.335 260.564L354.464 254.434C354.806 254.092 354.999 253.628 354.999 253.145C354.999 252.662 354.806 252.198 354.464 251.856L348.047 245.439C347.335 244.726 346.18 244.726 345.469 245.439C344.758 246.151 344.756 247.306 345.469 248.017L348.63 251.178V251.177Z" fill="white"/>
</g>
</g>
<defs>
<filter id="filter0_d_3039_18458" x="140.2" y="37.2" width="616.626" height="380.265" filterUnits="userSpaceOnUse" color-interpolation-filters="sRGB">
<feFlood flood-opacity="0" result="BackgroundImageFix"/>
<feColorMatrix in="SourceAlpha" type="matrix" values="0 0 0 0 0 0 0 0 0 0 0 0 0 0 0 0 0 0 127 0" result="hardAlpha"/>
<feOffset/>
<feGaussianBlur stdDeviation="14.4"/>
<feComposite in2="hardAlpha" operator="out"/>
<feColorMatrix type="matrix" values="0 0 0 0 0.0588235 0 0 0 0 0.67451 0 0 0 0 0.564706 0 0 0 0.18 0"/>
<feBlend mode="normal" in2="BackgroundImageFix" result="effect1_dropShadow_3039_18458"/>
<feBlend mode="normal" in="SourceGraphic" in2="effect1_dropShadow_3039_18458" result="shape"/>
</filter>
<filter id="filter1_bd_3039_18458" x="125.88" y="136.68" width="162.24" height="162.24" filterUnits="userSpaceOnUse" color-interpolation-filters="sRGB">
<feFlood flood-opacity="0" result="BackgroundImageFix"/>
<feGaussianBlur in="BackgroundImageFix" stdDeviation="2.2"/>
<feComposite in2="SourceAlpha" operator="in" result="effect1_backgroundBlur_3039_18458"/>
<feColorMatrix in="SourceAlpha" type="matrix" values="0 0 0 0 0 0 0 0 0 0 0 0 0 0 0 0 0 0 127 0" result="hardAlpha"/>
<feOffset dy="4.8"/>
<feGaussianBlur stdDeviation="10.56"/>
<feComposite in2="hardAlpha" operator="out"/>
<feColorMatrix type="matrix" values="0 0 0 0 0 0 0 0 0 0 0 0 0 0 0 0 0 0 0.1 0"/>
<feBlend mode="normal" in2="effect1_backgroundBlur_3039_18458" result="effect2_dropShadow_3039_18458"/>
<feBlend mode="normal" in="SourceGraphic" in2="effect2_dropShadow_3039_18458" result="shape"/>
</filter>
<filter id="filter2_bd_3039_18458" x="236.4" y="253.4" width="135.2" height="135.2" filterUnits="userSpaceOnUse" color-interpolation-filters="sRGB">
<feFlood flood-opacity="0" result="BackgroundImageFix"/>
<feGaussianBlur in="BackgroundImageFix" stdDeviation="1.83333"/>
<feComposite in2="SourceAlpha" operator="in" result="effect1_backgroundBlur_3039_18458"/>
<feColorMatrix in="SourceAlpha" type="matrix" values="0 0 0 0 0 0 0 0 0 0 0 0 0 0 0 0 0 0 127 0" result="hardAlpha"/>
<feOffset dy="4"/>
<feGaussianBlur stdDeviation="8.8"/>
<feComposite in2="hardAlpha" operator="out"/>
<feColorMatrix type="matrix" values="0 0 0 0 0 0 0 0 0 0 0 0 0 0 0 0 0 0 0.1 0"/>
<feBlend mode="normal" in2="effect1_backgroundBlur_3039_18458" result="effect2_dropShadow_3039_18458"/>
<feBlend mode="normal" in="SourceGraphic" in2="effect2_dropShadow_3039_18458" result="shape"/>
</filter>
<filter id="filter3_bd_3039_18458" x="112.16" y="302.76" width="121.68" height="121.68" filterUnits="userSpaceOnUse" color-interpolation-filters="sRGB">
<feFlood flood-opacity="0" result="BackgroundImageFix"/>
<feGaussianBlur in="BackgroundImageFix" stdDeviation="1.65"/>
<feComposite in2="SourceAlpha" operator="in" result="effect1_backgroundBlur_3039_18458"/>
<feColorMatrix in="SourceAlpha" type="matrix" values="0 0 0 0 0 0 0 0 0 0 0 0 0 0 0 0 0 0 127 0" result="hardAlpha"/>
<feOffset dy="3.6"/>
<feGaussianBlur stdDeviation="7.92"/>
<feComposite in2="hardAlpha" operator="out"/>
<feColorMatrix type="matrix" values="0 0 0 0 0 0 0 0 0 0 0 0 0 0 0 0 0 0 0.1 0"/>
<feBlend mode="normal" in2="effect1_backgroundBlur_3039_18458" result="effect2_dropShadow_3039_18458"/>
<feBlend mode="normal" in="SourceGraphic" in2="effect2_dropShadow_3039_18458" result="shape"/>
</filter>
<filter id="filter4_bd_3039_18458" x="28.92" y="204.12" width="108.16" height="108.16" filterUnits="userSpaceOnUse" color-interpolation-filters="sRGB">
<feFlood flood-opacity="0" result="BackgroundImageFix"/>
<feGaussianBlur in="BackgroundImageFix" stdDeviation="1.46667"/>
<feComposite in2="SourceAlpha" operator="in" result="effect1_backgroundBlur_3039_18458"/>
<feColorMatrix in="SourceAlpha" type="matrix" values="0 0 0 0 0 0 0 0 0 0 0 0 0 0 0 0 0 0 127 0" result="hardAlpha"/>
<feOffset dy="3.2"/>
<feGaussianBlur stdDeviation="7.04"/>
<feComposite in2="hardAlpha" operator="out"/>
<feColorMatrix type="matrix" values="0 0 0 0 0 0 0 0 0 0 0 0 0 0 0 0 0 0 0.1 0"/>
<feBlend mode="normal" in2="effect1_backgroundBlur_3039_18458" result="effect2_dropShadow_3039_18458"/>
<feBlend mode="normal" in="SourceGraphic" in2="effect2_dropShadow_3039_18458" result="shape"/>
</filter>
<filter id="filter5_b_3039_18458" x="296" y="214" width="78" height="78" filterUnits="userSpaceOnUse" color-interpolation-filters="sRGB">
<feFlood flood-opacity="0" result="BackgroundImageFix"/>
<feGaussianBlur in="BackgroundImageFix" stdDeviation="2"/>
<feComposite in2="SourceAlpha" operator="in" result="effect1_backgroundBlur_3039_18458"/>
<feBlend mode="normal" in="SourceGraphic" in2="effect1_backgroundBlur_3039_18458" result="shape"/>
</filter>
<linearGradient id="paint0_linear_3039_18458" x1="136.2" y1="139.8" x2="297" y2="333" gradientUnits="userSpaceOnUse">
<stop stop-color="#0FAC90"/>
<stop offset="0.5" stop-color="white" stop-opacity="0"/>
<stop offset="1" stop-color="#0FAC90"/>
</linearGradient>
<linearGradient id="paint1_linear_3039_18458" x1="245" y1="256" x2="379" y2="417" gradientUnits="userSpaceOnUse">
<stop stop-color="#0FAC90"/>
<stop offset="0.5" stop-color="white" stop-opacity="0"/>
<stop offset="1" stop-color="#0FAC90"/>
</linearGradient>
<linearGradient id="paint2_linear_3039_18458" x1="119.9" y1="305.1" x2="240.5" y2="450" gradientUnits="userSpaceOnUse">
<stop stop-color="#0FAC90"/>
<stop offset="0.5" stop-color="white" stop-opacity="0"/>
<stop offset="1" stop-color="#0FAC90"/>
</linearGradient>
<linearGradient id="paint3_linear_3039_18458" x1="35.8" y1="206.2" x2="143" y2="335" gradientUnits="userSpaceOnUse">
<stop stop-color="#0FAC90"/>
<stop offset="0.5" stop-color="white" stop-opacity="0"/>
<stop offset="1" stop-color="#0FAC90"/>
</linearGradient>
<linearGradient id="paint4_linear_3039_18458" x1="335" y1="218" x2="335" y2="288" gradientUnits="userSpaceOnUse">
<stop stop-color="#1168FF"/>
<stop offset="1" stop-color="#28D1B3"/>
</linearGradient>
<clipPath id="clip0_3039_18458">
<rect width="600" height="450" fill="white"/>
</clipPath>
<clipPath id="clip1_3039_18458">
<rect width="66.6667" height="66.6667" fill="white" transform="translate(270.667 283.667)"/>
</clipPath>
<clipPath id="clip2_3039_18458">
<rect width="53.3333" height="53.3333" fill="white" transform="translate(56.3333 228.333)"/>
</clipPath>
<clipPath id="clip3_3039_18458">
<rect width="40" height="40" fill="white" transform="translate(315 233)"/>
</clipPath>
</defs>
</svg>
