<svg width="64" height="64" viewBox="0 0 64 64" fill="none" xmlns="http://www.w3.org/2000/svg">
<path fill-rule="evenodd" clip-rule="evenodd" d="M10.6666 7.33203C8.82562 7.33203 7.33325 8.8244 7.33325 10.6654V46.8242L13.0134 40.5763C16.0327 37.2549 21.3006 37.4011 24.1311 40.8848L33.2383 52.0935L38.9277 47.1152C41.8333 44.573 46.2122 44.7186 48.9421 47.4488L56.3158 54.8222C56.5403 54.3738 56.6666 53.8677 56.6666 53.332V41.332C56.6666 40.2275 57.562 39.332 58.6666 39.332C59.7711 39.332 60.6666 40.2275 60.6666 41.332V53.332C60.6666 57.3822 57.3834 60.6654 53.3332 60.6654H10.6666C6.61651 60.6654 3.33325 57.3822 3.33325 53.332V51.9968V10.6654C3.33325 6.61528 6.61651 3.33203 10.6666 3.33203H22.6666C23.7711 3.33203 24.6666 4.22747 24.6666 5.33203C24.6666 6.43659 23.7711 7.33203 22.6666 7.33203H10.6666ZM36.9529 56.6654L35.7624 55.2002L41.5618 50.1256C42.8823 48.9698 44.873 49.0362 46.1138 50.277L52.5021 56.6654H36.9529ZM7.33325 52.7708V53.332C7.33325 55.1731 8.82562 56.6654 10.6666 56.6654H31.7989L21.0266 43.4072C19.74 41.8237 17.3456 41.7571 15.9731 43.2669L7.33325 52.7708ZM50.6621 15.8372C51.4877 16.5711 51.5618 17.8352 50.8282 18.6608L40.1616 30.6608C39.7954 31.0726 39.276 31.315 38.7253 31.3312C38.1749 31.3475 37.6418 31.1358 37.2525 30.7462L31.9192 25.4129C31.1381 24.6319 31.1381 23.3656 31.9192 22.5845C32.7002 21.8034 33.9664 21.8034 34.7474 22.5845L38.581 26.418L47.8384 16.0033C48.5722 15.1778 49.8365 15.1034 50.6621 15.8372ZM56.6667 22.6654C56.6667 31.1336 49.8016 37.9987 41.3333 37.9987C39.2397 37.9987 37.2491 37.5803 35.4365 36.8243C34.4171 36.3992 33.2459 36.8811 32.8208 37.9006C32.3957 38.92 32.8773 40.091 33.8968 40.5163C36.1888 41.472 38.7021 41.9987 41.3333 41.9987C52.0109 41.9987 60.6667 33.343 60.6667 22.6654C60.6667 11.9879 52.0109 3.33203 41.3333 3.33203C30.6557 3.33203 22 11.9879 22 22.6654C22 25.2967 22.5268 27.8099 23.4825 30.1019C23.9077 31.1214 25.0787 31.603 26.0982 31.1779C27.1176 30.7528 27.5995 29.5816 27.1744 28.5622C26.4184 26.7496 26 24.7589 26 22.6654C26 14.197 32.8651 7.33203 41.3333 7.33203C49.8016 7.33203 56.6667 14.197 56.6667 22.6654Z" fill="url(#paint0_linear_3669_10867)"/>
<defs>
<linearGradient id="paint0_linear_3669_10867" x1="3" y1="-1" x2="61" y2="61" gradientUnits="userSpaceOnUse">
<stop stop-color="#4BFFAE"/>
<stop offset="1" stop-color="#1F75FF"/>
</linearGradient>
</defs>
</svg>
