<svg width="180" height="60" viewBox="0 0 180 60" fill="none" xmlns="http://www.w3.org/2000/svg">
<g clip-path="url(#clip0_2735_11767)">
<path d="M165.195 0H14.2954C13.7404 0 13.2004 0 12.6604 0C12.1954 0 11.7454 0 11.2804 0.015C10.2754 0.045 9.27035 0.105 8.28035 0.285C7.27535 0.465 6.34535 0.765 5.43035 1.23C4.53035 1.695 3.70535 2.295 3.00035 3C2.28035 3.705 1.68035 4.53 1.23035 5.43C0.765352 6.345 0.465352 7.275 0.285352 8.28C0.105352 9.27 0.0453516 10.275 0.0153516 11.28C0.0153516 11.745 0.000351562 12.195 -0.0146484 12.66V47.325C-0.0146484 47.79 -0.0146484 48.24 0.0153516 48.705C0.0453516 49.71 0.105352 50.715 0.285352 51.705C0.465352 52.71 0.750352 53.655 1.23035 54.555C1.68035 55.455 2.28035 56.265 3.00035 56.97C3.70535 57.69 4.53035 58.29 5.43035 58.74C6.34535 59.205 7.27535 59.505 8.28035 59.685C9.27035 59.865 10.2904 59.925 11.2804 59.955C11.7454 59.955 12.1954 59.97 12.6604 59.97C13.2154 59.97 13.7554 59.97 14.2954 59.97H165.195C165.735 59.97 166.275 59.97 166.815 59.97C167.265 59.97 167.745 59.97 168.195 59.955C169.2 59.925 170.205 59.865 171.195 59.685C172.2 59.505 173.13 59.205 174.06 58.74C174.96 58.29 175.77 57.69 176.49 56.97C177.21 56.265 177.795 55.44 178.26 54.555C178.725 53.64 179.025 52.71 179.19 51.705C179.37 50.715 179.43 49.71 179.475 48.705C179.475 48.24 179.475 47.79 179.475 47.325C179.475 46.785 179.475 46.245 179.475 45.69V14.31C179.475 13.755 179.475 13.215 179.475 12.675C179.475 12.21 179.475 11.76 179.475 11.295C179.445 10.29 179.385 9.285 179.19 8.295C179.025 7.29 178.725 6.36 178.26 5.445C177.795 4.545 177.195 3.72 176.49 3.015C175.785 2.31 174.96 1.71 174.06 1.245C173.13 0.78 172.2 0.48 171.195 0.3C170.205 0.12 169.2 0.06 168.195 0.03C167.745 0.03 167.265 0.015 166.815 0.015C166.275 0.015 165.735 0.015 165.195 0.015V0Z" fill="#B1B1B1"/>
<path d="M12.6597 58.6809C12.2097 58.6809 11.7597 58.6809 11.3097 58.6659C10.4697 58.6359 9.47969 58.5909 8.50469 58.4259C7.58969 58.2609 6.77969 57.9909 6.01469 57.6009C5.23469 57.2109 4.52969 56.6859 3.91469 56.0709C3.29969 55.4559 2.78969 54.7659 2.38469 53.9709C1.99469 53.2209 1.72469 52.3959 1.57469 51.4809C1.39469 50.4759 1.34969 49.4409 1.31969 48.6609C1.31969 48.3459 1.30469 47.2959 1.30469 47.2959V12.6609C1.30469 12.6609 1.30469 11.6259 1.31969 11.3259C1.33469 10.5459 1.37969 9.51094 1.57469 8.52094C1.73969 7.60594 1.99469 6.78094 2.38469 6.03094C2.78969 5.25094 3.29969 4.54594 3.91469 3.93094C4.52969 3.31594 5.23469 2.79094 6.01469 2.40094C6.77969 2.01094 7.60469 1.74094 8.48969 1.59094C9.49469 1.41094 10.5297 1.36594 11.3097 1.35094H12.6597L166.815 1.33594H168.18C168.945 1.38094 169.98 1.42594 170.97 1.60594C171.87 1.77094 172.695 2.02594 173.475 2.43094C174.24 2.82094 174.945 3.34594 175.56 3.96094C176.175 4.57594 176.685 5.28094 177.09 6.06094C177.48 6.82594 177.735 7.63594 177.9 8.53594C178.08 9.48094 178.125 10.4559 178.155 11.3709C178.155 11.7909 178.155 12.2559 178.155 12.7059C178.155 13.2759 178.155 13.8009 178.155 14.3409V45.7359C178.155 46.2759 178.155 46.8159 178.155 47.3559C178.155 47.8509 178.155 48.2859 178.155 48.7509C178.125 49.6359 178.065 50.6109 177.9 51.5259C177.75 52.4409 177.48 53.2659 177.09 54.0309C176.685 54.8109 176.175 55.5159 175.56 56.1159C174.945 56.7459 174.24 57.2559 173.46 57.6459C172.68 58.0359 171.885 58.3059 170.955 58.4709C169.995 58.6509 169.005 58.6959 168.15 58.7109C167.715 58.7109 167.25 58.7259 166.8 58.7259H165.18H12.6447L12.6597 58.6809Z" fill="black"/>
<path d="M37.1561 30.4501C37.1111 26.3251 40.5311 24.3151 40.6961 24.2251C38.7611 21.4051 35.7611 21.0151 34.7111 20.9851C32.1911 20.7151 29.7461 22.4851 28.4711 22.4851C27.1961 22.4851 25.1861 21.0001 23.0561 21.0451C20.3111 21.0901 17.7461 22.6801 16.3511 25.1401C13.4561 30.1651 15.6161 37.5451 18.3911 41.6101C19.7861 43.6051 21.4061 45.8251 23.5361 45.7351C25.6211 45.6451 26.4011 44.4151 28.9061 44.4151C31.4111 44.4151 32.1161 45.7351 34.2911 45.6901C36.5261 45.6601 37.9361 43.6951 39.2711 41.6851C40.8761 39.4051 41.5211 37.1551 41.5511 37.0501C41.5061 37.0351 37.2161 35.4001 37.1711 30.4501H37.1561Z" fill="white"/>
<path d="M33.0617 18.3151C34.1867 16.9201 34.9517 15.0151 34.7267 13.0801C33.1067 13.1551 31.0817 14.2051 29.9117 15.5701C28.8767 16.7701 27.9617 18.7501 28.2017 20.6101C30.0167 20.7451 31.8917 19.6951 33.0617 18.3151Z" fill="white"/>
<path d="M63.4515 40.7091H56.3565L54.6465 45.7491H51.6465L58.3665 27.1191H61.4865L68.2065 45.7491H65.1465L63.4365 40.7091H63.4515ZM57.0915 38.3841H62.7165L59.9415 30.2091H59.8665L57.0915 38.3841Z" fill="white"/>
<path d="M82.7423 38.9554C82.7423 43.1704 80.4773 45.8854 77.0723 45.8854C75.1373 45.8854 73.6073 45.0154 72.7973 43.5154H72.7373V50.2354H69.9473V32.1604H72.6473V34.4254H72.6923C73.4723 32.9704 75.1223 32.0254 77.0123 32.0254C80.4623 32.0254 82.7273 34.7554 82.7273 38.9554H82.7423ZM79.8773 38.9554C79.8773 36.2104 78.4523 34.3954 76.2923 34.3954C74.1323 34.3954 72.7223 36.2404 72.7223 38.9554C72.7223 41.6704 74.1623 43.5304 76.2923 43.5304C78.4223 43.5304 79.8773 41.7304 79.8773 38.9554Z" fill="white"/>
<path d="M97.6817 38.9554C97.6817 43.1704 95.4167 45.8854 92.0117 45.8854C90.0767 45.8854 88.5467 45.0154 87.7367 43.5154H87.6767V50.2354H84.8867V32.1604H87.5867V34.4254H87.6317C88.4117 32.9704 90.0617 32.0254 91.9517 32.0254C95.4017 32.0254 97.6667 34.7554 97.6667 38.9554H97.6817ZM94.8167 38.9554C94.8167 36.2104 93.3917 34.3954 91.2317 34.3954C89.0717 34.3954 87.6617 36.2404 87.6617 38.9554C87.6617 41.6704 89.1017 43.5304 91.2317 43.5304C93.3617 43.5304 94.8167 41.7304 94.8167 38.9554Z" fill="white"/>
<path d="M107.567 40.5597C107.777 42.4047 109.562 43.6197 112.022 43.6197C114.482 43.6197 116.057 42.4047 116.057 40.7397C116.057 39.2997 115.037 38.4297 112.622 37.8297L110.207 37.2447C106.787 36.4197 105.197 34.8147 105.197 32.2197C105.197 29.0097 108.002 26.8047 111.977 26.8047C115.952 26.8047 118.607 29.0097 118.697 32.2197H115.877C115.712 30.3597 114.167 29.2347 111.932 29.2347C109.697 29.2347 108.152 30.3747 108.152 32.0247C108.152 33.3447 109.127 34.1097 111.527 34.7097L113.582 35.2197C117.407 36.1197 118.997 37.6647 118.997 40.3797C118.997 43.8597 116.222 46.0497 111.812 46.0497C107.687 46.0497 104.897 43.9197 104.717 40.5447H107.567V40.5597Z" fill="white"/>
<path d="M125.027 28.9492V32.1592H127.607V34.3642H125.027V41.8492C125.027 43.0192 125.537 43.5592 126.677 43.5592C126.962 43.5592 127.412 43.5142 127.592 43.4992V45.6892C127.277 45.7642 126.662 45.8242 126.047 45.8242C123.302 45.8242 122.222 44.7892 122.222 42.1642V34.3792H120.242V32.1742H122.222V28.9642H125.027V28.9492Z" fill="white"/>
<path d="M129.092 38.9541C129.092 34.6791 131.612 31.9941 135.527 31.9941C139.442 31.9941 141.962 34.6791 141.962 38.9541C141.962 43.2291 139.472 45.9141 135.527 45.9141C131.582 45.9141 129.092 43.2441 129.092 38.9541ZM139.142 38.9541C139.142 36.0291 137.792 34.2891 135.542 34.2891C133.292 34.2891 131.942 36.0291 131.942 38.9541C131.942 41.8791 133.277 43.6191 135.542 43.6191C137.807 43.6191 139.142 41.9091 139.142 38.9541Z" fill="white"/>
<path d="M144.286 32.1598H146.941V34.4698H147.001C147.421 32.9398 148.666 32.0098 150.271 32.0098C150.676 32.0098 151.006 32.0698 151.231 32.1148V34.7248C151.006 34.6348 150.526 34.5598 149.986 34.5598C148.186 34.5598 147.076 35.7748 147.076 37.6798V45.7348H144.286V32.1598Z" fill="white"/>
<path d="M164.071 41.7591C163.696 44.2191 161.296 45.9141 158.221 45.9141C154.276 45.9141 151.816 43.2741 151.816 39.0141C151.816 34.7541 154.276 31.9941 158.101 31.9941C161.926 31.9941 164.221 34.5741 164.221 38.6991V39.6591H154.636V39.8241C154.636 42.1491 156.091 43.6641 158.296 43.6641C159.841 43.6641 161.056 42.9291 161.431 41.7591H164.071ZM154.651 37.6941H161.446C161.386 35.6091 160.051 34.2441 158.116 34.2441C156.181 34.2441 154.801 35.6391 154.651 37.6941Z" fill="white"/>
<path d="M56.7449 13.0951C59.3999 13.0951 60.9599 14.7301 60.9599 17.5351C60.9599 20.3401 59.4149 22.0351 56.7449 22.0351H53.5049V13.0801H56.7449V13.0951ZM54.8999 20.7751H56.5799C58.4549 20.7751 59.5349 19.6051 59.5349 17.5501C59.5349 15.4951 58.4399 14.3551 56.5799 14.3551H54.8999V20.7751Z" fill="white"/>
<path d="M62.5195 18.6604C62.5195 16.4854 63.7345 15.1504 65.6995 15.1504C67.6645 15.1504 68.8795 16.4704 68.8795 18.6604C68.8795 20.8504 67.6645 22.1704 65.6995 22.1704C63.7345 22.1704 62.5195 20.8504 62.5195 18.6604ZM67.5145 18.6604C67.5145 17.1904 66.8545 16.3354 65.6995 16.3354C64.5445 16.3354 63.8845 17.1904 63.8845 18.6604C63.8845 20.1304 64.5295 20.9854 65.6995 20.9854C66.8695 20.9854 67.5145 20.1304 67.5145 18.6604Z" fill="white"/>
<path d="M77.3555 22.0508H75.9755L74.5805 17.0708H74.4755L73.0805 22.0508H71.7155L69.8555 15.3008H71.2055L72.4205 20.4608H72.5255L73.9205 15.3008H75.1955L76.5905 20.4608H76.6955L77.8955 15.3008H79.2305L77.3705 22.0508H77.3555Z" fill="white"/>
<path d="M80.7744 15.286H82.0644V16.366H82.1694C82.4994 15.616 83.1744 15.166 84.1794 15.166C85.6794 15.166 86.5194 16.066 86.5194 17.671V22.051H85.1844V18.016C85.1844 16.936 84.7194 16.396 83.7294 16.396C82.7394 16.396 82.1094 17.056 82.1094 18.106V22.051H80.7744V15.301V15.286Z" fill="white"/>
<path d="M88.6348 12.6602H89.9698V22.0502H88.6348V12.6602Z" fill="white"/>
<path d="M91.8301 18.6604C91.8301 16.4854 93.0451 15.1504 95.0101 15.1504C96.9751 15.1504 98.1901 16.4704 98.1901 18.6604C98.1901 20.8504 96.9751 22.1704 95.0101 22.1704C93.0451 22.1704 91.8301 20.8504 91.8301 18.6604ZM96.8251 18.6604C96.8251 17.1904 96.1651 16.3354 95.0101 16.3354C93.8551 16.3354 93.1951 17.1904 93.1951 18.6604C93.1951 20.1304 93.8401 20.9854 95.0101 20.9854C96.1801 20.9854 96.8251 20.1304 96.8251 18.6604Z" fill="white"/>
<path d="M99.6006 20.131C99.6006 18.916 100.501 18.211 102.106 18.121L103.936 18.016V17.431C103.936 16.711 103.471 16.321 102.556 16.321C101.806 16.321 101.296 16.591 101.146 17.071H99.8556C99.9906 15.916 101.086 15.166 102.616 15.166C104.311 15.166 105.271 16.006 105.271 17.431V22.051H103.981V21.106H103.876C103.471 21.781 102.736 22.171 101.851 22.171C100.546 22.171 99.6006 21.391 99.6006 20.146V20.131ZM103.951 19.561V18.991L102.301 19.096C101.371 19.156 100.951 19.471 100.951 20.071C100.951 20.671 101.476 21.031 102.196 21.031C103.201 21.031 103.951 20.386 103.951 19.561Z" fill="white"/>
<path d="M107.024 18.6602C107.024 16.5302 108.119 15.1802 109.829 15.1802C110.759 15.1802 111.539 15.6152 111.899 16.3652H112.004V12.6602H113.339V22.0502H112.064V20.9852H111.959C111.554 21.7202 110.774 22.1702 109.844 22.1702C108.119 22.1702 107.039 20.8202 107.039 18.6752L107.024 18.6602ZM108.404 18.6602C108.404 20.1002 109.079 20.9552 110.204 20.9552C111.329 20.9552 112.019 20.0852 112.019 18.6602C112.019 17.2352 111.314 16.3652 110.204 16.3652C109.094 16.3652 108.404 17.2352 108.404 18.6602Z" fill="white"/>
<path d="M118.844 18.6604C118.844 16.4854 120.059 15.1504 122.024 15.1504C123.989 15.1504 125.204 16.4704 125.204 18.6604C125.204 20.8504 123.989 22.1704 122.024 22.1704C120.059 22.1704 118.844 20.8504 118.844 18.6604ZM123.839 18.6604C123.839 17.1904 123.179 16.3354 122.024 16.3354C120.869 16.3354 120.209 17.1904 120.209 18.6604C120.209 20.1304 120.854 20.9854 122.024 20.9854C123.194 20.9854 123.839 20.1304 123.839 18.6604Z" fill="white"/>
<path d="M127.005 15.286H128.295V16.366H128.4C128.73 15.616 129.405 15.166 130.41 15.166C131.91 15.166 132.75 16.066 132.75 17.671V22.051H131.415V18.016C131.415 16.936 130.95 16.396 129.96 16.396C128.97 16.396 128.34 17.056 128.34 18.106V22.051H127.005V15.301V15.286Z" fill="white"/>
<path d="M140.28 13.6055V15.3155H141.75V16.4405H140.28V19.9205C140.28 20.6255 140.565 20.9405 141.24 20.9405C141.45 20.9405 141.555 20.9405 141.75 20.9105V22.0205C141.54 22.0505 141.285 22.0955 141.03 22.0955C139.545 22.0955 138.96 21.5705 138.96 20.2655V16.4555H137.895V15.3305H138.96V13.6205H140.295L140.28 13.6055Z" fill="white"/>
<path d="M143.551 12.6602H144.871V16.3802H144.976C145.306 15.6302 146.011 15.1652 147.031 15.1652C148.471 15.1652 149.356 16.0802 149.356 17.6852V22.0502H148.021V18.0152C148.021 16.9352 147.526 16.3952 146.581 16.3952C145.486 16.3952 144.886 17.0852 144.886 18.1052V22.0502H143.551V12.6602Z" fill="white"/>
<path d="M157.139 20.221C156.839 21.436 155.759 22.171 154.214 22.171C152.279 22.171 151.094 20.851 151.094 18.691C151.094 16.531 152.309 15.166 154.214 15.166C156.119 15.166 157.229 16.456 157.229 18.571V19.036H152.459V19.111C152.504 20.296 153.194 21.046 154.259 21.046C155.069 21.046 155.624 20.761 155.864 20.221H157.154H157.139ZM152.459 18.046H155.864C155.834 16.981 155.189 16.291 154.199 16.291C153.209 16.291 152.519 16.981 152.444 18.046H152.459Z" fill="white"/>
</g>
<defs>
<clipPath id="clip0_2735_11767">
<rect width="179.49" height="60" fill="white"/>
</clipPath>
</defs>
</svg>
