<svg width="30" height="30" viewBox="0 0 30 30" fill="none" xmlns="http://www.w3.org/2000/svg">
<circle cx="15" cy="15" r="15" fill="#25D0B1"/>
<path d="M10.5735 22V20.2869L15.1183 15.8317C15.5529 15.3928 15.9151 15.0028 16.2049 14.6619C16.4947 14.321 16.712 13.9908 16.8569 13.6712C17.0018 13.3516 17.0742 13.0107 17.0742 12.6484C17.0742 12.2351 16.9805 11.8814 16.793 11.5874C16.6055 11.2891 16.3477 11.0589 16.0195 10.897C15.6914 10.7351 15.3185 10.6541 14.9009 10.6541C14.4705 10.6541 14.0934 10.7436 13.7695 10.9226C13.4457 11.0973 13.1942 11.3466 13.0153 11.6705C12.8406 11.9943 12.7532 12.38 12.7532 12.8274H10.4968C10.4968 11.9964 10.6864 11.2741 11.0657 10.6605C11.445 10.0469 11.967 9.57173 12.6317 9.23509C13.3008 8.89844 14.0678 8.73011 14.9329 8.73011C15.8107 8.73011 16.582 8.89418 17.2468 9.2223C17.9116 9.55043 18.4272 10 18.7937 10.571C19.1644 11.142 19.3498 11.794 19.3498 12.527C19.3498 13.017 19.256 13.4986 19.0685 13.9716C18.881 14.4446 18.5508 14.9687 18.0778 15.544C17.609 16.1193 16.9506 16.8161 16.1026 17.6342L13.8462 19.929V20.0185H19.5479V22H10.5735Z" fill="white"/>
</svg>
