<svg width="306" height="225" viewBox="0 0 306 225" fill="none" xmlns="http://www.w3.org/2000/svg">
<g clip-path="url(#clip0_287_1698)">
<g filter="url(#filter0_d_287_1698)">
<rect width="306" height="225" rx="10" fill="white"/>
</g>
<circle cx="153" cy="112" r="80" fill="#C8F1DF" fill-opacity="0.25"/>
<path d="M94.6606 76.1061L220.641 51.7311L234.596 123.855L108.615 148.23L94.6606 76.1061Z" fill="#017A54"/>
<path d="M221.819 126.318L234.552 123.855L220.607 51.7451L94.6496 76.1013L95.4581 80.2806L215.722 67.7565L221.819 126.318Z" fill="#017A54"/>
<path d="M221.819 126.318L215.722 67.7564L95.4581 80.2805L108.595 148.211L221.819 126.318Z" fill="#016F4E"/>
<path d="M85.0992 84.8179L212.748 71.4757L220.386 144.554L92.7376 157.896L85.0992 84.8179Z" fill="#019F74"/>
<path d="M208.689 145.775V88.0567H85.4073L92.673 157.854L208.689 145.775Z" fill="#018C6A"/>
<path d="M76.9734 91.4823H205.263V164.928H76.9734V91.4823Z" fill="#4FD79C"/>
<path d="M193.082 144.23C190.354 144.237 187.74 145.325 185.814 147.256C183.887 149.187 182.805 151.803 182.805 154.531H98.7163C98.7163 153.178 98.4497 151.838 97.9319 150.588C97.414 149.338 96.6549 148.203 95.698 147.246C94.7411 146.289 93.6052 145.531 92.355 145.013C91.1049 144.496 89.765 144.23 88.412 144.23V112.17C89.7652 112.17 91.1051 111.903 92.3553 111.385C93.6055 110.868 94.7414 110.108 95.6982 109.152C96.6551 108.195 97.4141 107.059 97.9319 105.809C98.4498 104.559 98.7163 103.219 98.7163 101.865H182.805C182.804 104.594 183.886 107.211 185.813 109.143C187.739 111.075 190.354 112.163 193.082 112.17V144.23Z" fill="#7CF4A7"/>
<path d="M111.543 141.685V124.994H112.601V141.685H111.543ZM112.072 140.233C111.074 140.233 110.207 140.078 109.472 139.767C108.743 139.45 108.172 138.999 107.76 138.413C107.348 137.828 107.118 137.131 107.07 136.325H109.096C109.138 136.809 109.293 137.212 109.562 137.535C109.837 137.852 110.192 138.088 110.629 138.243C111.065 138.398 111.543 138.476 112.063 138.476C112.631 138.476 113.138 138.386 113.587 138.207C114.035 138.028 114.384 137.777 114.635 137.454C114.892 137.125 115.021 136.743 115.021 136.307C115.021 135.912 114.907 135.59 114.68 135.339C114.459 135.088 114.157 134.882 113.775 134.72C113.392 134.553 112.962 134.406 112.484 134.281L110.915 133.851C109.84 133.564 108.991 133.137 108.37 132.569C107.748 131.995 107.437 131.245 107.437 130.319C107.437 129.548 107.644 128.876 108.056 128.302C108.474 127.728 109.039 127.283 109.75 126.966C110.467 126.644 111.271 126.482 112.161 126.482C113.07 126.482 113.868 126.644 114.555 126.966C115.248 127.283 115.795 127.719 116.195 128.275C116.601 128.825 116.814 129.455 116.832 130.167H114.877C114.806 129.551 114.519 129.073 114.017 128.732C113.521 128.392 112.887 128.221 112.117 128.221C111.579 128.221 111.107 128.308 110.7 128.481C110.3 128.649 109.989 128.882 109.768 129.181C109.553 129.479 109.445 129.823 109.445 130.211C109.445 130.63 109.574 130.97 109.831 131.233C110.094 131.496 110.41 131.705 110.781 131.861C111.157 132.01 111.519 132.133 111.866 132.228L113.165 132.578C113.59 132.685 114.026 132.829 114.474 133.008C114.922 133.187 115.338 133.423 115.72 133.716C116.108 134.003 116.419 134.362 116.652 134.792C116.891 135.216 117.011 135.73 117.011 136.334C117.011 137.081 116.817 137.75 116.428 138.342C116.04 138.927 115.478 139.39 114.743 139.731C114.008 140.066 113.118 140.233 112.072 140.233ZM128.782 115.443V140.018H124.362V119.78H124.213L118.474 123.458V119.368L124.576 115.443H128.782ZM140.657 140.348C139.052 140.348 137.617 140.051 136.353 139.457C135.099 138.852 134.099 138.022 133.351 136.967C132.614 135.911 132.224 134.701 132.18 133.338H136.501C136.567 134.339 136.996 135.158 137.788 135.796C138.59 136.433 139.547 136.752 140.657 136.752C141.537 136.752 142.312 136.554 142.983 136.158C143.654 135.752 144.182 135.196 144.566 134.493C144.962 133.778 145.16 132.964 145.16 132.051C145.16 131.117 144.962 130.292 144.566 129.577C144.171 128.852 143.626 128.285 142.934 127.879C142.241 127.461 141.444 127.252 140.542 127.252C139.794 127.252 139.069 127.395 138.365 127.681C137.661 127.956 137.1 128.318 136.682 128.769L132.642 128.11L133.928 115.443H148.195V119.17H137.623L136.913 125.685H137.045C137.507 125.135 138.15 124.69 138.975 124.349C139.811 123.997 140.729 123.821 141.729 123.821C143.225 123.821 144.55 124.173 145.704 124.877C146.87 125.57 147.788 126.526 148.459 127.747C149.13 128.967 149.465 130.369 149.465 131.953C149.465 133.569 149.091 135.015 148.343 136.29C147.596 137.555 146.562 138.55 145.243 139.276C143.923 139.99 142.395 140.348 140.657 140.348ZM161.291 140.348C159.3 140.348 157.596 139.853 156.178 138.863C154.77 137.863 153.693 136.428 152.945 134.558C152.197 132.678 151.823 130.408 151.823 127.747C151.823 125.086 152.197 122.815 152.945 120.935C153.693 119.044 154.77 117.603 156.178 116.614C157.596 115.613 159.3 115.113 161.291 115.113C163.27 115.113 164.969 115.613 166.387 116.614C167.806 117.614 168.889 119.055 169.636 120.935C170.384 122.815 170.758 125.086 170.758 127.747C170.758 130.408 170.384 132.678 169.636 134.558C168.889 136.428 167.811 137.863 166.404 138.863C164.996 139.853 163.292 140.348 161.291 140.348ZM161.291 136.62C162.357 136.62 163.259 136.274 163.996 135.581C164.743 134.888 165.31 133.882 165.694 132.563C166.09 131.232 166.288 129.627 166.288 127.747C166.288 125.855 166.09 124.245 165.694 122.914C165.31 121.584 164.743 120.572 163.996 119.879C163.259 119.176 162.357 118.824 161.291 118.824C159.685 118.824 158.448 119.604 157.58 121.166C156.722 122.716 156.293 124.91 156.293 127.747C156.293 129.627 156.486 131.232 156.87 132.563C157.255 133.882 157.822 134.888 158.569 135.581C159.317 136.274 160.224 136.62 161.291 136.62Z" fill="#178958"/>
<path fill-rule="evenodd" clip-rule="evenodd" d="M69.5141 174.301C62.457 174.301 56.757 168.574 56.757 161.533C56.757 168.574 51.0345 174.301 44 174.301C51.0345 174.301 56.757 180.006 56.757 187.047C56.757 180.006 62.457 174.301 69.5141 174.301Z" fill="#FFD93B"/>
<path fill-rule="evenodd" clip-rule="evenodd" d="M76.3833 187.047C72.5833 187.047 69.5141 183.978 69.5141 180.178C69.5141 183.978 66.4449 187.047 62.6449 187.047C66.4449 187.047 69.5141 190.116 69.5141 193.916C69.5141 190.116 72.5833 187.047 76.3833 187.047Z" fill="#C8F1DF"/>
<path fill-rule="evenodd" clip-rule="evenodd" d="M261.758 49.2548C255.792 49.2548 250.973 44.4363 250.973 38.4705C250.973 44.4363 246.155 49.2548 240.189 49.2548C246.155 49.2548 250.973 54.0732 250.973 60.039C250.973 54.0732 255.792 49.2548 261.758 49.2548Z" fill="#4FD79C"/>
<path fill-rule="evenodd" clip-rule="evenodd" d="M240.189 39.5557C236.013 39.5557 232.64 36.1663 232.64 32C232.64 36.1663 229.254 39.5557 225.091 39.5557C229.254 39.5557 232.64 42.9316 232.64 47.0979C232.64 42.9316 236.013 39.5557 240.189 39.5557Z" fill="#FFEB98"/>
</g>
<defs>
<filter id="filter0_d_287_1698" x="-127.1" y="-127.1" width="560.2" height="479.2" filterUnits="userSpaceOnUse" color-interpolation-filters="sRGB">
<feFlood flood-opacity="0" result="BackgroundImageFix"/>
<feColorMatrix in="SourceAlpha" type="matrix" values="0 0 0 0 0 0 0 0 0 0 0 0 0 0 0 0 0 0 127 0" result="hardAlpha"/>
<feOffset/>
<feGaussianBlur stdDeviation="63.55"/>
<feComposite in2="hardAlpha" operator="out"/>
<feColorMatrix type="matrix" values="0 0 0 0 0.180862 0 0 0 0 0.528874 0 0 0 0 0.465784 0 0 0 0.06 0"/>
<feBlend mode="normal" in2="BackgroundImageFix" result="effect1_dropShadow_287_1698"/>
<feBlend mode="normal" in="SourceGraphic" in2="effect1_dropShadow_287_1698" result="shape"/>
</filter>
<clipPath id="clip0_287_1698">
<rect width="306" height="225" fill="white"/>
</clipPath>
</defs>
</svg>
