<svg width="306" height="225" viewBox="0 0 306 225" fill="none" xmlns="http://www.w3.org/2000/svg">
<g clip-path="url(#clip0_287_1697)">
<g filter="url(#filter0_d_287_1697)">
<rect width="306" height="225" rx="10" fill="white"/>
</g>
<circle cx="153" cy="112" r="80" fill="#C8F1DF" fill-opacity="0.25"/>
<path d="M190.5 179.5H115.5V117L93 124.5L113 102L130.5 97H175.5L193 102L213 124.5L190.5 117V179.5Z" fill="#4FD79C"/>
<path d="M115.5 179.5H190.5V117C189.823 133.319 183.008 148.781 171.42 160.29C159.831 171.8 144.323 178.509 128 179.075L115.5 179.5Z" fill="#019F74" fill-opacity="0.62"/>
<path d="M175.5 97H130.5L115.5 117H190.5L175.5 97Z" fill="#019F74"/>
<path d="M130.5 97H175.5V117H130.5V97Z" fill="#017A54"/>
<path d="M113 102L130.5 97L115.5 117L93 124.5L113 102Z" fill="#4FD79C"/>
<path d="M153 46.25L156.1 52.5L163 53.5L158 58.375L159.175 65.25L153 62L146.825 65.25L148 58.375L143 53.5L149.925 52.5L153 46.25Z" fill="#FFD93B"/>
<path d="M153 112C152.337 112 151.701 111.737 151.232 111.268C150.763 110.799 150.5 110.163 150.5 109.5V72C150.5 71.337 150.763 70.7011 151.232 70.2322C151.701 69.7634 152.337 69.5 153 69.5C153.663 69.5 154.299 69.7634 154.768 70.2322C155.237 70.7011 155.5 71.337 155.5 72V109.5C155.5 110.163 155.237 110.799 154.768 111.268C154.299 111.737 153.663 112 153 112Z" fill="#4FD79C"/>
<path d="M163 112C162.785 112.036 162.565 112.036 162.35 112C161.715 111.825 161.176 111.406 160.848 110.835C160.52 110.264 160.431 109.586 160.6 108.95L164.075 96.1251C165.388 91.2625 168.065 86.8774 171.791 83.4883C175.517 80.0991 180.135 77.8477 185.1 77.0001C185.763 76.894 186.441 77.0556 186.985 77.4495C187.529 77.8433 187.894 78.437 188 79.1001C188.106 79.7631 187.944 80.4411 187.551 80.985C187.157 81.5288 186.563 81.894 185.9 82.0001C181.897 82.6708 178.17 84.4723 175.158 87.1921C172.146 89.9119 169.974 93.4365 168.9 97.3501L165.5 110.15C165.353 110.695 165.027 111.175 164.573 111.511C164.119 111.847 163.564 112.019 163 112Z" fill="#FFD93B"/>
<path d="M143 112C142.436 112.019 141.881 111.847 141.427 111.511C140.973 111.175 140.646 110.695 140.5 110.15L137 97.3251C135.929 93.4296 133.771 89.9197 130.778 87.2058C127.785 84.4919 124.081 82.6863 120.1 82.0001C119.437 81.894 118.843 81.5288 118.449 80.985C118.056 80.4411 117.894 79.7631 118 79.1001C118.106 78.437 118.471 77.8433 119.015 77.4495C119.559 77.0556 120.237 76.894 120.9 77.0001C125.846 77.8361 130.451 80.0653 134.175 83.4262C137.899 86.7871 140.588 91.1403 141.925 95.9751L145.5 108.85C145.669 109.486 145.579 110.164 145.252 110.735C144.924 111.306 144.385 111.725 143.75 111.9C143.509 111.984 143.254 112.018 143 112Z" fill="#FFD93B"/>
<path d="M105.5 77L103 72L98 69.5L103 67L105.5 62L108 67L113 69.5L108 72L105.5 77Z" fill="#FFD93B"/>
<path d="M200.5 77L198 72L193 69.5L198 67L200.5 62L203 67L208 69.5L203 72L200.5 77Z" fill="#FFD93B"/>
<path d="M170.5 69.5C170.171 69.5019 169.845 69.4388 169.54 69.3144C169.236 69.19 168.959 69.0067 168.725 68.775C168.491 68.5426 168.305 68.2661 168.178 67.9614C168.051 67.6568 167.986 67.33 167.986 67C167.986 66.6699 168.051 66.3432 168.178 66.0385C168.305 65.7339 168.491 65.4574 168.725 65.225L173.725 60.225C174.196 59.7542 174.834 59.4897 175.5 59.4897C176.166 59.4897 176.804 59.7542 177.275 60.225C177.746 60.6957 178.01 61.3342 178.01 62C178.01 62.6657 177.746 63.3042 177.275 63.775L172.275 68.775C172.041 69.0067 171.764 69.19 171.46 69.3144C171.155 69.4388 170.829 69.5019 170.5 69.5Z" fill="#F88987"/>
<path d="M135.5 69.5C135.171 69.5019 134.845 69.4388 134.54 69.3144C134.236 69.19 133.959 69.0067 133.725 68.775L128.725 63.775C128.492 63.5419 128.307 63.2652 128.181 62.9606C128.055 62.656 127.99 62.3296 127.99 62C127.99 61.3342 128.254 60.6957 128.725 60.225C129.196 59.7542 129.834 59.4897 130.5 59.4897C130.83 59.4897 131.156 59.5547 131.461 59.6808C131.765 59.807 132.042 59.9919 132.275 60.225L137.275 65.225C137.509 65.4574 137.695 65.7339 137.822 66.0385C137.949 66.3432 138.015 66.6699 138.015 67C138.015 67.33 137.949 67.6568 137.822 67.9614C137.695 68.2661 137.509 68.5426 137.275 68.775C137.041 69.0067 136.764 69.19 136.46 69.3144C136.155 69.4388 135.829 69.5019 135.5 69.5Z" fill="#F88987"/>
<path d="M103 97C105.761 97 108 94.7614 108 92C108 89.2386 105.761 87 103 87C100.239 87 98 89.2386 98 92C98 94.7614 100.239 97 103 97Z" fill="#4FD79C"/>
<path d="M203 97C205.761 97 208 94.7614 208 92C208 89.2386 205.761 87 203 87C200.239 87 198 89.2386 198 92C198 94.7614 200.239 97 203 97Z" fill="#4FD79C"/>
<path d="M145.5 117H160.5V179.5H145.5V117Z" fill="#C7F3E0"/>
<path d="M160.5 169V179.5H145.5V176.025C150.79 174.361 155.835 171.999 160.5 169Z" fill="#017A54" fill-opacity="0.44"/>
<path d="M218 114.5C217.671 114.502 217.345 114.439 217.04 114.314C216.736 114.19 216.459 114.007 216.225 113.775L211.225 108.775C210.754 108.304 210.49 107.666 210.49 107C210.49 106.334 210.754 105.696 211.225 105.225C211.696 104.754 212.334 104.49 213 104.49C213.666 104.49 214.304 104.754 214.775 105.225L219.775 110.225C220.009 110.457 220.195 110.734 220.322 111.039C220.449 111.343 220.514 111.67 220.514 112C220.514 112.33 220.449 112.657 220.322 112.961C220.195 113.266 220.009 113.543 219.775 113.775C219.541 114.007 219.264 114.19 218.96 114.314C218.655 114.439 218.329 114.502 218 114.5Z" fill="#019F74"/>
<path d="M88 114.5C87.671 114.502 87.3448 114.439 87.0402 114.314C86.7356 114.19 86.4586 114.007 86.225 113.775C85.9907 113.543 85.8047 113.266 85.6778 112.961C85.5509 112.657 85.4855 112.33 85.4855 112C85.4855 111.67 85.5509 111.343 85.6778 111.039C85.8047 110.734 85.9907 110.457 86.225 110.225L91.225 105.225C91.4581 104.992 91.7348 104.807 92.0394 104.681C92.3439 104.555 92.6704 104.49 93 104.49C93.3296 104.49 93.6561 104.555 93.9606 104.681C94.2652 104.807 94.5419 104.992 94.775 105.225C95.0081 105.458 95.193 105.735 95.3191 106.039C95.4453 106.344 95.5102 106.67 95.5102 107C95.5102 107.33 95.4453 107.656 95.3191 107.961C95.193 108.265 95.0081 108.542 94.775 108.775L89.775 113.775C89.5414 114.007 89.2644 114.19 88.9598 114.314C88.6552 114.439 88.329 114.502 88 114.5Z" fill="#019F74"/>
</g>
<defs>
<filter id="filter0_d_287_1697" x="-127.1" y="-127.1" width="560.2" height="479.2" filterUnits="userSpaceOnUse" color-interpolation-filters="sRGB">
<feFlood flood-opacity="0" result="BackgroundImageFix"/>
<feColorMatrix in="SourceAlpha" type="matrix" values="0 0 0 0 0 0 0 0 0 0 0 0 0 0 0 0 0 0 127 0" result="hardAlpha"/>
<feOffset/>
<feGaussianBlur stdDeviation="63.55"/>
<feComposite in2="hardAlpha" operator="out"/>
<feColorMatrix type="matrix" values="0 0 0 0 0.180862 0 0 0 0 0.528874 0 0 0 0 0.465784 0 0 0 0.06 0"/>
<feBlend mode="normal" in2="BackgroundImageFix" result="effect1_dropShadow_287_1697"/>
<feBlend mode="normal" in="SourceGraphic" in2="effect1_dropShadow_287_1697" result="shape"/>
</filter>
<clipPath id="clip0_287_1697">
<rect width="306" height="225" fill="white"/>
</clipPath>
</defs>
</svg>
