<svg width="30" height="30" viewBox="0 0 30 30" fill="none" xmlns="http://www.w3.org/2000/svg">
<circle cx="15" cy="15" r="15" fill="#25D0B1"/>
<path d="M14.9992 22.179C14.0787 22.179 13.2606 22.0213 12.5447 21.706C11.833 21.3906 11.2705 20.9517 10.8572 20.3892C10.4438 19.8267 10.2243 19.1768 10.1988 18.4396H12.6022C12.6235 18.7933 12.7407 19.1023 12.9537 19.3665C13.1668 19.6264 13.4502 19.8288 13.8039 19.9737C14.1576 20.1186 14.5539 20.1911 14.9928 20.1911C15.4616 20.1911 15.877 20.1101 16.2393 19.9482C16.6015 19.782 16.8849 19.5518 17.0894 19.2578C17.2939 18.9638 17.3941 18.625 17.3898 18.2415C17.3941 17.8452 17.2918 17.4957 17.083 17.1932C16.8742 16.8906 16.5716 16.6541 16.1753 16.4837C15.7833 16.3132 15.3103 16.228 14.7563 16.228H13.5993V14.3999H14.7563C15.2123 14.3999 15.6107 14.321 15.9516 14.1634C16.2968 14.0057 16.5674 13.7841 16.7634 13.4986C16.9594 13.2088 17.0553 12.8743 17.051 12.495C17.0553 12.1243 16.9722 11.8026 16.8018 11.5298C16.6356 11.2528 16.3991 11.0376 16.0922 10.8842C15.7897 10.7308 15.4339 10.6541 15.0248 10.6541C14.6242 10.6541 14.2535 10.7266 13.9126 10.8714C13.5716 11.0163 13.2968 11.223 13.088 11.4915C12.8792 11.7557 12.7684 12.071 12.7556 12.4375H10.4736C10.4907 11.7045 10.7016 11.0611 11.1064 10.5071C11.5155 9.94886 12.061 9.5142 12.7428 9.20312C13.4246 8.88778 14.1895 8.73011 15.0376 8.73011C15.9111 8.73011 16.6697 8.89418 17.3131 9.2223C17.9608 9.54616 18.4616 9.98295 18.8153 10.5327C19.1689 11.0824 19.3458 11.6896 19.3458 12.3544C19.3501 13.0916 19.1327 13.7095 18.6938 14.2081C18.2591 14.7067 17.6881 15.0327 16.9807 15.1861V15.2884C17.9012 15.4162 18.6064 15.7571 19.0965 16.3111C19.5908 16.8608 19.8358 17.5447 19.8316 18.3629C19.8316 19.0959 19.6228 19.7521 19.2052 20.3317C18.7918 20.907 18.2208 21.3587 17.4921 21.6868C16.7677 22.0149 15.9367 22.179 14.9992 22.179Z" fill="white"/>
</svg>
