<svg width="306" height="225" viewBox="0 0 306 225" fill="none" xmlns="http://www.w3.org/2000/svg">
<g clip-path="url(#clip0_287_1699)">
<g filter="url(#filter0_d_287_1699)">
<rect width="306" height="225" rx="10" fill="white"/>
</g>
<circle cx="153" cy="112" r="80" fill="#C8F1DF" fill-opacity="0.25"/>
<path d="M76 67.0538C76 54.7658 86.0499 44.825 98.3787 45.0024C110.321 45.1741 120.032 54.9681 120.107 66.9113C120.149 73.5996 117.213 79.6026 112.548 83.6744C112.055 84.104 112.127 84.8882 112.689 85.221L116.844 87.6797C117.516 88.0773 117.234 89.1071 116.454 89.1071L97.6363 89.1024C85.6491 88.8796 76 79.094 76 67.0538Z" fill="#4FD79C"/>
<path d="M116.844 87.6797L112.689 85.221C112.13 84.8901 112.052 84.107 112.542 83.6799C117.26 79.5646 120.212 73.4746 120.105 66.6972C119.92 54.9741 110.431 45.351 98.7117 45.0095C97.0495 44.9611 95.428 45.097 93.8645 45.3978C103.995 47.3395 111.715 56.2689 111.782 66.9113C111.815 72.0653 110.079 76.8122 107.146 80.5821C105.375 82.8587 105.95 86.1594 108.432 87.6283L108.519 87.6797C109.184 88.0726 108.914 89.083 108.153 89.1049L116.454 89.1071C117.234 89.1071 117.516 88.0773 116.844 87.6797Z" fill="#017A54" fill-opacity="0.15"/>
<path d="M183.457 125.05H133.427C120.932 125.05 114.094 110.488 122.075 100.873L122.519 100.338C126.034 96.1021 127.959 90.7706 127.959 85.2655V75.6178C127.959 58.7079 141.667 44.9999 158.577 44.9999C175.487 44.9999 189.195 58.7079 189.195 75.6178V85.5912C189.195 91.1537 191.16 96.5377 194.742 100.792C202.823 110.388 196.002 125.05 183.457 125.05Z" fill="#565656"/>
<path d="M209.756 149.844V182.919H107.129V150.093C107.129 142.661 111.584 135.954 118.431 133.071L134.998 125.869L140.576 123.444C144.809 121.604 147.546 117.428 147.546 112.812V110.671H169.337V112.703C169.337 117.338 172.101 121.53 176.364 123.356L198.772 132.962C205.449 135.921 209.756 142.538 209.756 149.844Z" fill="white"/>
<path d="M134.997 133.755C140.651 135.445 148.974 137.247 159.119 137.069C168.637 136.903 176.451 135.052 181.888 133.316L184.589 126.882L176.362 123.356C172.101 121.53 169.338 117.339 169.338 112.702V110.672H147.547V112.813C147.547 117.427 144.81 121.603 140.577 123.443L133.915 126.34L134.997 133.755Z" fill="#FFCEBF"/>
<path d="M198.771 132.961L181.891 125.726L181.888 125.726V182.919H209.756V149.844C209.756 142.539 205.45 135.92 198.771 132.961Z" fill="#4FD79C"/>
<path d="M134.998 125.869V182.919H107.129V150.093C107.129 142.661 111.583 135.954 118.431 133.071L134.998 125.869Z" fill="#4FD79C"/>
<path d="M165.996 122.632C168.503 122.632 170.891 122.129 173.069 121.22C170.733 119.064 169.338 115.996 169.338 112.702V110.672H147.547V112.813C147.547 114.48 147.188 116.089 146.532 117.552C149.832 120.697 154.296 122.632 159.214 122.632H165.996Z" fill="#FFB09E"/>
<path d="M180.221 77.8927V95.9191C180.221 106.074 171.989 114.307 161.833 114.307H155.052C144.896 114.307 136.664 106.074 136.664 95.9191V77.8927C136.664 71.2862 142.019 65.9304 148.626 65.9304H168.259C174.865 65.9304 180.221 71.2862 180.221 77.8927Z" fill="#FFCEBF"/>
<path d="M180.221 87.2715C180.213 87.2963 180.203 87.3204 180.195 87.3458C179.531 89.6413 177.786 93.9775 173.571 97.2284C171.607 98.7422 169.368 99.8362 166.915 100.48C165.803 100.772 165.139 101.909 165.43 103.021C165.676 103.956 166.519 104.575 167.442 104.575C167.617 104.575 167.795 104.552 167.972 104.506C170.967 103.72 173.705 102.381 176.112 100.525C177.775 99.2431 179.12 97.8272 180.209 96.4035C180.213 96.2421 180.221 96.0816 180.221 95.9192V87.2715Z" fill="#7A6D79"/>
<path d="M164.633 106.233H159.755C157.535 106.233 155.736 104.434 155.736 102.214C155.736 99.9938 157.535 98.1941 159.755 98.1941H164.633C166.853 98.1941 168.653 99.9938 168.653 102.214C168.653 104.434 166.853 106.233 164.633 106.233Z" fill="#685E68"/>
<path d="M162.788 61.1594C163.255 55.2695 168.894 51.3608 174.29 49.3362C183.218 54.6858 189.195 64.4532 189.195 75.6179V77.7229C188.701 77.8265 188.21 77.9173 187.725 77.9895C184.751 78.4335 182.219 78.2416 180.49 77.9895C169.344 76.5047 162.224 68.2729 162.788 61.1594Z" fill="#474444"/>
<path d="M158.577 45C165.491 45 171.87 47.293 176.996 51.1591C174.439 55.6082 168.568 64.4047 157.558 70.9169C149.385 75.7516 141.679 77.3761 136.933 77.9894H127.959V75.6179C127.959 58.7079 141.667 45 158.577 45Z" fill="#565656"/>
<path d="M192.803 182.919H126.179L122.504 148.253C122.243 145.795 124.171 143.652 126.643 143.652H192.339C194.811 143.652 196.739 145.795 196.478 148.253L192.803 182.919Z" fill="#EFEDEF"/>
<path d="M192.339 143.652H184.013C186.486 143.652 188.414 145.795 188.153 148.254L184.478 182.919H192.803L196.478 148.254C196.738 145.795 194.811 143.652 192.339 143.652Z" fill="#E5E1E5"/>
<path d="M213.304 185H103.615C102.7 185 101.959 184.105 101.959 183C101.959 181.895 102.7 181 103.615 181H213.304C214.218 181 214.959 181.895 214.959 183C214.959 184.105 214.218 185 213.304 185Z" fill="#027A55"/>
<path d="M165.318 163.285C165.318 166.504 162.709 169.113 159.491 169.113C156.273 169.113 153.663 166.504 153.663 163.285C153.663 160.067 156.273 157.458 159.491 157.458C162.709 157.458 165.318 160.067 165.318 163.285Z" fill="#C9BFC8"/>
<path d="M91.81 67.0534C91.81 68.203 90.8784 69.1346 89.7288 69.1346C88.5793 69.1346 87.6474 68.203 87.6474 67.0534C87.6474 65.9039 88.5793 64.972 89.7288 64.972C90.8784 64.972 91.81 65.9039 91.81 67.0534Z" fill="white"/>
<path d="M100.135 67.0534C100.135 68.203 99.2032 69.1346 98.054 69.1346C96.9045 69.1346 95.9726 68.203 95.9726 67.0534C95.9726 65.9039 96.9045 64.972 98.054 64.972C99.2032 64.972 100.135 65.9039 100.135 67.0534Z" fill="white"/>
<path d="M108.46 67.0534C108.46 68.203 107.528 69.1346 106.379 69.1346C105.23 69.1346 104.297 68.203 104.297 67.0534C104.297 65.9039 105.23 64.972 106.379 64.972C107.528 64.972 108.46 65.9039 108.46 67.0534Z" fill="white"/>
</g>
<defs>
<filter id="filter0_d_287_1699" x="-127.1" y="-127.1" width="560.2" height="479.2" filterUnits="userSpaceOnUse" color-interpolation-filters="sRGB">
<feFlood flood-opacity="0" result="BackgroundImageFix"/>
<feColorMatrix in="SourceAlpha" type="matrix" values="0 0 0 0 0 0 0 0 0 0 0 0 0 0 0 0 0 0 127 0" result="hardAlpha"/>
<feOffset/>
<feGaussianBlur stdDeviation="63.55"/>
<feComposite in2="hardAlpha" operator="out"/>
<feColorMatrix type="matrix" values="0 0 0 0 0.180862 0 0 0 0 0.528874 0 0 0 0 0.465784 0 0 0 0.06 0"/>
<feBlend mode="normal" in2="BackgroundImageFix" result="effect1_dropShadow_287_1699"/>
<feBlend mode="normal" in="SourceGraphic" in2="effect1_dropShadow_287_1699" result="shape"/>
</filter>
<clipPath id="clip0_287_1699">
<rect width="306" height="225" fill="white"/>
</clipPath>
</defs>
</svg>
