<svg width="306" height="225" viewBox="0 0 306 225" fill="none" xmlns="http://www.w3.org/2000/svg">
<g clip-path="url(#clip0_287_1701)">
<g filter="url(#filter0_d_287_1701)">
<rect width="306" height="225" rx="10" fill="white"/>
</g>
<rect x="80" y="45" width="160" height="180" fill="#F4F4F4"/>
<rect x="100" y="75" width="56" height="6" fill="#E7E7E7"/>
<rect x="100" y="91" width="120" height="6" fill="#E7E7E7"/>
<rect x="100" y="107" width="120" height="6" fill="#E7E7E7"/>
<rect x="100" y="123" width="120" height="6" fill="#E7E7E7"/>
<rect x="100" y="139" width="120" height="6" fill="#E7E7E7"/>
<rect x="100" y="155" width="120" height="6" fill="#E7E7E7"/>
<rect x="100" y="171" width="120" height="6" fill="#E7E7E7"/>
<g clip-path="url(#clip1_287_1701)">
<path d="M231 21C214.457 21 201 34.4573 201 51C201 67.5427 214.457 81 231 81C247.543 81 261 67.5427 261 51C261 34.4573 247.543 21 231 21Z" fill="#4FD79C"/>
<path d="M246.205 44.6426L229.955 60.8923C229.467 61.3798 228.827 61.6252 228.188 61.6252C227.548 61.6252 226.908 61.3798 226.42 60.8923L218.295 52.7674C217.317 51.7901 217.317 50.2099 218.295 49.2326C219.273 48.2548 220.852 48.2548 221.83 49.2326L228.188 55.59L242.67 41.1077C243.648 40.1299 245.227 40.1299 246.205 41.1077C247.182 42.0851 247.182 43.6648 246.205 44.6426Z" fill="white"/>
</g>
</g>
<defs>
<filter id="filter0_d_287_1701" x="-127.1" y="-127.1" width="560.2" height="479.2" filterUnits="userSpaceOnUse" color-interpolation-filters="sRGB">
<feFlood flood-opacity="0" result="BackgroundImageFix"/>
<feColorMatrix in="SourceAlpha" type="matrix" values="0 0 0 0 0 0 0 0 0 0 0 0 0 0 0 0 0 0 127 0" result="hardAlpha"/>
<feOffset/>
<feGaussianBlur stdDeviation="63.55"/>
<feComposite in2="hardAlpha" operator="out"/>
<feColorMatrix type="matrix" values="0 0 0 0 0.180862 0 0 0 0 0.528874 0 0 0 0 0.465784 0 0 0 0.06 0"/>
<feBlend mode="normal" in2="BackgroundImageFix" result="effect1_dropShadow_287_1701"/>
<feBlend mode="normal" in="SourceGraphic" in2="effect1_dropShadow_287_1701" result="shape"/>
</filter>
<clipPath id="clip0_287_1701">
<rect width="306" height="225" fill="white"/>
</clipPath>
<clipPath id="clip1_287_1701">
<rect width="60" height="60" fill="white" transform="translate(201 21)"/>
</clipPath>
</defs>
</svg>
