<svg width="64" height="65" viewBox="0 0 64 65" fill="none" xmlns="http://www.w3.org/2000/svg">
<path fill-rule="evenodd" clip-rule="evenodd" d="M36.3101 39.361H29.0221C27.0247 39.361 25.4033 37.742 25.4033 35.7442V31.6524C25.4033 29.6546 27.0247 28.0356 29.0221 28.0356H36.3101C38.3074 28.0356 39.9261 29.6546 39.9261 31.6524V35.7442C39.9261 37.742 38.3074 39.361 36.3101 39.361Z" stroke="#28D1B3" stroke-width="4" stroke-linecap="round" stroke-linejoin="round"/>
<path d="M37.0168 28.1069V25.5095C36.9848 23.1068 35.0141 21.1844 32.6114 21.213C30.2568 21.2415 28.3554 23.138 28.3154 25.4914V28.1069" stroke="#28D1B3" stroke-width="4" stroke-linecap="round" stroke-linejoin="round"/>
<path d="M52.1963 34.7687C52.1963 51.0706 32.6667 56.9836 32.6667 56.9836C32.6667 56.9836 13.1375 51.0732 13.1375 34.7687C13.1375 18.4643 12.4265 17.1903 13.9935 15.6232C15.5633 14.0535 30.1059 8.98364 32.6667 8.98364C35.2275 8.98364 49.7677 14.0405 51.3373 15.6232C52.5053 16.8008 52.4096 17.8025 52.2851 24.9836" stroke="#28D1B3" stroke-width="4" stroke-linecap="round" stroke-linejoin="round"/>
</svg>
