<svg width="64" height="64" viewBox="0 0 64 64" fill="none" xmlns="http://www.w3.org/2000/svg">
<rect width="64" height="64" rx="19.2" fill="#28D1B3"/>
<path fill-rule="evenodd" clip-rule="evenodd" d="M24.6004 24.7241C25.5557 23.6998 26.9037 23.1436 28.451 23.1436H35.6247C37.1757 23.1436 38.5232 23.6995 39.4765 24.726C40.4205 25.7424 40.8883 27.1222 40.8883 28.6223V35.3833C40.8883 36.88 40.4199 38.2576 39.4759 39.2726C38.5227 40.2974 37.1757 40.8533 35.6247 40.8533H28.451C26.9007 40.8533 25.5525 40.2976 24.5975 39.2739C23.6514 38.2595 23.1797 36.8819 23.1797 35.3833V28.6223C23.1797 27.1188 23.6536 25.7392 24.6004 24.7241ZM26.3554 26.3611C25.8915 26.8585 25.5797 27.6182 25.5797 28.6223V35.3833C25.5797 36.3835 25.8899 37.1408 26.3525 37.6368C26.8064 38.1233 27.4938 38.4532 28.451 38.4532H35.6247C36.5823 38.4532 37.2671 38.1235 37.7186 37.6381C38.1792 37.1427 38.4883 36.3853 38.4883 35.3833V28.6223C38.4883 27.6148 38.1786 26.8552 37.7179 26.3592C37.2666 25.8733 36.5823 25.5436 35.6247 25.5436H28.451C27.4985 25.5436 26.8108 25.8729 26.3554 26.3611Z" fill="white"/>
<path fill-rule="evenodd" clip-rule="evenodd" d="M35.4644 28.4697C36.0383 29.005 36.3308 29.7467 36.3308 30.5496V33.4509C36.3308 34.2549 36.0386 34.9973 35.4625 35.5323C34.8966 36.0581 34.1538 36.2942 33.4004 36.2942H30.6662C29.9135 36.2942 29.1718 36.0574 28.6065 35.5317C28.0314 34.9968 27.7393 34.2547 27.7393 33.4509V30.5496C27.7393 29.7461 28.0312 29.004 28.6052 28.4686C29.1697 27.942 29.9116 27.7031 30.6662 27.7031H33.4004C34.1572 27.7031 34.8998 27.9431 35.4644 28.4697ZM33.8274 30.2248C33.7804 30.181 33.6578 30.1032 33.4004 30.1032H30.6662C30.41 30.1032 30.2886 30.1805 30.2423 30.2237C30.2055 30.2579 30.1393 30.3392 30.1393 30.5496V33.4509C30.1393 33.6614 30.2054 33.7411 30.241 33.7744C30.2865 33.8168 30.4082 33.8942 30.6662 33.8942H33.4004C33.6612 33.8942 33.7838 33.8162 33.8294 33.7738C33.8649 33.7408 33.9308 33.6614 33.9308 33.4509V30.5496C33.9308 30.3416 33.8652 30.26 33.8274 30.2248Z" fill="white"/>
<path fill-rule="evenodd" clip-rule="evenodd" d="M28.8699 20.0938C29.5326 20.0938 30.0699 20.631 30.0699 21.2938V24.3472C30.0699 25.01 29.5326 25.5472 28.8699 25.5472C28.2072 25.5472 27.6699 25.01 27.6699 24.3472V21.2938C27.6699 20.631 28.2072 20.0938 28.8699 20.0938Z" fill="white"/>
<path fill-rule="evenodd" clip-rule="evenodd" d="M35.1316 18.2466C35.7944 18.2466 36.3316 18.7838 36.3316 19.4466V24.3462C36.3316 25.0089 35.7944 25.5462 35.1316 25.5462C34.4689 25.5462 33.9316 25.0089 33.9316 24.3462V19.4466C33.9316 18.7838 34.4689 18.2466 35.1316 18.2466Z" fill="white"/>
<path fill-rule="evenodd" clip-rule="evenodd" d="M28.8714 20.0937C29.2282 20.0937 29.5174 19.8044 29.5174 19.4475C29.5174 19.0907 29.2282 18.8014 28.8714 18.8014C28.5145 18.8014 28.2252 19.0907 28.2252 19.4475C28.2252 19.8044 28.5145 20.0937 28.8714 20.0937ZM31.9174 19.4475C31.9174 21.1299 30.5538 22.4937 28.8714 22.4937C27.189 22.4937 25.8252 21.1299 25.8252 19.4475C25.8252 17.7652 27.189 16.4014 28.8714 16.4014C30.5538 16.4014 31.9174 17.7652 31.9174 19.4475Z" fill="white"/>
<path fill-rule="evenodd" clip-rule="evenodd" d="M35.1297 43.9066C34.467 43.9066 33.9297 43.3693 33.9297 42.7066V39.6531C33.9297 38.9904 34.467 38.4531 35.1297 38.4531C35.7926 38.4531 36.3297 38.9904 36.3297 39.6531V42.7066C36.3297 43.3693 35.7926 43.9066 35.1297 43.9066Z" fill="white"/>
<path fill-rule="evenodd" clip-rule="evenodd" d="M28.87 45.7528C28.2072 45.7528 27.6699 45.2155 27.6699 44.5528V39.6531C27.6699 38.9904 28.2072 38.4531 28.87 38.4531C29.5327 38.4531 30.07 38.9904 30.07 39.6531V44.5528C30.07 45.2155 29.5327 45.7528 28.87 45.7528Z" fill="white"/>
<path fill-rule="evenodd" clip-rule="evenodd" d="M35.1302 43.9059C34.7733 43.9059 34.484 44.1951 34.484 44.5521C34.484 44.9089 34.7733 45.1982 35.1302 45.1982C35.487 45.1982 35.7763 44.9089 35.7763 44.5521C35.7763 44.1951 35.487 43.9059 35.1302 43.9059ZM32.084 44.5521C32.084 42.8697 33.4478 41.5059 35.1302 41.5059C36.8125 41.5059 38.1763 42.8697 38.1763 44.5521C38.1763 46.2343 36.8125 47.5982 35.1302 47.5982C33.4478 47.5982 32.084 46.2343 32.084 44.5521Z" fill="white"/>
<path fill-rule="evenodd" clip-rule="evenodd" d="M43.9085 28.8685C43.9085 29.5312 43.3712 30.0685 42.7085 30.0685H39.6551C38.9924 30.0685 38.4551 29.5312 38.4551 28.8685C38.4551 28.2057 38.9924 27.6685 39.6551 27.6685H42.7085C43.3712 27.6685 43.9085 28.2057 43.9085 28.8685Z" fill="white"/>
<path fill-rule="evenodd" clip-rule="evenodd" d="M45.7548 35.1312C45.7548 35.7939 45.2175 36.3312 44.5548 36.3312H39.6551C38.9924 36.3312 38.4551 35.7939 38.4551 35.1312C38.4551 34.4684 38.9924 33.9312 39.6551 33.9312H44.5548C45.2175 33.9312 45.7548 34.4684 45.7548 35.1312Z" fill="white"/>
<path fill-rule="evenodd" clip-rule="evenodd" d="M43.9078 28.8694C43.9078 29.2263 44.1971 29.5156 44.5539 29.5156C44.9109 29.5156 45.2001 29.2263 45.2001 28.8694C45.2001 28.5125 44.9109 28.2232 44.5539 28.2232C44.1971 28.2232 43.9078 28.5125 43.9078 28.8694ZM44.5539 31.9156C42.8717 31.9156 41.5078 30.5518 41.5078 28.8694C41.5078 27.187 42.8717 25.8232 44.5539 25.8232C46.2363 25.8232 47.6001 27.187 47.6001 28.8694C47.6001 30.5518 46.2363 31.9156 44.5539 31.9156Z" fill="white"/>
<path fill-rule="evenodd" clip-rule="evenodd" d="M20.0918 35.1312C20.0918 34.4684 20.629 33.9312 21.2918 33.9312H24.3453C25.008 33.9312 25.5453 34.4684 25.5453 35.1312C25.5453 35.7939 25.008 36.3312 24.3453 36.3312H21.2918C20.629 36.3312 20.0918 35.7939 20.0918 35.1312Z" fill="white"/>
<path fill-rule="evenodd" clip-rule="evenodd" d="M18.2471 28.8685C18.2471 28.2057 18.7843 27.6685 19.4471 27.6685H24.3467C25.0094 27.6685 25.5467 28.2057 25.5467 28.8685C25.5467 29.5312 25.0094 30.0685 24.3467 30.0685H19.4471C18.7843 30.0685 18.2471 29.5312 18.2471 28.8685Z" fill="white"/>
<path fill-rule="evenodd" clip-rule="evenodd" d="M20.0927 35.1302C20.0927 34.7733 19.8034 34.484 19.4466 34.484C19.0897 34.484 18.8004 34.7733 18.8004 35.1302C18.8004 35.487 19.0897 35.7763 19.4466 35.7763C19.8034 35.7763 20.0927 35.487 20.0927 35.1302ZM19.4466 32.084C21.1289 32.084 22.4927 33.4478 22.4927 35.1302C22.4927 36.8125 21.1289 38.1763 19.4466 38.1763C17.7642 38.1763 16.4004 36.8125 16.4004 35.1302C16.4004 33.4478 17.7642 32.084 19.4466 32.084Z" fill="white"/>
</svg>
