<svg width="48" height="48" viewBox="0 0 48 48" fill="none" xmlns="http://www.w3.org/2000/svg">
<path d="M11.625 6.75H12.375V7.5C12.375 7.69891 12.454 7.88968 12.5947 8.03033C12.7353 8.17098 12.9261 8.25 13.125 8.25C13.3239 8.25 13.5147 8.17098 13.6553 8.03033C13.796 7.88968 13.875 7.69891 13.875 7.5V6.75H14.625C14.8239 6.75 15.0147 6.67098 15.1553 6.53033C15.296 6.38968 15.375 6.19891 15.375 6C15.375 5.80109 15.296 5.61032 15.1553 5.46967C15.0147 5.32902 14.8239 5.25 14.625 5.25H13.875V4.5C13.875 4.30109 13.796 4.11032 13.6553 3.96967C13.5147 3.82902 13.3239 3.75 13.125 3.75C12.9261 3.75 12.7353 3.82902 12.5947 3.96967C12.454 4.11032 12.375 4.30109 12.375 4.5V5.25H11.625C11.4261 5.25 11.2353 5.32902 11.0947 5.46967C10.954 5.61032 10.875 5.80109 10.875 6C10.875 6.19891 10.954 6.38968 11.0947 6.53033C11.2353 6.67098 11.4261 6.75 11.625 6.75Z" fill="url(#paint0_linear_3992_8155)"/>
<path d="M20.625 5.25H36.375C36.5739 5.25 36.7647 5.17098 36.9053 5.03033C37.046 4.88968 37.125 4.69891 37.125 4.5C37.125 4.30109 37.046 4.11032 36.9053 3.96967C36.7647 3.82902 36.5739 3.75 36.375 3.75H20.625C20.4261 3.75 20.2353 3.82902 20.0947 3.96967C19.954 4.11032 19.875 4.30109 19.875 4.5C19.875 4.69891 19.954 4.88968 20.0947 5.03033C20.2353 5.17098 20.4261 5.25 20.625 5.25Z" fill="url(#paint1_linear_3992_8155)"/>
<path d="M20.625 8.25H36.375C36.5739 8.25 36.7647 8.17098 36.9053 8.03033C37.046 7.88968 37.125 7.69891 37.125 7.5C37.125 7.30109 37.046 7.11032 36.9053 6.96967C36.7647 6.82902 36.5739 6.75 36.375 6.75H20.625C20.4261 6.75 20.2353 6.82902 20.0947 6.96967C19.954 7.11032 19.875 7.30109 19.875 7.5C19.875 7.69891 19.954 7.88968 20.0947 8.03033C20.2353 8.17098 20.4261 8.25 20.625 8.25Z" fill="url(#paint2_linear_3992_8155)"/>
<path d="M18.375 15C18.375 14.8011 18.296 14.6103 18.1553 14.4697C18.0147 14.329 17.8239 14.25 17.625 14.25H11.625C11.4261 14.25 11.2353 14.329 11.0947 14.4697C10.954 14.6103 10.875 14.8011 10.875 15V21C10.875 21.1989 10.954 21.3897 11.0947 21.5303C11.2353 21.671 11.4261 21.75 11.625 21.75H17.625C17.8239 21.75 18.0147 21.671 18.1553 21.5303C18.296 21.3897 18.375 21.1989 18.375 21V15ZM12.375 20.25V15.75H16.875V16.3404L14.8367 17.7213L14.4218 17.2793C14.3544 17.2073 14.2735 17.1493 14.1837 17.1086C14.0938 17.0679 13.9969 17.0453 13.8983 17.0422C13.7998 17.039 13.7016 17.0553 13.6093 17.0901C13.5171 17.1249 13.4326 17.1775 13.3607 17.245C13.2888 17.3125 13.231 17.3935 13.1904 17.4834C13.1499 17.5733 13.1275 17.6703 13.1244 17.7689C13.1214 17.8674 13.1379 17.9656 13.1729 18.0578C13.2078 18.15 13.2606 18.2344 13.3282 18.3062L14.1812 19.2144C14.3063 19.3394 14.4703 19.4182 14.6461 19.4377C14.8219 19.4572 14.9991 19.4164 15.1487 19.3218L16.875 18.1523V20.25H12.375Z" fill="url(#paint3_linear_3992_8155)"/>
<path d="M20.625 20.25H28.875C29.0739 20.25 29.2647 20.171 29.4053 20.0303C29.546 19.8897 29.625 19.6989 29.625 19.5C29.625 19.3011 29.546 19.1103 29.4053 18.9697C29.2647 18.829 29.0739 18.75 28.875 18.75H20.625C20.4261 18.75 20.2353 18.829 20.0947 18.9697C19.954 19.1103 19.875 19.3011 19.875 19.5C19.875 19.6989 19.954 19.8897 20.0947 20.0303C20.2353 20.171 20.4261 20.25 20.625 20.25Z" fill="url(#paint4_linear_3992_8155)"/>
<path d="M18.375 24C18.375 23.8011 18.296 23.6103 18.1553 23.4697C18.0147 23.329 17.8239 23.25 17.625 23.25H11.625C11.4261 23.25 11.2353 23.329 11.0947 23.4697C10.954 23.6103 10.875 23.8011 10.875 24V30C10.875 30.1989 10.954 30.3897 11.0947 30.5303C11.2353 30.671 11.4261 30.75 11.625 30.75H17.625C17.8239 30.75 18.0147 30.671 18.1553 30.5303C18.296 30.3897 18.375 30.1989 18.375 30V24ZM12.375 29.25V24.75H16.875V25.3404L14.8367 26.7213L14.4218 26.2793C14.3544 26.2073 14.2735 26.1493 14.1837 26.1086C14.0938 26.0679 13.9969 26.0453 13.8983 26.0422C13.7998 26.039 13.7016 26.0553 13.6093 26.0901C13.5171 26.1249 13.4326 26.1775 13.3607 26.245C13.2888 26.3125 13.231 26.3935 13.1904 26.4834C13.1499 26.5733 13.1275 26.6703 13.1244 26.7689C13.1214 26.8674 13.1379 26.9656 13.1729 27.0578C13.2078 27.15 13.2606 27.2344 13.3282 27.3062L14.1812 28.2144C14.3046 28.3423 14.4688 28.4231 14.6455 28.4427C14.8222 28.4623 15.0002 28.4196 15.1487 28.3218L16.875 27.1523V29.25H12.375Z" fill="url(#paint5_linear_3992_8155)"/>
<path d="M28.875 29.25C29.0739 29.25 29.2647 29.171 29.4053 29.0303C29.546 28.8897 29.625 28.6989 29.625 28.5C29.625 28.3011 29.546 28.1103 29.4053 27.9697C29.2647 27.829 29.0739 27.75 28.875 27.75H20.625C20.4261 27.75 20.2353 27.829 20.0947 27.9697C19.954 28.1103 19.875 28.3011 19.875 28.5C19.875 28.6989 19.954 28.8897 20.0947 29.0303C20.2353 29.171 20.4261 29.25 20.625 29.25H28.875Z" fill="url(#paint6_linear_3992_8155)"/>
<path d="M18.375 39V33C18.375 32.8011 18.296 32.6103 18.1553 32.4697C18.0147 32.329 17.8239 32.25 17.625 32.25H11.625C11.4261 32.25 11.2353 32.329 11.0947 32.4697C10.954 32.6103 10.875 32.8011 10.875 33V39C10.875 39.1989 10.954 39.3897 11.0947 39.5303C11.2353 39.671 11.4261 39.75 11.625 39.75H17.625C17.8239 39.75 18.0147 39.671 18.1553 39.5303C18.296 39.3897 18.375 39.1989 18.375 39ZM12.375 38.25V33.75H16.875V34.3404L14.8367 35.7213L14.4218 35.2793C14.3544 35.2073 14.2735 35.1493 14.1837 35.1086C14.0938 35.0679 13.9969 35.0453 13.8983 35.0422C13.7998 35.039 13.7016 35.0553 13.6093 35.0901C13.5171 35.1249 13.4326 35.1775 13.3607 35.245C13.2888 35.3125 13.231 35.3935 13.1904 35.4834C13.1499 35.5733 13.1275 35.6703 13.1244 35.7689C13.1214 35.8674 13.1379 35.9656 13.1729 36.0578C13.2078 36.15 13.2606 36.2344 13.3282 36.3062L14.1812 37.2144C14.3064 37.3392 14.4704 37.4178 14.6461 37.4373C14.8219 37.4568 14.9991 37.4161 15.1487 37.3218L16.875 36.1523V38.25H12.375Z" fill="url(#paint7_linear_3992_8155)"/>
<path d="M20.625 17.25H32.625C32.625 17.25 32.63 15.7902 32.6313 15.75H20.625C20.4261 15.75 20.2353 15.829 20.0947 15.9697C19.954 16.1103 19.875 16.3011 19.875 16.5C19.875 16.6989 19.954 16.8897 20.0947 17.0303C20.2353 17.171 20.4261 17.25 20.625 17.25Z" fill="url(#paint8_linear_3992_8155)"/>
<path d="M38.3749 13.4998H36.6251C35.9796 13.4838 35.3541 13.7242 34.8855 14.1684C34.4169 14.6127 34.1435 15.2245 34.125 15.8699V41.644C34.1256 41.9651 34.1973 42.2821 34.3348 42.5722L36.8284 47.5839C36.8906 47.7089 36.9864 47.8139 37.105 47.8874C37.2237 47.9608 37.3605 47.9998 37.5 47.9998C37.6395 47.9998 37.7763 47.9608 37.895 47.8874C38.0136 47.8139 38.1094 47.7089 38.1716 47.5839L40.6652 42.5722C40.6681 42.5658 40.671 42.5593 40.6743 42.5531C40.8067 42.2683 40.8752 41.958 40.875 41.644V15.8699C40.8565 15.2245 40.5831 14.6126 40.1145 14.1684C39.6459 13.7242 39.0204 13.4838 38.3749 13.4998ZM35.625 41.2038V20.2498H39.375V41.2038H35.625ZM36.6251 14.9998H38.3749C38.6225 14.984 38.8664 15.0666 39.0536 15.2294C39.2408 15.3923 39.3563 15.6224 39.375 15.8699V18.7498H35.625V15.8699C35.6437 15.6224 35.7592 15.3923 35.9464 15.2294C36.1336 15.0666 36.3775 14.984 36.6251 14.9998ZM37.5 45.5661L36.0758 42.7038H38.924L37.5 45.5661Z" fill="url(#paint9_linear_3992_8155)"/>
<path d="M32.1737 46.5C32.0612 47.0446 31.8284 47.5571 31.4922 48H35.3593L34.613 46.5H32.1737Z" fill="url(#paint10_linear_3992_8155)"/>
<path d="M38.625 0H9.375C8.77846 0.000651147 8.20654 0.237913 7.78473 0.659729C7.36291 1.08154 7.12565 1.65346 7.125 2.25V45.75C7.12565 46.3465 7.36291 46.9185 7.78473 47.3403C8.20654 47.7621 8.77846 47.9993 9.375 48H19.5072C19.171 47.5571 18.9381 47.0446 18.8256 46.5H9.375C9.17616 46.4998 8.98552 46.4207 8.84492 46.2801C8.70432 46.1395 8.62523 45.9488 8.625 45.75V12H39.375V12.1274C39.9201 12.2627 40.4309 12.5101 40.875 12.8538V2.25C40.8743 1.65346 40.6371 1.08154 40.2153 0.659729C39.7935 0.237913 39.2215 0.000651147 38.625 0ZM9.375 1.5H38.625C38.8238 1.50023 39.0145 1.57932 39.1551 1.71992C39.2957 1.86052 39.3748 2.05116 39.375 2.25V10.5H8.625V2.25C8.62523 2.05116 8.70432 1.86052 8.84492 1.71992C8.98552 1.57932 9.17616 1.50023 9.375 1.5Z" fill="url(#paint11_linear_3992_8155)"/>
<path d="M12 41.25C11.8011 41.25 11.6103 41.329 11.4697 41.4697C11.329 41.6103 11.25 41.8011 11.25 42C11.25 42.1989 11.329 42.3897 11.4697 42.5303C11.6103 42.671 11.8011 42.75 12 42.75H17.25C17.4489 42.75 17.6397 42.671 17.7803 42.5303C17.921 42.3897 18 42.1989 18 42C18 41.8011 17.921 41.6103 17.7803 41.4697C17.6397 41.329 17.4489 41.25 17.25 41.25H12Z" fill="url(#paint12_linear_3992_8155)"/>
<path d="M28.5 36.4737V35.1809C28.7187 35.1039 28.9082 34.961 29.0425 34.7719C29.1768 34.5829 29.2493 34.3569 29.25 34.125V31.875C29.2497 31.5767 29.131 31.2908 28.9201 31.0799C28.7092 30.869 28.4233 30.7503 28.125 30.75H22.875C22.5767 30.7503 22.2908 30.869 22.0799 31.0799C21.869 31.2908 21.7503 31.5767 21.75 31.875V34.125C21.7507 34.3569 21.8232 34.5829 21.9575 34.7719C22.0918 34.961 22.2813 35.1038 22.5 35.1809V36.4737C21.8568 36.6403 21.287 37.0154 20.8799 37.5404C20.4727 38.0654 20.2512 38.7106 20.25 39.375V45.75C20.2507 46.3465 20.4879 46.9185 20.9097 47.3403C21.3315 47.7621 21.9035 47.9993 22.5 48H28.5C29.0965 47.9993 29.6685 47.7621 30.0903 47.3403C30.5121 46.9185 30.7493 46.3465 30.75 45.75V39.375C30.7488 38.7106 30.5273 38.0654 30.1201 37.5404C29.713 37.0154 29.1432 36.6403 28.5 36.4737ZM27 35.25V36.375H24V35.25H27ZM23.25 32.25H27.75V33.75H23.25V32.25ZM29.25 45.75C29.2498 45.9488 29.1707 46.1395 29.0301 46.2801C28.8895 46.4207 28.6988 46.4998 28.5 46.5H22.5C22.3012 46.4998 22.1105 46.4207 21.9699 46.2801C21.8293 46.1395 21.7502 45.9488 21.75 45.75V39.375C21.7504 38.9773 21.9086 38.596 22.1898 38.3148C22.471 38.0336 22.8523 37.8754 23.25 37.875H27.75C28.1477 37.8754 28.529 38.0336 28.8102 38.3148C29.0914 38.596 29.2496 38.9773 29.25 39.375V45.75Z" fill="url(#paint13_linear_3992_8155)"/>
<path d="M27 41.625H26.25V40.875C26.25 40.6761 26.171 40.4853 26.0303 40.3447C25.8897 40.204 25.6989 40.125 25.5 40.125C25.3011 40.125 25.1103 40.204 24.9697 40.3447C24.829 40.4853 24.75 40.6761 24.75 40.875V41.625H24C23.8011 41.625 23.6103 41.704 23.4697 41.8447C23.329 41.9853 23.25 42.1761 23.25 42.375C23.25 42.5739 23.329 42.7647 23.4697 42.9053C23.6103 43.046 23.8011 43.125 24 43.125H24.75V43.875C24.75 44.0739 24.829 44.2647 24.9697 44.4053C25.1103 44.546 25.3011 44.625 25.5 44.625C25.6989 44.625 25.8897 44.546 26.0303 44.4053C26.171 44.2647 26.25 44.0739 26.25 43.875V43.125H27C27.1989 43.125 27.3897 43.046 27.5303 42.9053C27.671 42.7647 27.75 42.5739 27.75 42.375C27.75 42.1761 27.671 41.9853 27.5303 41.8447C27.3897 41.704 27.1989 41.625 27 41.625Z" fill="url(#paint14_linear_3992_8155)"/>
<path d="M20.625 26.25H32.625V24.75H20.625C20.4261 24.75 20.2353 24.829 20.0947 24.9697C19.954 25.1103 19.875 25.3011 19.875 25.5C19.875 25.6989 19.954 25.8897 20.0947 26.0303C20.2353 26.171 20.4261 26.25 20.625 26.25Z" fill="url(#paint15_linear_3992_8155)"/>
<defs>
<linearGradient id="paint0_linear_3992_8155" x1="10.875" y1="4.21875" x2="14.25" y2="8.10938" gradientUnits="userSpaceOnUse">
<stop stop-color="#4BFFAE"/>
<stop offset="1" stop-color="#1F75FF"/>
</linearGradient>
<linearGradient id="paint1_linear_3992_8155" x1="19.875" y1="3.90625" x2="20.0455" y2="6.16617" gradientUnits="userSpaceOnUse">
<stop stop-color="#4BFFAE"/>
<stop offset="1" stop-color="#1F75FF"/>
</linearGradient>
<linearGradient id="paint2_linear_3992_8155" x1="19.875" y1="6.90625" x2="20.0455" y2="9.16617" gradientUnits="userSpaceOnUse">
<stop stop-color="#4BFFAE"/>
<stop offset="1" stop-color="#1F75FF"/>
</linearGradient>
<linearGradient id="paint3_linear_3992_8155" x1="10.875" y1="15.0312" x2="16.5" y2="21.5156" gradientUnits="userSpaceOnUse">
<stop stop-color="#4BFFAE"/>
<stop offset="1" stop-color="#1F75FF"/>
</linearGradient>
<linearGradient id="paint4_linear_3992_8155" x1="19.875" y1="18.9062" x2="20.173" y2="21.1393" gradientUnits="userSpaceOnUse">
<stop stop-color="#4BFFAE"/>
<stop offset="1" stop-color="#1F75FF"/>
</linearGradient>
<linearGradient id="paint5_linear_3992_8155" x1="10.875" y1="24.0312" x2="16.5" y2="30.5156" gradientUnits="userSpaceOnUse">
<stop stop-color="#4BFFAE"/>
<stop offset="1" stop-color="#1F75FF"/>
</linearGradient>
<linearGradient id="paint6_linear_3992_8155" x1="19.875" y1="27.9062" x2="20.173" y2="30.1393" gradientUnits="userSpaceOnUse">
<stop stop-color="#4BFFAE"/>
<stop offset="1" stop-color="#1F75FF"/>
</linearGradient>
<linearGradient id="paint7_linear_3992_8155" x1="10.875" y1="33.0312" x2="16.5" y2="39.5156" gradientUnits="userSpaceOnUse">
<stop stop-color="#4BFFAE"/>
<stop offset="1" stop-color="#1F75FF"/>
</linearGradient>
<linearGradient id="paint8_linear_3992_8155" x1="19.875" y1="15.9062" x2="20.1044" y2="18.1556" gradientUnits="userSpaceOnUse">
<stop stop-color="#4BFFAE"/>
<stop offset="1" stop-color="#1F75FF"/>
</linearGradient>
<linearGradient id="paint9_linear_3992_8155" x1="34.125" y1="17.0928" x2="45.3443" y2="19.6232" gradientUnits="userSpaceOnUse">
<stop stop-color="#4BFFAE"/>
<stop offset="1" stop-color="#1F75FF"/>
</linearGradient>
<linearGradient id="paint10_linear_3992_8155" x1="31.4922" y1="46.6562" x2="32.1792" y2="48.6979" gradientUnits="userSpaceOnUse">
<stop stop-color="#4BFFAE"/>
<stop offset="1" stop-color="#1F75FF"/>
</linearGradient>
<linearGradient id="paint11_linear_3992_8155" x1="7.125" y1="5" x2="42.7018" y2="33.8366" gradientUnits="userSpaceOnUse">
<stop stop-color="#4BFFAE"/>
<stop offset="1" stop-color="#1F75FF"/>
</linearGradient>
<linearGradient id="paint12_linear_3992_8155" x1="11.25" y1="41.4062" x2="11.6724" y2="43.5976" gradientUnits="userSpaceOnUse">
<stop stop-color="#4BFFAE"/>
<stop offset="1" stop-color="#1F75FF"/>
</linearGradient>
<linearGradient id="paint13_linear_3992_8155" x1="20.25" y1="32.5469" x2="32.5392" y2="41.1701" gradientUnits="userSpaceOnUse">
<stop stop-color="#4BFFAE"/>
<stop offset="1" stop-color="#1F75FF"/>
</linearGradient>
<linearGradient id="paint14_linear_3992_8155" x1="23.25" y1="40.5937" x2="26.625" y2="44.4844" gradientUnits="userSpaceOnUse">
<stop stop-color="#4BFFAE"/>
<stop offset="1" stop-color="#1F75FF"/>
</linearGradient>
<linearGradient id="paint15_linear_3992_8155" x1="19.875" y1="24.9062" x2="20.1046" y2="27.1556" gradientUnits="userSpaceOnUse">
<stop stop-color="#4BFFAE"/>
<stop offset="1" stop-color="#1F75FF"/>
</linearGradient>
</defs>
</svg>
