<svg fill="none" height="63" viewBox="0 0 63 63" width="63" xmlns="http://www.w3.org/2000/svg"><path d="m.026611.296509h62v62h-62z" fill="#fff"/><path d="m13.0625 10.1837h35.9283v42.2257h-35.9283z" stroke="#000" stroke-width="1.5"/><rect fill="#6cdba5" height="10.5832" rx="5.29162" width="29.5905" x="16.4363" y="38.2102"/><path d="m24.3061 40.7025v3.6393c0 .6338-.3033.9744-.8353.9744-.4847 0-.8352-.2834-.8352-.7159h-.6065c0 .783.6065 1.2628 1.4417 1.2628.885 0 1.4517-.5444 1.4517-1.5213v-3.6393zm4.636 1.2728h.5966c-.0274-.7681-.7358-1.3424-1.7202-1.3424-.9744 0-1.7401.5668-1.7401 1.4219 0 .6861.4972 1.0938 1.2926 1.3225l.6265.1789c.5369.1492 1.0142.3381 1.0142.8452 0 .5568-.537.9247-1.2429.9247-.6066 0-1.1435-.2684-1.1932-.8451h-.6364c.0597.8352.7358 1.4019 1.8296 1.4019 1.1733 0 1.8395-.6463 1.8395-1.4715 0-.9546-.9049-1.2628-1.4319-1.402l-.517-.1392c-.3778-.0995-.9844-.2983-.9844-.8452 0-.4872.4475-.8452 1.1236-.8452.6165 0 1.0838.2933 1.1435.7955zm5.9752 1.2727c0-1.6108-.9446-2.6151-2.2472-2.6151-1.3025 0-2.2471 1.0043-2.2471 2.6151s.9446 2.6151 2.2471 2.6151c1.3026 0 2.2472-1.0043 2.2472-2.6151zm-.5966 0c0 1.3224-.7258 2.0384-1.6506 2.0384-.9247 0-1.6505-.716-1.6505-2.0384s.7258-2.0383 1.6505-2.0383c.9248 0 1.6506.7159 1.6506 2.0383zm5.6701-2.5455h-.6065v4.0072h-.0497l-2.7841-4.0072h-.5966v5.091h.6165v-3.9972h.0497l2.7741 3.9972h.5966z" fill="#000"/><path d="m28.9286 28.1503v-1.1804c-1.0014 0-1.2401-.4091-1.2401-1.2954v-1.3978c0-.6647-.2642-1.2272-1.4147-1.4573v-.162c1.1505-.2301 1.4147-.7968 1.4147-1.4616v-1.3977c0-.8822.2387-1.2912 1.2401-1.2912v-1.1847c-1.7045 0-2.706.4304-2.706 2.3523v1.0866c0 .8949-.3324 1.2614-1.2997 1.2614v1.4318c.9673 0 1.2997.3665 1.2997 1.2614v1.0824c0 1.9218 1.0015 2.3522 2.706 2.3522zm2.9244-3.0469h-1.3637l-.0298.4773c-.0724 1.1549-.375 2.331-.4986 2.8466h1.0398c.2045-.5369.6775-1.7812.7969-2.8551zm-.7074-3.3877c.5028 0 .9332-.4176.9375-.9375-.0043-.5114-.4347-.929-.9375-.929-.5199 0-.9418.4176-.9375.929-.0043.5199.4176.9375.9375.9375zm1.9506-4.3892v1.1804c1.0014 0 1.2401.409 1.2401 1.2954v1.3977c0 .6648.2642 1.2273 1.4147 1.4574v.162c-1.1505.2301-1.4147.7968-1.4147 1.4616v1.3977c0 .8821-.2387 1.2912-1.2401 1.2912v1.1847c1.7046 0 2.706-.4304 2.706-2.3523v-1.0866c0-.8949.3324-1.2614 1.2997-1.2614v-1.4318c-.9673 0-1.2997-.3665-1.2997-1.2614v-1.0824c0-1.9218-1.0014-2.3522-2.706-2.3522z" fill="#000"/><path d="m13.8885 34.384h34.3139" stroke="#000" stroke-width="1.5"/></svg>