<svg width="64" height="64" viewBox="0 0 64 64" fill="none" xmlns="http://www.w3.org/2000/svg">
<rect width="64" height="64" rx="19.2" fill="#28D1B3"/>
<path fill-rule="evenodd" clip-rule="evenodd" d="M43.4288 26.2447C42.5648 26.2447 41.8656 26.9446 41.8656 27.8079V43.8252C41.8656 44.6895 42.5644 45.3884 43.4288 45.3884C44.2922 45.3884 44.992 44.6892 44.992 43.8252V27.8079C44.992 26.9451 44.2917 26.2447 43.4288 26.2447ZM39.4656 27.8079C39.4656 25.62 41.2384 23.8447 43.4288 23.8447C45.6172 23.8447 47.392 25.6196 47.392 27.8079V43.8252C47.392 46.0154 45.6167 47.7884 43.4288 47.7884C41.2389 47.7884 39.4656 46.0151 39.4656 43.8252V27.8079ZM32.8008 32.981C31.9368 32.981 31.2376 33.6809 31.2376 34.5442V43.8253C31.2376 44.6898 31.9364 45.3885 32.8008 45.3885C33.664 45.3885 34.364 44.6893 34.364 43.8253V34.5442C34.364 33.6813 33.6636 32.981 32.8008 32.981ZM28.8376 34.5442C28.8376 32.3562 30.6104 30.581 32.8008 30.581C34.9892 30.581 36.764 32.3557 36.764 34.5442V43.8253C36.764 46.0157 34.9887 47.7885 32.8008 47.7885C30.6109 47.7885 28.8376 46.0153 28.8376 43.8253V34.5442ZM22.1712 36.9641C21.3088 36.9641 20.608 37.6639 20.608 38.5287V43.8247C20.608 44.6887 21.3079 45.3879 22.1712 45.3879C23.0356 45.3879 23.7344 44.6892 23.7344 43.8247V38.5287C23.7344 37.6634 23.0347 36.9641 22.1712 36.9641ZM18.208 38.5287C18.208 36.3393 19.9824 34.5641 22.1712 34.5641C24.362 34.5641 26.1344 36.3397 26.1344 38.5287V43.8247C26.1344 46.0146 24.3611 47.7879 22.1712 47.7879C19.9833 47.7879 18.208 46.0151 18.208 43.8247V38.5287Z" fill="white"/>
<path fill-rule="evenodd" clip-rule="evenodd" d="M44.3278 17.0299C44.747 17.5432 44.6706 18.2992 44.1574 18.7183L32.9676 27.8564C32.481 28.2536 31.7706 28.2086 31.3382 27.7531L28.5652 24.8317L20.1068 30.8766C19.5676 31.2619 18.8181 31.1372 18.4328 30.598C18.0474 30.0588 18.1721 29.3094 18.7113 28.924L28.019 22.2721C28.506 21.924 29.175 21.9881 29.5871 22.4222L32.3121 25.293L42.6393 16.8595C43.1526 16.4403 43.9086 16.5166 44.3278 17.0299Z" fill="white"/>
</svg>
