<svg width="48" height="48" viewBox="0 0 48 48" fill="none" xmlns="http://www.w3.org/2000/svg">
<path d="M43.2159 33.6987C43.0591 33.2153 42.668 32.8447 42.1773 32.7136L37.6539 31.5015L35.105 27.5757C34.8282 27.1494 34.355 26.8923 33.8467 26.8923C33.3384 26.8923 32.8653 27.1494 32.5884 27.575L30.0381 31.5015L25.5162 32.7136C25.0254 32.8447 24.6343 33.2161 24.4776 33.6987C24.3209 34.1821 24.419 34.7117 24.7383 35.1064L27.6856 38.7451L27.438 43.4209C27.4117 43.9285 27.6431 44.4148 28.0547 44.7136C28.3155 44.9026 28.6246 45 28.9366 45C29.1182 45 29.2999 44.967 29.4742 44.9004L33.8467 43.2217L38.2178 44.9004C38.6924 45.0806 39.2242 45.0125 39.6373 44.7136C40.0474 44.4148 40.2803 43.9285 40.254 43.4216L40.0079 38.7451L42.9551 35.1064C43.2745 34.7117 43.3726 34.1821 43.2159 33.6987ZM37.314 37.3044C37.0811 37.5923 36.9625 37.957 36.9815 38.3269L37.1368 41.2712L34.3843 40.2144C34.2115 40.1477 34.0284 40.1147 33.8467 40.1147C33.6651 40.1147 33.482 40.1477 33.3091 40.2144L30.5567 41.2712L30.712 38.3276C30.731 37.957 30.6124 37.593 30.3795 37.3044L28.5235 35.0134L31.3712 34.2502C31.7286 34.1543 32.0391 33.9294 32.2413 33.6189L33.8467 31.147L35.4507 33.6182C35.6529 33.9294 35.9634 34.1543 36.3209 34.2502L39.17 35.0134L37.314 37.3044Z" fill="black"/>
<path d="M43.2159 33.6987C43.0591 33.2153 42.668 32.8447 42.1773 32.7136L37.6539 31.5015L35.105 27.5757C34.8282 27.1494 34.355 26.8923 33.8467 26.8923C33.3384 26.8923 32.8653 27.1494 32.5884 27.575L30.0381 31.5015L25.5162 32.7136C25.0254 32.8447 24.6343 33.2161 24.4776 33.6987C24.3209 34.1821 24.419 34.7117 24.7383 35.1064L27.6856 38.7451L27.438 43.4209C27.4117 43.9285 27.6431 44.4148 28.0547 44.7136C28.3155 44.9026 28.6246 45 28.9366 45C29.1182 45 29.2999 44.967 29.4742 44.9004L33.8467 43.2217L38.2178 44.9004C38.6924 45.0806 39.2242 45.0125 39.6373 44.7136C40.0474 44.4148 40.2803 43.9285 40.254 43.4216L40.0079 38.7451L42.9551 35.1064C43.2745 34.7117 43.3726 34.1821 43.2159 33.6987ZM37.314 37.3044C37.0811 37.5923 36.9625 37.957 36.9815 38.3269L37.1368 41.2712L34.3843 40.2144C34.2115 40.1477 34.0284 40.1147 33.8467 40.1147C33.6651 40.1147 33.482 40.1477 33.3091 40.2144L30.5567 41.2712L30.712 38.3276C30.731 37.957 30.6124 37.593 30.3795 37.3044L28.5235 35.0134L31.3712 34.2502C31.7286 34.1543 32.0391 33.9294 32.2413 33.6189L33.8467 31.147L35.4507 33.6182C35.6529 33.9294 35.9634 34.1543 36.3209 34.2502L39.17 35.0134L37.314 37.3044Z" fill="url(#paint0_linear_3931_5134)"/>
<path d="M9.26732 30.1113C10.1477 27.0198 13.01 24.8606 16.2297 24.8606H31.0173C31.8464 24.8606 32.5173 24.189 32.5173 23.3606C32.5173 22.721 32.1139 22.1838 31.55 21.9681C33.7266 19.969 35.1013 17.1101 35.1013 13.9292C35.1013 7.90283 30.1985 3 24.1721 3C18.1457 3 13.2429 7.90283 13.2429 13.9292C13.2429 17.0528 14.5675 19.867 16.676 21.8606H16.2297C11.677 21.8606 7.6267 24.9155 6.38158 29.2925L4.88158 34.5981C4.49633 35.9312 4.7556 37.3345 5.59203 38.4478C6.43432 39.5684 7.72191 40.2114 9.12523 40.2114H21.761C22.5901 40.2114 23.261 39.5398 23.261 38.7114C23.261 37.8831 22.5901 37.2114 21.761 37.2114H9.12523C8.67406 37.2114 8.25951 37.0049 7.98998 36.6453C7.72484 36.293 7.64281 35.8506 7.76586 35.4229L9.26732 30.1113ZM16.2429 13.9292C16.2429 9.55737 19.7995 6 24.1721 6C28.5447 6 32.1013 9.55737 32.1013 13.9292C32.1013 18.301 28.5447 21.8577 24.1721 21.8577C19.7995 21.8577 16.2429 18.301 16.2429 13.9292Z" fill="black"/>
<path d="M9.26732 30.1113C10.1477 27.0198 13.01 24.8606 16.2297 24.8606H31.0173C31.8464 24.8606 32.5173 24.189 32.5173 23.3606C32.5173 22.721 32.1139 22.1838 31.55 21.9681C33.7266 19.969 35.1013 17.1101 35.1013 13.9292C35.1013 7.90283 30.1985 3 24.1721 3C18.1457 3 13.2429 7.90283 13.2429 13.9292C13.2429 17.0528 14.5675 19.867 16.676 21.8606H16.2297C11.677 21.8606 7.6267 24.9155 6.38158 29.2925L4.88158 34.5981C4.49633 35.9312 4.7556 37.3345 5.59203 38.4478C6.43432 39.5684 7.72191 40.2114 9.12523 40.2114H21.761C22.5901 40.2114 23.261 39.5398 23.261 38.7114C23.261 37.8831 22.5901 37.2114 21.761 37.2114H9.12523C8.67406 37.2114 8.25951 37.0049 7.98998 36.6453C7.72484 36.293 7.64281 35.8506 7.76586 35.4229L9.26732 30.1113ZM16.2429 13.9292C16.2429 9.55737 19.7995 6 24.1721 6C28.5447 6 32.1013 9.55737 32.1013 13.9292C32.1013 18.301 28.5447 21.8577 24.1721 21.8577C19.7995 21.8577 16.2429 18.301 16.2429 13.9292Z" fill="url(#paint1_linear_3931_5134)"/>
<defs>
<linearGradient id="paint0_linear_3931_5134" x1="24.4043" y1="35.0408" x2="43.2892" y2="35.0408" gradientUnits="userSpaceOnUse">
<stop stop-color="#4BFFAE"/>
<stop offset="1" stop-color="#1F75FF"/>
</linearGradient>
<linearGradient id="paint1_linear_3931_5134" x1="4.70703" y1="19.7451" x2="35.1013" y2="19.7451" gradientUnits="userSpaceOnUse">
<stop stop-color="#4BFFAE"/>
<stop offset="1" stop-color="#1F75FF"/>
</linearGradient>
</defs>
</svg>
