<svg width="48" height="48" viewBox="0 0 48 48" fill="none" xmlns="http://www.w3.org/2000/svg">
<path fill-rule="evenodd" clip-rule="evenodd" d="M43.2527 4.7465C41.9185 3.41517 40.1108 2.66717 38.226 2.6665H9.77268C7.88788 2.6665 6.08027 3.41524 4.74751 4.748C3.41475 6.08076 2.66602 7.88837 2.66602 9.77317V38.2265C2.66602 40.1113 3.41475 41.9189 4.74751 43.2517C6.08027 44.5844 7.88788 45.3332 9.77268 45.3332H38.226C40.1108 45.3332 41.9184 44.5844 43.2512 43.2517C44.5839 41.9189 45.3327 40.1113 45.3327 38.2265V9.77317C45.332 7.88835 44.584 6.0807 43.2527 4.7465ZM6.75935 6.75984C7.55884 5.96047 8.64213 5.5099 9.77268 5.5065H38.226C39.3565 5.51002 40.4397 5.96067 41.2391 6.76007C42.0385 7.55946 42.4892 8.64266 42.4927 9.77317V14.0398H5.50602V9.77317C5.50941 8.64262 5.95998 7.55933 6.75935 6.75984ZM41.2394 41.2398C40.4399 42.0392 39.3566 42.4898 38.226 42.4932H9.77268C8.64217 42.4897 7.55897 42.039 6.75958 41.2396C5.96018 40.4402 5.50953 39.357 5.50602 38.2265V16.8932H42.4927V38.2265C42.4893 39.3571 42.0387 40.4404 41.2394 41.2398Z" fill="black"/>
<path fill-rule="evenodd" clip-rule="evenodd" d="M43.2527 4.7465C41.9185 3.41517 40.1108 2.66717 38.226 2.6665H9.77268C7.88788 2.6665 6.08027 3.41524 4.74751 4.748C3.41475 6.08076 2.66602 7.88837 2.66602 9.77317V38.2265C2.66602 40.1113 3.41475 41.9189 4.74751 43.2517C6.08027 44.5844 7.88788 45.3332 9.77268 45.3332H38.226C40.1108 45.3332 41.9184 44.5844 43.2512 43.2517C44.5839 41.9189 45.3327 40.1113 45.3327 38.2265V9.77317C45.332 7.88835 44.584 6.0807 43.2527 4.7465ZM6.75935 6.75984C7.55884 5.96047 8.64213 5.5099 9.77268 5.5065H38.226C39.3565 5.51002 40.4397 5.96067 41.2391 6.76007C42.0385 7.55946 42.4892 8.64266 42.4927 9.77317V14.0398H5.50602V9.77317C5.50941 8.64262 5.95998 7.55933 6.75935 6.75984ZM41.2394 41.2398C40.4399 42.0392 39.3566 42.4898 38.226 42.4932H9.77268C8.64217 42.4897 7.55897 42.039 6.75958 41.2396C5.96018 40.4402 5.50953 39.357 5.50602 38.2265V16.8932H42.4927V38.2265C42.4893 39.3571 42.0387 40.4404 41.2394 41.2398Z" fill="url(#paint0_linear_3940_9594)"/>
<path fill-rule="evenodd" clip-rule="evenodd" d="M15.4668 24H14.0401C12.9096 24.0035 11.8264 24.4542 11.027 25.2536C10.2276 26.053 9.77695 27.1362 9.77344 28.2667V35.3733C9.77344 35.7517 9.92375 36.1146 10.1913 36.3821C10.4589 36.6497 10.8217 36.8 11.2001 36.8C11.5785 36.8 11.9414 36.6497 12.2089 36.3821C12.4765 36.1146 12.6268 35.7517 12.6268 35.3733V33.6533H16.8934V35.3733C16.8742 35.5714 16.8966 35.7712 16.9593 35.9601C17.0219 36.149 17.1233 36.3226 17.257 36.47C17.3908 36.6173 17.5538 36.735 17.7358 36.8156C17.9177 36.8961 18.1145 36.9378 18.3134 36.9378C18.5124 36.9378 18.7092 36.8961 18.8911 36.8156C19.073 36.735 19.2361 36.6173 19.3698 36.47C19.5036 36.3226 19.605 36.149 19.6676 35.9601C19.7302 35.7712 19.7527 35.5714 19.7334 35.3733V28.2667C19.7299 27.1362 19.2793 26.053 18.4799 25.2536C17.6805 24.4542 16.5973 24.0035 15.4668 24ZM12.6268 30.8V28.2667C12.6219 28.0804 12.6562 27.8951 12.7274 27.7229C12.7986 27.5506 12.9051 27.3952 13.0401 27.2667C13.3041 26.998 13.6635 26.8447 14.0401 26.84H15.4668C15.843 26.8468 16.2019 26.9993 16.468 27.2654C16.7341 27.5315 16.8866 27.8904 16.8934 28.2667V30.8H12.6268Z" fill="black"/>
<path fill-rule="evenodd" clip-rule="evenodd" d="M15.4668 24H14.0401C12.9096 24.0035 11.8264 24.4542 11.027 25.2536C10.2276 26.053 9.77695 27.1362 9.77344 28.2667V35.3733C9.77344 35.7517 9.92375 36.1146 10.1913 36.3821C10.4589 36.6497 10.8217 36.8 11.2001 36.8C11.5785 36.8 11.9414 36.6497 12.2089 36.3821C12.4765 36.1146 12.6268 35.7517 12.6268 35.3733V33.6533H16.8934V35.3733C16.8742 35.5714 16.8966 35.7712 16.9593 35.9601C17.0219 36.149 17.1233 36.3226 17.257 36.47C17.3908 36.6173 17.5538 36.735 17.7358 36.8156C17.9177 36.8961 18.1145 36.9378 18.3134 36.9378C18.5124 36.9378 18.7092 36.8961 18.8911 36.8156C19.073 36.735 19.2361 36.6173 19.3698 36.47C19.5036 36.3226 19.605 36.149 19.6676 35.9601C19.7302 35.7712 19.7527 35.5714 19.7334 35.3733V28.2667C19.7299 27.1362 19.2793 26.053 18.4799 25.2536C17.6805 24.4542 16.5973 24.0035 15.4668 24ZM12.6268 30.8V28.2667C12.6219 28.0804 12.6562 27.8951 12.7274 27.7229C12.7986 27.5506 12.9051 27.3952 13.0401 27.2667C13.3041 26.998 13.6635 26.8447 14.0401 26.84H15.4668C15.843 26.8468 16.2019 26.9993 16.468 27.2654C16.7341 27.5315 16.8866 27.8904 16.8934 28.2667V30.8H12.6268Z" fill="url(#paint1_linear_3940_9594)"/>
<path fill-rule="evenodd" clip-rule="evenodd" d="M28.4656 24H23.9989C23.6206 24 23.2577 24.1503 22.9901 24.4179C22.7226 24.6854 22.5723 25.0483 22.5723 25.4267V35.3733C22.5723 35.7517 22.7226 36.1146 22.9901 36.3821C23.2577 36.6497 23.6206 36.8 23.9989 36.8C24.3773 36.8 24.7402 36.6497 25.0077 36.3821C25.2753 36.1146 25.4256 35.7517 25.4256 35.3733V33.6533H28.4656C29.5999 33.6491 30.687 33.1989 31.4923 32.4C31.8939 31.998 32.2106 31.5194 32.4237 30.9926C32.6367 30.4658 32.7416 29.9015 32.7323 29.3333V28.2667C32.7345 27.7074 32.6261 27.1533 32.4133 26.6361C32.2005 26.119 31.8875 25.649 31.4923 25.2533C30.687 24.4544 29.5999 24.0042 28.4656 24ZM29.8923 29.3333C29.8924 29.519 29.856 29.7029 29.7851 29.8745C29.7142 30.046 29.6101 30.202 29.4789 30.3333C29.2087 30.5991 28.8446 30.7476 28.4656 30.7467H25.4256V26.7467H28.4656C28.8462 26.7507 29.2101 26.9039 29.4789 27.1733C29.6139 27.3019 29.7204 27.4573 29.7916 27.6295C29.8628 27.8018 29.8971 27.987 29.8923 28.1733V29.3333Z" fill="black"/>
<path fill-rule="evenodd" clip-rule="evenodd" d="M28.4656 24H23.9989C23.6206 24 23.2577 24.1503 22.9901 24.4179C22.7226 24.6854 22.5723 25.0483 22.5723 25.4267V35.3733C22.5723 35.7517 22.7226 36.1146 22.9901 36.3821C23.2577 36.6497 23.6206 36.8 23.9989 36.8C24.3773 36.8 24.7402 36.6497 25.0077 36.3821C25.2753 36.1146 25.4256 35.7517 25.4256 35.3733V33.6533H28.4656C29.5999 33.6491 30.687 33.1989 31.4923 32.4C31.8939 31.998 32.2106 31.5194 32.4237 30.9926C32.6367 30.4658 32.7416 29.9015 32.7323 29.3333V28.2667C32.7345 27.7074 32.6261 27.1533 32.4133 26.6361C32.2005 26.119 31.8875 25.649 31.4923 25.2533C30.687 24.4544 29.5999 24.0042 28.4656 24ZM29.8923 29.3333C29.8924 29.519 29.856 29.7029 29.7851 29.8745C29.7142 30.046 29.6101 30.202 29.4789 30.3333C29.2087 30.5991 28.8446 30.7476 28.4656 30.7467H25.4256V26.7467H28.4656C28.8462 26.7507 29.2101 26.9039 29.4789 27.1733C29.6139 27.3019 29.7204 27.4573 29.7916 27.6295C29.8628 27.8018 29.8971 27.987 29.8923 28.1733V29.3333Z" fill="url(#paint2_linear_3940_9594)"/>
<path fill-rule="evenodd" clip-rule="evenodd" d="M36.7997 24C36.4213 24 36.0585 24.1503 35.7909 24.4179C35.5234 24.6854 35.373 25.0483 35.373 25.4267V35.3733C35.373 35.7517 35.5234 36.1146 35.7909 36.3821C36.0585 36.6497 36.4213 36.8 36.7997 36.8C37.1781 36.8 37.541 36.6497 37.8085 36.3821C38.0761 36.1146 38.2264 35.7517 38.2264 35.3733V25.4267C38.2264 25.0483 38.0761 24.6854 37.8085 24.4179C37.541 24.1503 37.1781 24 36.7997 24Z" fill="black"/>
<path fill-rule="evenodd" clip-rule="evenodd" d="M36.7997 24C36.4213 24 36.0585 24.1503 35.7909 24.4179C35.5234 24.6854 35.373 25.0483 35.373 25.4267V35.3733C35.373 35.7517 35.5234 36.1146 35.7909 36.3821C36.0585 36.6497 36.4213 36.8 36.7997 36.8C37.1781 36.8 37.541 36.6497 37.8085 36.3821C38.0761 36.1146 38.2264 35.7517 38.2264 35.3733V25.4267C38.2264 25.0483 38.0761 24.6854 37.8085 24.4179C37.541 24.1503 37.1781 24 36.7997 24Z" fill="url(#paint3_linear_3940_9594)"/>
<path fill-rule="evenodd" clip-rule="evenodd" d="M11.2001 11.2C11.4823 11.2 11.7581 11.1163 11.9927 10.9596C12.2273 10.8028 12.4102 10.58 12.5182 10.3193C12.6262 10.0586 12.6544 9.77176 12.5994 9.49502C12.5443 9.21827 12.4084 8.96406 12.2089 8.76454C12.0094 8.56502 11.7552 8.42914 11.4784 8.37409C11.2017 8.31905 10.9148 8.3473 10.6541 8.45528C10.3935 8.56326 10.1706 8.74612 10.0139 8.98073C9.85711 9.21535 9.77344 9.49118 9.77344 9.77335C9.77344 10.1517 9.92375 10.5146 10.1913 10.7822C10.4589 11.0497 10.8217 11.2 11.2001 11.2Z" fill="black"/>
<path fill-rule="evenodd" clip-rule="evenodd" d="M11.2001 11.2C11.4823 11.2 11.7581 11.1163 11.9927 10.9596C12.2273 10.8028 12.4102 10.58 12.5182 10.3193C12.6262 10.0586 12.6544 9.77176 12.5994 9.49502C12.5443 9.21827 12.4084 8.96406 12.2089 8.76454C12.0094 8.56502 11.7552 8.42914 11.4784 8.37409C11.2017 8.31905 10.9148 8.3473 10.6541 8.45528C10.3935 8.56326 10.1706 8.74612 10.0139 8.98073C9.85711 9.21535 9.77344 9.49118 9.77344 9.77335C9.77344 10.1517 9.92375 10.5146 10.1913 10.7822C10.4589 11.0497 10.8217 11.2 11.2001 11.2Z" fill="url(#paint4_linear_3940_9594)"/>
<path fill-rule="evenodd" clip-rule="evenodd" d="M16.8935 11.2C17.1757 11.2 17.4515 11.1163 17.6861 10.9596C17.9208 10.8028 18.1036 10.58 18.2116 10.3193C18.3196 10.0586 18.3478 9.77176 18.2928 9.49502C18.2377 9.21827 18.1019 8.96406 17.9023 8.76454C17.7028 8.56502 17.4486 8.42914 17.1719 8.37409C16.8951 8.31905 16.6083 8.3473 16.3476 8.45528C16.0869 8.56326 15.8641 8.74612 15.7073 8.98073C15.5505 9.21535 15.4669 9.49118 15.4669 9.77335C15.4651 9.9612 15.5008 10.1475 15.5718 10.3214C15.6429 10.4953 15.7479 10.6533 15.8808 10.7861C16.0136 10.919 16.1716 11.024 16.3455 11.095C16.5194 11.1661 16.7057 11.2018 16.8935 11.2Z" fill="black"/>
<path fill-rule="evenodd" clip-rule="evenodd" d="M16.8935 11.2C17.1757 11.2 17.4515 11.1163 17.6861 10.9596C17.9208 10.8028 18.1036 10.58 18.2116 10.3193C18.3196 10.0586 18.3478 9.77176 18.2928 9.49502C18.2377 9.21827 18.1019 8.96406 17.9023 8.76454C17.7028 8.56502 17.4486 8.42914 17.1719 8.37409C16.8951 8.31905 16.6083 8.3473 16.3476 8.45528C16.0869 8.56326 15.8641 8.74612 15.7073 8.98073C15.5505 9.21535 15.4669 9.49118 15.4669 9.77335C15.4651 9.9612 15.5008 10.1475 15.5718 10.3214C15.6429 10.4953 15.7479 10.6533 15.8808 10.7861C16.0136 10.919 16.1716 11.024 16.3455 11.095C16.5194 11.1661 16.7057 11.2018 16.8935 11.2Z" fill="url(#paint5_linear_3940_9594)"/>
<defs>
<linearGradient id="paint0_linear_3940_9594" x1="-4.4451" y1="6.47603" x2="50.412" y2="45.5871" gradientUnits="userSpaceOnUse">
<stop stop-color="#4BFFAE"/>
<stop offset="1" stop-color="#1F75FF"/>
</linearGradient>
<linearGradient id="paint1_linear_3940_9594" x1="8.11233" y1="25.1552" x2="22.9611" y2="33.3106" gradientUnits="userSpaceOnUse">
<stop stop-color="#4BFFAE"/>
<stop offset="1" stop-color="#1F75FF"/>
</linearGradient>
<linearGradient id="paint2_linear_3940_9594" x1="20.8788" y1="25.1429" x2="35.8028" y2="33.589" gradientUnits="userSpaceOnUse">
<stop stop-color="#4BFFAE"/>
<stop offset="1" stop-color="#1F75FF"/>
</linearGradient>
<linearGradient id="paint3_linear_3940_9594" x1="34.8975" y1="25.1429" x2="40.2945" y2="26.0006" gradientUnits="userSpaceOnUse">
<stop stop-color="#4BFFAE"/>
<stop offset="1" stop-color="#1F75FF"/>
</linearGradient>
<linearGradient id="paint4_linear_3940_9594" x1="9.29788" y1="8.60144" x2="12.9665" y2="11.217" gradientUnits="userSpaceOnUse">
<stop stop-color="#4BFFAE"/>
<stop offset="1" stop-color="#1F75FF"/>
</linearGradient>
<linearGradient id="paint5_linear_3940_9594" x1="14.9912" y1="8.60145" x2="18.6599" y2="11.2171" gradientUnits="userSpaceOnUse">
<stop stop-color="#4BFFAE"/>
<stop offset="1" stop-color="#1F75FF"/>
</linearGradient>
</defs>
</svg>
