<svg width="405" height="300" viewBox="0 0 405 300" fill="none" xmlns="http://www.w3.org/2000/svg">
<rect width="405" height="300" rx="36" fill="#E7EDFA"/>
<path fill-rule="evenodd" clip-rule="evenodd" d="M69 189.495C69 173.091 72.0121 156.836 77.8759 141.537C78.3023 140.425 78.7437 139.318 79.2001 138.216C85.9343 121.958 95.8046 107.186 108.248 94.7428C120.691 82.2998 135.463 72.4294 151.72 65.6953C167.978 58.9611 185.403 55.4951 203 55.4951C220.597 55.4951 238.022 58.9611 254.28 65.6953C270.537 72.4294 285.309 82.2998 297.752 94.7428C310.195 107.186 320.066 121.958 326.8 138.216C327.256 139.318 327.698 140.425 328.124 141.537C333.988 156.836 337 173.091 337 189.495H289.024C289.024 178.198 286.799 167.012 282.475 156.575C278.152 146.138 271.816 136.655 263.828 128.667C255.84 120.679 246.357 114.343 235.92 110.02C225.483 105.697 214.297 103.471 203 103.471C191.703 103.471 180.517 105.697 170.08 110.02C159.643 114.343 150.16 120.679 142.172 128.667C134.184 136.655 127.848 146.138 123.525 156.575C119.201 167.012 116.976 178.198 116.976 189.495H69Z" fill="#28D1B3" fill-opacity="0.15"/>
<circle cx="203" cy="189.495" r="55.0105" fill="#FEFEFD"/>
<circle cx="203" cy="189.495" r="42.3158" fill="#28D1B3" fill-opacity="0.15"/>
<path d="M192.393 207.489C199.52 211.918 208.48 209.52 212.449 202.122C213.833 199.542 214.36 196.586 214.342 193.875L214.037 173.575C214.04 172.263 213.242 171.11 212.242 170.489C211.241 169.867 209.967 169.732 208.86 170.358L192.378 180.215C190.179 181.548 188.097 183.478 186.689 186.103C182.72 193.501 185.266 203.06 192.393 207.489ZM201.686 190.167C204.274 191.775 205.211 195.283 203.77 197.97C202.328 200.657 199.037 201.538 196.448 199.93C193.86 198.321 192.923 194.813 194.364 192.126C195.811 189.43 199.097 188.558 201.686 190.167Z" fill="#0FAC90"/>
<path fill-rule="evenodd" clip-rule="evenodd" d="M278.348 78.1906L252.919 118.942C247.639 115.179 241.938 112.017 235.92 109.525C225.483 105.201 214.297 102.976 203 102.976C191.703 102.976 180.517 105.201 170.08 109.525C159.643 113.848 150.16 120.184 142.172 128.172C134.184 136.16 127.848 145.643 123.525 156.08C119.201 166.517 116.976 177.703 116.976 189H69C69 172.596 72.0121 156.341 77.8759 141.042C78.3023 139.93 78.7437 138.822 79.2001 137.72C85.9343 121.463 95.8046 106.691 108.248 94.2477C120.691 81.8046 135.463 71.9343 151.72 65.2001C167.978 58.466 185.403 55 203 55C220.597 55 238.022 58.466 254.28 65.2001C262.745 68.7065 270.807 73.0632 278.348 78.1906Z" fill="#28D1B3"/>
</svg>
