<svg width="48" height="48" viewBox="0 0 48 48" fill="none" xmlns="http://www.w3.org/2000/svg">
<path d="M19.9484 41.0249H10.4534C8.74044 41.0249 7.34844 39.6314 7.34844 37.9199V7.4549C7.34844 5.7419 8.74194 4.3499 10.4534 4.3499H22.2149C22.3829 4.3499 22.5449 4.3724 22.7084 4.3979V11.0099C22.7084 13.4744 24.7139 15.4799 27.1784 15.4799H33.7904C33.8174 15.6434 33.8384 15.8084 33.8384 15.9779V21.5714C33.8384 22.3169 34.4429 22.9214 35.1884 22.9214C35.9339 22.9214 36.5384 22.3169 36.5384 21.5714V15.9779C36.5384 14.4269 35.9339 12.9674 34.8359 11.8709L26.3159 3.3494C25.2194 2.2529 23.7629 1.6499 22.2149 1.6499H10.4534C7.25244 1.6499 4.64844 4.2539 4.64844 7.4549V37.9199C4.64844 41.1209 7.25244 43.7249 10.4534 43.7249H19.9484C20.6939 43.7249 21.2984 43.1204 21.2984 42.3749C21.2984 41.6294 20.6939 41.0249 19.9484 41.0249ZM31.9289 12.7799H27.1769C26.2004 12.7799 25.4069 11.9864 25.4069 11.0099V6.2579L31.9289 12.7799Z" fill="black"/>
<path d="M19.9484 41.0249H10.4534C8.74044 41.0249 7.34844 39.6314 7.34844 37.9199V7.4549C7.34844 5.7419 8.74194 4.3499 10.4534 4.3499H22.2149C22.3829 4.3499 22.5449 4.3724 22.7084 4.3979V11.0099C22.7084 13.4744 24.7139 15.4799 27.1784 15.4799H33.7904C33.8174 15.6434 33.8384 15.8084 33.8384 15.9779V21.5714C33.8384 22.3169 34.4429 22.9214 35.1884 22.9214C35.9339 22.9214 36.5384 22.3169 36.5384 21.5714V15.9779C36.5384 14.4269 35.9339 12.9674 34.8359 11.8709L26.3159 3.3494C25.2194 2.2529 23.7629 1.6499 22.2149 1.6499H10.4534C7.25244 1.6499 4.64844 4.2539 4.64844 7.4549V37.9199C4.64844 41.1209 7.25244 43.7249 10.4534 43.7249H19.9484C20.6939 43.7249 21.2984 43.1204 21.2984 42.3749C21.2984 41.6294 20.6939 41.0249 19.9484 41.0249ZM31.9289 12.7799H27.1769C26.2004 12.7799 25.4069 11.9864 25.4069 11.0099V6.2579L31.9289 12.7799Z" fill="url(#paint0_linear_3940_9581)"/>
<path d="M11.6273 21.9285H29.5568C30.3023 21.9285 30.9068 21.324 30.9068 20.5785C30.9068 19.833 30.3023 19.2285 29.5568 19.2285H11.6273C10.8818 19.2285 10.2773 19.833 10.2773 20.5785C10.2773 21.324 10.8818 21.9285 11.6273 21.9285Z" fill="black"/>
<path d="M11.6273 21.9285H29.5568C30.3023 21.9285 30.9068 21.324 30.9068 20.5785C30.9068 19.833 30.3023 19.2285 29.5568 19.2285H11.6273C10.8818 19.2285 10.2773 19.833 10.2773 20.5785C10.2773 21.324 10.8818 21.9285 11.6273 21.9285Z" fill="url(#paint1_linear_3940_9581)"/>
<path d="M11.6273 14.6624H18.8153C19.5608 14.6624 20.1653 14.0579 20.1653 13.3124C20.1653 12.5669 19.5608 11.9624 18.8153 11.9624H11.6273C10.8818 11.9624 10.2773 12.5669 10.2773 13.3124C10.2773 14.0579 10.8818 14.6624 11.6273 14.6624Z" fill="black"/>
<path d="M11.6273 14.6624H18.8153C19.5608 14.6624 20.1653 14.0579 20.1653 13.3124C20.1653 12.5669 19.5608 11.9624 18.8153 11.9624H11.6273C10.8818 11.9624 10.2773 12.5669 10.2773 13.3124C10.2773 14.0579 10.8818 14.6624 11.6273 14.6624Z" fill="url(#paint2_linear_3940_9581)"/>
<path d="M20.7884 26.49H11.6234C10.8779 26.49 10.2734 27.0945 10.2734 27.84C10.2734 28.5855 10.8779 29.19 11.6234 29.19H20.7884C21.5339 29.19 22.1384 28.5855 22.1384 27.84C22.1384 27.0945 21.5339 26.49 20.7884 26.49Z" fill="black"/>
<path d="M20.7884 26.49H11.6234C10.8779 26.49 10.2734 27.0945 10.2734 27.84C10.2734 28.5855 10.8779 29.19 11.6234 29.19H20.7884C21.5339 29.19 22.1384 28.5855 22.1384 27.84C22.1384 27.0945 21.5339 26.49 20.7884 26.49Z" fill="url(#paint3_linear_3940_9581)"/>
<path d="M11.6234 36.4646H18.3884C19.1339 36.4646 19.7384 35.8601 19.7384 35.1146C19.7384 34.3691 19.1339 33.7646 18.3884 33.7646H11.6234C10.8779 33.7646 10.2734 34.3691 10.2734 35.1146C10.2734 35.8601 10.8764 36.4646 11.6234 36.4646Z" fill="black"/>
<path d="M11.6234 36.4646H18.3884C19.1339 36.4646 19.7384 35.8601 19.7384 35.1146C19.7384 34.3691 19.1339 33.7646 18.3884 33.7646H11.6234C10.8779 33.7646 10.2734 34.3691 10.2734 35.1146C10.2734 35.8601 10.8764 36.4646 11.6234 36.4646Z" fill="url(#paint4_linear_3940_9581)"/>
<path d="M32.8148 25.2749C27.0038 25.2749 22.2773 30.0014 22.2773 35.8124C22.2773 41.6234 27.0038 46.3499 32.8148 46.3499C38.6258 46.3499 43.3523 41.6234 43.3523 35.8124C43.3523 30.0014 38.6258 25.2749 32.8148 25.2749ZM32.8148 43.6499C28.4933 43.6499 24.9773 40.1339 24.9773 35.8124C24.9773 31.4909 28.4933 27.9749 32.8148 27.9749C37.1363 27.9749 40.6523 31.4909 40.6523 35.8124C40.6523 40.1339 37.1363 43.6499 32.8148 43.6499Z" fill="black"/>
<path d="M32.8148 25.2749C27.0038 25.2749 22.2773 30.0014 22.2773 35.8124C22.2773 41.6234 27.0038 46.3499 32.8148 46.3499C38.6258 46.3499 43.3523 41.6234 43.3523 35.8124C43.3523 30.0014 38.6258 25.2749 32.8148 25.2749ZM32.8148 43.6499C28.4933 43.6499 24.9773 40.1339 24.9773 35.8124C24.9773 31.4909 28.4933 27.9749 32.8148 27.9749C37.1363 27.9749 40.6523 31.4909 40.6523 35.8124C40.6523 40.1339 37.1363 43.6499 32.8148 43.6499Z" fill="url(#paint5_linear_3940_9581)"/>
<path d="M33.8184 31.4128C33.5619 31.1293 33.1974 30.9658 32.8149 30.9658C32.4324 30.9658 32.0679 31.1278 31.8114 31.4128L29.5404 33.9343C29.0409 34.4878 29.0859 35.3413 29.6409 35.8408C30.1674 36.3148 30.9594 36.2818 31.4649 35.8018V39.3088C31.4649 40.0543 32.0694 40.6588 32.8149 40.6588C33.5604 40.6588 34.1649 40.0543 34.1649 39.3088V35.8003C34.4229 36.0463 34.7484 36.1873 35.0859 36.1873C35.4069 36.1873 35.7309 36.0733 35.9889 35.8408C36.5439 35.3413 36.5874 34.4893 36.0894 33.9343L33.8184 31.4128Z" fill="black"/>
<path d="M33.8184 31.4128C33.5619 31.1293 33.1974 30.9658 32.8149 30.9658C32.4324 30.9658 32.0679 31.1278 31.8114 31.4128L29.5404 33.9343C29.0409 34.4878 29.0859 35.3413 29.6409 35.8408C30.1674 36.3148 30.9594 36.2818 31.4649 35.8018V39.3088C31.4649 40.0543 32.0694 40.6588 32.8149 40.6588C33.5604 40.6588 34.1649 40.0543 34.1649 39.3088V35.8003C34.4229 36.0463 34.7484 36.1873 35.0859 36.1873C35.4069 36.1873 35.7309 36.0733 35.9889 35.8408C36.5439 35.3413 36.5874 34.4893 36.0894 33.9343L33.8184 31.4128Z" fill="url(#paint6_linear_3940_9581)"/>
<defs>
<linearGradient id="paint0_linear_3940_9581" x1="-0.666562" y1="5.4066" x2="47.1993" y2="31.2723" gradientUnits="userSpaceOnUse">
<stop stop-color="#4BFFAE"/>
<stop offset="1" stop-color="#1F75FF"/>
</linearGradient>
<linearGradient id="paint1_linear_3940_9581" x1="6.83909" y1="19.4696" x2="8.1433" y2="26.5742" gradientUnits="userSpaceOnUse">
<stop stop-color="#4BFFAE"/>
<stop offset="1" stop-color="#1F75FF"/>
</linearGradient>
<linearGradient id="paint2_linear_3940_9581" x1="8.62934" y1="12.2035" x2="11.0822" y2="18.6081" gradientUnits="userSpaceOnUse">
<stop stop-color="#4BFFAE"/>
<stop offset="1" stop-color="#1F75FF"/>
</linearGradient>
<linearGradient id="paint3_linear_3940_9581" x1="8.29594" y1="26.7311" x2="10.4232" y2="33.3961" gradientUnits="userSpaceOnUse">
<stop stop-color="#4BFFAE"/>
<stop offset="1" stop-color="#1F75FF"/>
</linearGradient>
<linearGradient id="paint4_linear_3940_9581" x1="8.69594" y1="34.0057" x2="11.2288" y2="40.3363" gradientUnits="userSpaceOnUse">
<stop stop-color="#4BFFAE"/>
<stop offset="1" stop-color="#1F75FF"/>
</linearGradient>
<linearGradient id="paint5_linear_3940_9581" x1="18.7648" y1="27.1566" x2="45.8613" y2="46.4753" gradientUnits="userSpaceOnUse">
<stop stop-color="#4BFFAE"/>
<stop offset="1" stop-color="#1F75FF"/>
</linearGradient>
<linearGradient id="paint6_linear_3940_9581" x1="27.9863" y1="31.8313" x2="38.9267" y2="37.6594" gradientUnits="userSpaceOnUse">
<stop stop-color="#4BFFAE"/>
<stop offset="1" stop-color="#1F75FF"/>
</linearGradient>
</defs>
</svg>
