<svg width="48" height="48" viewBox="0 0 48 48" fill="none" xmlns="http://www.w3.org/2000/svg">
<path d="M36.2237 27.6546C36.9275 27.5666 37.4556 26.9684 37.4556 26.2592V21.7405C37.4556 21.0314 36.9275 20.4331 36.2237 20.3452L34.5083 20.1307C34.4053 19.8513 34.2912 19.576 34.166 19.3054L35.2276 17.9401C35.663 17.3802 35.6133 16.5838 35.1119 16.0825L31.9165 12.8873C31.4149 12.3859 30.6184 12.3362 30.0587 12.7718L28.6937 13.8335C28.4233 13.7083 28.1479 13.594 27.8683 13.4911L27.6541 11.7757C27.5662 11.0719 26.968 10.5437 26.2587 10.5437H21.7399C21.0307 10.5437 20.4325 11.0719 20.3444 11.7757L20.1302 13.491C19.8509 13.5941 19.5755 13.7083 19.3048 13.8336L17.9398 12.7718C17.3799 12.3364 16.5837 12.3859 16.0821 12.8873L12.8866 16.0825C12.3852 16.5839 12.3356 17.3803 12.7709 17.9401L13.8327 19.3056C13.7075 19.5762 13.5932 19.8515 13.4904 20.1307L11.7748 20.3452C11.0711 20.4331 10.543 21.0313 10.543 21.7405V26.2593C10.543 26.9684 11.0711 27.5667 11.7748 27.6547L13.4903 27.8692C13.5933 28.1485 13.7074 28.4239 13.8326 28.6945L12.7709 30.0597C12.3356 30.6196 12.3852 31.416 12.8866 31.9174L16.0821 35.1126C16.5837 35.614 17.3802 35.6635 17.9398 35.2281L19.3048 34.1664C19.5753 34.2915 19.8507 34.4058 20.1302 34.5087L20.3444 36.2242C20.4324 36.928 21.0306 37.4561 21.7399 37.4561H26.2587C26.9679 37.4561 27.5661 36.928 27.6541 36.2242L27.8683 34.5088C28.1476 34.4057 28.4231 34.2915 28.6937 34.1663L30.0587 35.2281C30.6187 35.6635 31.4149 35.614 31.9165 35.1126L35.1119 31.9174C35.6134 31.4159 35.663 30.6195 35.2276 30.0597L34.1659 28.6943C34.2911 28.4236 34.4053 28.1484 34.5082 27.8692L36.2237 27.6546ZM33.2698 25.1895C32.7045 25.2602 32.2377 25.6649 32.0877 26.2147C31.9039 26.888 31.6334 27.5399 31.2839 28.1522C31.0015 28.6468 31.0453 29.263 31.3951 29.7127L32.2454 30.8063L30.8057 32.246L29.7122 31.3954C29.2622 31.0454 28.6456 31.0017 28.1509 31.2845C27.5402 31.6337 26.8884 31.9041 26.2136 32.0885C25.6641 32.2387 25.2594 32.7055 25.1887 33.2707L25.0172 34.6436H22.9816L22.8102 33.2707C22.7395 32.7055 22.335 32.2388 21.7856 32.0886C21.1092 31.9036 20.4574 31.6332 19.8483 31.2848C19.3536 31.0015 18.7368 31.0453 18.2866 31.3954L17.1931 32.246L15.7534 30.8063L16.6037 29.7127C16.9535 29.2628 16.9973 28.6463 16.7145 28.1515C16.3658 27.5414 16.0954 26.8898 15.9112 26.2146C15.7611 25.665 15.2943 25.2602 14.729 25.1896L13.3558 25.018V22.982L14.729 22.8103C15.2943 22.7396 15.7612 22.3349 15.9112 21.7852C16.0949 21.1119 16.3654 20.4599 16.7149 19.8476C16.9974 19.353 16.9535 18.7368 16.6037 18.2872L15.7534 17.1936L17.1931 15.7539L18.2866 16.6045C18.7365 16.9542 19.353 16.998 19.8479 16.7154C20.4586 16.3661 21.1105 16.0958 21.7853 15.9114C22.3347 15.7612 22.7395 15.2944 22.8102 14.7292L22.9816 13.3562H25.0172L25.1887 14.7292C25.2594 15.2943 25.6638 15.7611 26.2133 15.9113C26.8897 16.0962 27.5414 16.3666 28.1505 16.7151C28.6453 16.9984 29.2621 16.9546 29.7122 16.6045L30.8057 15.7539L32.2454 17.1936L31.3951 18.2872C31.0453 18.7371 31.0016 19.3536 31.2843 19.8483C31.6331 20.4584 31.9034 21.1101 32.0877 21.7853C32.2377 22.3348 32.7045 22.7396 33.2698 22.8102L34.643 22.9819V25.0179L33.2698 25.1895Z" fill="black"/>
<path d="M36.2237 27.6546C36.9275 27.5666 37.4556 26.9684 37.4556 26.2592V21.7405C37.4556 21.0314 36.9275 20.4331 36.2237 20.3452L34.5083 20.1307C34.4053 19.8513 34.2912 19.576 34.166 19.3054L35.2276 17.9401C35.663 17.3802 35.6133 16.5838 35.1119 16.0825L31.9165 12.8873C31.4149 12.3859 30.6184 12.3362 30.0587 12.7718L28.6937 13.8335C28.4233 13.7083 28.1479 13.594 27.8683 13.4911L27.6541 11.7757C27.5662 11.0719 26.968 10.5437 26.2587 10.5437H21.7399C21.0307 10.5437 20.4325 11.0719 20.3444 11.7757L20.1302 13.491C19.8509 13.5941 19.5755 13.7083 19.3048 13.8336L17.9398 12.7718C17.3799 12.3364 16.5837 12.3859 16.0821 12.8873L12.8866 16.0825C12.3852 16.5839 12.3356 17.3803 12.7709 17.9401L13.8327 19.3056C13.7075 19.5762 13.5932 19.8515 13.4904 20.1307L11.7748 20.3452C11.0711 20.4331 10.543 21.0313 10.543 21.7405V26.2593C10.543 26.9684 11.0711 27.5667 11.7748 27.6547L13.4903 27.8692C13.5933 28.1485 13.7074 28.4239 13.8326 28.6945L12.7709 30.0597C12.3356 30.6196 12.3852 31.416 12.8866 31.9174L16.0821 35.1126C16.5837 35.614 17.3802 35.6635 17.9398 35.2281L19.3048 34.1664C19.5753 34.2915 19.8507 34.4058 20.1302 34.5087L20.3444 36.2242C20.4324 36.928 21.0306 37.4561 21.7399 37.4561H26.2587C26.9679 37.4561 27.5661 36.928 27.6541 36.2242L27.8683 34.5088C28.1476 34.4057 28.4231 34.2915 28.6937 34.1663L30.0587 35.2281C30.6187 35.6635 31.4149 35.614 31.9165 35.1126L35.1119 31.9174C35.6134 31.4159 35.663 30.6195 35.2276 30.0597L34.1659 28.6943C34.2911 28.4236 34.4053 28.1484 34.5082 27.8692L36.2237 27.6546ZM33.2698 25.1895C32.7045 25.2602 32.2377 25.6649 32.0877 26.2147C31.9039 26.888 31.6334 27.5399 31.2839 28.1522C31.0015 28.6468 31.0453 29.263 31.3951 29.7127L32.2454 30.8063L30.8057 32.246L29.7122 31.3954C29.2622 31.0454 28.6456 31.0017 28.1509 31.2845C27.5402 31.6337 26.8884 31.9041 26.2136 32.0885C25.6641 32.2387 25.2594 32.7055 25.1887 33.2707L25.0172 34.6436H22.9816L22.8102 33.2707C22.7395 32.7055 22.335 32.2388 21.7856 32.0886C21.1092 31.9036 20.4574 31.6332 19.8483 31.2848C19.3536 31.0015 18.7368 31.0453 18.2866 31.3954L17.1931 32.246L15.7534 30.8063L16.6037 29.7127C16.9535 29.2628 16.9973 28.6463 16.7145 28.1515C16.3658 27.5414 16.0954 26.8898 15.9112 26.2146C15.7611 25.665 15.2943 25.2602 14.729 25.1896L13.3558 25.018V22.982L14.729 22.8103C15.2943 22.7396 15.7612 22.3349 15.9112 21.7852C16.0949 21.1119 16.3654 20.4599 16.7149 19.8476C16.9974 19.353 16.9535 18.7368 16.6037 18.2872L15.7534 17.1936L17.1931 15.7539L18.2866 16.6045C18.7365 16.9542 19.353 16.998 19.8479 16.7154C20.4586 16.3661 21.1105 16.0958 21.7853 15.9114C22.3347 15.7612 22.7395 15.2944 22.8102 14.7292L22.9816 13.3562H25.0172L25.1887 14.7292C25.2594 15.2943 25.6638 15.7611 26.2133 15.9113C26.8897 16.0962 27.5414 16.3666 28.1505 16.7151C28.6453 16.9984 29.2621 16.9546 29.7122 16.6045L30.8057 15.7539L32.2454 17.1936L31.3951 18.2872C31.0453 18.7371 31.0016 19.3536 31.2843 19.8483C31.6331 20.4584 31.9034 21.1101 32.0877 21.7853C32.2377 22.3348 32.7045 22.7396 33.2698 22.8102L34.643 22.9819V25.0179L33.2698 25.1895Z" fill="url(#paint0_linear_3931_5070)"/>
<path d="M24 18.8281C21.1483 18.8281 18.8281 21.1483 18.8281 24C19.0882 30.8518 28.9129 30.85 29.1719 23.9999C29.1719 21.1483 26.8518 18.8281 24 18.8281ZM24 26.3594C22.6991 26.3594 21.6406 25.301 21.6406 24C21.7592 20.8742 26.2413 20.8752 26.3594 24C26.3594 25.301 25.301 26.3594 24 26.3594Z" fill="black"/>
<path d="M24 18.8281C21.1483 18.8281 18.8281 21.1483 18.8281 24C19.0882 30.8518 28.9129 30.85 29.1719 23.9999C29.1719 21.1483 26.8518 18.8281 24 18.8281ZM24 26.3594C22.6991 26.3594 21.6406 25.301 21.6406 24C21.7592 20.8742 26.2413 20.8752 26.3594 24C26.3594 25.301 25.301 26.3594 24 26.3594Z" fill="url(#paint1_linear_3931_5070)"/>
<path d="M7.94311 31.29L6.57811 32.655V24C6.57811 14.3781 14.3781 6.57812 24 6.57812H36.0499C37.9138 6.50894 37.9124 3.83416 36.0499 3.76562H24C12.8249 3.76562 3.76561 12.8249 3.76561 24V32.655L2.40061 31.29C1.85152 30.7409 0.961078 30.7409 0.411891 31.29C-0.137297 31.8391 -0.137297 32.7295 0.411891 33.2787L4.17755 37.0443C4.70105 37.5891 5.64277 37.589 6.16627 37.0443L9.93183 33.2787C10.481 32.7296 10.481 31.8392 9.93183 31.29C9.38264 30.7408 8.4922 30.7408 7.94311 31.29Z" fill="black"/>
<path d="M7.94311 31.29L6.57811 32.655V24C6.57811 14.3781 14.3781 6.57812 24 6.57812H36.0499C37.9138 6.50894 37.9124 3.83416 36.0499 3.76562H24C12.8249 3.76562 3.76561 12.8249 3.76561 24V32.655L2.40061 31.29C1.85152 30.7409 0.961078 30.7409 0.411891 31.29C-0.137297 31.8391 -0.137297 32.7295 0.411891 33.2787L4.17755 37.0443C4.70105 37.5891 5.64277 37.589 6.16627 37.0443L9.93183 33.2787C10.481 32.7296 10.481 31.8392 9.93183 31.29C9.38264 30.7408 8.4922 30.7408 7.94311 31.29Z" fill="url(#paint2_linear_3931_5070)"/>
<path d="M47.5881 14.7213L43.8225 10.9557C43.299 10.4109 42.3572 10.411 41.8337 10.9557L38.0682 14.7213C37.519 15.2704 37.519 16.1609 38.0682 16.71C38.6173 17.2591 39.5077 17.2591 40.0569 16.71L41.4219 15.345V24C41.4219 33.6219 33.6219 41.4219 24.0001 41.4219H11.9501C10.0862 41.4911 10.0877 44.1659 11.9501 44.2344H24.0001C35.1752 44.2344 44.2344 35.1751 44.2344 24V15.345L45.5995 16.7101C46.1486 17.2592 47.039 17.2592 47.5882 16.7101C48.1374 16.161 48.1374 15.2705 47.5881 14.7213Z" fill="black"/>
<path d="M47.5881 14.7213L43.8225 10.9557C43.299 10.4109 42.3572 10.411 41.8337 10.9557L38.0682 14.7213C37.519 15.2704 37.519 16.1609 38.0682 16.71C38.6173 17.2591 39.5077 17.2591 40.0569 16.71L41.4219 15.345V24C41.4219 33.6219 33.6219 41.4219 24.0001 41.4219H11.9501C10.0862 41.4911 10.0877 44.1659 11.9501 44.2344H24.0001C35.1752 44.2344 44.2344 35.1751 44.2344 24V15.345L45.5995 16.7101C46.1486 17.2592 47.039 17.2592 47.5882 16.7101C48.1374 16.161 48.1374 15.2705 47.5881 14.7213Z" fill="url(#paint3_linear_3931_5070)"/>
<defs>
<linearGradient id="paint0_linear_3931_5070" x1="6.05753" y1="12.9466" x2="40.6593" y2="37.6166" gradientUnits="userSpaceOnUse">
<stop stop-color="#4BFFAE"/>
<stop offset="1" stop-color="#1F75FF"/>
</linearGradient>
<linearGradient id="paint1_linear_3931_5070" x1="17.1042" y1="19.7487" x2="30.374" y2="29.2406" gradientUnits="userSpaceOnUse">
<stop stop-color="#4BFFAE"/>
<stop offset="1" stop-color="#1F75FF"/>
</linearGradient>
<linearGradient id="paint2_linear_3931_5070" x1="-6.24121" y1="6.77342" x2="38.3625" y2="42.1236" gradientUnits="userSpaceOnUse">
<stop stop-color="#4BFFAE"/>
<stop offset="1" stop-color="#1F75FF"/>
</linearGradient>
<linearGradient id="paint3_linear_3931_5070" x1="4.31151" y1="13.5549" x2="48.9152" y2="48.9052" gradientUnits="userSpaceOnUse">
<stop stop-color="#4BFFAE"/>
<stop offset="1" stop-color="#1F75FF"/>
</linearGradient>
</defs>
</svg>
