<svg width="48" height="48" viewBox="0 0 48 48" fill="none" xmlns="http://www.w3.org/2000/svg">
<path fill-rule="evenodd" clip-rule="evenodd" d="M6.5 32C7.32842 32 8 32.6716 8 33.5V39.5C8 40.3284 8.67156 41 9.5 41H15.5C16.3284 41 17 41.6716 17 42.5C17 43.3284 16.3284 44 15.5 44H9.5C7.01474 44 5 41.9854 5 39.5V33.5C5 32.6716 5.67158 32 6.5 32Z" fill="url(#paint0_linear_3778_8035)"/>
<path fill-rule="evenodd" clip-rule="evenodd" d="M42.5 32C43.3284 32 44 32.6716 44 33.5V39.5C44 41.9854 41.9854 44 39.5 44H33.5C32.6716 44 32 43.3284 32 42.5C32 41.6716 32.6716 41 33.5 41H39.5C40.3284 41 41 40.3284 41 39.5V33.5C41 32.6716 41.6716 32 42.5 32Z" fill="url(#paint1_linear_3778_8035)"/>
<path fill-rule="evenodd" clip-rule="evenodd" d="M32 6.5C32 5.67158 32.6716 5 33.5 5H39.5C41.9854 5 44 7.01474 44 9.5V15.5C44 16.3284 43.3284 17 42.5 17C41.6716 17 41 16.3284 41 15.5V9.5C41 8.67156 40.3284 8 39.5 8H33.5C32.6716 8 32 7.32842 32 6.5Z" fill="url(#paint2_linear_3778_8035)"/>
<path fill-rule="evenodd" clip-rule="evenodd" d="M9.5 8C8.67158 8 8 8.67158 8 9.5V15.5C8 16.3284 7.32842 17 6.5 17C5.67158 17 5 16.3284 5 15.5V9.5C5 7.01472 7.01472 5 9.5 5H15.5C16.3284 5 17 5.67158 17 6.5C17 7.32842 16.3284 8 15.5 8H9.5Z" fill="url(#paint3_linear_3778_8035)"/>
<path d="M12 13.3472V16.0417C12 16.7857 12.6032 17.3889 13.3472 17.3889C14.0913 17.3889 14.6944 16.7857 14.6944 16.0417V14.6944H17.3889V22.7778H16.0417C15.2976 22.7778 14.6944 23.3809 14.6944 24.125C14.6944 24.8691 15.2976 25.4722 16.0417 25.4722H21.4306C22.1746 25.4722 22.7778 24.8691 22.7778 24.125C22.7778 23.3809 22.1746 22.7778 21.4306 22.7778H20.0833V14.6944H22.7778V16.0417C22.7778 16.7857 23.3809 17.3889 24.125 17.3889C24.8691 17.3889 25.4722 16.7857 25.4722 16.0417V13.3472C25.4722 12.6032 24.8691 12 24.125 12H13.3472C12.6032 12 12 12.6032 12 13.3472Z" fill="black"/>
<path d="M12 13.3472V16.0417C12 16.7857 12.6032 17.3889 13.3472 17.3889C14.0913 17.3889 14.6944 16.7857 14.6944 16.0417V14.6944H17.3889V22.7778H16.0417C15.2976 22.7778 14.6944 23.3809 14.6944 24.125C14.6944 24.8691 15.2976 25.4722 16.0417 25.4722H21.4306C22.1746 25.4722 22.7778 24.8691 22.7778 24.125C22.7778 23.3809 22.1746 22.7778 21.4306 22.7778H20.0833V14.6944H22.7778V16.0417C22.7778 16.7857 23.3809 17.3889 24.125 17.3889C24.8691 17.3889 25.4722 16.7857 25.4722 16.0417V13.3472C25.4722 12.6032 24.8691 12 24.125 12H13.3472C12.6032 12 12 12.6032 12 13.3472Z" fill="url(#paint4_linear_3778_8035)"/>
<path d="M34.9028 28.1667H13.3472C12.6032 28.1667 12 28.7699 12 29.514C12 30.258 12.6032 30.8612 13.3472 30.8612H34.9028C35.6468 30.8612 36.25 30.258 36.25 29.514C36.25 28.7699 35.6468 28.1667 34.9028 28.1667Z" fill="black"/>
<path d="M34.9028 28.1667H13.3472C12.6032 28.1667 12 28.7699 12 29.514C12 30.258 12.6032 30.8612 13.3472 30.8612H34.9028C35.6468 30.8612 36.25 30.258 36.25 29.514C36.25 28.7699 35.6468 28.1667 34.9028 28.1667Z" fill="url(#paint5_linear_3778_8035)"/>
<path d="M34.9028 33.5557H13.3472C12.6032 33.5557 12 34.1588 12 34.9029C12 35.647 12.6032 36.2501 13.3472 36.2501H34.9028C35.6468 36.2501 36.25 35.647 36.25 34.9029C36.25 34.1588 35.6468 33.5557 34.9028 33.5557Z" fill="black"/>
<path d="M34.9028 33.5557H13.3472C12.6032 33.5557 12 34.1588 12 34.9029C12 35.647 12.6032 36.2501 13.3472 36.2501H34.9028C35.6468 36.2501 36.25 35.647 36.25 34.9029C36.25 34.1588 35.6468 33.5557 34.9028 33.5557Z" fill="url(#paint6_linear_3778_8035)"/>
<path d="M29.5137 25.4723H34.9026C35.6467 25.4723 36.2498 24.8691 36.2498 24.1251C36.2498 23.381 35.6467 22.7778 34.9026 22.7778H29.5137C28.7697 22.7778 28.1665 23.381 28.1665 24.1251C28.1665 24.8691 28.7697 25.4723 29.5137 25.4723Z" fill="black"/>
<path d="M29.5137 25.4723H34.9026C35.6467 25.4723 36.2498 24.8691 36.2498 24.1251C36.2498 23.381 35.6467 22.7778 34.9026 22.7778H29.5137C28.7697 22.7778 28.1665 23.381 28.1665 24.1251C28.1665 24.8691 28.7697 25.4723 29.5137 25.4723Z" fill="url(#paint7_linear_3778_8035)"/>
<path d="M29.5137 20.0834H34.9026C35.6467 20.0834 36.2498 19.4802 36.2498 18.7361C36.2498 17.9921 35.6467 17.3889 34.9026 17.3889H29.5137C28.7697 17.3889 28.1665 17.9921 28.1665 18.7361C28.1665 19.4802 28.7697 20.0834 29.5137 20.0834Z" fill="black"/>
<path d="M29.5137 20.0834H34.9026C35.6467 20.0834 36.2498 19.4802 36.2498 18.7361C36.2498 17.9921 35.6467 17.3889 34.9026 17.3889H29.5137C28.7697 17.3889 28.1665 17.9921 28.1665 18.7361C28.1665 19.4802 28.7697 20.0834 29.5137 20.0834Z" fill="url(#paint8_linear_3778_8035)"/>
<path d="M29.5137 14.6944H34.9026C35.6467 14.6944 36.2498 14.0913 36.2498 13.3472C36.2498 12.6032 35.6467 12 34.9026 12H29.5137C28.7697 12 28.1665 12.6032 28.1665 13.3472C28.1665 14.0913 28.7697 14.6944 29.5137 14.6944Z" fill="black"/>
<path d="M29.5137 14.6944H34.9026C35.6467 14.6944 36.2498 14.0913 36.2498 13.3472C36.2498 12.6032 35.6467 12 34.9026 12H29.5137C28.7697 12 28.1665 12.6032 28.1665 13.3472C28.1665 14.0913 28.7697 14.6944 29.5137 14.6944Z" fill="url(#paint9_linear_3778_8035)"/>
<defs>
<linearGradient id="paint0_linear_3778_8035" x1="3" y1="33.0714" x2="18.4286" y2="44.0714" gradientUnits="userSpaceOnUse">
<stop stop-color="#4BFFAE"/>
<stop offset="1" stop-color="#1F75FF"/>
</linearGradient>
<linearGradient id="paint1_linear_3778_8035" x1="30" y1="33.0714" x2="45.4286" y2="44.0714" gradientUnits="userSpaceOnUse">
<stop stop-color="#4BFFAE"/>
<stop offset="1" stop-color="#1F75FF"/>
</linearGradient>
<linearGradient id="paint2_linear_3778_8035" x1="30" y1="6.07143" x2="45.4286" y2="17.0714" gradientUnits="userSpaceOnUse">
<stop stop-color="#4BFFAE"/>
<stop offset="1" stop-color="#1F75FF"/>
</linearGradient>
<linearGradient id="paint3_linear_3778_8035" x1="3" y1="6.07143" x2="18.4286" y2="17.0714" gradientUnits="userSpaceOnUse">
<stop stop-color="#4BFFAE"/>
<stop offset="1" stop-color="#1F75FF"/>
</linearGradient>
<linearGradient id="paint4_linear_3778_8035" x1="9.75463" y1="13.2029" x2="27.0761" y2="25.5524" gradientUnits="userSpaceOnUse">
<stop stop-color="#4BFFAE"/>
<stop offset="1" stop-color="#1F75FF"/>
</linearGradient>
<linearGradient id="paint5_linear_3778_8035" x1="7.95833" y1="28.4073" x2="9.07342" y2="35.5624" gradientUnits="userSpaceOnUse">
<stop stop-color="#4BFFAE"/>
<stop offset="1" stop-color="#1F75FF"/>
</linearGradient>
<linearGradient id="paint6_linear_3778_8035" x1="7.95833" y1="33.7962" x2="9.07342" y2="40.9514" gradientUnits="userSpaceOnUse">
<stop stop-color="#4BFFAE"/>
<stop offset="1" stop-color="#1F75FF"/>
</linearGradient>
<linearGradient id="paint7_linear_3778_8035" x1="26.8193" y1="23.0184" x2="29.6311" y2="29.0327" gradientUnits="userSpaceOnUse">
<stop stop-color="#4BFFAE"/>
<stop offset="1" stop-color="#1F75FF"/>
</linearGradient>
<linearGradient id="paint8_linear_3778_8035" x1="26.8193" y1="17.6295" x2="29.6311" y2="23.6438" gradientUnits="userSpaceOnUse">
<stop stop-color="#4BFFAE"/>
<stop offset="1" stop-color="#1F75FF"/>
</linearGradient>
<linearGradient id="paint9_linear_3778_8035" x1="26.8193" y1="12.2406" x2="29.6311" y2="18.2548" gradientUnits="userSpaceOnUse">
<stop stop-color="#4BFFAE"/>
<stop offset="1" stop-color="#1F75FF"/>
</linearGradient>
</defs>
</svg>
