<svg width="48" height="49" viewBox="0 0 48 49" fill="none" xmlns="http://www.w3.org/2000/svg">
<path fill-rule="evenodd" clip-rule="evenodd" d="M6.5 32.75C7.32842 32.75 8 33.4216 8 34.25V40.25C8 41.0784 8.67156 41.75 9.5 41.75H15.5C16.3284 41.75 17 42.4216 17 43.25C17 44.0784 16.3284 44.75 15.5 44.75H9.5C7.01474 44.75 5 42.7354 5 40.25V34.25C5 33.4216 5.67158 32.75 6.5 32.75Z" fill="url(#paint0_linear_3778_8003)"/>
<path fill-rule="evenodd" clip-rule="evenodd" d="M42.5 32.75C43.3284 32.75 44 33.4216 44 34.25V40.25C44 42.7354 41.9854 44.75 39.5 44.75H33.5C32.6716 44.75 32 44.0784 32 43.25C32 42.4216 32.6716 41.75 33.5 41.75H39.5C40.3284 41.75 41 41.0784 41 40.25V34.25C41 33.4216 41.6716 32.75 42.5 32.75Z" fill="url(#paint1_linear_3778_8003)"/>
<path fill-rule="evenodd" clip-rule="evenodd" d="M32 7.25C32 6.42158 32.6716 5.75 33.5 5.75H39.5C41.9854 5.75 44 7.76474 44 10.25V16.25C44 17.0784 43.3284 17.75 42.5 17.75C41.6716 17.75 41 17.0784 41 16.25V10.25C41 9.42156 40.3284 8.75 39.5 8.75H33.5C32.6716 8.75 32 8.07842 32 7.25Z" fill="url(#paint2_linear_3778_8003)"/>
<path fill-rule="evenodd" clip-rule="evenodd" d="M9.5 8.75C8.67158 8.75 8 9.42158 8 10.25V16.25C8 17.0784 7.32842 17.75 6.5 17.75C5.67158 17.75 5 17.0784 5 16.25V10.25C5 7.76472 7.01472 5.75 9.5 5.75H15.5C16.3284 5.75 17 6.42158 17 7.25C17 8.07842 16.3284 8.75 15.5 8.75H9.5Z" fill="url(#paint3_linear_3778_8003)"/>
<path fill-rule="evenodd" clip-rule="evenodd" d="M13.0711 37.0358H34.9283C35.5994 37.0358 36.1426 36.4926 36.1426 35.8215V24.893H39.7858C40.457 24.893 41.0001 24.3499 41.0001 23.6787C41.0001 23.0076 40.457 22.4644 39.7858 22.4644H36.1426V13.9643C36.1426 13.2932 35.5994 12.75 34.9283 12.75H13.0711C12.4 12.75 11.8568 13.2932 11.8568 13.9643V22.4644H8.21429C7.54315 22.4644 7 23.0076 7 23.6787C7 24.3499 7.54315 24.893 8.21429 24.893H11.8568V35.8215C11.8568 36.4926 12.4 37.0358 13.0711 37.0358ZM14.2854 24.893V30.034L18.5176 27.4946C18.9742 27.2207 19.5528 27.2764 19.9489 27.6287L24.407 31.5915L27.4357 28.8501C27.8982 28.4291 28.6049 28.4316 29.0674 28.8513L33.714 33.0755V24.893H14.2854ZM14.2854 22.4644V15.1786H33.714V22.4644H23.7921C23.9268 22.0845 24.0002 21.6757 24.0002 21.2501C24.0002 19.2413 22.3661 17.6072 20.3573 17.6072C18.3485 17.6072 16.7144 19.2413 16.7144 21.2501C16.7144 21.6757 16.7878 22.0845 16.9225 22.4644H14.2854ZM24.1459 34.6072H14.2854V32.8661L19.0026 30.0358L24.1459 34.6072ZM27.7997 34.6072H31.7875L28.2491 31.3902L26.2327 33.2143L27.7997 34.6072ZM20.3573 20.0358C19.6873 20.0358 19.143 20.58 19.143 21.2501C19.143 21.9201 19.6873 22.4644 20.3573 22.4644C21.0273 22.4644 21.5716 21.9201 21.5716 21.2501C21.5716 20.58 21.0273 20.0358 20.3573 20.0358Z" fill="url(#paint4_linear_3778_8003)"/>
<defs>
<linearGradient id="paint0_linear_3778_8003" x1="3" y1="33.8214" x2="18.4286" y2="44.8214" gradientUnits="userSpaceOnUse">
<stop stop-color="#4BFFAE"/>
<stop offset="1" stop-color="#1F75FF"/>
</linearGradient>
<linearGradient id="paint1_linear_3778_8003" x1="30" y1="33.8214" x2="45.4286" y2="44.8214" gradientUnits="userSpaceOnUse">
<stop stop-color="#4BFFAE"/>
<stop offset="1" stop-color="#1F75FF"/>
</linearGradient>
<linearGradient id="paint2_linear_3778_8003" x1="30" y1="6.82143" x2="45.4286" y2="17.8214" gradientUnits="userSpaceOnUse">
<stop stop-color="#4BFFAE"/>
<stop offset="1" stop-color="#1F75FF"/>
</linearGradient>
<linearGradient id="paint3_linear_3778_8003" x1="3" y1="6.82143" x2="18.4286" y2="17.8214" gradientUnits="userSpaceOnUse">
<stop stop-color="#4BFFAE"/>
<stop offset="1" stop-color="#1F75FF"/>
</linearGradient>
<linearGradient id="paint4_linear_3778_8003" x1="7" y1="23.6786" x2="41.0001" y2="23.6786" gradientUnits="userSpaceOnUse">
<stop stop-color="#4BFFAE"/>
<stop offset="1" stop-color="#1F75FF"/>
</linearGradient>
</defs>
</svg>
