<svg width="48" height="48" viewBox="0 0 48 48" fill="none" xmlns="http://www.w3.org/2000/svg">
<path d="M45 8.25H41.25V5.25C41.25 4.83525 40.914 4.5 40.5 4.5H36.75V1.5C36.75 1.08525 36.414 0.75 36 0.75H9.75C9.55125 0.75 9.36 0.82875 9.21975 0.96975L3.96975 6.21975C3.82875 6.36 3.75 6.5505 3.75 6.75V39C3.75 39.4147 4.086 39.75 4.5 39.75H8.25V42.75C8.25 43.1647 8.586 43.5 9 43.5H12.75V46.5C12.75 46.9147 13.086 47.25 13.5 47.25H45C45.414 47.25 45.75 46.9147 45.75 46.5V9C45.75 8.58525 45.414 8.25 45 8.25ZM5.25 38.25V7.5H9.75C10.164 7.5 10.5 7.16475 10.5 6.75V4.5H9V6H6.3105L10.0605 2.25H35.25V4.5H14.25C14.0513 4.5 13.86 4.57875 13.7197 4.71975L8.46975 9.96975C8.32875 10.11 8.25 10.3005 8.25 10.5V38.25H5.25ZM9.75 42V11.25H14.25C14.664 11.25 15 10.9147 15 10.5V8.25H13.5V9.75H10.8105L14.5605 6H39.75V8.25H18.75C18.5513 8.25 18.36 8.32875 18.2197 8.46975L12.9697 13.7197C12.8287 13.86 12.75 14.0505 12.75 14.25V42H9.75ZM44.25 45.75H14.25V15H18.75C19.164 15 19.5 14.6647 19.5 14.25V12H18V13.5H15.3105L19.0605 9.75H44.25V45.75Z" fill="black"/>
<path d="M45 8.25H41.25V5.25C41.25 4.83525 40.914 4.5 40.5 4.5H36.75V1.5C36.75 1.08525 36.414 0.75 36 0.75H9.75C9.55125 0.75 9.36 0.82875 9.21975 0.96975L3.96975 6.21975C3.82875 6.36 3.75 6.5505 3.75 6.75V39C3.75 39.4147 4.086 39.75 4.5 39.75H8.25V42.75C8.25 43.1647 8.586 43.5 9 43.5H12.75V46.5C12.75 46.9147 13.086 47.25 13.5 47.25H45C45.414 47.25 45.75 46.9147 45.75 46.5V9C45.75 8.58525 45.414 8.25 45 8.25ZM5.25 38.25V7.5H9.75C10.164 7.5 10.5 7.16475 10.5 6.75V4.5H9V6H6.3105L10.0605 2.25H35.25V4.5H14.25C14.0513 4.5 13.86 4.57875 13.7197 4.71975L8.46975 9.96975C8.32875 10.11 8.25 10.3005 8.25 10.5V38.25H5.25ZM9.75 42V11.25H14.25C14.664 11.25 15 10.9147 15 10.5V8.25H13.5V9.75H10.8105L14.5605 6H39.75V8.25H18.75C18.5513 8.25 18.36 8.32875 18.2197 8.46975L12.9697 13.7197C12.8287 13.86 12.75 14.0505 12.75 14.25V42H9.75ZM44.25 45.75H14.25V15H18.75C19.164 15 19.5 14.6647 19.5 14.25V12H18V13.5H15.3105L19.0605 9.75H44.25V45.75Z" fill="url(#paint0_linear_3992_8173)"/>
<path d="M41.25 14.25H30.75C30.336 14.25 30 14.5853 30 15V27C30 27.4147 30.336 27.75 30.75 27.75H30.81H41.19H41.25C41.664 27.75 42 27.4147 42 27V15C42 14.5853 41.664 14.25 41.25 14.25ZM40.5 15.75V23.8027C39.8888 23.1082 39.123 22.557 38.2598 22.2023C38.715 21.6758 39 20.9985 39 20.25C39 18.5955 37.6545 17.25 36 17.25C34.3455 17.25 33 18.5955 33 20.25C33 20.9985 33.285 21.6757 33.7402 22.2015C32.877 22.5562 32.1112 23.1075 31.5 23.802V15.75H40.5ZM34.5 20.25C34.5 19.4227 35.1727 18.75 36 18.75C36.8273 18.75 37.5 19.4227 37.5 20.25C37.5 21.0773 36.8273 21.75 36 21.75C35.1727 21.75 34.5 21.0773 34.5 20.25ZM31.7617 26.25C32.3827 24.4912 34.074 23.25 36 23.25C37.926 23.25 39.6173 24.4912 40.2383 26.25H31.7617Z" fill="black"/>
<path d="M41.25 14.25H30.75C30.336 14.25 30 14.5853 30 15V27C30 27.4147 30.336 27.75 30.75 27.75H30.81H41.19H41.25C41.664 27.75 42 27.4147 42 27V15C42 14.5853 41.664 14.25 41.25 14.25ZM40.5 15.75V23.8027C39.8888 23.1082 39.123 22.557 38.2598 22.2023C38.715 21.6758 39 20.9985 39 20.25C39 18.5955 37.6545 17.25 36 17.25C34.3455 17.25 33 18.5955 33 20.25C33 20.9985 33.285 21.6757 33.7402 22.2015C32.877 22.5562 32.1112 23.1075 31.5 23.802V15.75H40.5ZM34.5 20.25C34.5 19.4227 35.1727 18.75 36 18.75C36.8273 18.75 37.5 19.4227 37.5 20.25C37.5 21.0773 36.8273 21.75 36 21.75C35.1727 21.75 34.5 21.0773 34.5 20.25ZM31.7617 26.25C32.3827 24.4912 34.074 23.25 36 23.25C37.926 23.25 39.6173 24.4912 40.2383 26.25H31.7617Z" fill="url(#paint1_linear_3992_8173)"/>
<path d="M19.5 24V26.25C19.5 26.6647 19.836 27 20.25 27H24C24.414 27 24.75 26.6647 24.75 26.25V24H27C27.414 24 27.75 23.6647 27.75 23.25V19.5C27.75 19.0853 27.414 18.75 27 18.75H24.75V16.5C24.75 16.0853 24.414 15.75 24 15.75H20.25C19.836 15.75 19.5 16.0853 19.5 16.5V18.75H17.25C16.836 18.75 16.5 19.0853 16.5 19.5V23.25C16.5 23.6647 16.836 24 17.25 24H19.5ZM18 20.25H20.25C20.664 20.25 21 19.9147 21 19.5V17.25H23.25V19.5C23.25 19.9147 23.586 20.25 24 20.25H26.25V22.5H24C23.586 22.5 23.25 22.8353 23.25 23.25V25.5H21V23.25C21 22.8353 20.664 22.5 20.25 22.5H18V20.25Z" fill="black"/>
<path d="M19.5 24V26.25C19.5 26.6647 19.836 27 20.25 27H24C24.414 27 24.75 26.6647 24.75 26.25V24H27C27.414 24 27.75 23.6647 27.75 23.25V19.5C27.75 19.0853 27.414 18.75 27 18.75H24.75V16.5C24.75 16.0853 24.414 15.75 24 15.75H20.25C19.836 15.75 19.5 16.0853 19.5 16.5V18.75H17.25C16.836 18.75 16.5 19.0853 16.5 19.5V23.25C16.5 23.6647 16.836 24 17.25 24H19.5ZM18 20.25H20.25C20.664 20.25 21 19.9147 21 19.5V17.25H23.25V19.5C23.25 19.9147 23.586 20.25 24 20.25H26.25V22.5H24C23.586 22.5 23.25 22.8353 23.25 23.25V25.5H21V23.25C21 22.8353 20.664 22.5 20.25 22.5H18V20.25Z" fill="url(#paint2_linear_3992_8173)"/>
<path d="M21.75 30H39.75V31.5H21.75V30Z" fill="black"/>
<path d="M21.75 30H39.75V31.5H21.75V30Z" fill="url(#paint3_linear_3992_8173)"/>
<path d="M18.75 33H39.75V34.5H18.75V33Z" fill="black"/>
<path d="M18.75 33H39.75V34.5H18.75V33Z" fill="url(#paint4_linear_3992_8173)"/>
<path d="M18.75 36H39.75V37.5H18.75V36Z" fill="black"/>
<path d="M18.75 36H39.75V37.5H18.75V36Z" fill="url(#paint5_linear_3992_8173)"/>
<path d="M17.25 42H26.25V43.5H17.25V42Z" fill="black"/>
<path d="M17.25 42H26.25V43.5H17.25V42Z" fill="url(#paint6_linear_3992_8173)"/>
<path d="M32.25 42H41.25V43.5H32.25V42Z" fill="black"/>
<path d="M32.25 42H41.25V43.5H32.25V42Z" fill="url(#paint7_linear_3992_8173)"/>
<path d="M40.5 11.25H42V12.75H40.5V11.25Z" fill="black"/>
<path d="M40.5 11.25H42V12.75H40.5V11.25Z" fill="url(#paint8_linear_3992_8173)"/>
<path d="M37.5 11.25H39V12.75H37.5V11.25Z" fill="black"/>
<path d="M37.5 11.25H39V12.75H37.5V11.25Z" fill="url(#paint9_linear_3992_8173)"/>
<path d="M34.5 11.25H36V12.75H34.5V11.25Z" fill="black"/>
<path d="M34.5 11.25H36V12.75H34.5V11.25Z" fill="url(#paint10_linear_3992_8173)"/>
<defs>
<linearGradient id="paint0_linear_3992_8173" x1="-3.25" y1="4.90179" x2="54.3237" y2="41.9773" gradientUnits="userSpaceOnUse">
<stop stop-color="#4BFFAE"/>
<stop offset="1" stop-color="#1F75FF"/>
</linearGradient>
<linearGradient id="paint1_linear_3992_8173" x1="28" y1="15.4554" x2="44.6029" y2="25.9774" gradientUnits="userSpaceOnUse">
<stop stop-color="#4BFFAE"/>
<stop offset="1" stop-color="#1F75FF"/>
</linearGradient>
<linearGradient id="paint2_linear_3992_8173" x1="14.625" y1="16.7545" x2="29.0893" y2="27.067" gradientUnits="userSpaceOnUse">
<stop stop-color="#4BFFAE"/>
<stop offset="1" stop-color="#1F75FF"/>
</linearGradient>
<linearGradient id="paint3_linear_3992_8173" x1="18.75" y1="30.1339" x2="19.2205" y2="34.1589" gradientUnits="userSpaceOnUse">
<stop stop-color="#4BFFAE"/>
<stop offset="1" stop-color="#1F75FF"/>
</linearGradient>
<linearGradient id="paint4_linear_3992_8173" x1="15.25" y1="33.1339" x2="15.6547" y2="37.1734" gradientUnits="userSpaceOnUse">
<stop stop-color="#4BFFAE"/>
<stop offset="1" stop-color="#1F75FF"/>
</linearGradient>
<linearGradient id="paint5_linear_3992_8173" x1="15.25" y1="36.1339" x2="15.6547" y2="40.1734" gradientUnits="userSpaceOnUse">
<stop stop-color="#4BFFAE"/>
<stop offset="1" stop-color="#1F75FF"/>
</linearGradient>
<linearGradient id="paint6_linear_3992_8173" x1="15.75" y1="42.1339" x2="16.6543" y2="46.0025" gradientUnits="userSpaceOnUse">
<stop stop-color="#4BFFAE"/>
<stop offset="1" stop-color="#1F75FF"/>
</linearGradient>
<linearGradient id="paint7_linear_3992_8173" x1="30.75" y1="42.1339" x2="31.6543" y2="46.0025" gradientUnits="userSpaceOnUse">
<stop stop-color="#4BFFAE"/>
<stop offset="1" stop-color="#1F75FF"/>
</linearGradient>
<linearGradient id="paint8_linear_3992_8173" x1="40.25" y1="11.3839" x2="42.1786" y2="12.7589" gradientUnits="userSpaceOnUse">
<stop stop-color="#4BFFAE"/>
<stop offset="1" stop-color="#1F75FF"/>
</linearGradient>
<linearGradient id="paint9_linear_3992_8173" x1="37.25" y1="11.3839" x2="39.1786" y2="12.7589" gradientUnits="userSpaceOnUse">
<stop stop-color="#4BFFAE"/>
<stop offset="1" stop-color="#1F75FF"/>
</linearGradient>
<linearGradient id="paint10_linear_3992_8173" x1="34.25" y1="11.3839" x2="36.1786" y2="12.7589" gradientUnits="userSpaceOnUse">
<stop stop-color="#4BFFAE"/>
<stop offset="1" stop-color="#1F75FF"/>
</linearGradient>
</defs>
</svg>
