<svg width="128" height="128" viewBox="0 0 128 128" fill="none" xmlns="http://www.w3.org/2000/svg">
<g clip-path="url(#clip0_1520_12958)">
<rect width="128" height="128" rx="38.4" fill="#28D1B3"/>
<path d="M69.0343 95.2921C67.3997 95.5817 65.7152 95.7312 63.9997 95.7312C48.0928 95.7312 35.1997 82.838 35.1997 66.9312C35.1997 55.1594 42.2634 45.0355 52.3845 40.5693" stroke="white" stroke-width="4.8" stroke-linecap="round" stroke-linejoin="round"/>
<path d="M63.9998 38.1318C79.9034 38.1318 92.7998 51.0282 92.7998 66.9318C92.7998 69.5971 92.4385 72.175 91.7598 74.6223" stroke="white" stroke-width="4.8" stroke-linecap="round" stroke-linejoin="round"/>
<path d="M83.0559 81.5752V93.2392" stroke="white" stroke-width="4.8" stroke-linecap="round" stroke-linejoin="round"/>
<path d="M88.8921 87.4131H77.2185" stroke="white" stroke-width="4.8" stroke-linecap="round" stroke-linejoin="round"/>
<path d="M55.4298 76.4076C55.3722 76.7724 55.433 77.1436 55.6058 77.47C56.0442 78.2988 57.0714 78.6124 57.897 78.174L62.9402 75.5596C63.4362 75.3036 64.0282 75.3036 64.5242 75.5596L69.5642 78.1708C69.8906 78.3436 70.2618 78.4076 70.6266 78.3468C71.5514 78.1996 72.1786 77.3292 72.0314 76.4044L71.065 70.8684C70.969 70.3244 71.1546 69.7676 71.5546 69.3868L75.6346 65.4636C75.9066 65.2012 76.0826 64.8556 76.1306 64.4812C76.2522 63.566 75.609 62.7276 74.6938 62.606L69.0522 61.7932C68.5018 61.7164 68.0218 61.374 67.7722 60.878L65.2506 55.838C65.0874 55.5244 64.8314 55.2684 64.5178 55.1052C63.6794 54.67 62.649 54.9996 62.2138 55.838L59.6858 60.878C59.4362 61.374 58.9594 61.7164 58.409 61.7964L52.7642 62.606C52.3898 62.6572 52.041 62.8332 51.7786 63.1052C51.1386 63.7708 51.161 64.8268 51.8234 65.4668L55.9098 69.3868" stroke="white" stroke-width="4.8" stroke-linecap="round" stroke-linejoin="round"/>
</g>
<defs>
<clipPath id="clip0_1520_12958">
<rect width="128" height="128" fill="white"/>
</clipPath>
</defs>
</svg>
