<svg width="24" height="24" viewBox="0 0 24 24" fill="none" xmlns="http://www.w3.org/2000/svg">
<path fill-rule="evenodd" clip-rule="evenodd" d="M7.98895 14.9696C7.98895 14.6536 8.05395 14.3526 8.16495 14.0766C8.13595 14.0736 8.10995 14.0596 8.07995 14.0596C7.57795 14.0596 7.16895 14.4676 7.16895 14.9696C7.16895 15.4706 7.57795 15.8786 8.07995 15.8786C8.10995 15.8786 8.13495 15.8656 8.16395 15.8636C8.05395 15.5866 7.98895 15.2856 7.98895 14.9696Z" fill="#838C9B"/>
<path fill-rule="evenodd" clip-rule="evenodd" d="M10.401 14.0596C9.89801 14.0596 9.48901 14.4676 9.48901 14.9696C9.48901 15.2216 9.59001 15.4496 9.75401 15.6156C9.76201 15.6236 9.77301 15.6256 9.78001 15.6336C9.78201 15.6346 9.78301 15.6376 9.78301 15.6376C9.94601 15.7916 10.161 15.8896 10.401 15.8896C10.904 15.8896 11.314 15.4766 11.314 14.9696C11.314 14.4676 10.904 14.0596 10.401 14.0596Z" fill="#838C9B"/>
<path fill-rule="evenodd" clip-rule="evenodd" d="M21.2002 9.07906C21.3659 9.07906 21.5002 8.94475 21.5002 8.77906V8.70906C21.5002 5.91606 19.7062 4.03906 17.0352 4.03906H6.96424C4.29424 4.03906 2.50024 5.91606 2.50024 8.70906V8.77906C2.50024 8.94475 2.63456 9.07906 2.80024 9.07906H21.2002Z" fill="#838C9B"/>
<path fill-rule="evenodd" clip-rule="evenodd" d="M10.401 17.3896C9.977 17.3896 9.584 17.2696 9.238 17.0766C8.887 17.2676 8.494 17.3786 8.08 17.3786C6.751 17.3786 5.669 16.2976 5.669 14.9696C5.669 13.6406 6.751 12.5596 8.08 12.5596C8.492 12.5596 8.888 12.6726 9.244 12.8686C9.589 12.6776 9.98 12.5596 10.401 12.5596C11.732 12.5596 12.814 13.6406 12.814 14.9696C12.814 16.3036 11.732 17.3896 10.401 17.3896ZM2.8 10.5786C2.63431 10.5786 2.5 10.7129 2.5 10.8786V15.2886C2.5 18.0816 4.294 19.9586 6.964 19.9586H17.034C19.705 19.9586 21.5 18.0816 21.5 15.2886V10.8786C21.5 10.7129 21.3657 10.5786 21.2 10.5786H2.8Z" fill="#838C9B"/>
</svg>
