<svg width="48" height="48" viewBox="0 0 48 48" fill="none" xmlns="http://www.w3.org/2000/svg">
<g clip-path="url(#clip0_3940_9550)">
<path d="M31.0876 17.3812C30.5064 17.3812 30.0283 16.9125 30.0189 16.3219L30.0001 13.9688C29.9908 13.3781 30.4689 12.9 31.0595 12.8906H31.0689C31.6501 12.8906 32.1283 13.3594 32.1376 13.95L32.1564 16.3031C32.1658 16.8937 31.6876 17.3719 31.097 17.3812C31.0876 17.3812 31.0876 17.3812 31.0876 17.3812Z" fill="black"/>
<path d="M31.0876 17.3812C30.5064 17.3812 30.0283 16.9125 30.0189 16.3219L30.0001 13.9688C29.9908 13.3781 30.4689 12.9 31.0595 12.8906H31.0689C31.6501 12.8906 32.1283 13.3594 32.1376 13.95L32.1564 16.3031C32.1658 16.8937 31.6876 17.3719 31.097 17.3812C31.0876 17.3812 31.0876 17.3812 31.0876 17.3812Z" fill="url(#paint0_linear_3940_9550)"/>
<path d="M19.6322 10.95C19.0509 10.95 18.5728 10.4812 18.5634 9.9L18.5353 7.54688C18.5259 6.95625 19.004 6.47813 19.5853 6.46875H19.5947C20.1759 6.46875 20.654 6.9375 20.6634 7.51875L20.6915 9.87188C20.7009 10.4625 20.2228 10.9406 19.6415 10.95C19.6415 10.95 19.6415 10.95 19.6322 10.95Z" fill="black"/>
<path d="M19.6322 10.95C19.0509 10.95 18.5728 10.4812 18.5634 9.9L18.5353 7.54688C18.5259 6.95625 19.004 6.47813 19.5853 6.46875H19.5947C20.1759 6.46875 20.654 6.9375 20.6634 7.51875L20.6915 9.87188C20.7009 10.4625 20.2228 10.9406 19.6415 10.95C19.6415 10.95 19.6415 10.95 19.6322 10.95Z" fill="url(#paint1_linear_3940_9550)"/>
<path d="M42.5159 20.0998C41.9253 20.0998 41.4471 19.6217 41.4471 19.0405L41.4284 9.31858L31.5846 14.8873C31.069 15.178 30.4221 14.9998 30.1315 14.4842C29.8409 13.9686 30.019 13.3217 30.5346 13.0311L41.9628 6.56233C42.2909 6.37483 42.694 6.37483 43.0221 6.5717C43.3503 6.7592 43.5471 7.11545 43.5565 7.49045L43.5846 19.0311C43.5846 19.6217 43.1065 20.0998 42.5159 20.0998Z" fill="black"/>
<path d="M42.5159 20.0998C41.9253 20.0998 41.4471 19.6217 41.4471 19.0405L41.4284 9.31858L31.5846 14.8873C31.069 15.178 30.4221 14.9998 30.1315 14.4842C29.8409 13.9686 30.019 13.3217 30.5346 13.0311L41.9628 6.56233C42.2909 6.37483 42.694 6.37483 43.0221 6.5717C43.3503 6.7592 43.5471 7.11545 43.5565 7.49045L43.5846 19.0311C43.5846 19.6217 43.1065 20.0998 42.5159 20.0998Z" fill="url(#paint2_linear_3940_9550)"/>
<path d="M31.0605 15.0281C30.8824 15.0281 30.7043 14.9813 30.5355 14.8875L19.0887 8.46563C18.7512 8.27813 18.5449 7.92188 18.5449 7.5375C18.5449 7.15313 18.7512 6.79688 19.0887 6.60938L30.5168 0.140625C30.8449 -0.046875 31.2387 -0.046875 31.5668 0.140625L43.0137 6.5625C43.3512 6.75 43.5574 7.10625 43.5574 7.49063C43.5574 7.875 43.3512 8.23125 43.0137 8.41875L31.5855 14.8875C31.4262 14.9813 31.248 15.0281 31.0605 15.0281ZM21.7793 7.52813L31.0605 12.7406L40.323 7.5L31.0418 2.2875L21.7793 7.52813Z" fill="black"/>
<path d="M31.0605 15.0281C30.8824 15.0281 30.7043 14.9813 30.5355 14.8875L19.0887 8.46563C18.7512 8.27813 18.5449 7.92188 18.5449 7.5375C18.5449 7.15313 18.7512 6.79688 19.0887 6.60938L30.5168 0.140625C30.8449 -0.046875 31.2387 -0.046875 31.5668 0.140625L43.0137 6.5625C43.3512 6.75 43.5574 7.10625 43.5574 7.49063C43.5574 7.875 43.3512 8.23125 43.0137 8.41875L31.5855 14.8875C31.4262 14.9813 31.248 15.0281 31.0605 15.0281ZM21.7793 7.52813L31.0605 12.7406L40.323 7.5L31.0418 2.2875L21.7793 7.52813Z" fill="url(#paint3_linear_3940_9550)"/>
<path d="M13.5379 39.5435C13.3598 39.5435 13.1816 39.4967 13.0129 39.4029L1.56602 32.981C1.22852 32.7935 1.02227 32.4373 1.02227 32.0529L0.994141 17.381C0.994141 17.006 1.19102 16.6498 1.51914 16.4623C1.84727 16.2748 2.25039 16.2654 2.57852 16.4529L14.0348 22.8842C14.3723 23.0717 14.5785 23.4279 14.5785 23.8123L14.5973 36.1498C14.5973 36.7404 14.1191 37.2185 13.5285 37.2185C13.5098 37.2185 13.4816 37.2185 13.4535 37.2185L14.0535 37.556C14.5691 37.8467 14.7473 38.4935 14.466 39.0092C14.2785 39.3467 13.9129 39.5435 13.5379 39.5435ZM3.15039 31.4248L12.666 36.7685C12.5441 36.5904 12.4691 36.3842 12.4691 36.1498L12.4504 24.431L3.13164 19.1998L3.15039 31.4248Z" fill="black"/>
<path d="M13.5379 39.5435C13.3598 39.5435 13.1816 39.4967 13.0129 39.4029L1.56602 32.981C1.22852 32.7935 1.02227 32.4373 1.02227 32.0529L0.994141 17.381C0.994141 17.006 1.19102 16.6498 1.51914 16.4623C1.84727 16.2748 2.25039 16.2654 2.57852 16.4529L14.0348 22.8842C14.3723 23.0717 14.5785 23.4279 14.5785 23.8123L14.5973 36.1498C14.5973 36.7404 14.1191 37.2185 13.5285 37.2185C13.5098 37.2185 13.4816 37.2185 13.4535 37.2185L14.0535 37.556C14.5691 37.8467 14.7473 38.4935 14.466 39.0092C14.2785 39.3467 13.9129 39.5435 13.5379 39.5435ZM3.15039 31.4248L12.666 36.7685C12.5441 36.5904 12.4691 36.3842 12.4691 36.1498L12.4504 24.431L3.13164 19.1998L3.15039 31.4248Z" fill="url(#paint4_linear_3940_9550)"/>
<path d="M13.5186 24.881C13.1436 24.881 12.7874 24.6841 12.5905 24.3372C12.2999 23.8216 12.478 23.1747 12.9936 22.8841L24.4218 16.4154C24.7499 16.2279 25.153 16.2279 25.4811 16.4247C25.8093 16.6122 26.0061 16.9685 26.0155 17.3435L26.0249 19.6966C26.0249 20.2872 25.5468 20.7654 24.9655 20.7654C24.3749 20.7654 23.8968 20.2872 23.8968 19.706V19.1716L14.053 24.7404C13.8749 24.8341 13.6968 24.881 13.5186 24.881Z" fill="black"/>
<path d="M13.5186 24.881C13.1436 24.881 12.7874 24.6841 12.5905 24.3372C12.2999 23.8216 12.478 23.1747 12.9936 22.8841L24.4218 16.4154C24.7499 16.2279 25.153 16.2279 25.4811 16.4247C25.8093 16.6122 26.0061 16.9685 26.0155 17.3435L26.0249 19.6966C26.0249 20.2872 25.5468 20.7654 24.9655 20.7654C24.3749 20.7654 23.8968 20.2872 23.8968 19.706V19.1716L14.053 24.7404C13.8749 24.8341 13.6968 24.881 13.5186 24.881Z" fill="url(#paint5_linear_3940_9550)"/>
<path d="M13.5479 39.5438C13.1729 39.5438 12.8167 39.3469 12.6198 39.0001C12.3292 38.4844 12.5073 37.8376 13.0229 37.5469L18.7135 34.3219C19.2292 34.0313 19.876 34.2094 20.1667 34.7251C20.4573 35.2407 20.2792 35.8876 19.7635 36.1782L14.0729 39.4032C13.9042 39.5063 13.726 39.5438 13.5479 39.5438Z" fill="black"/>
<path d="M13.5479 39.5438C13.1729 39.5438 12.8167 39.3469 12.6198 39.0001C12.3292 38.4844 12.5073 37.8376 13.0229 37.5469L18.7135 34.3219C19.2292 34.0313 19.876 34.2094 20.1667 34.7251C20.4573 35.2407 20.2792 35.8876 19.7635 36.1782L14.0729 39.4032C13.9042 39.5063 13.726 39.5438 13.5479 39.5438Z" fill="url(#paint6_linear_3940_9550)"/>
<path d="M13.5191 24.8812C13.341 24.8812 13.1629 24.8343 12.9941 24.7405L1.53789 18.3187C1.20039 18.1312 0.994141 17.7749 0.994141 17.3905C0.994141 17.0062 1.20039 16.6499 1.53789 16.4624L12.966 9.99365C13.2941 9.80615 13.6879 9.80615 14.016 9.99365L25.4723 16.4249C25.8098 16.6124 26.016 16.9687 26.016 17.353C26.016 17.7374 25.8098 18.0937 25.4723 18.2812L14.0441 24.7499C13.8754 24.8343 13.6973 24.8812 13.5191 24.8812ZM4.23789 17.3812L13.5191 22.5937L22.7816 17.353L13.5004 12.1405L4.23789 17.3812Z" fill="black"/>
<path d="M13.5191 24.8812C13.341 24.8812 13.1629 24.8343 12.9941 24.7405L1.53789 18.3187C1.20039 18.1312 0.994141 17.7749 0.994141 17.3905C0.994141 17.0062 1.20039 16.6499 1.53789 16.4624L12.966 9.99365C13.2941 9.80615 13.6879 9.80615 14.016 9.99365L25.4723 16.4249C25.8098 16.6124 26.016 16.9687 26.016 17.353C26.016 17.7374 25.8098 18.0937 25.4723 18.2812L14.0441 24.7499C13.8754 24.8343 13.6973 24.8812 13.5191 24.8812ZM4.23789 17.3812L13.5191 22.5937L22.7816 17.353L13.5004 12.1405L4.23789 17.3812Z" fill="url(#paint7_linear_3940_9550)"/>
<path d="M34.5008 47.9998C34.3227 47.9998 34.1445 47.953 33.9758 47.8592L22.5289 41.4373C22.1914 41.2498 21.9852 40.8936 21.9852 40.5092L21.957 25.8373C21.957 25.4623 22.1539 25.1061 22.482 24.9186C22.8102 24.7311 23.2133 24.7217 23.5414 24.9092L34.9977 31.3405C35.3352 31.528 35.5414 31.8842 35.5414 32.2686L35.5602 44.6061C35.5602 45.1967 35.082 45.6748 34.4914 45.6748C34.4727 45.6748 34.4445 45.6748 34.4164 45.6748L35.0164 46.0123C35.532 46.303 35.7102 46.9498 35.4289 47.4655C35.2414 47.803 34.8758 47.9998 34.5008 47.9998ZM24.1133 39.8811L33.6289 45.2248C33.507 45.0467 33.432 44.8405 33.432 44.6061L33.4133 32.8873L24.0945 27.6655L24.1133 39.8811Z" fill="black"/>
<path d="M34.5008 47.9998C34.3227 47.9998 34.1445 47.953 33.9758 47.8592L22.5289 41.4373C22.1914 41.2498 21.9852 40.8936 21.9852 40.5092L21.957 25.8373C21.957 25.4623 22.1539 25.1061 22.482 24.9186C22.8102 24.7311 23.2133 24.7217 23.5414 24.9092L34.9977 31.3405C35.3352 31.528 35.5414 31.8842 35.5414 32.2686L35.5602 44.6061C35.5602 45.1967 35.082 45.6748 34.4914 45.6748C34.4727 45.6748 34.4445 45.6748 34.4164 45.6748L35.0164 46.0123C35.532 46.303 35.7102 46.9498 35.4289 47.4655C35.2414 47.803 34.8758 47.9998 34.5008 47.9998ZM24.1133 39.8811L33.6289 45.2248C33.507 45.0467 33.432 44.8405 33.432 44.6061L33.4133 32.8873L24.0945 27.6655L24.1133 39.8811Z" fill="url(#paint8_linear_3940_9550)"/>
<path d="M34.5096 48C34.1346 48 33.7784 47.8031 33.5815 47.4563C33.2909 46.9406 33.469 46.2938 33.9846 46.0031L44.869 39.8438L44.8503 27.6281L35.0065 33.1969C34.4909 33.4875 33.844 33.3094 33.5534 32.7938C33.2628 32.2781 33.4409 31.6313 33.9565 31.3406L45.3846 24.8719C45.7128 24.6844 46.1159 24.6844 46.444 24.8813C46.7721 25.0688 46.969 25.425 46.9784 25.8L47.0065 40.4719C47.0065 40.8563 46.8003 41.2125 46.4628 41.4L35.0346 47.8688C34.8659 47.9531 34.6878 48 34.5096 48Z" fill="black"/>
<path d="M34.5096 48C34.1346 48 33.7784 47.8031 33.5815 47.4563C33.2909 46.9406 33.469 46.2938 33.9846 46.0031L44.869 39.8438L44.8503 27.6281L35.0065 33.1969C34.4909 33.4875 33.844 33.3094 33.5534 32.7938C33.2628 32.2781 33.4409 31.6313 33.9565 31.3406L45.3846 24.8719C45.7128 24.6844 46.1159 24.6844 46.444 24.8813C46.7721 25.0688 46.969 25.425 46.9784 25.8L47.0065 40.4719C47.0065 40.8563 46.8003 41.2125 46.4628 41.4L35.0346 47.8688C34.8659 47.9531 34.6878 48 34.5096 48Z" fill="url(#paint9_linear_3940_9550)"/>
<path d="M34.482 33.3279C34.3039 33.3279 34.1258 33.2811 33.957 33.1873L22.5008 26.7654C22.1633 26.5779 21.957 26.2217 21.957 25.8373C21.957 25.4529 22.1633 25.0967 22.5008 24.9092L33.9289 18.4404C34.257 18.2529 34.6508 18.2529 34.9789 18.4404L46.4352 24.8717C46.7727 25.0592 46.9789 25.4154 46.9789 25.7998C46.9789 26.1842 46.7727 26.5404 46.4352 26.7279L35.007 33.1967C34.8383 33.2904 34.6602 33.3279 34.482 33.3279ZM25.2008 25.8373L34.482 31.0498L43.7445 25.8092L34.4633 20.5967L25.2008 25.8373Z" fill="black"/>
<path d="M34.482 33.3279C34.3039 33.3279 34.1258 33.2811 33.957 33.1873L22.5008 26.7654C22.1633 26.5779 21.957 26.2217 21.957 25.8373C21.957 25.4529 22.1633 25.0967 22.5008 24.9092L33.9289 18.4404C34.257 18.2529 34.6508 18.2529 34.9789 18.4404L46.4352 24.8717C46.7727 25.0592 46.9789 25.4154 46.9789 25.7998C46.9789 26.1842 46.7727 26.5404 46.4352 26.7279L35.007 33.1967C34.8383 33.2904 34.6602 33.3279 34.482 33.3279ZM25.2008 25.8373L34.482 31.0498L43.7445 25.8092L34.4633 20.5967L25.2008 25.8373Z" fill="url(#paint10_linear_3940_9550)"/>
</g>
<defs>
<linearGradient id="paint0_linear_3940_9550" x1="29.6406" y1="13.2916" x2="33.3838" y2="14.5732" gradientUnits="userSpaceOnUse">
<stop stop-color="#4BFFAE"/>
<stop offset="1" stop-color="#1F75FF"/>
</linearGradient>
<linearGradient id="paint1_linear_3940_9550" x1="18.1757" y1="6.86886" x2="21.9173" y2="8.15261" gradientUnits="userSpaceOnUse">
<stop stop-color="#4BFFAE"/>
<stop offset="1" stop-color="#1F75FF"/>
</linearGradient>
<linearGradient id="paint2_linear_3940_9550" x1="27.7268" y1="7.64401" x2="45.2757" y2="20.0784" gradientUnits="userSpaceOnUse">
<stop stop-color="#4BFFAE"/>
<stop offset="1" stop-color="#1F75FF"/>
</linearGradient>
<linearGradient id="paint3_linear_3940_9550" x1="14.3762" y1="1.3418" x2="34.5188" y2="25.2439" gradientUnits="userSpaceOnUse">
<stop stop-color="#4BFFAE"/>
<stop offset="1" stop-color="#1F75FF"/>
</linearGradient>
<linearGradient id="paint4_linear_3940_9550" x1="-1.27332" y1="18.3907" x2="21.192" y2="27.7724" gradientUnits="userSpaceOnUse">
<stop stop-color="#4BFFAE"/>
<stop offset="1" stop-color="#1F75FF"/>
</linearGradient>
<linearGradient id="paint5_linear_3940_9550" x1="10.1889" y1="17.0442" x2="21.8116" y2="30.1154" gradientUnits="userSpaceOnUse">
<stop stop-color="#4BFFAE"/>
<stop offset="1" stop-color="#1F75FF"/>
</linearGradient>
<linearGradient id="paint6_linear_3940_9550" x1="11.1762" y1="34.6613" x2="18.4617" y2="42.2432" gradientUnits="userSpaceOnUse">
<stop stop-color="#4BFFAE"/>
<stop offset="1" stop-color="#1F75FF"/>
</linearGradient>
<linearGradient id="paint7_linear_3940_9550" x1="-3.17617" y1="11.1948" x2="16.9652" y2="35.1043" gradientUnits="userSpaceOnUse">
<stop stop-color="#4BFFAE"/>
<stop offset="1" stop-color="#1F75FF"/>
</linearGradient>
<linearGradient id="paint8_linear_3940_9550" x1="19.6896" y1="26.847" x2="42.1549" y2="36.2287" gradientUnits="userSpaceOnUse">
<stop stop-color="#4BFFAE"/>
<stop offset="1" stop-color="#1F75FF"/>
</linearGradient>
<linearGradient id="paint9_linear_3940_9550" x1="31.1487" y1="26.8099" x2="53.6114" y2="36.1656" gradientUnits="userSpaceOnUse">
<stop stop-color="#4BFFAE"/>
<stop offset="1" stop-color="#1F75FF"/>
</linearGradient>
<linearGradient id="paint10_linear_3940_9550" x1="17.7867" y1="19.6416" x2="37.9281" y2="43.5511" gradientUnits="userSpaceOnUse">
<stop stop-color="#4BFFAE"/>
<stop offset="1" stop-color="#1F75FF"/>
</linearGradient>
<clipPath id="clip0_3940_9550">
<rect width="48" height="48" fill="white"/>
</clipPath>
</defs>
</svg>
