<svg width="48" height="48" viewBox="0 0 48 48" fill="none" xmlns="http://www.w3.org/2000/svg">
<g clip-path="url(#clip0_3992_8113)">
<path d="M31 14H13C12.448 14 12 14.448 12 15C12 15.552 12.448 16.0001 13 16.0001H31C31.552 16.0001 32.0001 15.552 32.0001 15C32.0001 14.448 31.552 14 31 14Z" fill="black"/>
<path d="M31 14H13C12.448 14 12 14.448 12 15C12 15.552 12.448 16.0001 13 16.0001H31C31.552 16.0001 32.0001 15.552 32.0001 15C32.0001 14.448 31.552 14 31 14Z" fill="url(#paint0_linear_3992_8113)"/>
<path d="M7 36C5.34597 36 4 37.346 4 39C4 40.654 5.34597 42 7 42C8.65403 42 10 40.654 10 39C10 37.346 8.65394 36 7 36ZM7 40C6.448 40 5.99997 39.552 5.99997 39C5.99997 38.448 6.448 38 7 38C7.552 38 7.99994 38.448 7.99994 39C7.99994 39.552 7.552 40 7 40Z" fill="black"/>
<path d="M7 36C5.34597 36 4 37.346 4 39C4 40.654 5.34597 42 7 42C8.65403 42 10 40.654 10 39C10 37.346 8.65394 36 7 36ZM7 40C6.448 40 5.99997 39.552 5.99997 39C5.99997 38.448 6.448 38 7 38C7.552 38 7.99994 38.448 7.99994 39C7.99994 39.552 7.552 40 7 40Z" fill="url(#paint1_linear_3992_8113)"/>
<path d="M7 28C5.34597 28 4 29.346 4 31C4 32.654 5.34597 34 7 34C8.65403 34 10 32.654 10 31C10 29.346 8.65394 28 7 28ZM7 31.9999C6.448 31.9999 5.99997 31.5519 5.99997 30.9999C5.99997 30.4479 6.448 30 7 30C7.552 30 8.00003 30.448 8.00003 31C8.00003 31.552 7.552 31.9999 7 31.9999Z" fill="black"/>
<path d="M7 28C5.34597 28 4 29.346 4 31C4 32.654 5.34597 34 7 34C8.65403 34 10 32.654 10 31C10 29.346 8.65394 28 7 28ZM7 31.9999C6.448 31.9999 5.99997 31.5519 5.99997 30.9999C5.99997 30.4479 6.448 30 7 30C7.552 30 8.00003 30.448 8.00003 31C8.00003 31.552 7.552 31.9999 7 31.9999Z" fill="url(#paint2_linear_3992_8113)"/>
<path d="M7 20C5.34597 20 4 21.346 4 23C4 24.654 5.34597 26 7 26C8.65403 26 10 24.654 10 23C10 21.3461 8.65394 20 7 20ZM7 24C6.448 24 5.99997 23.552 5.99997 23C5.99997 22.448 6.448 22 7 22C7.552 22 8.00003 22.448 8.00003 23C8.00003 23.552 7.552 24 7 24Z" fill="black"/>
<path d="M7 20C5.34597 20 4 21.346 4 23C4 24.654 5.34597 26 7 26C8.65403 26 10 24.654 10 23C10 21.3461 8.65394 20 7 20ZM7 24C6.448 24 5.99997 23.552 5.99997 23C5.99997 22.448 6.448 22 7 22C7.552 22 8.00003 22.448 8.00003 23C8.00003 23.552 7.552 24 7 24Z" fill="url(#paint3_linear_3992_8113)"/>
<path d="M7 12C5.34597 12 4 13.346 4 15C4 16.654 5.34597 18 7 18C8.65403 18 10 16.654 10 15C10 13.346 8.65394 12 7 12ZM7 16C6.448 16 5.99997 15.552 5.99997 15C5.99997 14.448 6.448 14 7 14C7.552 14 7.99994 14.448 7.99994 15C7.99994 15.552 7.552 16 7 16Z" fill="black"/>
<path d="M7 12C5.34597 12 4 13.346 4 15C4 16.654 5.34597 18 7 18C8.65403 18 10 16.654 10 15C10 13.346 8.65394 12 7 12ZM7 16C6.448 16 5.99997 15.552 5.99997 15C5.99997 14.448 6.448 14 7 14C7.552 14 7.99994 14.448 7.99994 15C7.99994 15.552 7.552 16 7 16Z" fill="url(#paint4_linear_3992_8113)"/>
<path d="M42.756 10C41.356 10 40.04 10.546 39.05 11.536L36.2919 14.2941L36 14.586V7.00003C36 5.346 34.654 4.00003 33 4.00003H27.816C27.402 2.838 26.302 2.00006 25 2.00006H21.4521C20.746 0.78 19.436 0 18 0C16.564 0 15.254 0.78 14.548 1.99997H11.0001C9.69806 1.99997 8.59809 2.838 8.18409 3.99994H3C1.34597 3.99994 0 5.34591 0 6.99994V45C0 46.654 1.34597 48 3 48H33C34.654 48 36 46.654 36 45V29.412L43.7 21.712C43.7019 21.7101 43.704 21.7101 43.706 21.708C43.7079 21.706 43.7079 21.704 43.71 21.702L46.464 18.948C47.456 17.958 48 16.642 48 15.24C48 12.35 45.648 10 42.756 10ZM10 4.99997C10 4.44797 10.4481 3.99994 11.0001 3.99994H15.184C15.606 3.99994 15.984 3.73191 16.126 3.33394C16.41 2.53594 17.164 1.99997 18 1.99997C18.836 1.99997 19.59 2.53594 19.874 3.33394C20.016 3.73397 20.394 3.99994 20.816 3.99994H24.9999C25.5519 3.99994 26 4.44797 26 4.99997V6H10V4.99997ZM34 45C34 45.552 33.552 46 33 46H3C2.448 46 1.99997 45.552 1.99997 45V7.00003C1.99997 6.44803 2.448 6 3 6H7.99997V7.00003C7.99997 7.55203 8.448 8.00006 9 8.00006H27C27.552 8.00006 28 7.55203 28 7.00003V6H33C33.552 6 34 6.44803 34 7.00003V16.5861L28.4601 22.126C28.3201 22.0521 28.168 22 28 22H13C12.448 22 12 22.4481 12 23.0001C12 23.5521 12.448 24 13 24H26.586L20.586 30H13C12.448 30 12 30.448 12 31C12 31.552 12.448 32.0001 13 32.0001H19.72L18.22 38.0001H13C12.448 38.0001 12 38.4481 12 39.0001C12 39.5521 12.448 40.0001 13 40.0001H19C19.0821 40.0001 19.162 39.9901 19.242 39.9682L27.242 37.9682C27.266 37.9622 27.282 37.9402 27.306 37.9322C27.432 37.8902 27.546 37.8262 27.644 37.7422C27.662 37.7261 27.69 37.7242 27.708 37.7062L34 31.4122V45ZM21.744 32.154C22.39 32.342 23.346 32.758 24.292 33.706C25.24 34.654 25.6581 35.6121 25.846 36.256L20.374 37.626L21.744 32.154ZM27.53 35.054C27.204 34.23 26.6619 33.248 25.704 32.292C24.75 31.338 23.77 30.794 22.946 30.47L36.9999 16.416L41.584 21L27.53 35.054ZM45.05 17.534L42.998 19.586L38.414 15.002L40.466 12.948C41.078 12.334 41.892 11.998 42.7599 11.998C44.546 11.998 45.9999 13.452 45.9999 15.2421C46 16.108 45.662 16.922 45.05 17.534Z" fill="black"/>
<path d="M42.756 10C41.356 10 40.04 10.546 39.05 11.536L36.2919 14.2941L36 14.586V7.00003C36 5.346 34.654 4.00003 33 4.00003H27.816C27.402 2.838 26.302 2.00006 25 2.00006H21.4521C20.746 0.78 19.436 0 18 0C16.564 0 15.254 0.78 14.548 1.99997H11.0001C9.69806 1.99997 8.59809 2.838 8.18409 3.99994H3C1.34597 3.99994 0 5.34591 0 6.99994V45C0 46.654 1.34597 48 3 48H33C34.654 48 36 46.654 36 45V29.412L43.7 21.712C43.7019 21.7101 43.704 21.7101 43.706 21.708C43.7079 21.706 43.7079 21.704 43.71 21.702L46.464 18.948C47.456 17.958 48 16.642 48 15.24C48 12.35 45.648 10 42.756 10ZM10 4.99997C10 4.44797 10.4481 3.99994 11.0001 3.99994H15.184C15.606 3.99994 15.984 3.73191 16.126 3.33394C16.41 2.53594 17.164 1.99997 18 1.99997C18.836 1.99997 19.59 2.53594 19.874 3.33394C20.016 3.73397 20.394 3.99994 20.816 3.99994H24.9999C25.5519 3.99994 26 4.44797 26 4.99997V6H10V4.99997ZM34 45C34 45.552 33.552 46 33 46H3C2.448 46 1.99997 45.552 1.99997 45V7.00003C1.99997 6.44803 2.448 6 3 6H7.99997V7.00003C7.99997 7.55203 8.448 8.00006 9 8.00006H27C27.552 8.00006 28 7.55203 28 7.00003V6H33C33.552 6 34 6.44803 34 7.00003V16.5861L28.4601 22.126C28.3201 22.0521 28.168 22 28 22H13C12.448 22 12 22.4481 12 23.0001C12 23.5521 12.448 24 13 24H26.586L20.586 30H13C12.448 30 12 30.448 12 31C12 31.552 12.448 32.0001 13 32.0001H19.72L18.22 38.0001H13C12.448 38.0001 12 38.4481 12 39.0001C12 39.5521 12.448 40.0001 13 40.0001H19C19.0821 40.0001 19.162 39.9901 19.242 39.9682L27.242 37.9682C27.266 37.9622 27.282 37.9402 27.306 37.9322C27.432 37.8902 27.546 37.8262 27.644 37.7422C27.662 37.7261 27.69 37.7242 27.708 37.7062L34 31.4122V45ZM21.744 32.154C22.39 32.342 23.346 32.758 24.292 33.706C25.24 34.654 25.6581 35.6121 25.846 36.256L20.374 37.626L21.744 32.154ZM27.53 35.054C27.204 34.23 26.6619 33.248 25.704 32.292C24.75 31.338 23.77 30.794 22.946 30.47L36.9999 16.416L41.584 21L27.53 35.054ZM45.05 17.534L42.998 19.586L38.414 15.002L40.466 12.948C41.078 12.334 41.892 11.998 42.7599 11.998C44.546 11.998 45.9999 13.452 45.9999 15.2421C46 16.108 45.662 16.922 45.05 17.534Z" fill="url(#paint5_linear_3992_8113)"/>
</g>
<defs>
<linearGradient id="paint0_linear_3992_8113" x1="12" y1="15" x2="32.0001" y2="15" gradientUnits="userSpaceOnUse">
<stop stop-color="#4BFFAE"/>
<stop offset="1" stop-color="#1F75FF"/>
</linearGradient>
<linearGradient id="paint1_linear_3992_8113" x1="4" y1="39" x2="10" y2="39" gradientUnits="userSpaceOnUse">
<stop stop-color="#4BFFAE"/>
<stop offset="1" stop-color="#1F75FF"/>
</linearGradient>
<linearGradient id="paint2_linear_3992_8113" x1="4" y1="31" x2="10" y2="31" gradientUnits="userSpaceOnUse">
<stop stop-color="#4BFFAE"/>
<stop offset="1" stop-color="#1F75FF"/>
</linearGradient>
<linearGradient id="paint3_linear_3992_8113" x1="4" y1="23" x2="10" y2="23" gradientUnits="userSpaceOnUse">
<stop stop-color="#4BFFAE"/>
<stop offset="1" stop-color="#1F75FF"/>
</linearGradient>
<linearGradient id="paint4_linear_3992_8113" x1="4" y1="15" x2="10" y2="15" gradientUnits="userSpaceOnUse">
<stop stop-color="#4BFFAE"/>
<stop offset="1" stop-color="#1F75FF"/>
</linearGradient>
<linearGradient id="paint5_linear_3992_8113" x1="3.94881e-07" y1="5" x2="36" y2="46.5" gradientUnits="userSpaceOnUse">
<stop stop-color="#4BFFAE"/>
<stop offset="1" stop-color="#1F75FF"/>
</linearGradient>
<clipPath id="clip0_3992_8113">
<rect width="48" height="48" fill="white"/>
</clipPath>
</defs>
</svg>
