<svg width="504" height="504" viewBox="0 0 504 504" fill="none" xmlns="http://www.w3.org/2000/svg">
<rect x="1" y="1" width="502" height="502" rx="33" fill="#95EAB7"/>
<path d="M100 77C100 75.8954 100.895 75 102 75H363C364.105 75 365 75.8954 365 77V453C365 454.105 364.105 455 363 455H102C100.895 455 100 454.105 100 453V77Z" fill="black" fill-opacity="0.29"/>
<rect x="114.828" y="61" width="271.344" height="379" fill="white" stroke="black" stroke-width="2"/>
<rect x="131.649" y="76.1392" width="237.702" height="348.722" fill="white" stroke="black" stroke-width="2"/>
<rect width="125.318" height="65.6026" rx="4" transform="matrix(1 0 0 -1 144.106 157.563)" fill="#FC98BC"/>
<rect width="190.921" height="41.2119" rx="20.606" transform="matrix(1 0 0 -1 144.106 244.192)" fill="#83EBB9"/>
<rect width="64.7616" height="15.9801" rx="7.99007" transform="matrix(1 0 0 -1 144.106 314.841)" fill="#FCF898"/>
<rect x="149.152" y="95.3242" width="1.68212" height="58.8742" fill="black"/>
<rect x="162.609" y="95.3242" width="1.68212" height="58.8742" fill="black"/>
<rect x="176.066" y="95.3242" width="1.68212" height="58.8742" fill="black"/>
<rect x="232.417" y="95.3242" width="2.52318" height="58.8742" fill="black"/>
<rect x="171.02" y="95.3242" width="2.52318" height="58.8742" fill="black"/>
<rect x="180.271" y="95.3242" width="1.68212" height="58.8742" fill="black"/>
<rect x="187" y="95.3242" width="0.84106" height="58.8742" fill="black"/>
<rect x="188.682" y="95.3242" width="0.84106" height="58.8742" fill="black"/>
<rect x="192.046" y="95.3242" width="0.84106" height="58.8742" fill="black"/>
<rect x="195.411" y="95.3242" width="0.84106" height="58.8742" fill="black"/>
<rect x="198.775" y="95.3242" width="0.84106" height="58.8742" fill="black"/>
<rect x="202.139" y="95.3242" width="0.84106" height="58.8742" fill="black"/>
<rect x="205.503" y="95.3242" width="0.84106" height="58.8742" fill="black"/>
<rect x="208.867" y="95.3242" width="0.84106" height="58.8742" fill="black"/>
<rect x="211.391" y="95.3242" width="1.68212" height="58.8742" fill="black"/>
<rect x="215.596" y="95.3242" width="0.84106" height="58.8742" fill="black"/>
<rect x="218.96" y="95.3242" width="0.84106" height="58.8742" fill="black"/>
<rect x="222.324" y="95.3242" width="0.84106" height="58.8742" fill="black"/>
<rect x="225.689" y="95.3242" width="3.36424" height="58.8742" fill="black"/>
<rect x="198.775" y="95.3242" width="0.84106" height="58.8742" fill="black"/>
<rect x="208.867" y="95.3242" width="0.84106" height="58.8742" fill="black"/>
<rect x="234.099" y="95.3242" width="0.84106" height="58.8742" fill="black"/>
<rect x="235.781" y="95.3242" width="0.84106" height="58.8742" fill="black"/>
<rect x="237.464" y="95.3242" width="0.84106" height="58.8742" fill="black"/>
<rect x="239.146" y="95.3242" width="0.84106" height="58.8742" fill="black"/>
<rect x="245.874" y="95.3242" width="2.52318" height="58.8742" fill="black"/>
<rect x="249.238" y="95.3242" width="1.68212" height="58.8742" fill="black"/>
<rect x="251.762" y="95.3242" width="1.68212" height="58.8742" fill="black"/>
<rect x="259.331" y="95.3242" width="0.84106" height="58.8742" fill="black"/>
<rect x="218.96" y="95.3242" width="0.84106" height="58.8742" fill="black"/>
<rect x="215.596" y="95.3242" width="0.84106" height="58.8742" fill="black"/>
<rect x="217.278" y="95.3242" width="0.84106" height="58.8742" fill="black"/>
<rect x="165.132" y="95.3242" width="0.84106" height="58.8742" fill="black"/>
<rect x="157.563" y="95.3242" width="4.2053" height="58.8742" fill="black"/>
<rect x="155.04" y="95.3242" width="1.68212" height="58.8742" fill="black"/>
<rect x="196.252" y="95.3242" width="1.68212" height="58.8742" fill="black"/>
<rect x="229.894" y="95.3242" width="1.68212" height="58.8742" fill="black"/>
<rect x="243.351" y="95.3242" width="1.68212" height="58.8742" fill="black"/>
<rect x="256.808" y="95.3242" width="1.68212" height="58.8742" fill="black"/>
<rect x="261.013" y="95.3242" width="1.68212" height="58.8742" fill="black"/>
<path d="M158.885 167.527H157.444C157.389 167.219 157.286 166.949 157.135 166.715C156.984 166.481 156.8 166.282 156.581 166.119C156.363 165.956 156.118 165.833 155.847 165.75C155.579 165.667 155.295 165.625 154.993 165.625C154.448 165.625 153.961 165.762 153.53 166.036C153.102 166.31 152.763 166.712 152.514 167.241C152.268 167.77 152.145 168.417 152.145 169.18C152.145 169.949 152.268 170.599 152.514 171.128C152.763 171.657 153.103 172.058 153.534 172.328C153.965 172.599 154.45 172.735 154.988 172.735C155.287 172.735 155.57 172.695 155.838 172.615C156.109 172.532 156.353 172.41 156.572 172.25C156.79 172.09 156.975 171.894 157.126 171.664C157.28 171.43 157.386 171.162 157.444 170.86L158.885 170.865C158.808 171.33 158.659 171.757 158.437 172.148C158.218 172.536 157.937 172.872 157.592 173.155C157.251 173.435 156.86 173.652 156.42 173.806C155.979 173.96 155.499 174.036 154.979 174.036C154.161 174.036 153.431 173.843 152.791 173.455C152.151 173.064 151.646 172.505 151.277 171.779C150.911 171.053 150.727 170.186 150.727 169.18C150.727 168.17 150.912 167.304 151.281 166.581C151.651 165.855 152.155 165.297 152.796 164.91C153.436 164.519 154.164 164.323 154.979 164.323C155.481 164.323 155.949 164.396 156.383 164.54C156.82 164.682 157.212 164.891 157.56 165.168C157.908 165.442 158.195 165.778 158.423 166.175C158.651 166.569 158.805 167.019 158.885 167.527ZM163.537 174.05C162.838 174.05 162.237 173.901 161.732 173.603C161.23 173.301 160.843 172.878 160.569 172.333C160.298 171.785 160.162 171.143 160.162 170.408C160.162 169.682 160.298 169.041 160.569 168.487C160.843 167.934 161.224 167.501 161.713 167.19C162.206 166.879 162.781 166.724 163.44 166.724C163.84 166.724 164.228 166.79 164.603 166.922C164.979 167.055 165.316 167.263 165.614 167.546C165.913 167.829 166.148 168.197 166.321 168.649C166.493 169.098 166.579 169.645 166.579 170.288V170.777H160.943V169.743H165.227C165.227 169.38 165.153 169.058 165.005 168.778C164.857 168.495 164.65 168.272 164.382 168.109C164.117 167.946 163.806 167.864 163.449 167.864C163.062 167.864 162.723 167.96 162.434 168.15C162.147 168.338 161.926 168.584 161.769 168.889C161.615 169.191 161.538 169.518 161.538 169.872V170.68C161.538 171.154 161.621 171.557 161.787 171.89C161.957 172.222 162.192 172.476 162.494 172.652C162.795 172.824 163.148 172.91 163.551 172.91C163.812 172.91 164.051 172.873 164.266 172.799C164.482 172.722 164.668 172.608 164.825 172.458C164.982 172.307 165.102 172.121 165.185 171.899L166.492 172.134C166.387 172.519 166.199 172.856 165.928 173.146C165.661 173.432 165.324 173.655 164.917 173.815C164.514 173.972 164.054 174.05 163.537 174.05ZM168.111 173.907V166.816H169.445V167.943H169.519C169.648 167.561 169.876 167.261 170.202 167.043C170.531 166.821 170.904 166.71 171.319 166.71C171.405 166.71 171.507 166.713 171.624 166.719C171.744 166.726 171.838 166.733 171.906 166.742V168.063C171.85 168.047 171.752 168.03 171.61 168.012C171.468 167.99 171.327 167.98 171.185 167.98C170.859 167.98 170.568 168.049 170.313 168.187C170.06 168.323 169.86 168.512 169.713 168.755C169.565 168.995 169.491 169.269 169.491 169.577V173.907H168.111ZM176.829 166.816V167.924H172.956V166.816H176.829ZM173.994 165.117H175.375V171.825C175.375 172.093 175.415 172.295 175.495 172.43C175.575 172.562 175.678 172.653 175.804 172.702C175.933 172.748 176.073 172.772 176.224 172.772C176.335 172.772 176.432 172.764 176.515 172.748C176.598 172.733 176.663 172.721 176.709 172.712L176.958 173.852C176.878 173.883 176.764 173.913 176.617 173.944C176.469 173.978 176.284 173.996 176.063 174C175.699 174.006 175.361 173.941 175.047 173.806C174.733 173.67 174.479 173.461 174.285 173.178C174.091 172.895 173.994 172.539 173.994 172.111V165.117ZM178.356 173.907V166.816H179.736V173.907H178.356ZM179.053 165.722C178.813 165.722 178.607 165.642 178.434 165.482C178.265 165.319 178.18 165.125 178.18 164.9C178.18 164.673 178.265 164.479 178.434 164.319C178.607 164.156 178.813 164.074 179.053 164.074C179.293 164.074 179.498 164.156 179.667 164.319C179.839 164.479 179.925 164.673 179.925 164.9C179.925 165.125 179.839 165.319 179.667 165.482C179.498 165.642 179.293 165.722 179.053 165.722ZM184.968 166.816V167.924H180.961V166.816H184.968ZM182.059 173.907V165.995C182.059 165.551 182.156 165.184 182.35 164.891C182.544 164.596 182.801 164.376 183.121 164.231C183.441 164.083 183.789 164.009 184.165 164.009C184.442 164.009 184.679 164.033 184.876 164.079C185.072 164.122 185.219 164.162 185.314 164.199L184.991 165.316C184.926 165.297 184.843 165.276 184.742 165.251C184.64 165.224 184.517 165.21 184.372 165.21C184.037 165.21 183.797 165.293 183.652 165.459C183.511 165.625 183.44 165.865 183.44 166.179V173.907H182.059ZM186.392 173.907V166.816H187.772V173.907H186.392ZM187.089 165.722C186.849 165.722 186.643 165.642 186.471 165.482C186.301 165.319 186.217 165.125 186.217 164.9C186.217 164.673 186.301 164.479 186.471 164.319C186.643 164.156 186.849 164.074 187.089 164.074C187.329 164.074 187.534 164.156 187.703 164.319C187.875 164.479 187.962 164.673 187.962 164.9C187.962 165.125 187.875 165.319 187.703 165.482C187.534 165.642 187.329 165.722 187.089 165.722ZM192.616 174.05C191.93 174.05 191.339 173.895 190.843 173.584C190.351 173.27 189.972 172.838 189.708 172.287C189.443 171.736 189.311 171.105 189.311 170.394C189.311 169.674 189.446 169.038 189.717 168.487C189.988 167.934 190.37 167.501 190.862 167.19C191.354 166.879 191.934 166.724 192.602 166.724C193.141 166.724 193.621 166.824 194.043 167.024C194.464 167.221 194.804 167.498 195.063 167.855C195.325 168.212 195.48 168.629 195.529 169.106H194.186C194.112 168.774 193.943 168.487 193.678 168.247C193.416 168.007 193.066 167.887 192.625 167.887C192.241 167.887 191.904 167.989 191.614 168.192C191.328 168.392 191.105 168.678 190.945 169.051C190.785 169.42 190.705 169.857 190.705 170.362C190.705 170.879 190.783 171.325 190.94 171.701C191.097 172.076 191.319 172.367 191.605 172.573C191.894 172.779 192.235 172.882 192.625 172.882C192.887 172.882 193.124 172.835 193.336 172.739C193.552 172.641 193.732 172.501 193.876 172.319C194.024 172.138 194.127 171.919 194.186 171.664H195.529C195.48 172.122 195.331 172.532 195.081 172.892C194.832 173.252 194.498 173.535 194.08 173.741C193.664 173.947 193.176 174.05 192.616 174.05ZM199.069 174.064C198.62 174.064 198.213 173.981 197.85 173.815C197.487 173.646 197.199 173.401 196.987 173.081C196.778 172.761 196.673 172.368 196.673 171.904C196.673 171.504 196.75 171.174 196.904 170.916C197.058 170.657 197.265 170.453 197.527 170.302C197.789 170.151 198.081 170.037 198.404 169.96C198.727 169.883 199.057 169.825 199.392 169.785C199.817 169.735 200.161 169.695 200.426 169.665C200.691 169.631 200.883 169.577 201.003 169.503C201.123 169.429 201.183 169.309 201.183 169.143V169.111C201.183 168.708 201.069 168.395 200.842 168.174C200.617 167.952 200.281 167.841 199.835 167.841C199.37 167.841 199.004 167.944 198.736 168.15C198.472 168.354 198.289 168.58 198.187 168.829L196.89 168.534C197.044 168.103 197.268 167.755 197.564 167.49C197.862 167.223 198.206 167.029 198.593 166.909C198.981 166.786 199.389 166.724 199.817 166.724C200.1 166.724 200.4 166.758 200.717 166.826C201.037 166.89 201.336 167.01 201.613 167.186C201.893 167.361 202.122 167.612 202.3 167.938C202.479 168.261 202.568 168.681 202.568 169.198V173.907H201.22V172.938H201.165C201.075 173.116 200.942 173.292 200.763 173.464C200.585 173.636 200.355 173.78 200.075 173.893C199.795 174.007 199.46 174.064 199.069 174.064ZM199.369 172.956C199.751 172.956 200.077 172.881 200.348 172.73C200.622 172.579 200.829 172.382 200.971 172.139C201.116 171.893 201.188 171.63 201.188 171.35V170.436C201.139 170.485 201.043 170.531 200.902 170.574C200.763 170.614 200.605 170.65 200.426 170.68C200.248 170.708 200.074 170.734 199.904 170.759C199.735 170.78 199.594 170.799 199.48 170.814C199.212 170.848 198.967 170.905 198.746 170.985C198.527 171.065 198.352 171.18 198.219 171.331C198.09 171.479 198.026 171.676 198.026 171.922C198.026 172.264 198.152 172.522 198.404 172.698C198.656 172.87 198.978 172.956 199.369 172.956ZM207.717 166.816V167.924H203.843V166.816H207.717ZM204.882 165.117H206.262V171.825C206.262 172.093 206.303 172.295 206.383 172.43C206.463 172.562 206.566 172.653 206.692 172.702C206.821 172.748 206.961 172.772 207.112 172.772C207.223 172.772 207.32 172.764 207.403 172.748C207.486 172.733 207.55 172.721 207.597 172.712L207.846 173.852C207.766 173.883 207.652 173.913 207.504 173.944C207.357 173.978 207.172 173.996 206.95 174C206.587 174.006 206.249 173.941 205.935 173.806C205.621 173.67 205.367 173.461 205.173 173.178C204.979 172.895 204.882 172.539 204.882 172.111V165.117ZM212.224 174.05C211.525 174.05 210.923 173.901 210.418 173.603C209.917 173.301 209.529 172.878 209.255 172.333C208.984 171.785 208.849 171.143 208.849 170.408C208.849 169.682 208.984 169.041 209.255 168.487C209.529 167.934 209.911 167.501 210.4 167.19C210.892 166.879 211.468 166.724 212.127 166.724C212.527 166.724 212.914 166.79 213.29 166.922C213.665 167.055 214.002 167.263 214.301 167.546C214.599 167.829 214.835 168.197 215.007 168.649C215.18 169.098 215.266 169.645 215.266 170.288V170.777H209.629V169.743H213.913C213.913 169.38 213.839 169.058 213.692 168.778C213.544 168.495 213.336 168.272 213.068 168.109C212.804 167.946 212.493 167.864 212.136 167.864C211.748 167.864 211.409 167.96 211.12 168.15C210.834 168.338 210.612 168.584 210.455 168.889C210.302 169.191 210.225 169.518 210.225 169.872V170.68C210.225 171.154 210.308 171.557 210.474 171.89C210.643 172.222 210.879 172.476 211.18 172.652C211.482 172.824 211.834 172.91 212.237 172.91C212.499 172.91 212.737 172.873 212.953 172.799C213.168 172.722 213.355 172.608 213.512 172.458C213.668 172.307 213.789 172.121 213.872 171.899L215.178 172.134C215.073 172.519 214.886 172.856 214.615 173.146C214.347 173.432 214.01 173.655 213.604 173.815C213.201 173.972 212.741 174.05 212.224 174.05ZM223.225 174.05C222.56 174.05 221.98 173.898 221.484 173.593C220.989 173.289 220.604 172.862 220.33 172.315C220.056 171.767 219.919 171.127 219.919 170.394C219.919 169.659 220.056 169.015 220.33 168.464C220.604 167.913 220.989 167.486 221.484 167.181C221.98 166.876 222.56 166.724 223.225 166.724C223.889 166.724 224.469 166.876 224.965 167.181C225.461 167.486 225.845 167.913 226.119 168.464C226.393 169.015 226.53 169.659 226.53 170.394C226.53 171.127 226.393 171.767 226.119 172.315C225.845 172.862 225.461 173.289 224.965 173.593C224.469 173.898 223.889 174.05 223.225 174.05ZM223.229 172.892C223.66 172.892 224.017 172.778 224.3 172.55C224.583 172.322 224.793 172.019 224.928 171.641C225.067 171.262 225.136 170.845 225.136 170.389C225.136 169.937 225.067 169.522 224.928 169.143C224.793 168.761 224.583 168.455 224.3 168.224C224.017 167.994 223.66 167.878 223.229 167.878C222.795 167.878 222.435 167.994 222.149 168.224C221.866 168.455 221.655 168.761 221.516 169.143C221.381 169.522 221.313 169.937 221.313 170.389C221.313 170.845 221.381 171.262 221.516 171.641C221.655 172.019 221.866 172.322 222.149 172.55C222.435 172.778 222.795 172.892 223.229 172.892ZM231.445 166.816V167.924H227.438V166.816H231.445ZM228.537 173.907V165.995C228.537 165.551 228.634 165.184 228.828 164.891C229.022 164.596 229.279 164.376 229.599 164.231C229.919 164.083 230.267 164.009 230.642 164.009C230.919 164.009 231.156 164.033 231.353 164.079C231.55 164.122 231.696 164.162 231.792 164.199L231.468 165.316C231.404 165.297 231.321 165.276 231.219 165.251C231.118 165.224 230.995 165.21 230.85 165.21C230.514 165.21 230.274 165.293 230.13 165.459C229.988 165.625 229.917 165.865 229.917 166.179V173.907H228.537ZM236.421 173.907V164.453H242.284V165.681H237.847V168.561H241.864V169.785H237.847V173.907H236.421ZM246.394 174.05C245.729 174.05 245.149 173.898 244.653 173.593C244.158 173.289 243.773 172.862 243.499 172.315C243.225 171.767 243.088 171.127 243.088 170.394C243.088 169.659 243.225 169.015 243.499 168.464C243.773 167.913 244.158 167.486 244.653 167.181C245.149 166.876 245.729 166.724 246.394 166.724C247.058 166.724 247.638 166.876 248.134 167.181C248.629 167.486 249.014 167.913 249.288 168.464C249.562 169.015 249.699 169.659 249.699 170.394C249.699 171.127 249.562 171.767 249.288 172.315C249.014 172.862 248.629 173.289 248.134 173.593C247.638 173.898 247.058 174.05 246.394 174.05ZM246.398 172.892C246.829 172.892 247.186 172.778 247.469 172.55C247.752 172.322 247.962 172.019 248.097 171.641C248.236 171.262 248.305 170.845 248.305 170.389C248.305 169.937 248.236 169.522 248.097 169.143C247.962 168.761 247.752 168.455 247.469 168.224C247.186 167.994 246.829 167.878 246.398 167.878C245.964 167.878 245.604 167.994 245.318 168.224C245.035 168.455 244.824 168.761 244.685 169.143C244.55 169.522 244.482 169.937 244.482 170.389C244.482 170.845 244.55 171.262 244.685 171.641C244.824 172.019 245.035 172.322 245.318 172.55C245.604 172.778 245.964 172.892 246.398 172.892ZM254.227 174.05C253.562 174.05 252.982 173.898 252.486 173.593C251.991 173.289 251.606 172.862 251.332 172.315C251.058 171.767 250.921 171.127 250.921 170.394C250.921 169.659 251.058 169.015 251.332 168.464C251.606 167.913 251.991 167.486 252.486 167.181C252.982 166.876 253.562 166.724 254.227 166.724C254.891 166.724 255.471 166.876 255.967 167.181C256.462 167.486 256.847 167.913 257.121 168.464C257.395 169.015 257.532 169.659 257.532 170.394C257.532 171.127 257.395 171.767 257.121 172.315C256.847 172.862 256.462 173.289 255.967 173.593C255.471 173.898 254.891 174.05 254.227 174.05ZM254.231 172.892C254.662 172.892 255.019 172.778 255.302 172.55C255.585 172.322 255.795 172.019 255.93 171.641C256.069 171.262 256.138 170.845 256.138 170.389C256.138 169.937 256.069 169.522 255.93 169.143C255.795 168.761 255.585 168.455 255.302 168.224C255.019 167.994 254.662 167.878 254.231 167.878C253.797 167.878 253.437 167.994 253.151 168.224C252.868 168.455 252.657 168.761 252.518 169.143C252.383 169.522 252.315 169.937 252.315 170.389C252.315 170.845 252.383 171.262 252.518 171.641C252.657 172.019 252.868 172.322 253.151 172.55C253.437 172.778 253.797 172.892 254.231 172.892ZM261.727 174.046C261.155 174.046 260.644 173.9 260.194 173.607C259.748 173.312 259.397 172.892 259.142 172.347C258.89 171.799 258.763 171.142 258.763 170.376C258.763 169.609 258.891 168.954 259.147 168.409C259.405 167.864 259.759 167.447 260.208 167.158C260.658 166.869 261.167 166.724 261.736 166.724C262.176 166.724 262.53 166.798 262.798 166.946C263.069 167.09 263.278 167.259 263.426 167.453C263.577 167.647 263.694 167.818 263.777 167.966H263.86V164.453H265.24V173.907H263.892V172.804H263.777C263.694 172.955 263.574 173.127 263.417 173.321C263.263 173.515 263.051 173.684 262.78 173.829C262.509 173.973 262.158 174.046 261.727 174.046ZM262.032 172.869C262.429 172.869 262.764 172.764 263.038 172.555C263.315 172.342 263.525 172.048 263.666 171.673C263.811 171.297 263.883 170.86 263.883 170.362C263.883 169.869 263.812 169.438 263.671 169.069C263.529 168.7 263.321 168.412 263.047 168.206C262.774 168 262.435 167.897 262.032 167.897C261.616 167.897 261.27 168.004 260.993 168.22C260.716 168.435 260.507 168.729 260.365 169.101C260.227 169.474 260.158 169.894 260.158 170.362C260.158 170.836 260.228 171.262 260.37 171.641C260.511 172.019 260.721 172.319 260.998 172.541C261.278 172.759 261.623 172.869 262.032 172.869ZM151.032 185.907V176.453H154.402C155.138 176.453 155.747 176.587 156.23 176.854C156.713 177.122 157.075 177.488 157.315 177.953C157.555 178.415 157.675 178.935 157.675 179.513C157.675 180.095 157.554 180.618 157.311 181.083C157.07 181.545 156.707 181.911 156.221 182.182C155.738 182.449 155.13 182.583 154.398 182.583H152.08V181.374H154.268C154.733 181.374 155.11 181.294 155.399 181.134C155.689 180.971 155.901 180.749 156.036 180.469C156.172 180.189 156.24 179.87 156.24 179.513C156.24 179.156 156.172 178.839 156.036 178.562C155.901 178.285 155.687 178.068 155.395 177.911C155.105 177.755 154.724 177.676 154.25 177.676H152.459V185.907H151.032ZM159.237 185.907V178.816H160.571V179.943H160.645C160.774 179.561 161.002 179.261 161.328 179.043C161.657 178.821 162.03 178.71 162.445 178.71C162.531 178.71 162.633 178.713 162.75 178.719C162.87 178.726 162.964 178.733 163.031 178.742V180.063C162.976 180.047 162.878 180.03 162.736 180.012C162.594 179.99 162.453 179.98 162.311 179.98C161.985 179.98 161.694 180.049 161.439 180.187C161.186 180.323 160.986 180.512 160.839 180.755C160.691 180.995 160.617 181.269 160.617 181.577V185.907H159.237ZM166.959 186.05C166.294 186.05 165.714 185.898 165.219 185.593C164.723 185.289 164.338 184.862 164.064 184.315C163.791 183.767 163.654 183.127 163.654 182.394C163.654 181.659 163.791 181.015 164.064 180.464C164.338 179.913 164.723 179.486 165.219 179.181C165.714 178.876 166.294 178.724 166.959 178.724C167.624 178.724 168.204 178.876 168.699 179.181C169.195 179.486 169.58 179.913 169.853 180.464C170.127 181.015 170.264 181.659 170.264 182.394C170.264 183.127 170.127 183.767 169.853 184.315C169.58 184.862 169.195 185.289 168.699 185.593C168.204 185.898 167.624 186.05 166.959 186.05ZM166.964 184.892C167.394 184.892 167.751 184.778 168.035 184.55C168.318 184.322 168.527 184.019 168.662 183.641C168.801 183.262 168.87 182.845 168.87 182.389C168.87 181.937 168.801 181.522 168.662 181.143C168.527 180.761 168.318 180.455 168.035 180.224C167.751 179.994 167.394 179.878 166.964 179.878C166.53 179.878 166.17 179.994 165.883 180.224C165.6 180.455 165.389 180.761 165.251 181.143C165.115 181.522 165.048 181.937 165.048 182.389C165.048 182.845 165.115 183.262 165.251 183.641C165.389 184.019 165.6 184.322 165.883 184.55C166.17 184.778 166.53 184.892 166.964 184.892ZM174.46 186.046C173.887 186.046 173.376 185.9 172.927 185.607C172.481 185.312 172.13 184.892 171.874 184.347C171.622 183.799 171.496 183.142 171.496 182.376C171.496 181.609 171.624 180.954 171.879 180.409C172.137 179.864 172.491 179.447 172.941 179.158C173.39 178.869 173.899 178.724 174.469 178.724C174.909 178.724 175.263 178.798 175.531 178.946C175.801 179.09 176.011 179.259 176.158 179.453C176.309 179.647 176.426 179.818 176.509 179.966H176.592V176.453H177.973V185.907H176.625V184.804H176.509C176.426 184.955 176.306 185.127 176.149 185.321C175.995 185.515 175.783 185.684 175.512 185.829C175.241 185.973 174.89 186.046 174.46 186.046ZM174.764 184.869C175.161 184.869 175.497 184.764 175.771 184.555C176.048 184.342 176.257 184.048 176.399 183.673C176.543 183.297 176.615 182.86 176.615 182.362C176.615 181.869 176.545 181.438 176.403 181.069C176.262 180.7 176.054 180.412 175.78 180.206C175.506 180 175.167 179.897 174.764 179.897C174.349 179.897 174.003 180.004 173.726 180.22C173.449 180.435 173.239 180.729 173.098 181.101C172.959 181.474 172.89 181.894 172.89 182.362C172.89 182.836 172.961 183.262 173.102 183.641C173.244 184.019 173.453 184.319 173.73 184.541C174.01 184.759 174.355 184.869 174.764 184.869ZM184.435 182.967V178.816H185.82V185.907H184.462V184.679H184.388C184.225 185.058 183.964 185.373 183.604 185.626C183.247 185.875 182.802 186 182.27 186C181.814 186 181.411 185.9 181.06 185.699C180.712 185.496 180.438 185.196 180.238 184.799C180.041 184.402 179.943 183.911 179.943 183.327V178.816H181.323V183.16C181.323 183.644 181.457 184.028 181.725 184.315C181.993 184.601 182.34 184.744 182.768 184.744C183.027 184.744 183.284 184.679 183.539 184.55C183.798 184.421 184.011 184.225 184.181 183.964C184.353 183.702 184.438 183.37 184.435 182.967ZM190.661 186.05C189.975 186.05 189.384 185.895 188.888 185.584C188.396 185.27 188.017 184.838 187.753 184.287C187.488 183.736 187.356 183.105 187.356 182.394C187.356 181.674 187.491 181.038 187.762 180.487C188.033 179.934 188.414 179.501 188.907 179.19C189.399 178.879 189.979 178.724 190.647 178.724C191.186 178.724 191.666 178.824 192.088 179.024C192.509 179.221 192.849 179.498 193.108 179.855C193.369 180.212 193.525 180.629 193.574 181.106H192.231C192.157 180.774 191.988 180.487 191.723 180.247C191.461 180.007 191.11 179.887 190.67 179.887C190.286 179.887 189.949 179.989 189.659 180.192C189.373 180.392 189.15 180.678 188.99 181.051C188.83 181.42 188.75 181.857 188.75 182.362C188.75 182.879 188.828 183.325 188.985 183.701C189.142 184.076 189.364 184.367 189.65 184.573C189.939 184.779 190.279 184.882 190.67 184.882C190.932 184.882 191.169 184.835 191.381 184.739C191.597 184.641 191.777 184.501 191.921 184.319C192.069 184.138 192.172 183.919 192.231 183.664H193.574C193.525 184.122 193.376 184.532 193.126 184.892C192.877 185.252 192.543 185.535 192.125 185.741C191.709 185.947 191.221 186.05 190.661 186.05ZM198.36 178.816V179.924H194.487V178.816H198.36ZM195.526 177.117H196.906V183.825C196.906 184.093 196.946 184.295 197.026 184.43C197.106 184.562 197.209 184.653 197.335 184.702C197.465 184.748 197.605 184.772 197.755 184.772C197.866 184.772 197.963 184.764 198.046 184.748C198.129 184.733 198.194 184.721 198.24 184.712L198.49 185.852C198.409 185.883 198.296 185.913 198.148 185.944C198 185.978 197.815 185.996 197.594 186C197.231 186.006 196.892 185.941 196.578 185.806C196.264 185.67 196.01 185.461 195.817 185.178C195.623 184.895 195.526 184.539 195.526 184.111V177.117ZM199.887 185.907V178.816H201.267V185.907H199.887ZM200.584 177.722C200.344 177.722 200.138 177.642 199.966 177.482C199.796 177.319 199.712 177.125 199.712 176.9C199.712 176.673 199.796 176.479 199.966 176.319C200.138 176.156 200.344 176.074 200.584 176.074C200.824 176.074 201.029 176.156 201.198 176.319C201.371 176.479 201.457 176.673 201.457 176.9C201.457 177.125 201.371 177.319 201.198 177.482C201.029 177.642 200.824 177.722 200.584 177.722ZM206.111 186.05C205.447 186.05 204.866 185.898 204.371 185.593C203.875 185.289 203.491 184.862 203.217 184.315C202.943 183.767 202.806 183.127 202.806 182.394C202.806 181.659 202.943 181.015 203.217 180.464C203.491 179.913 203.875 179.486 204.371 179.181C204.866 178.876 205.447 178.724 206.111 178.724C206.776 178.724 207.356 178.876 207.852 179.181C208.347 179.486 208.732 179.913 209.006 180.464C209.28 181.015 209.417 181.659 209.417 182.394C209.417 183.127 209.28 183.767 209.006 184.315C208.732 184.862 208.347 185.289 207.852 185.593C207.356 185.898 206.776 186.05 206.111 186.05ZM206.116 184.892C206.547 184.892 206.904 184.778 207.187 184.55C207.47 184.322 207.679 184.019 207.815 183.641C207.953 183.262 208.023 182.845 208.023 182.389C208.023 181.937 207.953 181.522 207.815 181.143C207.679 180.761 207.47 180.455 207.187 180.224C206.904 179.994 206.547 179.878 206.116 179.878C205.682 179.878 205.322 179.994 205.036 180.224C204.753 180.455 204.542 180.761 204.403 181.143C204.268 181.522 204.2 181.937 204.2 182.389C204.2 182.845 204.268 183.262 204.403 183.641C204.542 184.019 204.753 184.322 205.036 184.55C205.322 184.778 205.682 184.892 206.116 184.892ZM212.338 181.697V185.907H210.957V178.816H212.282V179.97H212.37C212.533 179.595 212.789 179.293 213.136 179.066C213.487 178.838 213.929 178.724 214.461 178.724C214.945 178.724 215.368 178.826 215.731 179.029C216.094 179.229 216.376 179.527 216.576 179.924C216.776 180.321 216.876 180.812 216.876 181.397V185.907H215.495V181.563C215.495 181.049 215.362 180.648 215.094 180.358C214.826 180.066 214.458 179.92 213.99 179.92C213.67 179.92 213.386 179.989 213.136 180.127C212.89 180.266 212.695 180.469 212.55 180.737C212.409 181.001 212.338 181.322 212.338 181.697Z" fill="black"/>
<path d="M151.865 276.545L154.496 284.246H154.603L157.234 276.545H158.776L155.374 286H153.725L150.323 276.545H151.865ZM161.396 286.157C160.946 286.157 160.54 286.074 160.177 285.908C159.814 285.738 159.526 285.494 159.314 285.174C159.104 284.854 159 284.461 159 283.996C159 283.596 159.077 283.267 159.231 283.009C159.385 282.75 159.592 282.545 159.854 282.395C160.115 282.244 160.408 282.13 160.731 282.053C161.054 281.976 161.383 281.917 161.719 281.877C162.144 281.828 162.488 281.788 162.753 281.757C163.018 281.724 163.21 281.67 163.33 281.596C163.45 281.522 163.51 281.402 163.51 281.236V281.203C163.51 280.8 163.396 280.488 163.169 280.266C162.944 280.045 162.608 279.934 162.162 279.934C161.697 279.934 161.331 280.037 161.063 280.243C160.799 280.446 160.616 280.673 160.514 280.922L159.217 280.626C159.371 280.196 159.595 279.848 159.891 279.583C160.189 279.315 160.532 279.121 160.92 279.001C161.308 278.878 161.716 278.817 162.144 278.817C162.427 278.817 162.727 278.851 163.044 278.918C163.364 278.983 163.662 279.103 163.939 279.278C164.22 279.454 164.449 279.705 164.627 280.031C164.806 280.354 164.895 280.774 164.895 281.291V286H163.547V285.031H163.492C163.402 285.209 163.269 285.384 163.09 285.557C162.912 285.729 162.682 285.872 162.402 285.986C162.122 286.1 161.787 286.157 161.396 286.157ZM161.696 285.049C162.077 285.049 162.404 284.974 162.675 284.823C162.948 284.672 163.156 284.475 163.298 284.232C163.442 283.986 163.515 283.723 163.515 283.442V282.528C163.465 282.578 163.37 282.624 163.229 282.667C163.09 282.707 162.932 282.742 162.753 282.773C162.575 282.801 162.401 282.827 162.231 282.852C162.062 282.873 161.921 282.892 161.807 282.907C161.539 282.941 161.294 282.998 161.073 283.078C160.854 283.158 160.679 283.273 160.546 283.424C160.417 283.572 160.352 283.769 160.352 284.015C160.352 284.357 160.479 284.615 160.731 284.79C160.983 284.963 161.305 285.049 161.696 285.049ZM168.114 276.545V286H166.734V276.545H168.114ZM169.971 286V278.909H171.351V286H169.971ZM170.668 277.815C170.428 277.815 170.222 277.735 170.049 277.575C169.88 277.412 169.795 277.218 169.795 276.993C169.795 276.766 169.88 276.572 170.049 276.412C170.222 276.248 170.428 276.167 170.668 276.167C170.908 276.167 171.113 276.248 171.282 276.412C171.454 276.572 171.54 276.766 171.54 276.993C171.54 277.218 171.454 277.412 171.282 277.575C171.113 277.735 170.908 277.815 170.668 277.815ZM175.863 286.138C175.29 286.138 174.779 285.992 174.33 285.7C173.884 285.404 173.533 284.984 173.277 284.44C173.025 283.892 172.899 283.235 172.899 282.468C172.899 281.702 173.027 281.047 173.282 280.502C173.541 279.957 173.895 279.54 174.344 279.251C174.793 278.961 175.303 278.817 175.872 278.817C176.312 278.817 176.666 278.891 176.934 279.038C177.205 279.183 177.414 279.352 177.562 279.546C177.712 279.74 177.829 279.911 177.912 280.059H177.995V276.545H179.376V286H178.028V284.897H177.912C177.829 285.047 177.709 285.22 177.552 285.414C177.398 285.608 177.186 285.777 176.915 285.922C176.644 286.066 176.294 286.138 175.863 286.138ZM176.167 284.961C176.564 284.961 176.9 284.857 177.174 284.647C177.451 284.435 177.66 284.141 177.802 283.766C177.946 283.39 178.019 282.953 178.019 282.455C178.019 281.962 177.948 281.531 177.806 281.162C177.665 280.793 177.457 280.505 177.183 280.299C176.909 280.092 176.571 279.989 176.167 279.989C175.752 279.989 175.406 280.097 175.129 280.312C174.852 280.528 174.642 280.822 174.501 281.194C174.362 281.567 174.293 281.987 174.293 282.455C174.293 282.929 174.364 283.355 174.505 283.733C174.647 284.112 174.856 284.412 175.133 284.634C175.413 284.852 175.758 284.961 176.167 284.961ZM188.096 278.909V280.017H184.223V278.909H188.096ZM185.262 277.21H186.642V283.918C186.642 284.186 186.682 284.387 186.762 284.523C186.842 284.655 186.945 284.746 187.071 284.795C187.201 284.841 187.341 284.864 187.492 284.864C187.602 284.864 187.699 284.857 187.782 284.841C187.866 284.826 187.93 284.814 187.976 284.804L188.226 285.945C188.146 285.975 188.032 286.006 187.884 286.037C187.736 286.071 187.552 286.089 187.33 286.092C186.967 286.098 186.628 286.034 186.314 285.898C186 285.763 185.747 285.554 185.553 285.271C185.359 284.987 185.262 284.632 185.262 284.204V277.21ZM189.623 286V278.909H191.004V286H189.623ZM190.32 277.815C190.08 277.815 189.874 277.735 189.702 277.575C189.532 277.412 189.448 277.218 189.448 276.993C189.448 276.766 189.532 276.572 189.702 276.412C189.874 276.248 190.08 276.167 190.32 276.167C190.56 276.167 190.765 276.248 190.934 276.412C191.107 276.572 191.193 276.766 191.193 276.993C191.193 277.218 191.107 277.412 190.934 277.575C190.765 277.735 190.56 277.815 190.32 277.815ZM194.241 276.545V286H192.861V276.545H194.241ZM154.496 300.545V310H153.065V301.977H153.01L150.748 303.454V302.087L153.107 300.545H154.496ZM160.346 310.129C159.712 310.129 159.145 310.02 158.647 309.801C158.151 309.583 157.759 309.28 157.469 308.892C157.183 308.501 157.029 308.049 157.008 307.535H158.457C158.476 307.815 158.57 308.058 158.739 308.264C158.911 308.467 159.136 308.624 159.413 308.735C159.69 308.846 159.998 308.901 160.336 308.901C160.709 308.901 161.038 308.837 161.324 308.707C161.614 308.578 161.84 308.398 162.003 308.167C162.166 307.933 162.248 307.664 162.248 307.359C162.248 307.042 162.166 306.764 162.003 306.524C161.843 306.281 161.607 306.09 161.297 305.951C160.989 305.813 160.616 305.744 160.179 305.744H159.381V304.58H160.179C160.53 304.58 160.838 304.517 161.103 304.391C161.37 304.265 161.58 304.089 161.73 303.865C161.881 303.637 161.957 303.371 161.957 303.066C161.957 302.774 161.891 302.52 161.758 302.304C161.629 302.086 161.444 301.915 161.204 301.792C160.967 301.669 160.687 301.607 160.364 301.607C160.056 301.607 159.768 301.664 159.501 301.778C159.236 301.889 159.021 302.049 158.854 302.258C158.688 302.464 158.599 302.712 158.587 303.001H157.206C157.222 302.491 157.373 302.041 157.659 301.653C157.948 301.266 158.33 300.962 158.804 300.744C159.278 300.525 159.804 300.416 160.382 300.416C160.989 300.416 161.512 300.535 161.952 300.772C162.395 301.006 162.737 301.318 162.977 301.709C163.22 302.1 163.34 302.527 163.337 302.992C163.34 303.522 163.192 303.971 162.894 304.34C162.598 304.71 162.204 304.957 161.712 305.083V305.157C162.34 305.253 162.826 305.502 163.171 305.905C163.519 306.308 163.691 306.808 163.688 307.406C163.691 307.926 163.546 308.392 163.254 308.804C162.965 309.217 162.569 309.541 162.067 309.778C161.566 310.012 160.992 310.129 160.346 310.129ZM169.052 300.102L166.005 311.422H164.773L167.82 300.102H169.052ZM170.206 310V308.966L173.406 305.651C173.747 305.291 174.029 304.976 174.25 304.705C174.475 304.431 174.643 304.171 174.754 303.925C174.864 303.679 174.92 303.417 174.92 303.14C174.92 302.826 174.846 302.555 174.698 302.327C174.55 302.097 174.349 301.92 174.093 301.797C173.838 301.67 173.55 301.607 173.23 301.607C172.892 301.607 172.596 301.676 172.344 301.815C172.091 301.953 171.897 302.149 171.762 302.401C171.627 302.654 171.559 302.949 171.559 303.288H170.197C170.197 302.712 170.329 302.209 170.594 301.778C170.859 301.347 171.222 301.013 171.684 300.776C172.145 300.536 172.67 300.416 173.258 300.416C173.852 300.416 174.375 300.535 174.827 300.772C175.283 301.006 175.638 301.326 175.894 301.732C176.149 302.135 176.277 302.591 176.277 303.098C176.277 303.449 176.211 303.792 176.078 304.128C175.949 304.463 175.723 304.837 175.4 305.25C175.077 305.659 174.627 306.156 174.052 306.741L172.173 308.707V308.777H176.429V310H170.206ZM181.798 300.102L178.751 311.422H177.519L180.566 300.102H181.798ZM182.952 310V308.966L186.152 305.651C186.493 305.291 186.775 304.976 186.996 304.705C187.221 304.431 187.389 304.171 187.5 303.925C187.61 303.679 187.666 303.417 187.666 303.14C187.666 302.826 187.592 302.555 187.444 302.327C187.297 302.097 187.095 301.92 186.839 301.797C186.584 301.67 186.296 301.607 185.976 301.607C185.638 301.607 185.342 301.676 185.09 301.815C184.837 301.953 184.644 302.149 184.508 302.401C184.373 302.654 184.305 302.949 184.305 303.288H182.943C182.943 302.712 183.076 302.209 183.34 301.778C183.605 301.347 183.968 301.013 184.43 300.776C184.891 300.536 185.416 300.416 186.004 300.416C186.598 300.416 187.121 300.535 187.574 300.772C188.029 301.006 188.384 301.326 188.64 301.732C188.895 302.135 189.023 302.591 189.023 303.098C189.023 303.449 188.957 303.792 188.825 304.128C188.695 304.463 188.469 304.837 188.146 305.25C187.823 305.659 187.373 306.156 186.798 306.741L184.919 308.707V308.777H189.175V310H182.952ZM194.217 310.157C193.487 310.154 192.864 309.962 192.347 309.58C191.83 309.198 191.434 308.643 191.161 307.913C190.887 307.184 190.75 306.305 190.75 305.277C190.75 304.252 190.887 303.377 191.161 302.651C191.438 301.924 191.835 301.37 192.352 300.989C192.872 300.607 193.493 300.416 194.217 300.416C194.94 300.416 195.56 300.609 196.077 300.993C196.594 301.375 196.99 301.929 197.263 302.655C197.54 303.378 197.679 304.252 197.679 305.277C197.679 306.308 197.542 307.189 197.268 307.918C196.994 308.644 196.599 309.2 196.082 309.585C195.565 309.966 194.943 310.157 194.217 310.157ZM194.217 308.924C194.857 308.924 195.357 308.612 195.717 307.987C196.08 307.362 196.262 306.459 196.262 305.277C196.262 304.493 196.179 303.829 196.012 303.288C195.849 302.743 195.614 302.33 195.306 302.05C195.001 301.767 194.638 301.626 194.217 301.626C193.58 301.626 193.079 301.94 192.716 302.567C192.353 303.195 192.17 304.099 192.167 305.277C192.167 306.065 192.248 306.732 192.412 307.276C192.578 307.818 192.813 308.229 193.118 308.509C193.423 308.786 193.789 308.924 194.217 308.924ZM199.317 310V308.966L202.516 305.651C202.858 305.291 203.139 304.976 203.361 304.705C203.585 304.431 203.753 304.171 203.864 303.925C203.975 303.679 204.03 303.417 204.03 303.14C204.03 302.826 203.956 302.555 203.809 302.327C203.661 302.097 203.459 301.92 203.204 301.797C202.948 301.67 202.661 301.607 202.34 301.607C202.002 301.607 201.706 301.676 201.454 301.815C201.202 301.953 201.008 302.149 200.872 302.401C200.737 302.654 200.669 302.949 200.669 303.288H199.307C199.307 302.712 199.44 302.209 199.704 301.778C199.969 301.347 200.332 301.013 200.794 300.776C201.256 300.536 201.78 300.416 202.368 300.416C202.962 300.416 203.485 300.535 203.938 300.772C204.393 301.006 204.749 301.326 205.004 301.732C205.26 302.135 205.387 302.591 205.387 303.098C205.387 303.449 205.321 303.792 205.189 304.128C205.06 304.463 204.833 304.837 204.51 305.25C204.187 305.659 203.738 306.156 203.162 306.741L201.283 308.707V308.777H205.54V310H199.317ZM210.41 310.129C209.831 310.129 209.311 310.018 208.85 309.797C208.391 309.572 208.025 309.264 207.751 308.874C207.477 308.483 207.331 308.036 207.312 307.535H208.697C208.731 307.941 208.911 308.275 209.237 308.537C209.564 308.798 209.955 308.929 210.41 308.929C210.773 308.929 211.095 308.846 211.375 308.68C211.658 308.51 211.88 308.278 212.04 307.983C212.203 307.687 212.284 307.35 212.284 306.972C212.284 306.587 212.201 306.244 212.035 305.942C211.869 305.641 211.64 305.404 211.347 305.231C211.058 305.059 210.726 304.971 210.35 304.968C210.064 304.968 209.776 305.017 209.487 305.116C209.197 305.214 208.964 305.344 208.785 305.504L207.479 305.31L208.009 300.545H213.208V301.769H209.196L208.896 304.414H208.951C209.136 304.236 209.381 304.086 209.685 303.966C209.993 303.846 210.322 303.786 210.673 303.786C211.249 303.786 211.761 303.923 212.21 304.197C212.663 304.471 213.018 304.845 213.277 305.319C213.539 305.79 213.668 306.331 213.665 306.944C213.668 307.556 213.529 308.103 213.249 308.583C212.972 309.063 212.588 309.441 212.095 309.718C211.606 309.992 211.044 310.129 210.41 310.129Z" fill="black"/>
<path d="M170.73 221.06C170.565 220.543 170.344 220.08 170.065 219.67C169.793 219.256 169.466 218.903 169.085 218.614C168.705 218.318 168.27 218.094 167.781 217.94C167.298 217.787 166.767 217.71 166.188 217.71C165.205 217.71 164.318 217.963 163.528 218.469C162.739 218.974 162.114 219.716 161.653 220.693C161.199 221.665 160.972 222.855 160.972 224.264C160.972 225.679 161.202 226.875 161.662 227.852C162.122 228.83 162.753 229.571 163.554 230.077C164.355 230.582 165.267 230.835 166.29 230.835C167.239 230.835 168.065 230.642 168.77 230.256C169.48 229.869 170.028 229.324 170.415 228.619C170.807 227.909 171.003 227.074 171.003 226.114L171.685 226.241H166.69V224.068H173.551V226.054C173.551 227.52 173.239 228.793 172.614 229.872C171.994 230.946 171.136 231.776 170.04 232.361C168.949 232.946 167.699 233.239 166.29 233.239C164.71 233.239 163.324 232.875 162.131 232.148C160.943 231.42 160.017 230.389 159.352 229.054C158.688 227.713 158.355 226.122 158.355 224.281C158.355 222.889 158.548 221.639 158.935 220.531C159.321 219.423 159.864 218.483 160.562 217.71C161.267 216.932 162.094 216.338 163.043 215.929C163.997 215.514 165.04 215.307 166.17 215.307C167.114 215.307 167.991 215.446 168.804 215.724C169.622 216.003 170.349 216.398 170.986 216.909C171.628 217.42 172.159 218.028 172.58 218.733C173 219.432 173.284 220.207 173.432 221.06H170.73ZM176.894 233V215.545H183.116C184.468 215.545 185.59 215.778 186.482 216.244C187.38 216.71 188.05 217.355 188.494 218.179C188.937 218.997 189.158 219.943 189.158 221.017C189.158 222.085 188.934 223.026 188.485 223.838C188.042 224.645 187.371 225.273 186.474 225.722C185.582 226.17 184.46 226.395 183.107 226.395H178.394V224.128H182.869C183.721 224.128 184.414 224.006 184.948 223.761C185.488 223.517 185.883 223.162 186.133 222.696C186.383 222.23 186.508 221.67 186.508 221.017C186.508 220.358 186.38 219.787 186.124 219.304C185.874 218.821 185.479 218.452 184.94 218.196C184.406 217.935 183.704 217.804 182.835 217.804H179.528V233H176.894ZM185.511 225.125L189.823 233H186.823L182.596 225.125H185.511ZM206.451 215.545V233H204.031L195.158 220.199H194.996V233H192.363V215.545H194.8L203.681 228.364H203.843V215.545H206.451ZM210.293 233V215.545H212.926V230.733H220.835V233H210.293ZM221.204 215.545H224.195L228.755 223.48H228.942L233.502 215.545H236.494L230.161 226.148V233H227.536V226.148L221.204 215.545ZM245.332 233V215.545H256.156V217.812H247.965V223.131H255.38V225.389H247.965V233H245.332ZM274.556 224.273C274.556 226.136 274.215 227.739 273.533 229.08C272.852 230.415 271.917 231.443 270.729 232.165C269.548 232.881 268.204 233.239 266.698 233.239C265.187 233.239 263.837 232.881 262.65 232.165C261.468 231.443 260.536 230.412 259.854 229.071C259.173 227.73 258.832 226.131 258.832 224.273C258.832 222.409 259.173 220.81 259.854 219.474C260.536 218.134 261.468 217.105 262.65 216.389C263.837 215.668 265.187 215.307 266.698 215.307C268.204 215.307 269.548 215.668 270.729 216.389C271.917 217.105 272.852 218.134 273.533 219.474C274.215 220.81 274.556 222.409 274.556 224.273ZM271.948 224.273C271.948 222.852 271.718 221.656 271.258 220.685C270.803 219.707 270.178 218.969 269.383 218.469C268.593 217.963 267.698 217.71 266.698 217.71C265.692 217.71 264.795 217.963 264.005 218.469C263.215 218.969 262.59 219.707 262.13 220.685C261.675 221.656 261.448 222.852 261.448 224.273C261.448 225.693 261.675 226.892 262.13 227.869C262.59 228.841 263.215 229.58 264.005 230.085C264.795 230.585 265.692 230.835 266.698 230.835C267.698 230.835 268.593 230.585 269.383 230.085C270.178 229.58 270.803 228.841 271.258 227.869C271.718 226.892 271.948 225.693 271.948 224.273ZM293.001 224.273C293.001 226.136 292.661 227.739 291.979 229.08C291.297 230.415 290.362 231.443 289.175 232.165C287.993 232.881 286.649 233.239 285.143 233.239C283.632 233.239 282.283 232.881 281.095 232.165C279.913 231.443 278.982 230.412 278.3 229.071C277.618 227.73 277.277 226.131 277.277 224.273C277.277 222.409 277.618 220.81 278.3 219.474C278.982 218.134 279.913 217.105 281.095 216.389C282.283 215.668 283.632 215.307 285.143 215.307C286.649 215.307 287.993 215.668 289.175 216.389C290.362 217.105 291.297 218.134 291.979 219.474C292.661 220.81 293.001 222.409 293.001 224.273ZM290.393 224.273C290.393 222.852 290.163 221.656 289.703 220.685C289.249 219.707 288.624 218.969 287.828 218.469C287.038 217.963 286.143 217.71 285.143 217.71C284.138 217.71 283.24 217.963 282.45 218.469C281.661 218.969 281.036 219.707 280.575 220.685C280.121 221.656 279.893 222.852 279.893 224.273C279.893 225.693 280.121 226.892 280.575 227.869C281.036 228.841 281.661 229.58 282.45 230.085C283.24 230.585 284.138 230.835 285.143 230.835C286.143 230.835 287.038 230.585 287.828 230.085C288.624 229.58 289.249 228.841 289.703 227.869C290.163 226.892 290.393 225.693 290.393 224.273ZM301.935 233H296.285V215.545H302.114C303.825 215.545 305.293 215.895 306.521 216.594C307.748 217.287 308.688 218.284 309.342 219.585C310.001 220.881 310.33 222.435 310.33 224.247C310.33 226.065 309.998 227.628 309.333 228.935C308.674 230.241 307.719 231.247 306.469 231.952C305.219 232.651 303.708 233 301.935 233ZM298.918 230.699H301.79C303.12 230.699 304.225 230.449 305.106 229.949C305.987 229.443 306.646 228.713 307.083 227.759C307.521 226.798 307.739 225.628 307.739 224.247C307.739 222.878 307.521 221.716 307.083 220.761C306.651 219.807 306.006 219.082 305.148 218.588C304.29 218.094 303.225 217.847 301.952 217.847H298.918V230.699Z" fill="black"/>
<path d="M291.705 381.635C292.992 381.761 294.93 382.207 296.53 383.137M296.53 383.137L291.705 385.724V393.901C294.247 393.405 299.332 391.411 299.332 387.396C299.332 385.414 298.092 384.045 296.53 383.137ZM296.53 383.137L299.332 381.635C300.882 378.166 304.057 373.31 304.355 381.635C304.652 389.961 302.246 392.042 301.006 392.042L299.332 380.675C288.108 377.526 270.088 372.492 287.798 377.547C305.508 382.602 313.036 382.379 314.587 381.635C313.966 380.273 313.47 377.547 316.447 377.547C319.423 377.547 323.144 382.998 324.632 385.724L309.936 389.627C309.936 384.051 288.706 381.975 296.53 383.137ZM326.307 383.137L340.073 381.635C334.74 381.541 322.548 381.409 316.447 381.635C310.345 381.862 306.711 385.57 305.657 387.396" stroke="black"/>
<path d="M242.089 400.208H348.904" stroke="black"/>
<rect x="1" y="1" width="502" height="502" rx="33" stroke="black" stroke-width="2"/>
</svg>
