<svg width="24" height="24" viewBox="0 0 24 24" fill="none" xmlns="http://www.w3.org/2000/svg">
<g clip-path="url(#clip0_5038_11918)">
<path d="M10.5 10.5H9.75V11.5H10.5C10.6318 11.4987 10.7577 11.4455 10.8504 11.3518C10.9432 11.2582 10.9952 11.1318 10.9952 11C10.9952 10.8682 10.9432 10.7418 10.8504 10.6481C10.7577 10.5545 10.6318 10.5013 10.5 10.5Z" fill="#838C9B"/>
<path d="M22.5301 10.7237L20.7896 8.6815C20.6573 8.52679 20.5775 8.33405 20.5618 8.13109L20.3482 5.45654C20.3126 4.98974 20.111 4.55111 19.78 4.22007C19.449 3.88903 19.0103 3.68746 18.5435 3.65186L15.869 3.43848C15.6659 3.42269 15.473 3.34284 15.3182 3.21043L13.2761 1.47011C12.9209 1.16519 12.4682 0.997559 12 0.997559C11.5318 0.997559 11.0791 1.16519 10.7239 1.47011L8.68192 3.2102C8.52713 3.34268 8.33426 3.42256 8.13114 3.43834L5.45654 3.65158C4.98971 3.68718 4.55106 3.88875 4.21998 4.21978C3.88891 4.55081 3.68729 4.98944 3.65162 5.45626L3.43848 8.13072C3.4226 8.3338 3.34267 8.52661 3.2102 8.68136L1.46996 10.7237C1.16499 11.079 0.997314 11.5318 0.997314 12C0.997314 12.4682 1.16499 12.921 1.46996 13.2762L3.21043 15.3185C3.34274 15.4732 3.42249 15.6659 3.4382 15.8689L3.65181 18.5434C3.68741 19.0102 3.88898 19.4489 4.22002 19.7799C4.55106 20.111 4.98969 20.3125 5.45649 20.3481L8.13104 20.5615C8.33415 20.5773 8.527 20.6571 8.68182 20.7895L10.7238 22.5299C11.0791 22.8348 11.5317 23.0025 11.9999 23.0025C12.4681 23.0025 12.9208 22.8348 13.276 22.5299L15.318 20.7898C15.4728 20.6574 15.6657 20.5775 15.8688 20.5617L18.5433 20.3483C19.0102 20.3127 19.4488 20.1111 19.7799 19.7801C20.111 19.4491 20.3126 19.0104 20.3483 18.5436L20.5614 15.8692C20.5773 15.6661 20.6572 15.4733 20.7897 15.3185L22.5299 13.2764C22.835 12.9211 23.0027 12.4684 23.0027 12.0001C23.0027 11.5318 22.8351 11.0791 22.5301 10.7237ZM7.74999 10.5H6.50003V11.5H7.50001C7.63178 11.5013 7.75772 11.5545 7.85044 11.6481C7.94317 11.7418 7.99518 11.8682 7.99518 12C7.99518 12.1318 7.94317 12.2582 7.85044 12.3518C7.75772 12.4455 7.63178 12.4987 7.50001 12.5H6.50003V14C6.50067 14.066 6.48821 14.1316 6.46337 14.1928C6.43852 14.254 6.4018 14.3097 6.35531 14.3567C6.30881 14.4036 6.25348 14.4409 6.1925 14.4663C6.13152 14.4917 6.0661 14.5048 6.00003 14.5048C5.93396 14.5048 5.86855 14.4917 5.80757 14.4663C5.74659 14.4409 5.69125 14.4036 5.64476 14.3567C5.59827 14.3097 5.56154 14.254 5.5367 14.1928C5.51186 14.1316 5.4994 14.066 5.50004 14V10C5.50005 9.8674 5.55273 9.74024 5.64649 9.64648C5.74025 9.55272 5.86741 9.50004 6.00001 9.50003H7.74999C7.81606 9.49939 7.8816 9.51185 7.94282 9.53669C8.00405 9.56153 8.05974 9.59826 8.10668 9.64475C8.15363 9.69124 8.19089 9.74658 8.21633 9.80756C8.24176 9.86854 8.25485 9.93395 8.25485 10C8.25485 10.0661 8.24176 10.1315 8.21633 10.1925C8.19089 10.2535 8.15363 10.3088 8.10668 10.3553C8.05974 10.4018 8.00405 10.4385 7.94282 10.4634C7.8816 10.4882 7.81606 10.5007 7.74999 10.5ZM10.8215 12.4653L11.8762 13.6707C11.9627 13.7706 12.0061 13.9007 11.997 14.0325C11.9879 14.1643 11.9269 14.2871 11.8275 14.3742C11.7281 14.4612 11.5983 14.5053 11.4664 14.4969C11.3345 14.4885 11.2114 14.4283 11.1238 14.3294L9.75001 12.7594V14.0001C9.75065 14.0662 9.73819 14.1317 9.71335 14.193C9.68851 14.2542 9.65178 14.3099 9.60529 14.3568C9.5588 14.4038 9.50346 14.441 9.44248 14.4665C9.3815 14.4919 9.31609 14.505 9.25002 14.505C9.18395 14.505 9.11853 14.4919 9.05755 14.4665C8.99657 14.441 8.94124 14.4038 8.89475 14.3568C8.84825 14.3099 8.81153 14.2542 8.78669 14.193C8.76185 14.1317 8.74939 14.0662 8.75003 14.0001V10C8.75003 9.86738 8.80271 9.7402 8.89648 9.64643C8.99025 9.55266 9.11743 9.49998 9.25004 9.49998H10.5C10.87 9.49978 11.227 9.63632 11.5024 9.88335C11.7778 10.1304 11.9522 10.4705 11.9921 10.8383C12.032 11.2061 11.9345 11.5757 11.7184 11.876C11.5024 12.1763 11.1829 12.3862 10.8215 12.4653V12.4653ZM14.5 11.5C14.6318 11.5013 14.7577 11.5545 14.8504 11.6481C14.9432 11.7418 14.9952 11.8682 14.9952 12C14.9952 12.1318 14.9432 12.2582 14.8504 12.3518C14.7577 12.4455 14.6318 12.4987 14.5 12.5H13.5V13.5H14.75C14.8818 13.5013 15.0077 13.5545 15.1005 13.6482C15.1932 13.7418 15.2452 13.8682 15.2452 14C15.2452 14.1318 15.1932 14.2582 15.1005 14.3519C15.0077 14.4455 14.8818 14.4987 14.75 14.5H13C12.8674 14.5 12.7402 14.4473 12.6464 14.3535C12.5527 14.2598 12.5 14.1326 12.5 14V10C12.5 9.86738 12.5527 9.7402 12.6464 9.64643C12.7402 9.55266 12.8674 9.49998 13 9.49998H14.75C14.8817 9.50126 15.0077 9.5545 15.1004 9.64813C15.1931 9.74175 15.2452 9.8682 15.2452 9.99997C15.2452 10.1317 15.1931 10.2582 15.1004 10.3518C15.0077 10.4455 14.8817 10.4987 14.75 10.5H13.5V11.5L14.5 11.5ZM17.75 11.5C17.816 11.4994 17.8816 11.5118 17.9428 11.5367C18.004 11.5615 18.0597 11.5982 18.1067 11.6447C18.1536 11.6912 18.1909 11.7465 18.2163 11.8075C18.2417 11.8685 18.2548 11.9339 18.2548 12C18.2548 12.0661 18.2417 12.1315 18.2163 12.1925C18.1909 12.2534 18.1536 12.3088 18.1067 12.3553C18.0597 12.4018 18.004 12.4385 17.9428 12.4633C17.8816 12.4882 17.816 12.5006 17.75 12.5H16.75V13.5H18C18.1318 13.5013 18.2577 13.5545 18.3504 13.6482C18.4432 13.7418 18.4952 13.8682 18.4952 14C18.4952 14.1318 18.4432 14.2582 18.3504 14.3519C18.2577 14.4455 18.1318 14.4987 18 14.5H16.25C16.1174 14.5 15.9902 14.4473 15.8965 14.3536C15.8027 14.2598 15.75 14.1326 15.75 14V10C15.75 9.86738 15.8027 9.7402 15.8965 9.64643C15.9902 9.55266 16.1174 9.49998 16.25 9.49998H18C18.1326 9.49998 18.2598 9.55266 18.3536 9.64643C18.4473 9.7402 18.5 9.86738 18.5 10C18.5 10.1326 18.4473 10.2598 18.3536 10.3536C18.2598 10.4473 18.1326 10.5 18 10.5H16.75V11.5H17.75Z" fill="#838C9B"/>
</g>
<defs>
<clipPath id="clip0_5038_11918">
<rect width="24" height="24" fill="white"/>
</clipPath>
</defs>
</svg>
