<svg width="48" height="48" viewBox="0 0 48 48" fill="none" xmlns="http://www.w3.org/2000/svg">
<path d="M41.8171 28.5587H37.7989V15.0353H39.758V15.8573C39.758 16.3751 40.1778 16.7948 40.6955 16.7948C41.2132 16.7948 41.633 16.3751 41.633 15.8573V12.3382C41.633 11.8204 41.2132 11.4007 40.6955 11.4007C40.1778 11.4007 39.758 11.8204 39.758 12.3382V13.1603H37.7989V0.9375C37.7989 0.419719 37.3791 0 36.8614 0H6.19418C5.6764 0 5.25668 0.419719 5.25668 0.9375V13.1603H3.49512V12.3382C3.49512 11.8204 3.0754 11.4007 2.55762 11.4007C2.03984 11.4007 1.62012 11.8204 1.62012 12.3382V15.8573C1.62012 16.3751 2.03984 16.7948 2.55762 16.7948C3.0754 16.7948 3.49512 16.3751 3.49512 15.8573V15.0353H5.25668V41.8771C5.25668 42.3949 5.6764 42.8146 6.19418 42.8146H14.1059C14.6237 42.8146 15.0434 42.3949 15.0434 41.8771C15.0434 41.3593 14.6237 40.9396 14.1059 40.9396H7.13168V15.0353H35.9239V28.5587H31.7659C29.2494 28.5587 27.2021 30.6055 27.2021 33.1216V40.9396H22.3559C21.8381 40.9396 21.4184 41.3593 21.4184 41.8771C21.4184 42.3949 21.8381 42.8146 22.3559 42.8146H27.2021V43.4371C27.2021 45.9531 29.2494 48 31.7659 48H41.8171C44.3331 48 46.3799 45.9532 46.3799 43.4371V33.1216C46.3799 30.6055 44.3331 28.5587 41.8171 28.5587ZM7.13168 13.1603V1.875H35.9239V13.1603H7.13168ZM44.5049 43.4371C44.5049 44.9192 43.2992 46.125 41.8171 46.125H31.7659C30.2833 46.125 29.0771 44.9192 29.0771 43.4371V33.1216C29.0771 31.6395 30.2832 30.4337 31.7659 30.4337H41.8171C43.2992 30.4337 44.5049 31.6395 44.5049 33.1216V43.4371Z" fill="black"/>
<path d="M41.8171 28.5587H37.7989V15.0353H39.758V15.8573C39.758 16.3751 40.1778 16.7948 40.6955 16.7948C41.2132 16.7948 41.633 16.3751 41.633 15.8573V12.3382C41.633 11.8204 41.2132 11.4007 40.6955 11.4007C40.1778 11.4007 39.758 11.8204 39.758 12.3382V13.1603H37.7989V0.9375C37.7989 0.419719 37.3791 0 36.8614 0H6.19418C5.6764 0 5.25668 0.419719 5.25668 0.9375V13.1603H3.49512V12.3382C3.49512 11.8204 3.0754 11.4007 2.55762 11.4007C2.03984 11.4007 1.62012 11.8204 1.62012 12.3382V15.8573C1.62012 16.3751 2.03984 16.7948 2.55762 16.7948C3.0754 16.7948 3.49512 16.3751 3.49512 15.8573V15.0353H5.25668V41.8771C5.25668 42.3949 5.6764 42.8146 6.19418 42.8146H14.1059C14.6237 42.8146 15.0434 42.3949 15.0434 41.8771C15.0434 41.3593 14.6237 40.9396 14.1059 40.9396H7.13168V15.0353H35.9239V28.5587H31.7659C29.2494 28.5587 27.2021 30.6055 27.2021 33.1216V40.9396H22.3559C21.8381 40.9396 21.4184 41.3593 21.4184 41.8771C21.4184 42.3949 21.8381 42.8146 22.3559 42.8146H27.2021V43.4371C27.2021 45.9531 29.2494 48 31.7659 48H41.8171C44.3331 48 46.3799 45.9532 46.3799 43.4371V33.1216C46.3799 30.6055 44.3331 28.5587 41.8171 28.5587ZM7.13168 13.1603V1.875H35.9239V13.1603H7.13168ZM44.5049 43.4371C44.5049 44.9192 43.2992 46.125 41.8171 46.125H31.7659C30.2833 46.125 29.0771 44.9192 29.0771 43.4371V33.1216C29.0771 31.6395 30.2832 30.4337 31.7659 30.4337H41.8171C43.2992 30.4337 44.5049 31.6395 44.5049 33.1216V43.4371Z" fill="url(#paint0_linear_3778_8014)"/>
<path d="M34.5096 42.3978H32.6792V40.614C32.6792 40.0962 32.2594 39.6765 31.7417 39.6765C31.224 39.6765 30.8042 40.0962 30.8042 40.614V43.0123C30.8042 43.7074 31.3696 44.2729 32.0647 44.2729H34.5095C35.0272 44.2729 35.447 43.8532 35.447 43.3354C35.447 42.8176 35.0273 42.3978 34.5096 42.3978Z" fill="black"/>
<path d="M34.5096 42.3978H32.6792V40.614C32.6792 40.0962 32.2594 39.6765 31.7417 39.6765C31.224 39.6765 30.8042 40.0962 30.8042 40.614V43.0123C30.8042 43.7074 31.3696 44.2729 32.0647 44.2729H34.5095C35.0272 44.2729 35.447 43.8532 35.447 43.3354C35.447 42.8176 35.0273 42.3978 34.5096 42.3978Z" fill="url(#paint1_linear_3778_8014)"/>
<path d="M41.4912 32.3257H38.999C38.4813 32.3257 38.0615 32.7454 38.0615 33.2632C38.0615 33.781 38.4813 34.2007 38.999 34.2007H40.8766V36.5347C40.8766 37.0525 41.2965 37.4722 41.8141 37.4722C42.3318 37.4722 42.7516 37.0525 42.7516 36.5347V33.5862C42.7517 32.8911 42.1862 32.3257 41.4912 32.3257Z" fill="black"/>
<path d="M41.4912 32.3257H38.999C38.4813 32.3257 38.0615 32.7454 38.0615 33.2632C38.0615 33.781 38.4813 34.2007 38.999 34.2007H40.8766V36.5347C40.8766 37.0525 41.2965 37.4722 41.8141 37.4722C42.3318 37.4722 42.7516 37.0525 42.7516 36.5347V33.5862C42.7517 32.8911 42.1862 32.3257 41.4912 32.3257Z" fill="url(#paint2_linear_3778_8014)"/>
<path d="M41.767 39.5625C41.2493 39.5625 40.8295 39.9822 40.8295 40.5V42.2838H38.999C38.4813 42.2838 38.0615 42.7035 38.0615 43.2213C38.0615 43.7391 38.4813 44.1588 38.999 44.1588H41.4438C42.1389 44.1588 42.7044 43.5933 42.7044 42.8982V40.4999C42.7045 39.9822 42.2847 39.5625 41.767 39.5625Z" fill="black"/>
<path d="M41.767 39.5625C41.2493 39.5625 40.8295 39.9822 40.8295 40.5V42.2838H38.999C38.4813 42.2838 38.0615 42.7035 38.0615 43.2213C38.0615 43.7391 38.4813 44.1588 38.999 44.1588H41.4438C42.1389 44.1588 42.7044 43.5933 42.7044 42.8982V40.4999C42.7045 39.9822 42.2847 39.5625 41.767 39.5625Z" fill="url(#paint3_linear_3778_8014)"/>
<path d="M34.5099 32.2117H32.0178C31.3227 32.2117 30.7573 32.7772 30.7573 33.4722V36.4207C30.7573 36.9385 31.1771 37.3582 31.6948 37.3582C32.2125 37.3582 32.6323 36.9385 32.6323 36.4207V34.0867H34.5099C35.0275 34.0867 35.4474 33.667 35.4474 33.1492C35.4474 32.6314 35.0275 32.2117 34.5099 32.2117Z" fill="black"/>
<path d="M34.5099 32.2117H32.0178C31.3227 32.2117 30.7573 32.7772 30.7573 33.4722V36.4207C30.7573 36.9385 31.1771 37.3582 31.6948 37.3582C32.2125 37.3582 32.6323 36.9385 32.6323 36.4207V34.0867H34.5099C35.0275 34.0867 35.4474 33.667 35.4474 33.1492C35.4474 32.6314 35.0275 32.2117 34.5099 32.2117Z" fill="url(#paint4_linear_3778_8014)"/>
<path d="M30.7675 6.28125H12.4858C11.9681 6.28125 11.5483 6.70097 11.5483 7.21875C11.5483 7.73653 11.9681 8.15625 12.4858 8.15625H30.7674C31.2851 8.15625 31.7049 7.73653 31.7049 7.21875C31.7049 6.70097 31.2852 6.28125 30.7675 6.28125Z" fill="black"/>
<path d="M30.7675 6.28125H12.4858C11.9681 6.28125 11.5483 6.70097 11.5483 7.21875C11.5483 7.73653 11.9681 8.15625 12.4858 8.15625H30.7674C31.2851 8.15625 31.7049 7.73653 31.7049 7.21875C31.7049 6.70097 31.2852 6.28125 30.7675 6.28125Z" fill="url(#paint5_linear_3778_8014)"/>
<path d="M12.4858 21.8926H30.7674C31.2851 21.8926 31.7049 21.4729 31.7049 20.9551C31.7049 20.4373 31.2851 20.0176 30.7674 20.0176H12.4858C11.9681 20.0176 11.5483 20.4373 11.5483 20.9551C11.5483 21.4729 11.9681 21.8926 12.4858 21.8926Z" fill="black"/>
<path d="M12.4858 21.8926H30.7674C31.2851 21.8926 31.7049 21.4729 31.7049 20.9551C31.7049 20.4373 31.2851 20.0176 30.7674 20.0176H12.4858C11.9681 20.0176 11.5483 20.4373 11.5483 20.9551C11.5483 21.4729 11.9681 21.8926 12.4858 21.8926Z" fill="url(#paint6_linear_3778_8014)"/>
<path d="M12.4858 28.7605H25.3106C25.8282 28.7605 26.2481 28.3408 26.2481 27.823C26.2481 27.3052 25.8282 26.8855 25.3106 26.8855H12.4858C11.9681 26.8855 11.5483 27.3052 11.5483 27.823C11.5483 28.3408 11.9681 28.7605 12.4858 28.7605Z" fill="black"/>
<path d="M12.4858 28.7605H25.3106C25.8282 28.7605 26.2481 28.3408 26.2481 27.823C26.2481 27.3052 25.8282 26.8855 25.3106 26.8855H12.4858C11.9681 26.8855 11.5483 27.3052 11.5483 27.823C11.5483 28.3408 11.9681 28.7605 12.4858 28.7605Z" fill="url(#paint7_linear_3778_8014)"/>
<path d="M12.4858 35.6287H24.0248C24.5426 35.6287 24.9623 35.2089 24.9623 34.6912C24.9623 34.1734 24.5426 33.7537 24.0248 33.7537H12.4858C11.9681 33.7537 11.5483 34.1734 11.5483 34.6912C11.5483 35.2089 11.9681 35.6287 12.4858 35.6287Z" fill="black"/>
<path d="M12.4858 35.6287H24.0248C24.5426 35.6287 24.9623 35.2089 24.9623 34.6912C24.9623 34.1734 24.5426 33.7537 24.0248 33.7537H12.4858C11.9681 33.7537 11.5483 34.1734 11.5483 34.6912C11.5483 35.2089 11.9681 35.6287 12.4858 35.6287Z" fill="url(#paint8_linear_3778_8014)"/>
<path d="M19.1214 41.5181C18.9677 41.1494 18.585 40.9133 18.1866 40.9429C17.7778 40.9734 17.4322 41.2726 17.3414 41.6719C17.1613 42.4646 18.0511 43.0947 18.7408 42.6781C19.1328 42.4413 19.2948 41.9411 19.1214 41.5181Z" fill="black"/>
<path d="M19.1214 41.5181C18.9677 41.1494 18.585 40.9133 18.1866 40.9429C17.7778 40.9734 17.4322 41.2726 17.3414 41.6719C17.1613 42.4646 18.0511 43.0947 18.7408 42.6781C19.1328 42.4413 19.2948 41.9411 19.1214 41.5181Z" fill="url(#paint9_linear_3778_8014)"/>
<defs>
<linearGradient id="paint0_linear_3778_8014" x1="1.62012" y1="21.6" x2="46.3799" y2="21.6" gradientUnits="userSpaceOnUse">
<stop stop-color="#4BFFAE"/>
<stop offset="1" stop-color="#1F75FF"/>
</linearGradient>
<linearGradient id="paint1_linear_3778_8014" x1="30.8042" y1="41.7449" x2="35.447" y2="41.7449" gradientUnits="userSpaceOnUse">
<stop stop-color="#4BFFAE"/>
<stop offset="1" stop-color="#1F75FF"/>
</linearGradient>
<linearGradient id="paint2_linear_3778_8014" x1="38.0615" y1="34.6416" x2="42.7516" y2="34.6416" gradientUnits="userSpaceOnUse">
<stop stop-color="#4BFFAE"/>
<stop offset="1" stop-color="#1F75FF"/>
</linearGradient>
<linearGradient id="paint3_linear_3778_8014" x1="38.0615" y1="41.6308" x2="42.7044" y2="41.6308" gradientUnits="userSpaceOnUse">
<stop stop-color="#4BFFAE"/>
<stop offset="1" stop-color="#1F75FF"/>
</linearGradient>
<linearGradient id="paint4_linear_3778_8014" x1="30.7573" y1="34.5276" x2="35.4474" y2="34.5276" gradientUnits="userSpaceOnUse">
<stop stop-color="#4BFFAE"/>
<stop offset="1" stop-color="#1F75FF"/>
</linearGradient>
<linearGradient id="paint5_linear_3778_8014" x1="11.5483" y1="7.125" x2="31.7049" y2="7.125" gradientUnits="userSpaceOnUse">
<stop stop-color="#4BFFAE"/>
<stop offset="1" stop-color="#1F75FF"/>
</linearGradient>
<linearGradient id="paint6_linear_3778_8014" x1="11.5483" y1="20.8613" x2="31.7049" y2="20.8613" gradientUnits="userSpaceOnUse">
<stop stop-color="#4BFFAE"/>
<stop offset="1" stop-color="#1F75FF"/>
</linearGradient>
<linearGradient id="paint7_linear_3778_8014" x1="11.5483" y1="27.7292" x2="26.2481" y2="27.7292" gradientUnits="userSpaceOnUse">
<stop stop-color="#4BFFAE"/>
<stop offset="1" stop-color="#1F75FF"/>
</linearGradient>
<linearGradient id="paint8_linear_3778_8014" x1="11.5483" y1="34.5974" x2="24.9623" y2="34.5974" gradientUnits="userSpaceOnUse">
<stop stop-color="#4BFFAE"/>
<stop offset="1" stop-color="#1F75FF"/>
</linearGradient>
<linearGradient id="paint9_linear_3778_8014" x1="17.3179" y1="41.782" x2="19.1906" y2="41.782" gradientUnits="userSpaceOnUse">
<stop stop-color="#4BFFAE"/>
<stop offset="1" stop-color="#1F75FF"/>
</linearGradient>
</defs>
</svg>
