<svg width="48" height="49" viewBox="0 0 48 49" fill="none" xmlns="http://www.w3.org/2000/svg">
<path fill-rule="evenodd" clip-rule="evenodd" d="M29.1052 4.3507L29.1052 4.35067L29.1051 4.35062C29.1051 4.35064 29.1052 4.35067 29.1052 4.3507ZM39.9842 31.0605L41.2631 30.3068C40.664 30.6598 40.0634 31.0137 39.4622 31.3683L39.9842 31.0605ZM44.7784 34.6912L44.7785 34.6919C44.7795 34.6958 44.7804 34.6996 44.7813 34.7034C44.7803 34.6994 44.7794 34.6953 44.7784 34.6912ZM44.9732 20.1528C45.0628 20.0327 45.4348 19.5339 45.2793 18.8953C45.251 18.7751 45.2049 18.592 45.0372 18.3664C44.8834 18.1596 44.6432 17.9372 44.2668 17.6704C43.6008 17.1984 42.4264 16.5311 40.3205 15.5289L41.441 14.867L41.4425 14.8662C42.3327 14.3403 43.219 13.8166 44.1013 13.2974L44.1049 13.2952C44.4692 13.0766 44.6994 12.6814 44.6894 12.2483C44.6868 11.8089 44.4455 11.4243 44.0796 11.2169L44.0778 11.2159C39.6662 8.73988 34.7691 6.44851 30.0599 4.24652L29.3173 3.89788C27.767 3.17019 26.2157 2.44206 24.6751 1.7031C24.3425 1.54306 23.9531 1.54087 23.6139 1.71525C22.8588 2.0928 22.1236 2.45949 21.4027 2.81905L21.3614 2.83963C20.6542 3.19236 19.9605 3.5383 19.2756 3.88076C14.0757 6.46254 9.58001 8.69946 3.94905 11.7735C3.5687 11.9821 3.31588 12.3893 3.32585 12.8443C3.32841 13.2962 3.58257 13.6916 3.96942 13.8972L3.97252 13.8988C5.30876 14.5967 6.62052 15.2702 7.92775 15.9312C7.09612 16.3754 6.1178 16.9141 5.23829 17.4401C4.63482 17.801 4.06901 18.1611 3.62649 18.4841C3.40559 18.6454 3.20735 18.8032 3.04788 18.9521C2.8984 19.0917 2.74333 19.2594 2.65506 19.4429C2.51224 19.7404 2.37882 20.2988 2.80585 20.9397C2.97017 21.1872 3.2374 21.4444 3.55075 21.7007C3.87216 21.9636 4.27416 22.2511 4.73725 22.5559C5.46919 23.0378 6.37001 23.5737 7.37858 24.1376C6.27694 24.7075 5.37444 25.1993 4.10177 25.8972L2.4145 26.8208C2.03415 27.0294 1.78133 27.4366 1.7913 27.8916C1.79387 28.3435 2.04802 28.7389 2.43488 28.9444L2.43792 28.946C4.24838 29.892 6.03127 30.7891 7.80816 31.6737C6.98036 32.1182 6.02213 32.6483 5.16474 33.1633C4.57669 33.5165 4.02726 33.8678 3.59727 34.183C3.38259 34.3404 3.1898 34.4945 3.03424 34.6401C2.89064 34.7746 2.74265 34.9345 2.65435 35.1096C2.4894 35.4202 2.37186 35.9766 2.77932 36.6126L2.78301 36.6182C3.04306 37.0124 3.59024 37.462 4.25886 37.9284C4.9493 38.41 5.83901 38.9558 6.8553 39.5357C8.88925 40.6962 11.4597 42.0102 14.0234 43.2451C16.5879 44.4804 19.1529 45.6402 21.1783 46.492C22.1904 46.9177 23.0724 47.2685 23.7544 47.5137C24.0948 47.6361 24.3912 47.7344 24.632 47.8026C24.855 47.8659 25.0824 47.9192 25.2586 47.9192H25.2849L25.2967 47.9187C25.4948 47.9093 25.728 47.8467 25.9623 47.7671C26.207 47.6841 26.4938 47.568 26.813 47.426C27.4519 47.1419 28.2465 46.7425 29.1393 46.2642C30.9264 45.3067 33.1321 44.0197 35.3216 42.6713C37.5114 41.3229 39.6914 39.9091 41.427 38.6972C42.2943 38.0916 43.0551 37.5333 43.6522 37.0568C44.2359 36.591 44.7027 36.1729 44.9452 35.851L44.949 35.8458L44.9587 35.8328C45.0482 35.7127 45.4203 35.2138 45.2647 34.5753C45.2374 34.4613 45.1935 34.2805 45.0307 34.0577C44.8819 33.854 44.6502 33.6363 44.2882 33.3766C43.6516 32.9199 42.5323 32.2782 40.5298 31.3193L41.5168 30.7376C42.8962 29.9248 44.2682 29.1163 45.6223 28.315L45.6249 28.3134C45.9854 28.0971 46.2145 27.7079 46.2097 27.2803C46.2266 26.8311 45.9859 26.4284 45.6081 26.2244C43.9179 25.2777 42.4028 24.4374 40.6458 23.5617C41.5947 22.9146 42.4465 22.3085 43.142 21.7801C43.9891 21.1364 44.656 20.5703 44.9583 20.1729L44.9636 20.1658L44.9732 20.1528ZM21.7654 5.31839C22.5463 4.93023 23.3431 4.5331 24.1595 4.12151C25.7823 4.89371 27.4111 5.65923 29.0324 6.41769C33.0721 8.30471 37.2131 10.2493 41.0485 12.2972C39.9175 12.9645 38.7789 13.635 37.6357 14.3082C37.5861 14.3375 37.5364 14.3667 37.4868 14.3959C36.2875 15.1022 35.0831 15.8114 33.8772 16.5232C32.9432 17.0735 32.0098 17.6232 31.0791 18.1713L31.061 18.182L31.0563 18.1847C29.1084 19.3319 27.1723 20.4721 25.267 21.5969C18.2402 18.3344 12.7889 15.7356 7.08612 12.799C11.781 10.2783 15.7846 8.28712 20.3393 6.02693L21.0951 5.65142C21.3173 5.54106 21.5407 5.4301 21.7654 5.31839ZM35.0979 18.6063L37.7977 17.0147C40.0296 18.031 41.5578 18.8249 42.3998 19.326C41.7748 19.844 40.7585 20.581 39.4956 21.4408C37.8557 22.5573 35.8431 23.8525 33.8396 25.0892C31.8358 26.326 29.846 27.5012 28.2518 28.3786C27.4541 28.8176 26.7606 29.179 26.2166 29.4358C25.9442 29.5643 25.7149 29.664 25.5319 29.7335C25.3885 29.7879 25.2914 29.8169 25.2329 29.8303C25.0344 29.7982 24.638 29.6807 24.0421 29.4613C23.4062 29.2272 22.5971 28.898 21.6689 28.4986C19.8135 27.7002 17.5 26.6292 15.1796 25.4971C12.8591 24.365 10.5373 23.1745 8.66436 22.1377C7.72759 21.6191 6.90731 21.1412 6.25741 20.73C5.91529 20.5134 5.62888 20.3206 5.40073 20.1541C5.94409 19.806 6.71599 19.3536 7.55019 18.884C8.60849 18.2883 9.73864 17.6804 10.5647 17.2523C14.9208 19.4124 19.4023 21.5303 24.822 24.0543L24.8236 24.055C24.9847 24.1294 25.1581 24.1665 25.3313 24.1665C25.551 24.1665 25.7549 24.1028 25.9229 24.0131L25.9328 24.0079L25.9424 24.0022C28.2726 22.6222 30.6554 21.2203 33.0472 19.813L33.0481 19.8125C33.7309 19.4108 34.4147 19.0085 35.0979 18.6063ZM29.444 37.275C29.7266 37.1083 30.0095 36.9413 30.2929 36.7741L30.2976 36.7713C30.0127 36.9394 29.7281 37.1074 29.444 37.275ZM30.5504 37.2027L30.5695 37.1914C32.3164 36.1606 34.0764 35.122 35.8392 34.083C36.2431 33.8465 36.6451 33.61 37.0466 33.3738L37.0486 33.3726C37.3753 33.1805 37.7016 32.9886 38.0287 32.7967C40.1399 33.7666 41.5945 34.5213 42.4078 35.0055C41.7827 35.5236 40.7656 36.2612 39.5017 37.1218C37.8611 38.2389 35.8476 39.5348 33.8432 40.7719C31.8385 42.0092 29.8479 43.1846 28.2531 44.0615C27.455 44.5004 26.7614 44.8615 26.2173 45.1177C25.9449 45.246 25.7156 45.3452 25.5327 45.4144C25.3894 45.4685 25.2926 45.4971 25.2346 45.5103C25.0353 45.4775 24.6383 45.3592 24.0424 45.1393C23.4065 44.9047 22.5972 44.5751 21.669 44.1754C19.8135 43.3766 17.5 42.3055 15.1796 41.1735C12.8591 40.0414 10.5373 38.8509 8.66444 37.8136C7.72769 37.2948 6.90747 36.8167 6.25764 36.4049C5.91513 36.1879 5.6285 35.9946 5.4003 35.8277C6.62352 35.044 8.96384 33.7566 10.4642 32.982C13.1922 34.3124 15.9292 35.6169 18.7465 36.9548C20.7892 37.9216 22.8464 38.9031 24.9183 39.899L24.9254 39.9023C25.0695 39.9688 25.2503 40.021 25.4404 40.021C25.6601 40.021 25.864 39.9573 26.032 39.8677L26.0415 39.8626L26.0507 39.8572C27.5363 38.9813 29.0385 38.0949 30.5504 37.2027ZM42.5943 27.3033C39.9745 28.8548 37.2942 30.4335 34.6196 32.0064L32.9116 33.0123L32.9098 33.0134C30.3771 34.5048 27.8557 35.9896 25.3796 37.4562C23.4969 36.5506 21.634 35.6647 19.7784 34.7857C14.901 32.4706 10.2707 30.2692 5.53874 27.8482C7.13856 26.9673 8.15075 26.4198 9.94391 25.5291C12.9691 27.0999 16.4511 28.7465 19.3224 30.0113C20.7937 30.6595 22.1091 31.2094 23.1232 31.5981C23.6296 31.7923 24.0664 31.9484 24.4127 32.0567C24.733 32.157 25.0434 32.2392 25.2586 32.2392H25.2847L25.2963 32.2387C25.5375 32.2275 25.8412 32.1359 26.1541 32.0191C26.4829 31.8963 26.8774 31.7237 27.3212 31.5125C28.2098 31.0898 29.3228 30.4996 30.5515 29.8097C32.9362 28.4708 35.779 26.7439 38.3076 25.1035C39.8867 25.8562 41.2339 26.5574 42.5943 27.3033ZM4.4731 27.8629C4.65214 27.9552 4.83101 28.0473 5.00972 28.139C4.83101 28.0473 4.65214 27.9552 4.4731 27.8629Z" fill="url(#paint0_linear_3931_5050)"/>
<defs>
<linearGradient id="paint0_linear_3931_5050" x1="1.79102" y1="22.4347" x2="46.2105" y2="22.4347" gradientUnits="userSpaceOnUse">
<stop stop-color="#4BFFAE"/>
<stop offset="1" stop-color="#1F75FF"/>
</linearGradient>
</defs>
</svg>
