<svg width="48" height="48" viewBox="0 0 48 48" fill="none" xmlns="http://www.w3.org/2000/svg">
<path d="M37.248 7.23944H31.5121C31.419 6.44128 31.0427 5.70328 30.4313 5.12842C29.735 4.47446 28.8155 4.11493 27.8438 4.11493H27.1997C26.788 2.59991 25.3416 1.47656 23.625 1.47656C21.9084 1.47656 20.4618 2.59991 20.0503 4.11493H19.4062C17.5103 4.11493 15.9442 5.48438 15.7385 7.23944H10.002C8.54819 7.23944 7.36523 8.42267 7.36523 9.87616V43.8398C7.36523 45.2933 8.54819 46.4766 10.002 46.4766H37.248C38.7015 46.4766 39.8848 45.2933 39.8848 43.8398V9.87616C39.8848 8.42267 38.7015 7.23944 37.248 7.23944ZM19.4062 5.87274H20.8125C21.2975 5.87274 21.6914 5.47998 21.6914 4.99493C21.6922 4.02374 22.5596 3.23438 23.625 3.23438C24.6901 3.23438 25.5575 4.02374 25.5586 4.99493C25.5586 5.47998 25.9522 5.87274 26.4375 5.87274H27.8438C28.3675 5.87274 28.8594 6.06363 29.228 6.4097C29.5823 6.74203 29.7773 7.17709 29.7773 7.63412C29.7773 7.73767 29.7666 7.84424 29.7463 7.94614C29.5796 8.78549 28.779 9.39468 27.8438 9.39468H19.4062C18.8822 9.39468 18.3903 9.20407 18.0209 8.85663C17.8347 8.6825 17.6913 8.47897 17.5993 8.25815C17.5814 8.21887 17.5666 8.17712 17.5537 8.13593C17.5454 8.1156 17.5394 8.09473 17.5339 8.07358C17.5279 8.05243 17.5215 8.03128 17.5174 8.01041C17.5119 7.99008 17.5075 7.96976 17.5034 7.94971C17.5023 7.94614 17.5015 7.94174 17.5015 7.93817C17.4823 7.83627 17.4727 7.73437 17.4727 7.63412C17.4727 6.66321 18.34 5.87274 19.4062 5.87274ZM38.127 43.8398C38.127 44.3243 37.7323 44.7188 37.248 44.7188H10.002C9.51746 44.7188 9.12305 44.3243 9.12305 43.8398V9.87616C9.12305 9.39194 9.51746 8.99725 10.002 8.99725H16.0032C16.1936 9.42819 16.4759 9.81656 16.8184 10.139C17.5147 10.793 18.4342 11.1525 19.4062 11.1525H27.8438C29.2404 11.1525 30.7126 10.3313 31.2468 8.99725H37.248C37.7323 8.99725 38.127 9.39194 38.127 9.87616V43.8398Z" fill="black"/>
<path d="M37.248 7.23944H31.5121C31.419 6.44128 31.0427 5.70328 30.4313 5.12842C29.735 4.47446 28.8155 4.11493 27.8438 4.11493H27.1997C26.788 2.59991 25.3416 1.47656 23.625 1.47656C21.9084 1.47656 20.4618 2.59991 20.0503 4.11493H19.4062C17.5103 4.11493 15.9442 5.48438 15.7385 7.23944H10.002C8.54819 7.23944 7.36523 8.42267 7.36523 9.87616V43.8398C7.36523 45.2933 8.54819 46.4766 10.002 46.4766H37.248C38.7015 46.4766 39.8848 45.2933 39.8848 43.8398V9.87616C39.8848 8.42267 38.7015 7.23944 37.248 7.23944ZM19.4062 5.87274H20.8125C21.2975 5.87274 21.6914 5.47998 21.6914 4.99493C21.6922 4.02374 22.5596 3.23438 23.625 3.23438C24.6901 3.23438 25.5575 4.02374 25.5586 4.99493C25.5586 5.47998 25.9522 5.87274 26.4375 5.87274H27.8438C28.3675 5.87274 28.8594 6.06363 29.228 6.4097C29.5823 6.74203 29.7773 7.17709 29.7773 7.63412C29.7773 7.73767 29.7666 7.84424 29.7463 7.94614C29.5796 8.78549 28.779 9.39468 27.8438 9.39468H19.4062C18.8822 9.39468 18.3903 9.20407 18.0209 8.85663C17.8347 8.6825 17.6913 8.47897 17.5993 8.25815C17.5814 8.21887 17.5666 8.17712 17.5537 8.13593C17.5454 8.1156 17.5394 8.09473 17.5339 8.07358C17.5279 8.05243 17.5215 8.03128 17.5174 8.01041C17.5119 7.99008 17.5075 7.96976 17.5034 7.94971C17.5023 7.94614 17.5015 7.94174 17.5015 7.93817C17.4823 7.83627 17.4727 7.73437 17.4727 7.63412C17.4727 6.66321 18.34 5.87274 19.4062 5.87274ZM38.127 43.8398C38.127 44.3243 37.7323 44.7188 37.248 44.7188H10.002C9.51746 44.7188 9.12305 44.3243 9.12305 43.8398V9.87616C9.12305 9.39194 9.51746 8.99725 10.002 8.99725H16.0032C16.1936 9.42819 16.4759 9.81656 16.8184 10.139C17.5147 10.793 18.4342 11.1525 19.4062 11.1525H27.8438C29.2404 11.1525 30.7126 10.3313 31.2468 8.99725H37.248C37.7323 8.99725 38.127 9.39194 38.127 9.87616V43.8398Z" fill="url(#paint0_linear_3992_8147)"/>
<path d="M19.743 25.2539H16.081C15.5956 25.2539 15.2021 24.8606 15.2021 24.375V22.688H13.5176C13.032 22.688 12.6387 22.2945 12.6387 21.8091V18.1433C12.6387 17.658 13.032 17.2644 13.5176 17.2644H15.2021V15.5771C15.2021 15.0916 15.5956 14.6982 16.081 14.6982H19.743C20.2283 14.6982 20.6219 15.0916 20.6219 15.5771V17.2644H22.3066C22.792 17.2644 23.1855 17.658 23.1855 18.1433V21.8091C23.1855 22.2945 22.792 22.688 22.3066 22.688H20.6219V24.375C20.6219 24.8606 20.2283 25.2539 19.743 25.2539ZM16.9599 23.4961H18.8641V21.8091C18.8641 21.3235 19.2579 20.9302 19.743 20.9302H21.4277V19.0222H19.743C19.2579 19.0222 18.8641 18.6286 18.8641 18.1433V16.4561H16.9599V18.1433C16.9599 18.6286 16.5663 19.0222 16.081 19.0222H14.3965V20.9302H16.081C16.5663 20.9302 16.9599 21.3235 16.9599 21.8091V23.4961Z" fill="black"/>
<path d="M19.743 25.2539H16.081C15.5956 25.2539 15.2021 24.8606 15.2021 24.375V22.688H13.5176C13.032 22.688 12.6387 22.2945 12.6387 21.8091V18.1433C12.6387 17.658 13.032 17.2644 13.5176 17.2644H15.2021V15.5771C15.2021 15.0916 15.5956 14.6982 16.081 14.6982H19.743C20.2283 14.6982 20.6219 15.0916 20.6219 15.5771V17.2644H22.3066C22.792 17.2644 23.1855 17.658 23.1855 18.1433V21.8091C23.1855 22.2945 22.792 22.688 22.3066 22.688H20.6219V24.375C20.6219 24.8606 20.2283 25.2539 19.743 25.2539ZM16.9599 23.4961H18.8641V21.8091C18.8641 21.3235 19.2579 20.9302 19.743 20.9302H21.4277V19.0222H19.743C19.2579 19.0222 18.8641 18.6286 18.8641 18.1433V16.4561H16.9599V18.1433C16.9599 18.6286 16.5663 19.0222 16.081 19.0222H14.3965V20.9302H16.081C16.5663 20.9302 16.9599 21.3235 16.9599 21.8091V23.4961Z" fill="url(#paint1_linear_3992_8147)"/>
<path d="M33.7324 30.5327H17.0332C16.5476 30.5327 16.1543 30.1394 16.1543 29.6538C16.1543 29.1685 16.5476 28.7749 17.0332 28.7749H33.7324C34.2177 28.7749 34.6113 29.1685 34.6113 29.6538C34.6113 30.1394 34.2177 30.5327 33.7324 30.5327Z" fill="black"/>
<path d="M33.7324 30.5327H17.0332C16.5476 30.5327 16.1543 30.1394 16.1543 29.6538C16.1543 29.1685 16.5476 28.7749 17.0332 28.7749H33.7324C34.2177 28.7749 34.6113 29.1685 34.6113 29.6538C34.6113 30.1394 34.2177 30.5327 33.7324 30.5327Z" fill="url(#paint2_linear_3992_8147)"/>
<path d="M13.5198 30.5327C13.0342 30.5327 12.6406 30.1394 12.6406 29.6538C12.6406 29.1685 13.0337 28.7749 13.519 28.7749H13.5198C14.0051 28.7749 14.3987 29.1685 14.3987 29.6538C14.3987 30.1394 14.0051 30.5327 13.5198 30.5327Z" fill="black"/>
<path d="M13.5198 30.5327C13.0342 30.5327 12.6406 30.1394 12.6406 29.6538C12.6406 29.1685 13.0337 28.7749 13.519 28.7749H13.5198C14.0051 28.7749 14.3987 29.1685 14.3987 29.6538C14.3987 30.1394 14.0051 30.5327 13.5198 30.5327Z" fill="url(#paint3_linear_3992_8147)"/>
<path d="M33.7324 35.8115H13.5176C13.032 35.8115 12.6387 35.4182 12.6387 34.9326C12.6387 34.4473 13.032 34.0537 13.5176 34.0537H33.7324C34.2177 34.0537 34.6113 34.4473 34.6113 34.9326C34.6113 35.4182 34.2177 35.8115 33.7324 35.8115Z" fill="black"/>
<path d="M33.7324 35.8115H13.5176C13.032 35.8115 12.6387 35.4182 12.6387 34.9326C12.6387 34.4473 13.032 34.0537 13.5176 34.0537H33.7324C34.2177 34.0537 34.6113 34.4473 34.6113 34.9326C34.6113 35.4182 34.2177 35.8115 33.7324 35.8115Z" fill="url(#paint4_linear_3992_8147)"/>
<path d="M33.7324 41.0903H13.5176C13.032 41.0903 12.6387 40.697 12.6387 40.2114C12.6387 39.7258 13.032 39.3325 13.5176 39.3325H33.7324C34.2177 39.3325 34.6113 39.7258 34.6113 40.2114C34.6113 40.697 34.2177 41.0903 33.7324 41.0903Z" fill="black"/>
<path d="M33.7324 41.0903H13.5176C13.032 41.0903 12.6387 40.697 12.6387 40.2114C12.6387 39.7258 13.032 39.3325 13.5176 39.3325H33.7324C34.2177 39.3325 34.6113 39.7258 34.6113 40.2114C34.6113 40.697 34.2177 41.0903 33.7324 41.0903Z" fill="url(#paint5_linear_3992_8147)"/>
<defs>
<linearGradient id="paint0_linear_3992_8147" x1="7.36523" y1="21.7266" x2="39.8848" y2="21.7266" gradientUnits="userSpaceOnUse">
<stop stop-color="#4BFFAE"/>
<stop offset="1" stop-color="#1F75FF"/>
</linearGradient>
<linearGradient id="paint1_linear_3992_8147" x1="12.6387" y1="19.4483" x2="23.1855" y2="19.4483" gradientUnits="userSpaceOnUse">
<stop stop-color="#4BFFAE"/>
<stop offset="1" stop-color="#1F75FF"/>
</linearGradient>
<linearGradient id="paint2_linear_3992_8147" x1="16.1543" y1="29.5659" x2="34.6113" y2="29.5659" gradientUnits="userSpaceOnUse">
<stop stop-color="#4BFFAE"/>
<stop offset="1" stop-color="#1F75FF"/>
</linearGradient>
<linearGradient id="paint3_linear_3992_8147" x1="12.6406" y1="29.5659" x2="14.3987" y2="29.5659" gradientUnits="userSpaceOnUse">
<stop stop-color="#4BFFAE"/>
<stop offset="1" stop-color="#1F75FF"/>
</linearGradient>
<linearGradient id="paint4_linear_3992_8147" x1="12.6387" y1="34.8447" x2="34.6113" y2="34.8447" gradientUnits="userSpaceOnUse">
<stop stop-color="#4BFFAE"/>
<stop offset="1" stop-color="#1F75FF"/>
</linearGradient>
<linearGradient id="paint5_linear_3992_8147" x1="12.6387" y1="40.1235" x2="34.6113" y2="40.1235" gradientUnits="userSpaceOnUse">
<stop stop-color="#4BFFAE"/>
<stop offset="1" stop-color="#1F75FF"/>
</linearGradient>
</defs>
</svg>
