<svg width="48" height="48" viewBox="0 0 48 48" fill="none" xmlns="http://www.w3.org/2000/svg">
<path d="M43.5005 3H37.1445C36.3154 3 35.6445 3.6709 35.6445 4.5C35.6445 5.3291 36.3154 6 37.1445 6H42.0005V10.8267C42.0005 11.6558 42.6714 12.3267 43.5005 12.3267C44.3296 12.3267 45.0005 11.6558 45.0005 10.8267V4.5C45.0005 3.6709 44.3296 3 43.5005 3Z" fill="black"/>
<path d="M43.5005 3H37.1445C36.3154 3 35.6445 3.6709 35.6445 4.5C35.6445 5.3291 36.3154 6 37.1445 6H42.0005V10.8267C42.0005 11.6558 42.6714 12.3267 43.5005 12.3267C44.3296 12.3267 45.0005 11.6558 45.0005 10.8267V4.5C45.0005 3.6709 44.3296 3 43.5005 3Z" fill="url(#paint0_linear_3931_5042)"/>
<path d="M4.5 12.3267C5.3291 12.3267 6 11.6558 6 10.8267V6H10.7959C11.625 6 12.2959 5.3291 12.2959 4.5C12.2959 3.6709 11.625 3 10.7959 3H4.5C3.6709 3 3 3.6709 3 4.5V10.8267C3 11.6558 3.6709 12.3267 4.5 12.3267Z" fill="black"/>
<path d="M4.5 12.3267C5.3291 12.3267 6 11.6558 6 10.8267V6H10.7959C11.625 6 12.2959 5.3291 12.2959 4.5C12.2959 3.6709 11.625 3 10.7959 3H4.5C3.6709 3 3 3.6709 3 4.5V10.8267C3 11.6558 3.6709 12.3267 4.5 12.3267Z" fill="url(#paint1_linear_3931_5042)"/>
<path d="M43.5005 35.6733C42.6714 35.6733 42.0005 36.3442 42.0005 37.1733V42H37.1445C36.3154 42 35.6445 42.6709 35.6445 43.5C35.6445 44.3291 36.3154 45 37.1445 45H43.5005C44.3296 45 45.0005 44.3291 45.0005 43.5V37.1733C45.0005 36.3442 44.3296 35.6733 43.5005 35.6733Z" fill="black"/>
<path d="M43.5005 35.6733C42.6714 35.6733 42.0005 36.3442 42.0005 37.1733V42H37.1445C36.3154 42 35.6445 42.6709 35.6445 43.5C35.6445 44.3291 36.3154 45 37.1445 45H43.5005C44.3296 45 45.0005 44.3291 45.0005 43.5V37.1733C45.0005 36.3442 44.3296 35.6733 43.5005 35.6733Z" fill="url(#paint2_linear_3931_5042)"/>
<path d="M10.7959 42H6V37.1733C6 36.3442 5.3291 35.6733 4.5 35.6733C3.6709 35.6733 3 36.3442 3 37.1733V43.5C3 44.3291 3.6709 45 4.5 45H10.7959C11.625 45 12.2959 44.3291 12.2959 43.5C12.2959 42.6709 11.625 42 10.7959 42Z" fill="black"/>
<path d="M10.7959 42H6V37.1733C6 36.3442 5.3291 35.6733 4.5 35.6733C3.6709 35.6733 3 36.3442 3 37.1733V43.5C3 44.3291 3.6709 45 4.5 45H10.7959C11.625 45 12.2959 44.3291 12.2959 43.5C12.2959 42.6709 11.625 42 10.7959 42Z" fill="url(#paint3_linear_3931_5042)"/>
<path d="M43.5 22.5H37.7476V17.7744C37.7057 17.3865 37.5947 16.9971 37.3062 16.7119L29.6899 9.09567C29.4046 8.80722 29.0155 8.69582 28.6274 8.6543H13.8823C11.8813 8.6543 10.2524 10.2832 10.2524 12.2842V22.5H4.5C3.6709 22.5 3 23.1709 3 24C3 24.8291 3.6709 25.5 4.5 25.5H10.2524V35.7158C10.2524 37.7168 11.8813 39.3457 13.8823 39.3457H34.1177C36.1187 39.3457 37.7476 37.7168 37.7476 35.7158V25.5H43.5C44.3291 25.5 45 24.8291 45 24C45 23.1709 44.3291 22.5 43.5 22.5ZM30.1274 13.7754L32.6265 16.2744H30.7573C30.4102 16.2744 30.1274 15.9917 30.1274 15.6445V13.7754ZM13.2524 12.2842C13.2524 11.937 13.5352 11.6543 13.8823 11.6543H27.1274V15.6445C27.1274 17.6455 28.7563 19.2744 30.7573 19.2744H34.7476V22.5H13.2524V12.2842ZM34.7476 35.7158C34.7476 36.063 34.4648 36.3457 34.1177 36.3457H13.8823C13.5352 36.3457 13.2524 36.063 13.2524 35.7158V25.5H34.7476V35.7158Z" fill="black"/>
<path d="M43.5 22.5H37.7476V17.7744C37.7057 17.3865 37.5947 16.9971 37.3062 16.7119L29.6899 9.09567C29.4046 8.80722 29.0155 8.69582 28.6274 8.6543H13.8823C11.8813 8.6543 10.2524 10.2832 10.2524 12.2842V22.5H4.5C3.6709 22.5 3 23.1709 3 24C3 24.8291 3.6709 25.5 4.5 25.5H10.2524V35.7158C10.2524 37.7168 11.8813 39.3457 13.8823 39.3457H34.1177C36.1187 39.3457 37.7476 37.7168 37.7476 35.7158V25.5H43.5C44.3291 25.5 45 24.8291 45 24C45 23.1709 44.3291 22.5 43.5 22.5ZM30.1274 13.7754L32.6265 16.2744H30.7573C30.4102 16.2744 30.1274 15.9917 30.1274 15.6445V13.7754ZM13.2524 12.2842C13.2524 11.937 13.5352 11.6543 13.8823 11.6543H27.1274V15.6445C27.1274 17.6455 28.7563 19.2744 30.7573 19.2744H34.7476V22.5H13.2524V12.2842ZM34.7476 35.7158C34.7476 36.063 34.4648 36.3457 34.1177 36.3457H13.8823C13.5352 36.3457 13.2524 36.063 13.2524 35.7158V25.5H34.7476V35.7158Z" fill="url(#paint4_linear_3931_5042)"/>
<path d="M18 33H30C30.8291 33 31.5 32.3291 31.5 31.5C31.5 30.6709 30.8291 30 30 30H18C17.1709 30 16.5 30.6709 16.5 31.5C16.5 32.3291 17.1709 33 18 33Z" fill="black"/>
<path d="M18 33H30C30.8291 33 31.5 32.3291 31.5 31.5C31.5 30.6709 30.8291 30 30 30H18C17.1709 30 16.5 30.6709 16.5 31.5C16.5 32.3291 17.1709 33 18 33Z" fill="url(#paint5_linear_3931_5042)"/>
<path d="M24 15H18C17.1709 15 16.5 15.6709 16.5 16.5C16.5 17.3291 17.1709 18 18 18H24C24.8291 18 25.5 17.3291 25.5 16.5C25.5 15.6709 24.8291 15 24 15Z" fill="black"/>
<path d="M24 15H18C17.1709 15 16.5 15.6709 16.5 16.5C16.5 17.3291 17.1709 18 18 18H24C24.8291 18 25.5 17.3291 25.5 16.5C25.5 15.6709 24.8291 15 24 15Z" fill="url(#paint6_linear_3931_5042)"/>
<defs>
<linearGradient id="paint0_linear_3931_5042" x1="34.0852" y1="3.83274" x2="46.0888" y2="12.4178" gradientUnits="userSpaceOnUse">
<stop stop-color="#4BFFAE"/>
<stop offset="1" stop-color="#1F75FF"/>
</linearGradient>
<linearGradient id="paint1_linear_3931_5042" x1="1.45068" y1="3.83274" x2="13.4291" y2="12.3448" gradientUnits="userSpaceOnUse">
<stop stop-color="#4BFFAE"/>
<stop offset="1" stop-color="#1F75FF"/>
</linearGradient>
<linearGradient id="paint2_linear_3931_5042" x1="34.0852" y1="36.5061" x2="46.0888" y2="45.0911" gradientUnits="userSpaceOnUse">
<stop stop-color="#4BFFAE"/>
<stop offset="1" stop-color="#1F75FF"/>
</linearGradient>
<linearGradient id="paint3_linear_3931_5042" x1="1.45068" y1="36.5061" x2="13.4291" y2="45.0181" gradientUnits="userSpaceOnUse">
<stop stop-color="#4BFFAE"/>
<stop offset="1" stop-color="#1F75FF"/>
</linearGradient>
<linearGradient id="paint4_linear_3931_5042" x1="-4" y1="11.3946" x2="37.7277" y2="52.1068" gradientUnits="userSpaceOnUse">
<stop stop-color="#4BFFAE"/>
<stop offset="1" stop-color="#1F75FF"/>
</linearGradient>
<linearGradient id="paint5_linear_3931_5042" x1="14" y1="30.2679" x2="16.1221" y2="37.8326" gradientUnits="userSpaceOnUse">
<stop stop-color="#4BFFAE"/>
<stop offset="1" stop-color="#1F75FF"/>
</linearGradient>
<linearGradient id="paint6_linear_3931_5042" x1="15" y1="15.2679" x2="18.1307" y2="21.9642" gradientUnits="userSpaceOnUse">
<stop stop-color="#4BFFAE"/>
<stop offset="1" stop-color="#1F75FF"/>
</linearGradient>
</defs>
</svg>
