<svg width="48" height="48" viewBox="0 0 48 48" fill="none" xmlns="http://www.w3.org/2000/svg">
<path fill-rule="evenodd" clip-rule="evenodd" d="M6.5 32C7.32842 32 8 32.6716 8 33.5V39.5C8 40.3284 8.67156 41 9.5 41H15.5C16.3284 41 17 41.6716 17 42.5C17 43.3284 16.3284 44 15.5 44H9.5C7.01474 44 5 41.9854 5 39.5V33.5C5 32.6716 5.67158 32 6.5 32Z" fill="url(#paint0_linear_3778_8027)"/>
<path fill-rule="evenodd" clip-rule="evenodd" d="M42.5 32C43.3284 32 44 32.6716 44 33.5V39.5C44 41.9854 41.9854 44 39.5 44H33.5C32.6716 44 32 43.3284 32 42.5C32 41.6716 32.6716 41 33.5 41H39.5C40.3284 41 41 40.3284 41 39.5V33.5C41 32.6716 41.6716 32 42.5 32Z" fill="url(#paint1_linear_3778_8027)"/>
<path fill-rule="evenodd" clip-rule="evenodd" d="M32 6.5C32 5.67158 32.6716 5 33.5 5H39.5C41.9854 5 44 7.01474 44 9.5V15.5C44 16.3284 43.3284 17 42.5 17C41.6716 17 41 16.3284 41 15.5V9.5C41 8.67156 40.3284 8 39.5 8H33.5C32.6716 8 32 7.32842 32 6.5Z" fill="url(#paint2_linear_3778_8027)"/>
<path fill-rule="evenodd" clip-rule="evenodd" d="M9.5 8C8.67158 8 8 8.67158 8 9.5V15.5C8 16.3284 7.32842 17 6.5 17C5.67158 17 5 16.3284 5 15.5V9.5C5 7.01472 7.01472 5 9.5 5H15.5C16.3284 5 17 5.67158 17 6.5C17 7.32842 16.3284 8 15.5 8H9.5Z" fill="url(#paint3_linear_3778_8027)"/>
<path fill-rule="evenodd" clip-rule="evenodd" d="M24.5 14C25.3284 14 26 14.6716 26 15.5V35.5C26 36.3284 25.3284 37 24.5 37C23.6716 37 23 36.3284 23 35.5V15.5C23 14.6716 23.6716 14 24.5 14Z" fill="url(#paint4_linear_3778_8027)"/>
<path fill-rule="evenodd" clip-rule="evenodd" d="M16 15.5C16 14.6716 16.6716 14 17.5 14H31.5C32.3284 14 33 14.6716 33 15.5C33 16.3284 32.3284 17 31.5 17H17.5C16.6716 17 16 16.3284 16 15.5Z" fill="url(#paint5_linear_3778_8027)"/>
<defs>
<linearGradient id="paint0_linear_3778_8027" x1="3" y1="33.0714" x2="18.4286" y2="44.0714" gradientUnits="userSpaceOnUse">
<stop stop-color="#4BFFAE"/>
<stop offset="1" stop-color="#1F75FF"/>
</linearGradient>
<linearGradient id="paint1_linear_3778_8027" x1="30" y1="33.0714" x2="45.4286" y2="44.0714" gradientUnits="userSpaceOnUse">
<stop stop-color="#4BFFAE"/>
<stop offset="1" stop-color="#1F75FF"/>
</linearGradient>
<linearGradient id="paint2_linear_3778_8027" x1="30" y1="6.07143" x2="45.4286" y2="17.0714" gradientUnits="userSpaceOnUse">
<stop stop-color="#4BFFAE"/>
<stop offset="1" stop-color="#1F75FF"/>
</linearGradient>
<linearGradient id="paint3_linear_3778_8027" x1="3" y1="6.07143" x2="18.4286" y2="17.0714" gradientUnits="userSpaceOnUse">
<stop stop-color="#4BFFAE"/>
<stop offset="1" stop-color="#1F75FF"/>
</linearGradient>
<linearGradient id="paint4_linear_3778_8027" x1="22.5" y1="16.0536" x2="28.2679" y2="16.59" gradientUnits="userSpaceOnUse">
<stop stop-color="#4BFFAE"/>
<stop offset="1" stop-color="#1F75FF"/>
</linearGradient>
<linearGradient id="paint5_linear_3778_8027" x1="13.1667" y1="14.2679" x2="15.0698" y2="21.9568" gradientUnits="userSpaceOnUse">
<stop stop-color="#4BFFAE"/>
<stop offset="1" stop-color="#1F75FF"/>
</linearGradient>
</defs>
</svg>
