<svg width="64" height="64" viewBox="0 0 64 64" fill="none" xmlns="http://www.w3.org/2000/svg">
<rect width="64" height="64" rx="19.2" fill="#28D1B3"/>
<path fill-rule="evenodd" clip-rule="evenodd" d="M17.7434 18.4646C18.5465 17.6005 19.6777 17.1357 20.9613 17.1201H26.6207C26.9723 17.1162 27.3129 17.1474 27.6379 17.213C28.5027 17.388 29.2622 17.8044 29.8495 18.4318C30.3715 18.9857 30.7183 19.6693 30.8964 20.4248C30.991 20.8263 31.0387 21.2474 31.0395 21.6802L31.0472 41.8556C31.0496 42.6868 30.8745 43.4884 30.5168 44.183C30.344 44.518 30.1292 44.8282 29.8705 45.1039C29.0659 45.9681 27.9346 46.4321 26.6487 46.4478H20.9893C19.7042 46.4641 18.5698 46.0001 17.7636 45.1361C16.9636 44.2884 16.5729 43.1361 16.5698 41.8884L16.5644 21.7123C16.5613 20.4646 16.9488 19.3123 17.7434 18.4646ZM19.502 20.0958C19.1902 20.4326 18.9629 20.9599 18.9644 21.6958L18.9698 41.8884C18.9714 42.6242 19.2018 43.1516 19.5159 43.4884C19.8214 43.8242 20.2917 44.0478 20.9846 44.0478H26.644C27.3362 44.0478 27.8065 43.8079 28.1096 43.4719C28.4229 43.1361 28.6487 42.6079 28.6472 41.8719L28.6395 21.6802C28.6379 20.9443 28.409 20.4005 28.0957 20.0802C27.7918 19.7443 27.3199 19.5044 26.6269 19.5201H20.9676C20.6332 19.5279 20.3504 19.5841 20.1129 19.6787C19.8605 19.7794 19.659 19.9224 19.502 20.0958Z" fill="white"/>
<path fill-rule="evenodd" clip-rule="evenodd" d="M37.6679 17.1837L43.3273 17.168C44.6124 17.168 45.7468 17.6321 46.5547 18.4962C47.3531 19.3438 47.7438 20.4962 47.7468 21.7282L47.7593 26.1923C47.7609 27.4243 47.3774 28.5758 46.582 29.4399C46.1319 29.9242 45.5788 30.2829 44.9531 30.5071C44.4625 30.6829 43.9265 30.7767 43.3609 30.7836H37.7015C36.4172 30.7836 35.2828 30.3361 34.4742 29.4719C33.6766 28.6079 33.2859 27.4555 33.2828 26.2243L33.2695 21.7602C33.2679 21.0133 33.4094 20.2962 33.6983 19.6548C33.8859 19.2376 34.1359 18.8524 34.4492 18.5118C35.2539 17.6485 36.3851 17.1837 37.6679 17.1837ZM43.3319 19.568L37.6726 19.5837C36.9836 19.5837 36.5132 19.8243 36.2086 20.1446C36.0265 20.3399 35.8734 20.6055 35.7774 20.9383C35.7086 21.1782 35.6687 21.4524 35.6695 21.7602L35.6828 26.2243C35.6843 26.9602 35.9132 27.4876 36.2281 27.8243C36.5319 28.1602 37.0039 28.3837 37.6969 28.3837H43.3547C44.0476 28.368 44.5195 28.1438 44.8219 27.8079C45.1335 27.4719 45.3609 26.9446 45.3593 26.1923L45.3468 21.7446V21.7282C45.3452 20.9923 45.1164 20.4641 44.8023 20.1282C44.4969 19.8079 44.0249 19.568 43.3319 19.568Z" fill="white"/>
<path fill-rule="evenodd" clip-rule="evenodd" d="M37.668 32.8165L43.3273 32.8C44.6124 32.8 45.7468 33.264 46.5547 34.1282C47.3531 34.9759 47.7438 36.1282 47.7468 37.3602L47.7593 42.2399C47.7609 43.4719 47.3774 44.6242 46.582 45.4884C45.7788 46.3516 44.6476 46.8165 43.3609 46.8165L37.7016 46.832C36.4172 46.832 35.2828 46.368 34.4742 45.5039C33.6766 44.6564 33.2859 43.5039 33.2828 42.2719L33.2696 37.3922C33.2664 36.1602 33.6539 35.0079 34.4492 34.1445C35.2539 33.2805 36.3851 32.8165 37.668 32.8165ZM43.332 35.2L37.6726 35.2165C36.9851 35.2165 36.5132 35.4564 36.2086 35.7759C35.8953 36.1282 35.668 36.6564 35.6696 37.3922L35.6828 42.2556C35.6843 43.0079 35.9132 43.5361 36.2281 43.8719C36.4265 44.0813 36.6976 44.2564 37.0547 44.3524C37.243 44.4032 37.4563 44.432 37.6953 44.432L43.3547 44.4165C44.0476 44.4165 44.5195 44.1759 44.8219 43.8556C45.1336 43.5196 45.3609 42.9759 45.3593 42.2399L45.3468 37.3759C45.346 37.0079 45.2913 36.6938 45.1984 36.429C45.1008 36.1532 44.9625 35.932 44.8024 35.7602C44.632 35.5813 44.4102 35.4282 44.1273 35.3274C43.9024 35.2469 43.639 35.2 43.332 35.2Z" fill="white"/>
</svg>
