<svg width="64" height="64" viewBox="0 0 64 64" fill="none" xmlns="http://www.w3.org/2000/svg">
<path fill-rule="evenodd" clip-rule="evenodd" d="M33.4957 39.4585C37.164 39.4972 40.5203 39.9377 43.0197 41.1793C44.3008 41.8156 45.4216 42.694 46.2136 43.8932C47.0136 45.1044 47.3949 46.5166 47.3867 48.0729L47.3864 48.1156L47.3843 48.1582C47.3093 49.7182 46.7949 51.2254 45.7427 52.3681C44.6645 53.539 43.1619 54.1708 41.4557 54.1708H25.4935C23.7873 54.1708 22.2813 53.5404 21.2012 52.3694C20.1456 51.2249 19.6312 49.714 19.5643 48.1476L19.5625 48.1049V48.0622C19.5625 46.5049 19.948 45.0924 20.7487 43.8817C21.542 42.682 22.6618 41.8022 23.9434 41.1654C26.4433 39.9228 29.7952 39.4876 33.4587 39.4588L33.4957 39.4585ZM23.5627 48.019C23.6047 48.8206 23.8586 49.3508 24.1414 49.6574C24.4045 49.9425 24.813 50.1708 25.4935 50.1708H41.4557C42.132 50.1708 42.5373 49.9441 42.8003 49.6585C43.0843 49.3502 43.3403 48.8164 43.3867 48.0084C43.3845 47.1628 43.1813 46.5598 42.876 46.0977C42.5579 45.6161 42.044 45.1606 41.2403 44.7617C39.5736 43.9337 36.9672 43.4969 33.472 43.4588C29.9848 43.4878 27.3869 43.9206 25.7237 44.7473C24.9222 45.1457 24.4065 45.602 24.0851 46.0881C23.7762 46.555 23.5694 47.1652 23.5627 48.019Z" fill="#28D1B3"/>
<path fill-rule="evenodd" clip-rule="evenodd" d="M33.4765 24.8335C31.1424 24.8335 29.2501 26.7258 29.2501 29.0602C29.2501 31.3943 31.1424 33.2866 33.4765 33.2866C35.8109 33.2866 37.7032 31.3943 37.7032 29.0602C37.7032 26.7258 35.8109 24.8335 33.4765 24.8335ZM25.25 29.0602C25.25 24.5166 28.9331 20.8335 33.4765 20.8335C38.02 20.8335 41.7032 24.5166 41.7032 29.0602C41.7032 33.6034 38.02 37.2866 33.4765 37.2866C28.9331 37.2866 25.25 33.6034 25.25 29.0602Z" fill="#28D1B3"/>
<path fill-rule="evenodd" clip-rule="evenodd" d="M20.9587 29.0048C20.9674 30.1094 20.0791 31.0118 18.9746 31.0206C16.0855 31.0435 13.9866 31.4027 12.674 32.055C12.0491 32.3656 11.6722 32.7086 11.4453 33.0518C11.2306 33.3763 11.0746 33.8142 11.0679 34.4603C11.1011 35.0574 11.2886 35.4139 11.4585 35.5982C11.6077 35.76 11.8537 35.9152 12.3317 35.9152H20.0309C21.1354 35.9152 22.0309 36.8107 22.0309 37.9152C22.0309 39.0198 21.1354 39.9152 20.0309 39.9152H12.3317C10.8281 39.9152 9.48443 39.3576 8.51822 38.3102C7.57662 37.2894 7.12772 35.9526 7.0695 34.5891C7.0683 34.5608 7.06769 34.5323 7.06769 34.5038C7.06769 33.1528 7.40278 31.9131 8.10891 30.8454C8.80766 29.7886 9.78878 29.0222 10.8936 28.4731C13.0401 27.4062 15.8868 27.0448 18.9429 27.0206C20.0475 27.012 20.95 27.9003 20.9587 29.0048Z" fill="#28D1B3"/>
<path fill-rule="evenodd" clip-rule="evenodd" d="M45.1768 29.0048C45.168 30.1094 46.0563 31.0118 47.1608 31.0206C50.0499 31.0435 52.1488 31.4027 53.4614 32.055C54.0862 32.3656 54.4632 32.7086 54.6902 33.0518C54.9048 33.3763 55.0608 33.8142 55.0675 34.4603C55.0344 35.0574 54.8467 35.4139 54.6768 35.5982C54.5278 35.76 54.2816 35.9152 53.8038 35.9152H46.1046C45 35.9152 44.1046 36.8107 44.1046 37.9152C44.1046 39.0198 45 39.9152 46.1046 39.9152H53.8038C55.3075 39.9152 56.651 39.3576 57.6171 38.3102C58.5587 37.2894 59.0078 35.9526 59.0659 34.5891C59.0672 34.5608 59.0678 34.5323 59.0678 34.5038C59.0678 33.1528 58.7326 31.9131 58.0264 30.8454C57.3278 29.7886 56.3467 29.0222 55.2419 28.4731C53.0952 27.4062 50.2486 27.0448 47.1926 27.0206C46.088 27.012 45.1854 27.9003 45.1768 29.0048Z" fill="#28D1B3"/>
<path fill-rule="evenodd" clip-rule="evenodd" d="M18.2535 13.8335C16.5026 13.8335 15.0833 15.2528 15.0833 17.0037C15.0833 18.7545 16.5026 20.1738 18.2535 20.1738C20.0043 20.1738 21.4236 18.7545 21.4236 17.0037C21.4236 15.2528 20.0043 13.8335 18.2535 13.8335ZM11.0833 17.0037C11.0833 13.0437 14.2935 9.8335 18.2535 9.8335C22.2134 9.8335 25.4236 13.0437 25.4236 17.0037C25.4236 20.9636 22.2134 24.1738 18.2535 24.1738C14.2935 24.1738 11.0833 20.9636 11.0833 17.0037Z" fill="#28D1B3"/>
<path fill-rule="evenodd" clip-rule="evenodd" d="M47.8819 13.8335C49.6328 13.8335 51.052 15.2528 51.052 17.0037C51.052 18.7545 49.6328 20.1738 47.8819 20.1738C46.1312 20.1738 44.7117 18.7545 44.7117 17.0037C44.7117 15.2528 46.1312 13.8335 47.8819 13.8335ZM55.052 17.0037C55.052 13.0437 51.8419 9.8335 47.8819 9.8335C43.9219 9.8335 40.7117 13.0437 40.7117 17.0037C40.7117 20.9636 43.9219 24.1738 47.8819 24.1738C51.8419 24.1738 55.052 20.9636 55.052 17.0037Z" fill="#28D1B3"/>
</svg>
