<svg width="16" height="16" viewBox="0 0 16 16" fill="none" xmlns="http://www.w3.org/2000/svg">
<path fill-rule="evenodd" clip-rule="evenodd" d="M11.3277 6.51825L7.47933 10.3666C7.35683 10.4891 7.19766 10.5499 7.03766 10.5499C6.87683 10.5499 6.71766 10.4891 6.59516 10.3666L4.671 8.44242C4.42683 8.19825 4.42683 7.80242 4.671 7.55825C4.91516 7.31409 5.31016 7.31409 5.55433 7.55825L7.03766 9.04075L10.4435 5.63409C10.6877 5.38992 11.0835 5.38992 11.3277 5.63409C11.5718 5.87825 11.5718 6.27409 11.3277 6.51825ZM8.00016 0.083252C3.63516 0.083252 0.0834961 3.63492 0.0834961 7.99992C0.0834961 12.3658 3.63516 15.9166 8.00016 15.9166C12.3652 15.9166 15.9168 12.3658 15.9168 7.99992C15.9168 3.63492 12.3652 0.083252 8.00016 0.083252Z" fill="white"/>
</svg>
