<svg width="80" height="80" viewBox="0 0 80 80" fill="none" xmlns="http://www.w3.org/2000/svg">
<circle cx="40" cy="40" r="40" fill="#28D1B3"/>
<path fill-rule="evenodd" clip-rule="evenodd" d="M40.772 31.3789C41.6004 31.3789 42.272 32.0505 42.272 32.8789V40.9048C42.272 41.4718 41.9522 41.9902 41.4456 42.245L36.0842 44.94C35.344 45.3122 34.4424 45.0138 34.0703 44.2736C33.6982 43.5334 33.9966 42.6318 34.7368 42.2596L39.272 39.98V32.8789C39.272 32.0505 39.9434 31.3789 40.772 31.3789Z" fill="white"/>
<path fill-rule="evenodd" clip-rule="evenodd" d="M29.0405 26.7307C29.6618 27.2787 29.7211 28.2266 29.173 28.8478C28.4939 29.6176 27.8973 30.4196 27.3809 31.2721C26.9516 31.9807 26.0293 32.2071 25.3207 31.7779C24.6121 31.3487 24.3857 30.4263 24.8149 29.7178C25.431 28.7006 26.1359 27.7557 26.9234 26.8631C27.4714 26.2419 28.4193 26.1826 29.0405 26.7307Z" fill="white"/>
<path fill-rule="evenodd" clip-rule="evenodd" d="M23.9709 43.6722C24.7605 43.4218 25.6037 43.859 25.8541 44.6486C26.1914 45.7124 26.6608 46.735 27.2103 47.6904C27.6233 48.4086 27.376 49.3254 26.6578 49.7386C25.9397 50.1516 25.0227 49.9042 24.6097 49.186C23.969 48.072 23.4057 46.8526 22.9944 45.5554C22.744 44.7656 23.1812 43.9226 23.9709 43.6722Z" fill="white"/>
<path fill-rule="evenodd" clip-rule="evenodd" d="M37.079 55.3238C37.2464 55.3072 37.4156 55.3186 37.5792 55.358C38.7254 55.6338 39.9266 55.7692 41.1476 55.7656C41.976 55.7632 42.6496 56.4328 42.652 57.2612C42.6544 58.0896 41.9846 58.7632 41.1562 58.7656C39.7524 58.7696 38.355 58.619 37.0024 58.3044C36.332 58.2118 35.7869 57.6708 35.7165 56.9676C35.6341 56.1432 36.2356 55.4082 37.0598 55.3258L37.079 55.3238Z" fill="white"/>
<path fill-rule="evenodd" clip-rule="evenodd" d="M37.1402 22.4103C37.3926 23.1992 36.9578 24.0436 36.1688 24.2962C35.1073 24.636 34.0863 25.0886 33.1374 25.6464C32.4233 26.0663 31.504 25.8277 31.0841 25.1136C30.6643 24.3994 30.9028 23.4801 31.617 23.0603C32.7643 22.3858 33.9893 21.844 35.2542 21.439C36.0432 21.1864 36.8876 21.6213 37.1402 22.4103Z" fill="white"/>
<path fill-rule="evenodd" clip-rule="evenodd" d="M44.7863 23.9078C43.6375 23.6319 42.4381 23.4966 41.2173 23.5001C40.3889 23.5025 39.7153 22.8328 39.7129 22.0044C39.7107 21.176 40.3803 20.5025 41.2087 20.5001C42.6517 20.4959 44.0857 20.6553 45.4745 20.9878C47.4639 21.4313 49.3595 22.2102 51.0733 23.2611C52.0999 23.8704 53.0697 24.5747 53.9575 25.378C55.4501 26.7092 56.7369 28.2786 57.7543 30.0529C58.4257 31.1982 58.9655 32.419 59.3733 33.697C59.6855 34.6491 59.9225 35.6293 60.0823 36.6408C60.2421 37.6516 60.3195 38.6588 60.3157 39.6592C60.3233 41.0894 60.1631 42.4512 59.8497 43.7944C59.8443 43.8326 59.8375 43.8706 59.8291 43.9084C59.3875 45.903 58.6037 47.7826 57.5563 49.4926C56.9549 50.5372 56.2283 51.51 55.4355 52.3862C54.1039 53.877 52.5195 55.1876 50.7361 56.2078L50.7335 56.2094C49.6059 56.8514 48.3897 57.4114 47.1123 57.8202C46.3235 58.0728 45.4791 57.638 45.2265 56.849C44.9739 56.06 45.4087 55.2156 46.1977 54.963C47.2465 54.6272 48.2719 54.1586 49.2477 53.6032C50.7371 52.7508 52.0727 51.6482 53.2011 50.3844L53.2081 50.3766C53.8793 49.6352 54.4795 48.827 54.9655 47.9802C54.9699 47.9724 54.9745 47.9646 54.9791 47.957C54.9821 47.9518 54.9851 47.9468 54.9883 47.9418C55.8583 46.525 56.5045 44.9854 56.8757 43.3682C56.8825 43.3166 56.8919 43.2654 56.9041 43.2146C57.1821 42.0578 57.3227 40.896 57.3157 39.669V39.6542C57.3193 38.8144 57.2545 37.9656 57.1191 37.1094C56.9837 36.2532 56.7837 35.4272 56.5209 34.6266L56.5169 34.6143C56.1733 33.536 55.7209 32.5153 55.1629 31.5645L55.1549 31.5508C54.3003 30.0587 53.2173 28.7369 51.9571 27.6136L51.9483 27.6058C51.2161 26.943 50.4059 26.3528 49.5337 25.8358L49.5135 25.8239C48.0701 24.9374 46.4761 24.2835 44.8113 23.9135L44.7863 23.9078Z" fill="white"/>
<path fill-rule="evenodd" clip-rule="evenodd" d="M28.3178 51.7588C28.8738 51.1448 29.8224 51.0976 30.4365 51.6538C31.169 52.317 31.9766 52.904 32.8261 53.404C33.54 53.8242 33.7782 54.7436 33.3581 55.4576C32.9379 56.1714 32.0185 56.4096 31.3045 55.9896C30.2882 55.3914 29.3143 54.6846 28.4229 53.8776C27.8088 53.3216 27.7617 52.373 28.3178 51.7588Z" fill="white"/>
<path fill-rule="evenodd" clip-rule="evenodd" d="M24.3527 34.2025C25.1579 34.3971 25.6529 35.2077 25.4583 36.0128C25.1812 37.1594 25.046 38.3568 25.053 39.5948C25.0577 40.4232 24.3899 41.0986 23.5615 41.1034C22.7331 41.108 22.0577 40.4402 22.053 39.6118C22.0447 38.1434 22.2051 36.703 22.5423 35.3081C22.7369 34.5029 23.5474 34.0079 24.3527 34.2025Z" fill="white"/>
<path fill-rule="evenodd" clip-rule="evenodd" d="M48.2836 50.7448C49.0804 50.9712 49.543 51.8006 49.3168 52.5976L48.5472 55.309L51.2824 56.063C52.081 56.283 52.55 57.109 52.3298 57.9076C52.1098 58.7062 51.2838 59.1752 50.4852 58.955L46.2928 57.7994C45.9074 57.6932 45.5804 57.4376 45.3842 57.0892C45.1882 56.7406 45.1392 56.3284 45.2484 55.9438L46.4308 51.7782C46.6572 50.9814 47.4866 50.5186 48.2836 50.7448Z" fill="white"/>
</svg>
