<svg width="80" height="80" viewBox="0 0 80 80" fill="none" xmlns="http://www.w3.org/2000/svg">
<circle cx="40" cy="40" r="40" fill="#28D1B3"/>
<path fill-rule="evenodd" clip-rule="evenodd" d="M39.3824 33.6641C38.5402 33.6641 37.8574 34.3468 37.8574 35.189C37.8574 36.0312 38.5402 36.714 39.3824 36.714C40.2246 36.714 40.9074 36.0312 40.9074 35.189C40.9074 34.3468 40.2246 33.6641 39.3824 33.6641ZM34.8574 35.189C34.8574 32.69 36.8834 30.6641 39.3824 30.6641C41.8814 30.6641 43.9074 32.69 43.9074 35.189C43.9074 37.6882 41.8814 39.714 39.3824 39.714C36.8834 39.714 34.8574 37.6882 34.8574 35.189Z" fill="white"/>
<path fill-rule="evenodd" clip-rule="evenodd" d="M32.941 45.8046C32.0988 45.8046 31.416 46.4874 31.416 47.3296C31.416 48.1718 32.0988 48.8546 32.941 48.8546C33.7832 48.8546 34.466 48.1718 34.466 47.3296C34.466 46.4874 33.7832 45.8046 32.941 45.8046ZM28.416 47.3296C28.416 44.8306 30.4419 42.8046 32.941 42.8046C35.4401 42.8046 37.466 44.8306 37.466 47.3296C37.466 49.8288 35.4401 51.8546 32.941 51.8546C30.4419 51.8546 28.416 49.8288 28.416 47.3296Z" fill="white"/>
<path fill-rule="evenodd" clip-rule="evenodd" d="M46.777 45.0546C45.9348 45.0546 45.252 45.7374 45.252 46.5796C45.252 47.4218 45.9348 48.1046 46.777 48.1046C47.6192 48.1046 48.302 47.4218 48.302 46.5796C48.302 45.7374 47.6192 45.0546 46.777 45.0546ZM42.252 46.5796C42.252 44.0806 44.2778 42.0546 46.777 42.0546C49.276 42.0546 51.302 44.0806 51.302 46.5796C51.302 49.0788 49.276 51.1046 46.777 51.1046C44.2778 51.1046 42.252 49.0788 42.252 46.5796Z" fill="white"/>
<path fill-rule="evenodd" clip-rule="evenodd" d="M27.1522 39.848C27.7367 40.435 27.7346 41.3848 27.1475 41.9692C23.6031 45.4978 22.6832 49.6008 24.2283 52.2768C25.2325 54.0162 27.2254 55.143 29.8896 55.3742C32.5479 55.6048 35.7303 54.9144 38.7586 53.166L38.769 53.16C40.862 51.974 42.6688 50.3426 44.0616 48.3812C44.5414 47.7058 45.4776 47.547 46.1532 48.0266C46.8286 48.5062 46.9874 49.4426 46.5076 50.1182C44.8616 52.4362 42.7264 54.3646 40.2532 55.7672C36.7596 57.783 32.9709 58.6528 29.6304 58.363C26.2941 58.0736 23.2591 56.5982 21.6302 53.7768C19.1012 49.3966 21.0341 43.8222 25.0309 39.8432C25.618 39.2588 26.5677 39.2608 27.1522 39.848Z" fill="white"/>
<path fill-rule="evenodd" clip-rule="evenodd" d="M31.6302 26.2134C33.549 23.4688 36.3442 21.5781 39.6018 21.5781C44.9012 21.5781 48.8798 26.4595 50.1638 32.2963C50.3418 33.1054 49.8302 33.9056 49.0212 34.0836C48.212 34.2615 47.4118 33.7499 47.234 32.9408C46.0848 27.7176 42.8378 24.5781 39.6018 24.5781C37.5936 24.5781 35.6211 25.7406 34.0889 27.9323C32.56 30.1191 31.5667 33.2203 31.5667 36.717V36.7262C31.5516 39.1976 32.103 41.6396 33.1787 43.8646C33.5393 44.6106 33.227 45.5074 32.4812 45.868C31.7353 46.2286 30.8384 45.9162 30.4778 45.1704C29.2032 42.534 28.5495 39.6406 28.5667 36.7124C28.5676 32.6782 29.7087 28.9618 31.6302 26.2134Z" fill="white"/>
<path fill-rule="evenodd" clip-rule="evenodd" d="M40.9406 35.4247C41.0082 34.5991 41.7322 33.9844 42.5578 34.0519C45.4606 34.2892 48.272 35.1796 50.782 36.6566C54.2744 38.6744 56.922 41.5204 58.3412 44.5582C59.7586 47.5922 59.9984 50.9582 58.3696 53.7796C55.773 58.2774 49.7428 59.3314 44.1554 57.6746C43.3612 57.439 42.9082 56.6042 43.1436 55.81C43.3792 55.0158 44.214 54.5628 45.0082 54.7984C49.9892 56.2754 54.1856 55.0266 55.7716 52.2796C56.7758 50.5402 56.7552 48.2508 55.6232 45.828C54.4938 43.4106 52.3046 40.9998 49.2764 39.2514L49.2654 39.245C47.1438 37.9956 44.7672 37.2426 42.3134 37.042C41.4878 36.9744 40.8732 36.2504 40.9406 35.4247Z" fill="white"/>
</svg>
