<svg width="60" height="60" viewBox="0 0 60 60" fill="none" xmlns="http://www.w3.org/2000/svg">
<rect width="60" height="60" rx="16" fill="white"/>
<path fill-rule="evenodd" clip-rule="evenodd" d="M49.0312 29.9994C49.0312 35.0825 47.0516 39.8615 43.457 43.4561C39.8617 47.0514 35.0827 49.0314 30.0003 49.0314C29.3646 49.0314 28.8492 48.516 28.8492 47.8803C28.8492 47.2446 29.3646 46.7292 30.0003 46.7292C34.4678 46.7292 38.6687 44.9886 41.8291 41.8282C48.3515 35.3058 48.3515 24.693 41.8291 18.1706C35.3067 11.6482 24.694 11.6482 18.1714 18.1706C18.1213 18.2205 18.072 18.2714 18.0224 18.3221H19.474C20.1097 18.3221 20.6251 18.8375 20.6251 19.4732C20.6251 20.1089 20.1097 20.6243 19.474 20.6243H15.2388C14.6031 20.6243 14.0877 20.1089 14.0877 19.4732V15.2379C14.0877 14.6022 14.6031 14.0868 15.2388 14.0868C15.8745 14.0868 16.3899 14.6022 16.3899 15.2379V16.6989C16.4415 16.6462 16.4927 16.5933 16.5449 16.5413C20.1381 12.9481 24.9171 10.9685 30.0003 10.9685C35.0835 10.9685 39.8625 12.9481 43.4571 16.5426C47.0516 20.1372 49.0312 24.9162 49.0312 29.9993L49.0312 29.9994ZM18.0315 29.9994C18.0315 23.3998 23.4006 18.0306 30.0003 18.0306C36.5999 18.0306 41.9691 23.3997 41.9691 29.9994C41.9691 36.5991 36.5999 41.9682 30.0003 41.9682C23.4006 41.9682 18.0315 36.599 18.0315 29.9994ZM20.3337 29.9994C20.3337 35.3296 24.67 39.666 30.0003 39.666C35.3305 39.666 39.6669 35.3296 39.6669 29.9994C39.6669 24.6693 35.3305 20.3328 30.0003 20.3328C24.67 20.3328 20.3337 24.6693 20.3337 29.9994ZM29.4246 30.9962L33.3227 33.2476C33.504 33.3523 33.7019 33.4022 33.8973 33.4021C34.295 33.4021 34.682 33.1956 34.8951 32.8265C35.2131 32.276 35.0246 31.572 34.4741 31.254L31.1514 29.3349V23.926C31.1514 23.2903 30.636 22.7749 30.0003 22.7749C29.3646 22.7749 28.8492 23.2903 28.8492 23.926V29.9994C28.8492 30.4106 29.0685 30.7905 29.4246 30.9962ZM13.2702 29.9994C13.2702 29.3665 12.7547 28.8487 12.1195 28.8487C11.4843 28.8487 10.9688 29.3665 10.9688 29.9994C10.9688 30.6324 11.4864 31.1502 12.1195 31.1502C12.7525 31.1502 13.2702 30.6324 13.2702 29.9994ZM25.6694 46.1575C25.0559 45.9943 24.4251 46.3576 24.2598 46.9732C24.0966 47.5867 24.4599 48.2175 25.0755 48.3828C25.689 48.5459 26.3198 48.1826 26.4851 47.567C26.6483 46.9536 26.285 46.3228 25.6694 46.1575ZM21.6363 44.4868C21.086 44.1693 20.3812 44.3585 20.0636 44.9088C19.7461 45.4592 19.9331 46.164 20.4856 46.4815C21.036 46.7992 21.7386 46.6098 22.0562 46.0595C22.376 45.5092 22.1867 44.8044 21.6363 44.4868ZM16.544 41.8286C16.0937 42.2789 16.0937 43.0077 16.544 43.4557C16.9921 43.9061 17.7208 43.9061 18.1711 43.4557C18.6214 43.0077 18.6214 42.2789 18.1711 41.8286C17.7208 41.3784 16.9921 41.3784 16.544 41.8286ZM13.9402 37.9436C13.3898 38.2612 13.2006 38.9638 13.5182 39.5141C13.8358 40.0644 14.5406 40.2537 15.0909 39.9361C15.6413 39.6185 15.8306 38.9137 15.5129 38.3634C15.1953 37.8131 14.4905 37.6238 13.9402 37.9436ZM13.8423 34.3283C13.677 33.7149 13.0461 33.3516 12.4305 33.5147C11.817 33.68 11.4538 34.3109 11.617 34.9243C11.7823 35.5399 12.4132 35.9032 13.0265 35.74C13.6422 35.5747 14.0054 34.9439 13.8423 34.3283ZM12.4305 26.4842C13.0461 26.6473 13.6769 26.284 13.8423 25.6706C14.0054 25.055 13.6422 24.4242 13.0265 24.2589C12.4131 24.0957 11.7823 24.459 11.617 25.0746C11.4538 25.6881 11.8171 26.3189 12.4305 26.4842Z" fill="#2E2E2E"/>
</svg>
