<svg width="60" height="60" viewBox="0 0 60 60" fill="none" xmlns="http://www.w3.org/2000/svg">
<rect width="60" height="60" rx="16" fill="white"/>
<path d="M47.3458 46.5901H46.2958V36.5521C46.2958 35.8381 45.7498 35.2921 45.0358 35.2921H38.5258C37.8118 35.2921 37.2658 35.8381 37.2658 36.5521V46.5901H34.5358V30.0421C34.5358 29.3281 33.9898 28.7821 33.2758 28.7821H26.7238C26.0098 28.7821 25.4638 29.3281 25.4638 30.0421V46.5901H22.7338V23.4901C22.7338 22.7761 22.1878 22.2301 21.4738 22.2301H14.9638C14.2498 22.2301 13.7038 22.7761 13.7038 23.4901V46.5901H12.6538C11.9398 46.5901 11.3938 47.1361 11.3938 47.8501C11.3938 48.5641 11.9398 49.1101 12.6538 49.1101H47.3878C48.1018 49.1101 48.6478 48.5641 48.6478 47.8501C48.6478 47.1361 48.0598 46.5901 47.3458 46.5901ZM39.7858 37.8121H43.8178V46.5901H39.7858V37.8121ZM27.9838 31.3021H32.0158V46.5901H27.9838V31.3021ZM16.2238 24.7501H20.2558V46.5901H16.2238V24.7501Z" fill="#2E2E2E"/>
<path d="M18.7861 15.888L21.4741 17.484C21.6841 17.61 21.8941 17.652 22.1041 17.652C22.5241 17.652 22.9441 17.442 23.1961 17.022C23.5321 16.434 23.3641 15.636 22.7341 15.3L20.0461 13.704C19.4581 13.368 18.6601 13.536 18.3241 14.166C17.9881 14.754 18.1981 15.51 18.7861 15.888Z" fill="#2E2E2E"/>
<path d="M14.2919 13.242L15.0899 13.704C15.2999 13.83 15.5099 13.872 15.7199 13.872C16.1399 13.872 16.5599 13.662 16.8119 13.242C17.1479 12.654 16.9799 11.898 16.3499 11.52L15.5519 11.058C14.9639 10.722 14.1659 10.89 13.8299 11.52C13.4939 12.108 13.7039 12.864 14.2919 13.242Z" fill="#2E2E2E"/>
<path d="M26.472 20.4241L39.24 27.9841L37.476 28.4881C36.804 28.6561 36.426 29.3701 36.594 30.0421C36.762 30.5881 37.266 30.9661 37.812 30.9661C37.938 30.9661 38.022 30.9661 38.148 30.9241L42.81 29.6641C43.104 29.5801 43.398 29.3701 43.566 29.0761C43.734 28.7821 43.776 28.4461 43.692 28.1521L42.558 23.4481C42.39 22.7761 41.718 22.3561 41.046 22.5241C40.374 22.6921 39.954 23.3641 40.122 24.0361L40.542 25.8421L27.732 18.2401C27.144 17.9041 26.346 18.0721 26.01 18.7021C25.674 19.2901 25.884 20.0461 26.472 20.4241Z" fill="#2E2E2E"/>
</svg>
