<svg width="61" height="60" viewBox="0 0 61 60" fill="none" xmlns="http://www.w3.org/2000/svg">
<rect x="0.333008" width="60" height="60" rx="16" fill="white"/>
<path d="M17.208 16.106L17.5925 16.4905C17.8485 16.7465 18.1845 16.8751 18.5205 16.8751C18.8565 16.8751 19.1925 16.7465 19.4484 16.4905C19.9616 15.9773 19.9616 15.1478 19.4484 14.6346L16.8234 12.0096C16.3102 11.4965 15.4807 11.4965 14.9675 12.0096L12.3425 14.6346C11.8293 15.1478 11.8293 15.9773 12.3425 16.4905C12.8557 17.0037 13.6852 17.0037 14.1984 16.4905L14.583 16.106V33.9376C14.583 34.019 14.6145 34.0885 14.6289 34.1646C13.0815 34.6962 11.958 36.1491 11.958 37.8751C11.958 40.046 13.7246 41.8126 15.8955 41.8126C16.6187 41.8126 17.208 42.4006 17.208 43.1251C17.208 43.8496 16.6187 44.4376 15.8955 44.4376C15.1723 44.4376 14.583 43.8496 14.583 43.1251C14.583 42.3993 13.995 41.8126 13.2705 41.8126C12.546 41.8126 11.958 42.3993 11.958 43.1251C11.958 44.834 13.0592 46.2777 14.583 46.8211V47.0626C14.583 47.7884 15.171 48.3751 15.8955 48.3751C16.62 48.3751 17.208 47.7884 17.208 47.0626V46.8211C18.7318 46.2777 19.833 44.834 19.833 43.1251C19.833 40.9542 18.0663 39.1876 15.8955 39.1876C15.1723 39.1876 14.583 38.5996 14.583 37.8751C14.583 37.1506 15.1723 36.5626 15.8955 36.5626C16.6187 36.5626 17.208 37.1506 17.208 37.8751C17.208 38.6009 17.796 39.1876 18.5205 39.1876C19.245 39.1876 19.833 38.6009 19.833 37.8751C19.833 36.1491 18.7095 34.6962 17.162 34.1646C17.1765 34.0885 17.208 34.019 17.208 33.9376V16.106Z" fill="#2E2E2E"/>
<path d="M23.7692 40.5001C23.8388 40.5001 23.9096 40.4948 23.9805 40.483C31.8135 39.2112 45.7194 29.9975 46.0659 16.0889L46.4663 16.4892C46.7235 16.7465 47.0595 16.8751 47.3955 16.8751C47.7315 16.8751 48.0675 16.7465 48.3234 16.4905C48.8366 15.9773 48.8366 15.1478 48.3234 14.6346L45.6984 12.0096C45.1853 11.4965 44.3558 11.4965 43.8426 12.0096L41.2176 14.6346C40.7044 15.1478 40.7044 15.9773 41.2176 16.4905C41.7308 17.0037 42.5603 17.0037 43.0734 16.4905L43.4396 16.1243C43.059 28.3595 30.3986 36.7818 23.5605 37.8921C22.8452 38.009 22.3583 38.6836 22.4751 39.3976C22.5801 40.042 23.1366 40.5001 23.7692 40.5001Z" fill="#2E2E2E"/>
<path d="M29.0206 45.75H23.7706C23.0461 45.75 22.4581 46.3367 22.4581 47.0625C22.4581 47.7883 23.0461 48.375 23.7706 48.375H29.0206C29.7451 48.375 30.3331 47.7883 30.3331 47.0625C30.3331 46.3367 29.7451 45.75 29.0206 45.75Z" fill="#2E2E2E"/>
<path d="M38.2081 45.75H32.9581C32.2336 45.75 31.6456 46.3367 31.6456 47.0625C31.6456 47.7883 32.2336 48.375 32.9581 48.375H38.2081C38.9326 48.375 39.5206 47.7883 39.5206 47.0625C39.5206 46.3367 38.9326 45.75 38.2081 45.75Z" fill="#2E2E2E"/>
<path d="M47.3956 45.75H42.1456C41.4211 45.75 40.8331 46.3367 40.8331 47.0625C40.8331 47.7883 41.4211 48.375 42.1456 48.375H47.3956C48.1201 48.375 48.7081 47.7883 48.7081 47.0625C48.7081 46.3367 48.1201 45.75 47.3956 45.75Z" fill="#2E2E2E"/>
<path d="M29.0206 41.8125H23.7706C23.0461 41.8125 22.4581 42.3992 22.4581 43.125C22.4581 43.8508 23.0461 44.4375 23.7706 44.4375H29.0206C29.7451 44.4375 30.3331 43.8508 30.3331 43.125C30.3331 42.3992 29.7451 41.8125 29.0206 41.8125Z" fill="#2E2E2E"/>
<path d="M38.2081 41.8125H32.9581C32.2336 41.8125 31.6456 42.3992 31.6456 43.125C31.6456 43.8508 32.2336 44.4375 32.9581 44.4375H38.2081C38.9326 44.4375 39.5206 43.8508 39.5206 43.125C39.5206 42.3992 38.9326 41.8125 38.2081 41.8125Z" fill="#2E2E2E"/>
<path d="M47.3956 41.8125H42.1456C41.4211 41.8125 40.8331 42.3992 40.8331 43.125C40.8331 43.8508 41.4211 44.4375 42.1456 44.4375H47.3956C48.1201 44.4375 48.7081 43.8508 48.7081 43.125C48.7081 42.3992 48.1201 41.8125 47.3956 41.8125Z" fill="#2E2E2E"/>
<path d="M38.2081 37.875H32.9581C32.2336 37.875 31.6456 38.4617 31.6456 39.1875C31.6456 39.9133 32.2336 40.5 32.9581 40.5H38.2081C38.9326 40.5 39.5206 39.9133 39.5206 39.1875C39.5206 38.4617 38.9326 37.875 38.2081 37.875Z" fill="#2E2E2E"/>
<path d="M47.3956 37.875H42.1456C41.4211 37.875 40.8331 38.4617 40.8331 39.1875C40.8331 39.9133 41.4211 40.5 42.1456 40.5H47.3956C48.1201 40.5 48.7081 39.9133 48.7081 39.1875C48.7081 38.4617 48.1201 37.875 47.3956 37.875Z" fill="#2E2E2E"/>
<path d="M47.3956 33.9375H42.1456C41.4211 33.9375 40.8331 34.5242 40.8331 35.25C40.8331 35.9758 41.4211 36.5625 42.1456 36.5625H47.3956C48.1201 36.5625 48.7081 35.9758 48.7081 35.25C48.7081 34.5242 48.1201 33.9375 47.3956 33.9375Z" fill="#2E2E2E"/>
<path d="M47.3956 30H42.1456C41.4211 30 40.8331 30.5867 40.8331 31.3125C40.8331 32.0383 41.4211 32.625 42.1456 32.625H47.3956C48.1201 32.625 48.7081 32.0383 48.7081 31.3125C48.7081 30.5867 48.1201 30 47.3956 30Z" fill="#2E2E2E"/>
</svg>
