<svg width="22" height="22" viewBox="0 0 22 22" fill="none" xmlns="http://www.w3.org/2000/svg">
<path d="M11 0.0625C8.91094 0.0625 6.86879 0.68198 5.13179 1.8426C3.3948 3.00322 2.04098 4.65286 1.24153 6.58291C0.442077 8.51295 0.232904 10.6367 0.64046 12.6856C1.04802 14.7346 2.054 16.6166 3.53119 18.0938C5.00838 19.571 6.89044 20.577 8.93936 20.9845C10.9883 21.3921 13.1121 21.1829 15.0421 20.3835C16.9721 19.584 18.6218 18.2302 19.7824 16.4932C20.943 14.7562 21.5625 12.7141 21.5625 10.625C21.5593 7.82464 20.4454 5.1399 18.4653 3.15975C16.4851 1.17959 13.8004 0.0657256 11 0.0625ZM17.2636 7.13531L9.18732 15.2603C9.03577 15.4129 8.82992 15.4992 8.61487 15.5002C8.39982 15.5013 8.19312 15.4171 8.04007 15.266L4.74213 12.016C4.60229 11.8624 4.52658 11.6611 4.53056 11.4534C4.53454 11.2458 4.6179 11.0475 4.76352 10.8994C4.90914 10.7513 5.10596 10.6645 5.31354 10.657C5.52112 10.6495 5.72369 10.7218 5.87963 10.859L8.6015 13.5402L16.1114 5.99375C16.1862 5.91596 16.2757 5.85384 16.3747 5.811C16.4737 5.76816 16.5802 5.74547 16.6881 5.74424C16.7959 5.74301 16.903 5.76327 17.0029 5.80384C17.1029 5.84441 17.1937 5.90448 17.2702 5.98054C17.3467 6.0566 17.4073 6.14713 17.4484 6.24685C17.4896 6.34657 17.5104 6.45348 17.5098 6.56135C17.5092 6.66922 17.4871 6.77589 17.4448 6.87513C17.4025 6.97437 17.3409 7.0642 17.2636 7.13937V7.13531Z" fill="#0FAC90"/>
</svg>
