<svg width="24" height="24" viewBox="0 0 24 24" fill="none" xmlns="http://www.w3.org/2000/svg">
<path d="M12.25 2.78418C17.626 2.78418 22 7.15913 22 12.5352C21.9998 17.9109 17.6258 22.2852 12.25 22.2852C6.87415 22.2852 2.50025 17.9109 2.5 12.5352C2.5 7.15913 6.874 2.78418 12.25 2.78418ZM10.3232 9.54492C10.0288 9.30487 9.59389 9.32237 9.31934 9.59668C9.04482 9.8712 9.02748 10.306 9.26758 10.6006L9.31934 10.6572L11.1875 12.5254L9.32324 14.3906C9.03042 14.6834 9.03056 15.1583 9.32324 15.4512C9.61614 15.7441 10.0909 15.7441 10.3838 15.4512L12.248 13.5859L14.1152 15.4541L14.1719 15.5059C14.4664 15.7462 14.9011 15.7287 15.1758 15.4541C15.4502 15.1795 15.4679 14.7447 15.2275 14.4502L15.1758 14.3936L13.3086 12.5254L15.1758 10.6592C15.4685 10.3663 15.4686 9.89147 15.1758 9.59863C14.8829 9.306 14.4081 9.30599 14.1152 9.59863L12.248 11.4648L10.3799 9.59668L10.3232 9.54492Z" fill="#838C9B"/>
</svg>
