<svg width="26" height="26" viewBox="0 0 26 26" fill="none" xmlns="http://www.w3.org/2000/svg">
<path d="M13 4C8.03743 4 4 8.03734 4 13C4 17.9627 8.03743 22.0001 13 22.0001C17.9626 22.0001 22 17.9627 22 13C22 8.03734 17.9627 4 13 4ZM18.168 11.4798L12.5137 17.1341C12.2733 17.3745 11.9537 17.5068 11.6137 17.5068C11.2738 17.5068 10.9542 17.3745 10.7138 17.1341L7.83204 14.2523C7.59162 14.0119 7.4592 13.6923 7.4592 13.3524C7.4592 13.0123 7.59162 12.6927 7.83204 12.4523C8.07237 12.2119 8.39195 12.0795 8.73201 12.0795C9.07198 12.0795 9.39166 12.2119 9.63198 12.4524L11.6137 14.434L16.3678 9.67979C16.6082 9.43937 16.9278 9.30704 17.2678 9.30704C17.6078 9.30704 17.9274 9.43937 18.1678 9.67979C18.6642 10.1762 18.6642 10.9836 18.168 11.4798Z" fill="#0B63E9"/>
</svg>
