<svg width="49" height="48" viewBox="0 0 49 48" fill="none" xmlns="http://www.w3.org/2000/svg">
<path d="M28.1436 6.11877C29.8122 5.49075 31.6233 5.49076 33.292 6.11877L33.6475 6.26331L33.6572 6.26819L37.3428 7.90588C37.7579 8.08466 38.1782 8.0655 38.5342 7.87952L39.834 7.19299L39.8496 7.18518C42.3953 5.88001 44.9997 7.96723 45 10.5514L44.9824 33.5055C44.9822 36.0114 44.3439 38.2384 42.9395 39.86C41.5081 41.5125 39.443 42.3483 37.002 42.3483H12.7266L12.3809 42.3395C10.776 42.2587 9.31804 41.6187 8.20898 40.6119L7.97656 40.3912C6.75558 39.1701 6 37.4871 6 35.6403V21.1451C6.00031 18.6373 8.44776 16.6058 10.9131 17.6666L11.1523 17.7789L11.167 17.7867L12.4736 18.4762L12.4727 18.4772C12.8269 18.6611 13.2492 18.6779 13.6621 18.4977L16.1416 17.3912V17.3932C16.2418 17.3483 16.3407 17.3166 16.4355 17.2936V10.5514C16.4359 8.07496 18.8721 6.0078 21.3467 7.0719L21.5859 7.18518L21.6016 7.19299L22.9033 7.88049L23.0391 7.94202C23.3635 8.06782 23.7329 8.06225 24.0957 7.90393L27.7783 6.26721L27.7881 6.26331L28.1436 6.11877ZM32.4385 9.0094C31.3265 8.52813 30.108 8.5269 28.9961 9.00842L28.9971 9.0094L25.2959 10.6539C24.1633 11.1482 22.881 11.1647 21.7383 10.6481L21.5107 10.5377L21.5068 10.5358L20.2168 9.85413C20.0604 9.77398 19.9059 9.78492 19.751 9.89124C19.5867 10.0041 19.4357 10.2278 19.4355 10.5514V35.6403C19.4355 37.0113 19.0234 38.2861 18.3174 39.3483H37.002C38.729 39.3483 39.9053 38.7811 40.6719 37.8961C41.4648 36.9806 41.9823 35.5353 41.9824 33.5045L42 10.5514L41.9932 10.4313C41.9616 10.1622 41.8259 9.98184 41.6875 9.88733C41.5374 9.78493 41.3817 9.77158 41.2188 9.8551L41.2178 9.85413L39.9287 10.5358L39.9229 10.5387C38.7239 11.165 37.3482 11.1806 36.1387 10.6539L36.1279 10.65L32.4385 9.0094ZM9.7832 20.4489C9.61951 20.365 9.46283 20.3787 9.3125 20.4811C9.1545 20.5888 9.00014 20.8083 9 21.1451V35.6403C9 36.6534 9.41206 37.5832 10.0977 38.2692L10.2256 38.3912C10.8338 38.9433 11.6372 39.2985 12.5332 39.3434L12.7266 39.3483L12.918 39.3434C14.8788 39.2439 16.4355 37.6234 16.4355 35.6403V20.5446L14.873 21.2428L14.8623 21.2477C13.6539 21.7751 12.275 21.7588 11.0771 21.1315L11.0732 21.1295L9.7832 20.4479V20.4489ZM24.6553 27.2321C25.4114 27.3089 26.0017 27.9479 26.002 28.7242C26.002 29.5008 25.4116 30.1395 24.6553 30.2164L24.502 30.2242H23.9492C23.1208 30.2242 22.4492 29.5527 22.4492 28.7242C22.4495 27.8961 23.121 27.2242 23.9492 27.2242H24.502L24.6553 27.2321ZM37.7236 27.2321C38.48 27.3087 39.07 27.9477 39.0703 28.7242C39.0703 29.501 38.4802 30.1397 37.7236 30.2164L37.5703 30.2242H29.748C28.9196 30.2242 28.248 29.5527 28.248 28.7242C28.2483 27.8961 28.9198 27.2242 29.748 27.2242H37.5703L37.7236 27.2321ZM24.6553 17.7809C25.4115 17.8577 26.0018 18.4966 26.002 19.2731C26.002 20.0497 25.4116 20.6884 24.6553 20.7653L24.502 20.7731H23.9492C23.1208 20.7731 22.4492 20.1015 22.4492 19.2731C22.4494 18.4448 23.1209 17.7731 23.9492 17.7731H24.502L24.6553 17.7809ZM37.7236 17.7809C38.4801 17.8575 39.0701 18.4965 39.0703 19.2731C39.0703 20.0498 38.4802 20.6886 37.7236 20.7653L37.5703 20.7731H29.748C28.9196 20.7731 28.248 20.1015 28.248 19.2731C28.2482 18.4448 28.9197 17.7731 29.748 17.7731H37.5703L37.7236 17.7809Z" fill="url(#paint0_linear_630_333)"/>
<defs>
<linearGradient id="paint0_linear_630_333" x1="7.5" y1="6.5" x2="47.1291" y2="11.1639" gradientUnits="userSpaceOnUse">
<stop stop-color="#4BFFAE"/>
<stop offset="1" stop-color="#1F75FF"/>
</linearGradient>
</defs>
</svg>
