<svg width="49" height="48" viewBox="0 0 49 48" fill="none" xmlns="http://www.w3.org/2000/svg">
<path d="M34.3043 6.01824C34.5869 6.04752 34.853 6.17352 35.0552 6.37664C35.2862 6.60874 35.4155 6.92324 35.4156 7.25066V10.5358H36.5933L36.7544 10.5427C37.4997 10.5871 38.2143 10.8556 38.8043 11.3132L38.9293 11.4137L38.942 11.4245C39.2589 11.7163 39.5116 12.0718 39.6841 12.4665C39.8565 12.8609 39.9448 13.287 39.9439 13.7175V18.8835C40.2858 18.8965 40.6229 18.975 40.9351 19.1159C41.2687 19.2665 41.5678 19.4848 41.813 19.7565C42.0583 20.0282 42.2451 20.3478 42.3609 20.695C42.4767 21.0423 42.519 21.4105 42.4859 21.7751L42.4849 21.7839L40.481 39.6335C40.4099 40.2755 40.1053 40.8697 39.6265 41.3034C39.1478 41.7369 38.5272 41.9806 37.8814 41.988H10.5865C9.94017 41.9815 9.3185 41.7382 8.83941 41.3044C8.36078 40.8707 8.0573 40.2764 7.98687 39.6345L6.51422 26.5983L6.50152 26.4616C6.48106 26.1423 6.51922 25.8208 6.61383 25.5143C6.72197 25.1642 6.90193 24.8399 7.14215 24.5632C7.38236 24.2866 7.67796 24.0631 8.00933 23.9069C8.32152 23.7598 8.66018 23.6759 9.00445 23.6589V7.24969L9.01031 7.12664C9.023 7.00469 9.05423 6.88453 9.10211 6.77117C9.16598 6.62005 9.25945 6.4828 9.37652 6.36785C9.49364 6.25296 9.63243 6.16227 9.78472 6.10125C9.93529 6.04093 10.0962 6.0109 10.2584 6.01238H34.1832L34.3043 6.01824ZM39.8824 21.3991H28.0152C27.6977 21.3992 27.4691 21.4619 27.2955 21.5554C27.1216 21.649 26.9789 21.7863 26.8521 21.9694C26.5804 22.362 26.4263 22.882 26.188 23.5212C25.9628 24.1253 25.6696 24.8017 25.1089 25.319C24.5338 25.8497 23.7239 26.1724 22.5464 26.1725H9.1148L9.09234 26.1706C9.07911 26.1691 9.06479 26.1708 9.0523 26.1755C9.04012 26.1801 9.02898 26.1874 9.02008 26.197C9.01114 26.2066 9.00427 26.2185 9.00054 26.2311L8.99859 26.2702L9.00054 26.2848L10.4488 39.3766L10.4498 39.3893L10.4507 39.404C10.4512 39.4139 10.4532 39.4243 10.4576 39.4333C10.462 39.4422 10.4686 39.4503 10.4761 39.4567C10.4839 39.4633 10.4938 39.4685 10.5035 39.4714C10.5129 39.4741 10.523 39.4755 10.5328 39.4743L10.5582 39.4704H37.8902L37.9039 39.4714C37.9298 39.473 37.9552 39.4647 37.9752 39.4479C37.9951 39.431 38.0087 39.4066 38.0113 39.3805V39.3757L40.0035 21.5241L40.0045 21.5163L40.0005 21.4704C39.9958 21.4558 39.9875 21.4425 39.9771 21.4313C39.9667 21.4202 39.9541 21.4106 39.94 21.405C39.9259 21.3994 39.9103 21.3973 39.8951 21.3981L39.8824 21.3991ZM34.5718 30.7243C35.0909 30.7786 35.5787 31.0082 35.9517 31.3796C36.378 31.8041 36.6211 32.3795 36.6275 32.9811V35.6091C36.6187 36.2065 36.3727 36.7769 35.9449 37.194C35.5182 37.6098 34.9447 37.8397 34.3492 37.8346H25.5425C24.9467 37.8399 24.3726 37.61 23.9459 37.194C23.5181 36.7769 23.273 36.2065 23.2642 35.6091V32.986C23.2637 32.6871 23.3219 32.3902 23.4361 32.1139C23.5505 31.8375 23.7195 31.5861 23.9312 31.3747C24.143 31.1635 24.3948 30.9963 24.6714 30.8825C24.9478 30.7689 25.2438 30.7106 25.5425 30.7116H34.3472L34.5718 30.7243ZM25.7388 35.361H34.1451V33.2292H25.7388V35.361ZM11.4781 23.6559H14.8755V18.4177C14.8752 18.2371 14.9129 18.0578 14.9849 17.8923C15.0571 17.7266 15.1629 17.5776 15.2955 17.4548L21.9752 10.903L21.983 10.8952C22.1012 10.7855 22.2421 10.7003 22.3941 10.6462C22.5378 10.5951 22.6902 10.5724 22.8423 10.5788H32.9263V8.47039H11.4781V23.6559ZM23.9527 16.5768L23.9488 16.7389C23.9077 17.5468 23.5684 18.3136 22.9937 18.8884C22.3808 19.5012 21.5499 19.8461 20.6832 19.8473H17.3502V23.6423L17.6822 23.6384V23.6559H22.5464C22.8517 23.6559 23.0707 23.5936 23.2369 23.5016C23.4038 23.4091 23.542 23.2725 23.6666 23.0886C23.934 22.6934 24.0866 22.1735 24.3287 21.5319C24.5573 20.9258 24.8579 20.2498 25.4273 19.7331C26.0104 19.2042 26.829 18.8816 28.0152 18.8815H37.4693V13.7311L37.4654 13.6677C37.458 13.6044 37.4405 13.5425 37.4146 13.4841C37.3813 13.4093 37.3339 13.3415 37.275 13.2848C37.0808 13.1323 36.8405 13.0502 36.5933 13.0534H23.9527V16.5768ZM18.9146 17.3893L19.1148 17.405H20.6734C20.889 17.4001 21.0941 17.3103 21.2447 17.1559C21.3952 17.0014 21.4798 16.7935 21.4791 16.5778V14.8688L18.9146 17.3893ZM34.7593 14.6891C35.1468 14.6892 35.4642 14.8463 35.6783 15.0983C35.8847 15.3416 35.9781 15.6519 35.9781 15.946C35.9781 16.2401 35.8848 16.5503 35.6783 16.7936C35.4642 17.0457 35.1468 17.2027 34.7593 17.2028H27.1207C26.7332 17.2027 26.4158 17.0457 26.2017 16.7936C25.9952 16.5503 25.9019 16.2401 25.9019 15.946C25.9019 15.6518 25.9953 15.3416 26.2017 15.0983C26.4158 14.8463 26.7332 14.6892 27.1207 14.6891H34.7593ZM18.9039 9.28973C19.0236 9.29556 19.142 9.31878 19.2554 9.35906C19.4155 9.41592 19.5619 9.50582 19.6861 9.62176C19.8101 9.73758 19.9094 9.87727 19.9771 10.0329C20.0447 10.1886 20.0796 10.3573 20.0796 10.527L20.0738 10.654C20.0608 10.7802 20.0279 10.9043 19.9771 11.0212C19.9094 11.1769 19.8102 11.3174 19.6861 11.4333C19.5621 11.549 19.4152 11.6372 19.2554 11.694C19.1041 11.7478 18.9439 11.7707 18.7837 11.7634L13.691 11.7643L13.6773 11.7634C13.3642 11.7419 13.0703 11.6021 12.856 11.3727C12.6686 11.172 12.5537 10.9154 12.5279 10.6442L12.522 10.527C12.5221 10.2133 12.6419 9.9107 12.856 9.68133C13.0703 9.45199 13.3642 9.31219 13.6773 9.2907L13.691 9.28973H18.9039Z" fill="url(#paint0_linear_630_337)"/>
<defs>
<linearGradient id="paint0_linear_630_337" x1="0.496043" y1="9.22444" x2="46.7609" y2="42.2325" gradientUnits="userSpaceOnUse">
<stop stop-color="#4BFFAE"/>
<stop offset="1" stop-color="#1F75FF"/>
</linearGradient>
</defs>
</svg>
