<svg width="49" height="48" viewBox="0 0 49 48" fill="none" xmlns="http://www.w3.org/2000/svg">
<path d="M29.7296 3.00024C30.4261 3.0008 31.1151 3.14638 31.7521 3.42798C32.3891 3.70963 32.9607 4.12119 33.4298 4.63599L41.1993 13.1829C42.0366 14.1027 42.501 15.3023 42.5001 16.5461V40.0002C42.4984 41.3257 41.9706 42.5962 41.0333 43.5334C40.0961 44.4707 38.8256 44.9986 37.5001 45.0002H11.5001C10.1745 44.9987 8.90327 44.4708 7.96594 43.5334C7.02888 42.5962 6.5018 41.3256 6.50012 40.0002V8.00024C6.50171 6.67466 7.02861 5.40339 7.96594 4.46606C8.90327 3.52874 10.1745 3.00183 11.5001 3.00024H29.7296ZM11.5001 5.00024C10.7045 5.00024 9.94163 5.31655 9.37903 5.87915C8.81642 6.44175 8.50012 7.2046 8.50012 8.00024V40.0002C8.50021 40.7958 8.8165 41.5588 9.37903 42.1213C9.94161 42.6838 10.7046 43.0002 11.5001 43.0002H37.5001C38.2957 43.0002 39.0587 42.6839 39.6212 42.1213C40.1837 41.5588 40.5 40.7958 40.5001 40.0002V16.5461C40.5008 15.8002 40.2222 15.081 39.7198 14.5295L32.5001 6.58618V14.0002C32.5002 14.2654 32.6056 14.5198 32.7931 14.7073C32.9806 14.8947 33.235 15.0002 33.5001 15.0002H37.5001C37.7652 15.0003 38.0197 15.1057 38.2072 15.2932C38.3945 15.4807 38.5001 15.7351 38.5001 16.0002C38.5001 16.2654 38.3946 16.5198 38.2072 16.7073C38.0197 16.8947 37.7652 17.0002 37.5001 17.0002H33.5001C32.7046 17.0002 31.9416 16.6838 31.379 16.1213C30.8165 15.5588 30.5002 14.7958 30.5001 14.0002V5.10083C30.2495 5.03421 29.9903 5.00049 29.7296 5.00024H11.5001ZM31.5001 20.0002C32.2957 20.0003 33.0587 20.3166 33.6212 20.8792C34.1837 21.4417 34.5001 22.2047 34.5001 23.0002V35.0002C34.5 35.7958 34.1837 36.5588 33.6212 37.1213C33.0587 37.6838 32.2957 38.0002 31.5001 38.0002H17.5001C16.7046 38.0002 15.9416 37.6838 15.379 37.1213C14.8165 36.5588 14.5002 35.7958 14.5001 35.0002V23.0002C14.5001 22.2046 14.8165 21.4417 15.379 20.8792C15.9416 20.3165 16.7045 20.0002 17.5001 20.0002H31.5001ZM17.5001 22.0002C17.2349 22.0002 16.9806 22.1057 16.7931 22.2932C16.6056 22.4807 16.5001 22.7351 16.5001 23.0002V35.0002C16.5002 35.2653 16.6056 35.5198 16.7931 35.7073C16.9806 35.8947 17.235 36.0002 17.5001 36.0002H31.5001C31.7652 36.0002 32.0197 35.8947 32.2072 35.7073C32.3946 35.5198 32.5 35.2653 32.5001 35.0002V23.0002C32.5001 22.7351 32.3945 22.4807 32.2072 22.2932C32.0197 22.1057 31.7653 22.0003 31.5001 22.0002H29.5001V27.3821C29.4985 27.912 29.2869 28.4195 28.9122 28.7942C28.5376 29.1689 28.03 29.3804 27.5001 29.3821V29.384C27.1876 29.3841 26.8791 29.3112 26.5997 29.1711L24.5001 28.1184L22.3995 29.1711C22.0946 29.3247 21.7553 29.3977 21.4142 29.3831C21.073 29.3684 20.741 29.2664 20.4503 29.0872C20.1596 28.9078 19.9193 28.657 19.7531 28.3586C19.5868 28.0602 19.4996 27.7237 19.5001 27.3821V22.0002H17.5001ZM21.5001 27.3821L23.6046 26.3293C23.8827 26.1914 24.1896 26.1198 24.5001 26.1204C24.8102 26.1198 25.116 26.1913 25.3937 26.3293L27.5001 27.384V22.0002H21.5001V27.3821ZM21.5001 14.0002C21.7653 14.0003 22.0197 14.1057 22.2072 14.2932C22.3946 14.4807 22.5001 14.7351 22.5001 15.0002C22.5001 15.2654 22.3946 15.5198 22.2072 15.7073C22.0197 15.8948 21.7653 16.0002 21.5001 16.0002H13.5001C13.235 16.0002 12.9806 15.8947 12.7931 15.7073C12.6056 15.5198 12.5002 15.2654 12.5001 15.0002C12.5001 14.735 12.6056 14.4807 12.7931 14.2932C12.9806 14.1057 13.2349 14.0002 13.5001 14.0002H21.5001ZM25.5001 14.0002C25.7653 14.0003 26.0197 14.1057 26.2072 14.2932C26.3946 14.4807 26.5001 14.7351 26.5001 15.0002C26.5001 15.2654 26.3946 15.5198 26.2072 15.7073C26.0197 15.8948 25.7653 16.0002 25.5001 16.0002H24.5001C24.235 16.0002 23.9806 15.8947 23.7931 15.7073C23.6056 15.5198 23.5002 15.2654 23.5001 15.0002C23.5001 14.735 23.6056 14.4807 23.7931 14.2932C23.9806 14.1057 24.2349 14.0002 24.5001 14.0002H25.5001ZM15.5001 9.00024C15.7653 9.00028 16.0196 9.10571 16.2072 9.29321C16.3946 9.48073 16.5001 9.7351 16.5001 10.0002C16.5001 10.2654 16.3947 10.5198 16.2072 10.7073C16.0196 10.8948 15.7653 11.0002 15.5001 11.0002H13.5001C13.235 11.0002 12.9806 10.8947 12.7931 10.7073C12.6056 10.5198 12.5002 10.2654 12.5001 10.0002C12.5001 9.73504 12.6056 9.48074 12.7931 9.29321C12.9806 9.10568 13.2349 9.00024 13.5001 9.00024H15.5001ZM25.5001 9.00024C25.7653 9.00028 26.0197 9.10571 26.2072 9.29321C26.3946 9.48073 26.5001 9.7351 26.5001 10.0002C26.5001 10.2654 26.3947 10.5198 26.2072 10.7073C26.0197 10.8948 25.7653 11.0002 25.5001 11.0002H18.5001C18.235 11.0002 17.9806 10.8947 17.7931 10.7073C17.6056 10.5198 17.5002 10.2654 17.5001 10.0002C17.5001 9.73505 17.6056 9.48074 17.7931 9.29321C17.9806 9.10568 18.2349 9.00024 18.5001 9.00024H25.5001Z" fill="url(#paint0_linear_630_342)"/>
<path d="M29.7296 3.00024L29.7298 2.75025H29.7296V3.00024ZM31.7521 3.42798L31.8532 3.19933L31.8532 3.19933L31.7521 3.42798ZM33.4298 4.63599L33.6148 4.46782L33.6146 4.4676L33.4298 4.63599ZM41.1993 13.1829L41.0144 13.351L41.0145 13.3511L41.1993 13.1829ZM42.5001 16.5461L42.2501 16.546V16.5461H42.5001ZM42.5001 40.0002L42.7501 40.0006V40.0002H42.5001ZM41.0333 43.5334L41.2101 43.7102H41.2101L41.0333 43.5334ZM37.5001 45.0002V45.2502H37.5004L37.5001 45.0002ZM11.5001 45.0002L11.4998 45.2502H11.5001V45.0002ZM7.96594 43.5334L7.78915 43.7102L7.78917 43.7102L7.96594 43.5334ZM6.50012 40.0002H6.25012L6.25012 40.0006L6.50012 40.0002ZM6.50012 8.00024L6.25012 7.99994V8.00024H6.50012ZM7.96594 4.46606L7.78917 4.28929L7.96594 4.46606ZM11.5001 3.00024V2.75025L11.4998 2.75025L11.5001 3.00024ZM9.37903 5.87915L9.20225 5.70238V5.70238L9.37903 5.87915ZM8.50012 40.0002H8.25012V40.0003L8.50012 40.0002ZM9.37903 42.1213L9.20225 42.2981L9.20227 42.2981L9.37903 42.1213ZM37.5001 43.0002V43.2502H37.5001L37.5001 43.0002ZM39.6212 42.1213L39.798 42.2981H39.798L39.6212 42.1213ZM40.5001 40.0002L40.7501 40.0003V40.0002H40.5001ZM40.5001 16.5461L40.2501 16.5459V16.5461H40.5001ZM39.7198 14.5295L39.5348 14.6977L39.535 14.6979L39.7198 14.5295ZM32.5001 6.58618L32.6851 6.41803L32.2501 5.93944V6.58618H32.5001ZM32.5001 14.0002H32.2501V14.0003L32.5001 14.0002ZM32.7931 14.7073L32.6163 14.8841L32.6164 14.8841L32.7931 14.7073ZM37.5001 15.0002L37.5002 14.7502H37.5001V15.0002ZM38.2072 15.2932L38.384 15.1165L38.3839 15.1164L38.2072 15.2932ZM38.5001 16.0002L38.7501 16.0003V16.0002H38.5001ZM38.2072 16.7073L38.3839 16.8841L38.3839 16.884L38.2072 16.7073ZM37.5001 17.0002V17.2502H37.5002L37.5001 17.0002ZM33.5001 17.0002V17.2502V17.0002ZM31.379 16.1213L31.2023 16.2981L31.2023 16.2981L31.379 16.1213ZM30.5001 14.0002H30.2501V14.0003L30.5001 14.0002ZM30.5001 5.10083H30.7501V4.9086L30.5643 4.85922L30.5001 5.10083ZM29.7296 5.00024L29.7298 4.75025H29.7296V5.00024ZM31.5001 20.0002L31.5001 19.7502H31.5001V20.0002ZM33.6212 20.8792L33.798 20.7024L33.798 20.7024L33.6212 20.8792ZM34.5001 35.0002L34.7501 35.0003V35.0002H34.5001ZM33.6212 37.1213L33.798 37.2981L33.798 37.2981L33.6212 37.1213ZM31.5001 38.0002V38.2502H31.5001L31.5001 38.0002ZM15.379 37.1213L15.2023 37.2981L15.2023 37.2981L15.379 37.1213ZM14.5001 35.0002H14.2501V35.0003L14.5001 35.0002ZM15.379 20.8792L15.2023 20.7024L15.2022 20.7024L15.379 20.8792ZM17.5001 20.0002V19.7502V20.0002ZM16.7931 22.2932L16.6163 22.1164L16.6163 22.1165L16.7931 22.2932ZM16.5001 35.0002H16.2501V35.0003L16.5001 35.0002ZM16.7931 35.7073L16.6163 35.8841L16.6164 35.8841L16.7931 35.7073ZM31.5001 36.0002V36.2502H31.5002L31.5001 36.0002ZM32.2072 35.7073L32.3839 35.8841L32.3839 35.8841L32.2072 35.7073ZM32.5001 35.0002L32.7501 35.0003V35.0002H32.5001ZM32.2072 22.2932L32.384 22.1165L32.3839 22.1164L32.2072 22.2932ZM31.5001 22.0002L31.5002 21.7502H31.5001V22.0002ZM29.5001 22.0002V21.7502H29.2501V22.0002H29.5001ZM29.5001 27.3821L29.7501 27.3828V27.3821H29.5001ZM28.9122 28.7942L29.089 28.971L29.089 28.971L28.9122 28.7942ZM27.5001 29.3821L27.4993 29.1321L27.2501 29.1329V29.3821H27.5001ZM27.5001 29.384L27.5001 29.634L27.7501 29.634V29.384H27.5001ZM26.5997 29.1711L26.7118 28.9477L26.7118 28.9477L26.5997 29.1711ZM24.5001 28.1184L24.6122 27.8949L24.5001 27.8388L24.3881 27.8949L24.5001 28.1184ZM22.3995 29.1711L22.2875 28.9476L22.2871 28.9479L22.3995 29.1711ZM21.4142 29.3831L21.4034 29.6328H21.4035L21.4142 29.3831ZM20.4503 29.0872L20.3191 29.2999L20.3191 29.3L20.4503 29.0872ZM19.7531 28.3586L19.5347 28.4803L19.5347 28.4804L19.7531 28.3586ZM19.5001 27.3821L19.7501 27.3824V27.3821H19.5001ZM19.5001 22.0002H19.7501V21.7502H19.5001V22.0002ZM21.5001 27.3821H21.2501V27.7867L21.612 27.6057L21.5001 27.3821ZM23.6046 26.3293L23.4935 26.1054L23.4928 26.1058L23.6046 26.3293ZM24.5001 26.1204L24.4997 26.3704H24.5006L24.5001 26.1204ZM25.3937 26.3293L25.5056 26.1058L25.5049 26.1055L25.3937 26.3293ZM27.5001 27.384L27.3882 27.6076L27.7501 27.7888V27.384H27.5001ZM27.5001 22.0002H27.7501V21.7502H27.5001V22.0002ZM21.5001 22.0002V21.7502H21.2501V22.0002H21.5001ZM21.5001 14.0002L21.5002 13.7502H21.5001V14.0002ZM22.2072 14.2932L22.384 14.1165L22.3839 14.1164L22.2072 14.2932ZM22.5001 15.0002L22.7501 15.0003V15.0002H22.5001ZM22.2072 15.7073L22.3839 15.8841L22.3839 15.884L22.2072 15.7073ZM21.5001 16.0002V16.2502H21.5002L21.5001 16.0002ZM12.7931 15.7073L12.6163 15.8841L12.6163 15.8841L12.7931 15.7073ZM12.5001 15.0002H12.2501V15.0003L12.5001 15.0002ZM12.7931 14.2932L12.6163 14.1164L12.6163 14.1164L12.7931 14.2932ZM25.5001 14.0002L25.5002 13.7502H25.5001V14.0002ZM26.2072 14.2932L26.384 14.1165L26.3839 14.1164L26.2072 14.2932ZM26.5001 15.0002L26.7501 15.0003V15.0002H26.5001ZM26.2072 15.7073L26.3839 15.8841L26.3839 15.884L26.2072 15.7073ZM25.5001 16.0002V16.2502H25.5002L25.5001 16.0002ZM23.7931 15.7073L23.6163 15.8841L23.6164 15.8841L23.7931 15.7073ZM23.5001 15.0002H23.2501V15.0003L23.5001 15.0002ZM23.7931 14.2932L23.6163 14.1164L23.6163 14.1164L23.7931 14.2932ZM15.5001 9.00024L15.5002 8.75025H15.5001V9.00024ZM16.2072 9.29321L16.384 9.11647L16.3839 9.11644L16.2072 9.29321ZM16.5001 10.0002L16.7501 10.0003V10.0002H16.5001ZM16.2072 10.7073L16.3839 10.8841L16.3839 10.8841L16.2072 10.7073ZM15.5001 11.0002V11.2502H15.5002L15.5001 11.0002ZM12.7931 10.7073L12.6163 10.8841L12.6163 10.8841L12.7931 10.7073ZM12.5001 10.0002H12.2501V10.0003L12.5001 10.0002ZM12.7931 9.29321L12.6163 9.11644L12.6163 9.11644L12.7931 9.29321ZM25.5001 9.00024L25.5002 8.75025H25.5001V9.00024ZM26.2072 9.29321L26.384 9.11648L26.3839 9.11644L26.2072 9.29321ZM26.5001 10.0002L26.7501 10.0003V10.0002H26.5001ZM26.2072 10.7073L26.3839 10.8841V10.8841L26.2072 10.7073ZM25.5001 11.0002V11.2502H25.5002L25.5001 11.0002ZM17.7931 10.7073L17.6163 10.8841L17.6163 10.8841L17.7931 10.7073ZM17.5001 10.0002H17.2501V10.0003L17.5001 10.0002ZM17.7931 9.29321L17.6163 9.11644L17.6163 9.11645L17.7931 9.29321ZM29.7296 3.00024L29.7294 3.25024C30.3912 3.25077 31.0458 3.3891 31.651 3.65663L31.7521 3.42798L31.8532 3.19933C31.1844 2.90366 30.461 2.75083 29.7298 2.75025L29.7296 3.00024ZM31.7521 3.42798L31.651 3.65662C32.2562 3.92423 32.7993 4.31526 33.245 4.80437L33.4298 4.63599L33.6146 4.4676C33.1221 3.92711 32.5219 3.49504 31.8532 3.19933L31.7521 3.42798ZM33.4298 4.63599L33.2448 4.80415L41.0144 13.351L41.1993 13.1829L41.3843 13.0147L33.6148 4.46782L33.4298 4.63599ZM41.1993 13.1829L41.0145 13.3511C41.8098 14.225 42.2509 15.3645 42.2501 16.546L42.5001 16.5461L42.7501 16.5463C42.751 15.2401 42.2633 13.9804 41.3842 13.0146L41.1993 13.1829ZM42.5001 16.5461H42.2501V40.0002H42.5001H42.7501V16.5461H42.5001ZM42.5001 40.0002L42.2501 39.9999C42.2485 41.2591 41.7471 42.4662 40.8565 43.3567L41.0333 43.5334L41.2101 43.7102C42.1941 42.7262 42.7484 41.3923 42.7501 40.0006L42.5001 40.0002ZM41.0333 43.5334L40.8566 43.3567C39.966 44.2472 38.759 44.7487 37.4998 44.7502L37.5001 45.0002L37.5004 45.2502C38.8922 45.2485 40.2261 44.6942 41.2101 43.7102L41.0333 43.5334ZM37.5001 45.0002V44.7502H11.5001V45.0002V45.2502H37.5001V45.0002ZM11.5001 45.0002L11.5004 44.7502C10.2411 44.7487 9.03327 44.2472 8.14272 43.3567L7.96594 43.5334L7.78917 43.7102C8.77327 44.6943 10.108 45.2486 11.4998 45.2502L11.5001 45.0002ZM7.96594 43.5334L8.14273 43.3567C7.25248 42.4663 6.75171 41.2591 6.75012 39.9999L6.50012 40.0002L6.25012 40.0006C6.25188 41.3921 6.80528 42.7262 7.78915 43.7102L7.96594 43.5334ZM6.50012 40.0002H6.75012V8.00024H6.50012H6.25012V40.0002H6.50012ZM6.50012 8.00024L6.75012 8.00054C6.75163 6.74109 7.25225 5.53331 8.14272 4.64284L7.96594 4.46606L7.78917 4.28929C6.80498 5.27348 6.25179 6.60823 6.25012 7.99994L6.50012 8.00024ZM7.96594 4.46606L8.14272 4.64284C9.03319 3.75237 10.241 3.25175 11.5004 3.25024L11.5001 3.00024L11.4998 2.75025C10.1081 2.75191 8.77336 3.3051 7.78917 4.28929L7.96594 4.46606ZM11.5001 3.00024V3.25024H29.7296V3.00024V2.75025H11.5001V3.00024ZM11.5001 5.00024V4.75025C10.6381 4.75025 9.81169 5.09294 9.20225 5.70238L9.37903 5.87915L9.5558 6.05593C10.0716 5.54016 10.7709 5.25024 11.5001 5.25024V5.00024ZM9.37903 5.87915L9.20225 5.70238C8.59281 6.31181 8.25012 7.13823 8.25012 8.00024H8.50012H8.75012C8.75012 7.27097 9.04003 6.57169 9.5558 6.05593L9.37903 5.87915ZM8.50012 8.00024H8.25012V40.0002H8.50012H8.75012V8.00024H8.50012ZM8.50012 40.0002L8.25012 40.0003C8.25022 40.8621 8.59288 41.6887 9.20225 42.2981L9.37903 42.1213L9.5558 41.9446C9.04013 41.4289 8.7502 40.7294 8.75012 40.0002L8.50012 40.0002ZM9.37903 42.1213L9.20227 42.2981C9.81167 42.9074 10.6382 43.2502 11.5001 43.2502V43.0002V42.7502C10.771 42.7502 10.0716 42.4602 9.55579 41.9445L9.37903 42.1213ZM11.5001 43.0002V43.2502H37.5001V43.0002V42.7502H11.5001V43.0002ZM37.5001 43.0002L37.5001 43.2502C38.362 43.2502 39.1886 42.9075 39.798 42.2981L39.6212 42.1213L39.4444 41.9446C38.9288 42.4602 38.2293 42.7502 37.5001 42.7502L37.5001 43.0002ZM39.6212 42.1213L39.798 42.2981C40.4074 41.6887 40.75 40.8621 40.7501 40.0003L40.5001 40.0002L40.2501 40.0002C40.25 40.7294 39.9601 41.4289 39.4444 41.9446L39.6212 42.1213ZM40.5001 40.0002H40.7501V16.5461H40.5001H40.2501V40.0002H40.5001ZM40.5001 16.5461L40.7501 16.5464C40.7508 15.7379 40.4489 14.9587 39.9047 14.3612L39.7198 14.5295L39.535 14.6979C39.9955 15.2034 40.2507 15.8624 40.2501 16.5459L40.5001 16.5461ZM39.7198 14.5295L39.9049 14.3614L32.6851 6.41803L32.5001 6.58618L32.3151 6.75433L39.5348 14.6977L39.7198 14.5295ZM32.5001 6.58618H32.2501V14.0002H32.5001H32.7501V6.58618H32.5001ZM32.5001 14.0002L32.2501 14.0003C32.2502 14.3318 32.382 14.6497 32.6163 14.8841L32.7931 14.7073L32.9699 14.5305C32.8292 14.3899 32.7502 14.199 32.7501 14.0002L32.5001 14.0002ZM32.7931 14.7073L32.6164 14.8841C32.8507 15.1182 33.1686 15.2502 33.5001 15.2502V15.0002V14.7502C33.3014 14.7502 33.1106 14.6711 32.9698 14.5304L32.7931 14.7073ZM33.5001 15.0002V15.2502H37.5001V15.0002V14.7502H33.5001V15.0002ZM37.5001 15.0002L37.5 15.2502C37.6989 15.2503 37.8898 15.3294 38.0304 15.47L38.2072 15.2932L38.3839 15.1164C38.1496 14.8821 37.8316 14.7503 37.5002 14.7502L37.5001 15.0002ZM38.2072 15.2932L38.0303 15.4699C38.171 15.6107 38.2501 15.8016 38.2501 16.0002H38.5001H38.7501C38.7501 15.6687 38.6181 15.3508 38.384 15.1165L38.2072 15.2932ZM38.5001 16.0002L38.2501 16.0002C38.2501 16.199 38.171 16.3899 38.0304 16.5305L38.2072 16.7073L38.3839 16.884C38.6182 16.6497 38.7501 16.3317 38.7501 16.0003L38.5001 16.0002ZM38.2072 16.7073L38.0304 16.5305C37.8898 16.6711 37.6989 16.7502 37.5 16.7502L37.5001 17.0002L37.5002 17.2502C37.8316 17.2501 38.1496 17.1184 38.3839 16.8841L38.2072 16.7073ZM37.5001 17.0002V16.7502H33.5001V17.0002V17.2502H37.5001V17.0002ZM33.5001 17.0002V16.7502C32.771 16.7502 32.0716 16.4602 31.5558 15.9445L31.379 16.1213L31.2023 16.2981C31.8117 16.9074 32.6382 17.2502 33.5001 17.2502V17.0002ZM31.379 16.1213L31.5558 15.9446C31.0401 15.4288 30.7502 14.7295 30.7501 14.0002L30.5001 14.0002L30.2501 14.0003C30.2502 14.8622 30.5928 15.6887 31.2023 16.2981L31.379 16.1213ZM30.5001 14.0002H30.7501V5.10083H30.5001H30.2501V14.0002H30.5001ZM30.5001 5.10083L30.5643 4.85922C30.2926 4.787 30.0119 4.75051 29.7298 4.75025L29.7296 5.00024L29.7294 5.25024C29.9687 5.25047 30.2064 5.28143 30.4359 5.34244L30.5001 5.10083ZM29.7296 5.00024V4.75025H11.5001V5.00024V5.25024H29.7296V5.00024ZM31.5001 20.0002L31.5001 20.2502C32.2293 20.2503 32.9287 20.5402 33.4444 21.0559L33.6212 20.8792L33.798 20.7024C33.1886 20.093 32.3621 19.7503 31.5001 19.7502L31.5001 20.0002ZM33.6212 20.8792L33.4444 21.0559C33.9601 21.5717 34.2501 22.2711 34.2501 23.0002H34.5001H34.7501C34.7501 22.1383 34.4073 21.3118 33.798 20.7024L33.6212 20.8792ZM34.5001 23.0002H34.2501V35.0002H34.5001H34.7501V23.0002H34.5001ZM34.5001 35.0002L34.2501 35.0002C34.25 35.7294 33.9601 36.4289 33.4444 36.9446L33.6212 37.1213L33.798 37.2981C34.4074 36.6887 34.75 35.8621 34.7501 35.0003L34.5001 35.0002ZM33.6212 37.1213L33.4444 36.9446C32.9287 37.4602 32.2293 37.7502 31.5001 37.7502L31.5001 38.0002L31.5001 38.2502C32.362 38.2502 33.1886 37.9075 33.798 37.2981L33.6212 37.1213ZM31.5001 38.0002V37.7502H17.5001V38.0002V38.2502H31.5001V38.0002ZM17.5001 38.0002V37.7502C16.771 37.7502 16.0716 37.4602 15.5558 36.9445L15.379 37.1213L15.2023 37.2981C15.8117 37.9074 16.6382 38.2502 17.5001 38.2502V38.0002ZM15.379 37.1213L15.5558 36.9446C15.0401 36.4289 14.7502 35.7294 14.7501 35.0002L14.5001 35.0002L14.2501 35.0003C14.2502 35.8621 14.5929 36.6887 15.2023 37.2981L15.379 37.1213ZM14.5001 35.0002H14.7501V23.0002H14.5001H14.2501V35.0002H14.5001ZM14.5001 23.0002H14.7501C14.7501 22.271 15.0401 21.5717 15.5558 21.0559L15.379 20.8792L15.2022 20.7024C14.5929 21.3118 14.2501 22.1383 14.2501 23.0002H14.5001ZM15.379 20.8792L15.5558 21.0559C16.0716 20.5402 16.7709 20.2502 17.5001 20.2502V20.0002V19.7502C16.6381 19.7502 15.8117 20.0929 15.2023 20.7024L15.379 20.8792ZM17.5001 20.0002V20.2502H31.5001V20.0002V19.7502H17.5001V20.0002ZM17.5001 22.0002V21.7502C17.1685 21.7502 16.8507 21.8821 16.6163 22.1164L16.7931 22.2932L16.9699 22.47C17.1106 22.3293 17.3013 22.2502 17.5001 22.2502V22.0002ZM16.7931 22.2932L16.6163 22.1165C16.382 22.3508 16.2501 22.6687 16.2501 23.0002H16.5001H16.7501C16.7501 22.8015 16.8292 22.6107 16.9699 22.47L16.7931 22.2932ZM16.5001 23.0002H16.2501V35.0002H16.5001H16.7501V23.0002H16.5001ZM16.5001 35.0002L16.2501 35.0003C16.2502 35.3317 16.382 35.6497 16.6163 35.8841L16.7931 35.7073L16.9699 35.5305C16.8293 35.3899 16.7502 35.199 16.7501 35.0002L16.5001 35.0002ZM16.7931 35.7073L16.6164 35.8841C16.8507 36.1183 17.1686 36.2502 17.5001 36.2502V36.0002V35.7502C17.3014 35.7502 17.1106 35.6711 16.9698 35.5304L16.7931 35.7073ZM17.5001 36.0002V36.2502H31.5001V36.0002V35.7502H17.5001V36.0002ZM31.5001 36.0002L31.5002 36.2502C31.8316 36.2502 32.1496 36.1183 32.3839 35.8841L32.2072 35.7073L32.0304 35.5305C31.8898 35.6711 31.6989 35.7502 31.5001 35.7502L31.5001 36.0002ZM32.2072 35.7073L32.3839 35.8841C32.6183 35.6497 32.75 35.3317 32.7501 35.0003L32.5001 35.0002L32.2501 35.0002C32.2501 35.199 32.1709 35.3899 32.0304 35.5305L32.2072 35.7073ZM32.5001 35.0002H32.7501V23.0002H32.5001H32.2501V35.0002H32.5001ZM32.5001 23.0002H32.7501C32.7501 22.6687 32.6181 22.3508 32.384 22.1165L32.2072 22.2932L32.0303 22.4699C32.171 22.6107 32.2501 22.8016 32.2501 23.0002H32.5001ZM32.2072 22.2932L32.3839 22.1164C32.1496 21.8821 31.8316 21.7503 31.5002 21.7502L31.5001 22.0002L31.5001 22.2502C31.6989 22.2503 31.8897 22.3294 32.0304 22.47L32.2072 22.2932ZM31.5001 22.0002V21.7502H29.5001V22.0002V22.2502H31.5001V22.0002ZM29.5001 22.0002H29.2501V27.3821H29.5001H29.7501V22.0002H29.5001ZM29.5001 27.3821L29.2501 27.3813C29.2487 27.845 29.0635 28.2893 28.7355 28.6174L28.9122 28.7942L29.089 28.971C29.5103 28.5497 29.7483 27.9789 29.7501 27.3828L29.5001 27.3821ZM28.9122 28.7942L28.7355 28.6174C28.4074 28.9455 27.963 29.1306 27.4993 29.1321L27.5001 29.3821L27.5009 29.6321C28.0969 29.6302 28.6677 29.3922 29.089 28.971L28.9122 28.7942ZM27.5001 29.3821H27.2501V29.384H27.5001H27.7501V29.3821H27.5001ZM27.5001 29.384L27.5001 29.134C27.2264 29.1341 26.9562 29.0703 26.7118 28.9477L26.5997 29.1711L26.4877 29.3946C26.8019 29.5522 27.1488 29.6341 27.5001 29.634L27.5001 29.384ZM26.5997 29.1711L26.7118 28.9477L24.6122 27.8949L24.5001 28.1184L24.3881 28.3419L26.4877 29.3946L26.5997 29.1711ZM24.5001 28.1184L24.3881 27.8949L22.2875 28.9476L22.3995 29.1711L22.5115 29.3946L24.6121 28.3419L24.5001 28.1184ZM22.3995 29.1711L22.2871 28.9479C22.0202 29.0823 21.7234 29.1461 21.4249 29.1333L21.4142 29.3831L21.4035 29.6328C21.7873 29.6493 22.1689 29.5672 22.512 29.3944L22.3995 29.1711ZM21.4142 29.3831L21.4249 29.1333C21.1264 29.1204 20.8359 29.0312 20.5815 28.8744L20.4503 29.0872L20.3191 29.3C20.6461 29.5016 21.0195 29.6163 21.4034 29.6328L21.4142 29.3831ZM20.4503 29.0872L20.5816 28.8744C20.3271 28.7174 20.1169 28.4979 19.9714 28.2369L19.7531 28.3586L19.5347 28.4804C19.7218 28.8161 19.9921 29.0983 20.3191 29.2999L20.4503 29.0872ZM19.7531 28.3586L19.9714 28.237C19.826 27.9758 19.7497 27.6814 19.7501 27.3824L19.5001 27.3821L19.2501 27.3817C19.2496 27.7661 19.3476 28.1445 19.5347 28.4803L19.7531 28.3586ZM19.5001 27.3821H19.7501V22.0002H19.5001H19.2501V27.3821H19.5001ZM19.5001 22.0002V21.7502H17.5001V22.0002V22.2502H19.5001V22.0002ZM21.5001 27.3821L21.612 27.6057L23.7165 26.5529L23.6046 26.3293L23.4928 26.1058L21.3883 27.1585L21.5001 27.3821ZM23.6046 26.3293L23.7157 26.5533C23.9591 26.4325 24.2278 26.3699 24.4997 26.3704L24.5001 26.1204L24.5006 25.8704C24.1514 25.8698 23.8064 25.9502 23.4935 26.1054L23.6046 26.3293ZM24.5001 26.1204L24.5006 26.3704C24.7719 26.3699 25.0394 26.4325 25.2824 26.5532L25.3937 26.3293L25.5049 26.1055C25.1926 25.9502 24.8485 25.8697 24.4997 25.8704L24.5001 26.1204ZM25.3937 26.3293L25.2817 26.5529L27.3882 27.6076L27.5001 27.384L27.612 27.1605L25.5056 26.1058L25.3937 26.3293ZM27.5001 27.384H27.7501V22.0002H27.5001H27.2501V27.384H27.5001ZM27.5001 22.0002V21.7502H21.5001V22.0002V22.2502H27.5001V22.0002ZM21.5001 22.0002H21.2501V27.3821H21.5001H21.7501V22.0002H21.5001ZM21.5001 14.0002L21.5001 14.2502C21.6989 14.2503 21.8897 14.3294 22.0304 14.47L22.2072 14.2932L22.3839 14.1164C22.1496 13.8821 21.8316 13.7503 21.5002 13.7502L21.5001 14.0002ZM22.2072 14.2932L22.0303 14.4699C22.171 14.6107 22.2501 14.8015 22.2501 15.0002H22.5001H22.7501C22.7501 14.6687 22.6182 14.3508 22.384 14.1165L22.2072 14.2932ZM22.5001 15.0002L22.2501 15.0002C22.2501 15.199 22.171 15.3899 22.0304 15.5305L22.2072 15.7073L22.3839 15.884C22.6183 15.6497 22.7501 15.3318 22.7501 15.0003L22.5001 15.0002ZM22.2072 15.7073L22.0304 15.5305C21.8897 15.6711 21.6989 15.7502 21.5001 15.7502L21.5001 16.0002L21.5002 16.2502C21.8316 16.2502 22.1496 16.1184 22.3839 15.8841L22.2072 15.7073ZM21.5001 16.0002V15.7502H13.5001V16.0002V16.2502H21.5001V16.0002ZM13.5001 16.0002V15.7502C13.3014 15.7502 13.1106 15.6711 12.9698 15.5305L12.7931 15.7073L12.6163 15.8841C12.8507 16.1183 13.1686 16.2502 13.5001 16.2502V16.0002ZM12.7931 15.7073L12.9699 15.5305C12.8292 15.3899 12.7501 15.199 12.7501 15.0002L12.5001 15.0002L12.2501 15.0003C12.2502 15.3318 12.382 15.6497 12.6163 15.8841L12.7931 15.7073ZM12.5001 15.0002H12.7501C12.7501 14.8014 12.8292 14.6107 12.9699 14.47L12.7931 14.2932L12.6163 14.1164C12.382 14.3508 12.2501 14.6687 12.2501 15.0002H12.5001ZM12.7931 14.2932L12.9699 14.47C13.1106 14.3293 13.3013 14.2502 13.5001 14.2502V14.0002V13.7502C13.1685 13.7502 12.8507 13.8821 12.6163 14.1164L12.7931 14.2932ZM13.5001 14.0002V14.2502H21.5001V14.0002V13.7502H13.5001V14.0002ZM25.5001 14.0002L25.5001 14.2502C25.6989 14.2503 25.8897 14.3294 26.0304 14.47L26.2072 14.2932L26.3839 14.1164C26.1496 13.8821 25.8316 13.7503 25.5002 13.7502L25.5001 14.0002ZM26.2072 14.2932L26.0303 14.4699C26.171 14.6107 26.2501 14.8015 26.2501 15.0002H26.5001H26.7501C26.7501 14.6687 26.6182 14.3508 26.384 14.1165L26.2072 14.2932ZM26.5001 15.0002L26.2501 15.0002C26.2501 15.199 26.171 15.3899 26.0304 15.5305L26.2072 15.7073L26.3839 15.884C26.6183 15.6497 26.7501 15.3318 26.7501 15.0003L26.5001 15.0002ZM26.2072 15.7073L26.0304 15.5305C25.8897 15.6711 25.6989 15.7502 25.5001 15.7502L25.5001 16.0002L25.5002 16.2502C25.8316 16.2502 26.1496 16.1184 26.3839 15.8841L26.2072 15.7073ZM25.5001 16.0002V15.7502H24.5001V16.0002V16.2502H25.5001V16.0002ZM24.5001 16.0002V15.7502C24.3014 15.7502 24.1106 15.6711 23.9698 15.5305L23.7931 15.7073L23.6164 15.8841C23.8507 16.1183 24.1686 16.2502 24.5001 16.2502V16.0002ZM23.7931 15.7073L23.9699 15.5305C23.8292 15.3899 23.7501 15.199 23.7501 15.0002L23.5001 15.0002L23.2501 15.0003C23.2502 15.3318 23.382 15.6497 23.6163 15.8841L23.7931 15.7073ZM23.5001 15.0002H23.7501C23.7501 14.8014 23.8292 14.6107 23.9699 14.47L23.7931 14.2932L23.6163 14.1164C23.3819 14.3508 23.2501 14.6687 23.2501 15.0002H23.5001ZM23.7931 14.2932L23.9699 14.47C24.1106 14.3293 24.3013 14.2502 24.5001 14.2502V14.0002V13.7502C24.1685 13.7502 23.8507 13.8821 23.6163 14.1164L23.7931 14.2932ZM24.5001 14.0002V14.2502H25.5001V14.0002V13.7502H24.5001V14.0002ZM15.5001 9.00024L15.5001 9.25024C15.6989 9.25027 15.8897 9.32933 16.0304 9.46999L16.2072 9.29321L16.3839 9.11644C16.1496 8.88208 15.8317 8.75029 15.5002 8.75025L15.5001 9.00024ZM16.2072 9.29321L16.0303 9.46995C16.171 9.61068 16.2501 9.8015 16.2501 10.0002H16.5001H16.7501C16.7501 9.66869 16.6182 9.35079 16.384 9.11647L16.2072 9.29321ZM16.5001 10.0002L16.2501 10.0002C16.2501 10.199 16.171 10.3899 16.0304 10.5305L16.2072 10.7073L16.3839 10.8841C16.6183 10.6497 16.7501 10.3318 16.7501 10.0003L16.5001 10.0002ZM16.2072 10.7073L16.0304 10.5305C15.8897 10.6711 15.6989 10.7502 15.5001 10.7502L15.5001 11.0002L15.5002 11.2502C15.8316 11.2502 16.1496 11.1184 16.3839 10.8841L16.2072 10.7073ZM15.5001 11.0002V10.7502H13.5001V11.0002V11.2502H15.5001V11.0002ZM13.5001 11.0002V10.7502C13.3014 10.7502 13.1106 10.6711 12.9698 10.5305L12.7931 10.7073L12.6163 10.8841C12.8507 11.1183 13.1686 11.2502 13.5001 11.2502V11.0002ZM12.7931 10.7073L12.9699 10.5305C12.8292 10.3899 12.7502 10.199 12.7501 10.0002L12.5001 10.0002L12.2501 10.0003C12.2502 10.3318 12.382 10.6497 12.6163 10.8841L12.7931 10.7073ZM12.5001 10.0002H12.7501C12.7501 9.80142 12.8292 9.61069 12.9699 9.46998L12.7931 9.29321L12.6163 9.11644C12.382 9.3508 12.2501 9.66866 12.2501 10.0002H12.5001ZM12.7931 9.29321L12.9699 9.46999C13.1106 9.32929 13.3013 9.25024 13.5001 9.25024V9.00024V8.75025C13.1685 8.75025 12.8507 8.88207 12.6163 9.11644L12.7931 9.29321ZM13.5001 9.00024V9.25024H15.5001V9.00024V8.75025H13.5001V9.00024ZM25.5001 9.00024L25.5001 9.25024C25.6989 9.25027 25.8897 9.32934 26.0304 9.46999L26.2072 9.29321L26.3839 9.11644C26.1496 8.88208 25.8316 8.7503 25.5002 8.75025L25.5001 9.00024ZM26.2072 9.29321L26.0303 9.46995C26.171 9.61068 26.2501 9.80151 26.2501 10.0002H26.5001H26.7501C26.7501 9.66869 26.6182 9.35079 26.384 9.11648L26.2072 9.29321ZM26.5001 10.0002L26.2501 10.0002C26.2501 10.199 26.171 10.3899 26.0304 10.5305L26.2072 10.7073L26.3839 10.8841C26.6183 10.6497 26.7501 10.3318 26.7501 10.0003L26.5001 10.0002ZM26.2072 10.7073L26.0304 10.5305C25.8897 10.6711 25.6989 10.7502 25.5001 10.7502L25.5001 11.0002L25.5002 11.2502C25.8316 11.2502 26.1496 11.1184 26.3839 10.8841L26.2072 10.7073ZM25.5001 11.0002V10.7502H18.5001V11.0002V11.2502H25.5001V11.0002ZM18.5001 11.0002V10.7502C18.3014 10.7502 18.1106 10.6711 17.9698 10.5305L17.7931 10.7073L17.6163 10.8841C17.8507 11.1183 18.1686 11.2502 18.5001 11.2502V11.0002ZM17.7931 10.7073L17.9699 10.5305C17.8292 10.3899 17.7502 10.199 17.7501 10.0002L17.5001 10.0002L17.2501 10.0003C17.2502 10.3318 17.382 10.6497 17.6163 10.8841L17.7931 10.7073ZM17.5001 10.0002H17.7501C17.7501 9.80143 17.8292 9.61069 17.9699 9.46998L17.7931 9.29321L17.6163 9.11645C17.382 9.3508 17.2501 9.66867 17.2501 10.0002H17.5001ZM17.7931 9.29321L17.9699 9.46999C18.1106 9.32929 18.3013 9.25024 18.5001 9.25024V9.00024V8.75025C18.1685 8.75025 17.8507 8.88207 17.6163 9.11644L17.7931 9.29321ZM18.5001 9.00024V9.25024H25.5001V9.00024V8.75025H18.5001V9.00024Z" fill="url(#paint1_linear_630_342)"/>
<defs>
<linearGradient id="paint0_linear_630_342" x1="9.00012" y1="3.50024" x2="41.0001" y2="44.0002" gradientUnits="userSpaceOnUse">
<stop stop-color="#4BFFAE"/>
<stop offset="1" stop-color="#1F75FF"/>
</linearGradient>
<linearGradient id="paint1_linear_630_342" x1="9.00012" y1="3.50024" x2="41.0001" y2="44.0002" gradientUnits="userSpaceOnUse">
<stop stop-color="#4BFFAE"/>
<stop offset="1" stop-color="#1F75FF"/>
</linearGradient>
</defs>
</svg>
