<svg width="18" height="18" viewBox="0 0 18 18" fill="none" xmlns="http://www.w3.org/2000/svg">
<g clip-path="url(#clip0_1392_1002)">
<path d="M9 0C4.03734 0 0 4.03763 0 9C0 13.9624 4.03734 18 9 18C13.9624 18 18 13.9627 18 9C18 4.03734 13.9624 0 9 0ZM9 1.125C13.3422 1.125 16.875 4.6575 16.875 9C16.875 10.5758 16.4081 12.0434 15.608 13.2758C15.1987 11.2863 13.9042 9.56419 12.0859 8.62594C12.6172 7.95431 12.9375 7.10831 12.9375 6.1875C12.9375 4.01625 11.1713 2.25 9 2.25C6.82875 2.25 5.0625 4.01625 5.0625 6.1875C5.0625 7.10831 5.38284 7.95431 5.91412 8.62594C4.09556 9.56419 2.80125 11.2863 2.39203 13.2758C1.59188 12.0434 1.125 10.5758 1.125 9C1.125 4.6575 4.6575 1.125 9 1.125ZM6.1875 6.1875C6.1875 4.63669 7.44919 3.375 9 3.375C10.5508 3.375 11.8125 4.63669 11.8125 6.1875C11.8125 7.73831 10.5508 9 9 9C7.44919 9 6.1875 7.73831 6.1875 6.1875ZM9 16.875C6.80062 16.875 4.80994 15.9674 3.37978 14.5086C3.42591 12.2993 4.77619 10.3129 6.79922 9.45113C7.42781 9.87638 8.18522 10.125 9 10.125C9.8145 10.125 10.5722 9.87638 11.2008 9.45113C13.2238 10.3129 14.5741 12.2993 14.6202 14.5086C13.1901 15.9674 11.1994 16.875 9 16.875Z" fill="#2E2E2E"/>
</g>
<defs>
<clipPath id="clip0_1392_1002">
<rect width="18" height="18" fill="white"/>
</clipPath>
</defs>
</svg>
