<svg width="21" height="20" viewBox="0 0 21 20" fill="none" xmlns="http://www.w3.org/2000/svg">
<path d="M17.7129 2.926C13.8111 -0.975008 7.46561 -0.975008 3.56378 2.926C-0.336365 6.82701 -0.336365 13.1741 3.56378 17.0751C5.5147 19.0252 8.07672 19.9998 10.6388 19.9998C13.2008 19.9998 15.762 19.0252 17.7129 17.0751C21.6139 13.1742 21.6139 6.82701 17.7129 2.926ZM14.7649 12.9482C15.0908 13.2742 15.0908 13.8011 14.7649 14.1271C14.6023 14.2896 14.3889 14.3714 14.1754 14.3714C13.962 14.3714 13.7485 14.2896 13.5859 14.1271L10.6387 11.179L7.69236 14.1262C7.52896 14.2888 7.3155 14.3705 7.1029 14.3705C6.88948 14.3705 6.67602 14.2888 6.51345 14.1262C6.18747 13.8002 6.18747 13.2725 6.51345 12.9473L9.45983 10.0001L6.51263 7.05293C6.18665 6.72696 6.18665 6.19921 6.51263 5.87406C6.83778 5.54809 7.36553 5.54809 7.6915 5.87406L10.6387 8.82126L13.5859 5.87406C13.9119 5.54809 14.4388 5.54809 14.7648 5.87406C15.0907 6.19921 15.0907 6.72696 14.7648 7.05293L11.8176 10.0001L14.7649 12.9482Z" fill="#838C9B"/>
</svg>
