<svg width="1280" height="336" viewBox="0 0 1280 336" fill="none" xmlns="http://www.w3.org/2000/svg">
<g clip-path="url(#clip0_1812_2653)">
<rect width="1280" height="336" fill="url(#paint0_linear_1812_2653)"/>
<g style="mix-blend-mode:lighten">
<path d="M151.192 82.8076C83.5428 15.1579 -6.32758 -22 -102 -22H-385.931C-426.792 -22 -460 11.2076 -460 52.069V619.931C-460 660.792 -426.792 694 -385.931 694H-102C-6.32758 694 83.5428 656.719 151.192 589.192C218.842 521.543 256 431.672 256 336C256 240.328 218.719 150.457 151.192 82.8076Z" fill="url(#paint1_linear_1812_2653)" fill-opacity="0.4"/>
</g>
<path d="M937.953 -4.95345C821.74 -121.167 667.353 -185 503 -185H15.2414C-54.9534 -185 -112 -127.953 -112 -57.7586V917.759C-112 987.953 -54.9534 1045 15.2414 1045H503C667.353 1045 821.74 980.955 937.953 864.953C1054.17 748.74 1118 594.353 1118 430C1118 265.647 1053.96 111.26 937.953 -4.95345Z" fill="url(#paint2_linear_1812_2653)" fill-opacity="0.3"/>
</g>
<defs>
<linearGradient id="paint0_linear_1812_2653" x1="-22" y1="9.49997" x2="1210" y2="327" gradientUnits="userSpaceOnUse">
<stop stop-color="#0CA389"/>
<stop offset="1" stop-color="#28D1B3"/>
</linearGradient>
<linearGradient id="paint1_linear_1812_2653" x1="256" y1="384" x2="98" y2="7.49999" gradientUnits="userSpaceOnUse">
<stop stop-color="white"/>
<stop offset="0.891693" stop-color="white" stop-opacity="0"/>
</linearGradient>
<linearGradient id="paint2_linear_1812_2653" x1="846.556" y1="-62.5442" x2="978.537" y2="442.926" gradientUnits="userSpaceOnUse">
<stop stop-color="white"/>
<stop offset="0.891693" stop-color="white" stop-opacity="0"/>
</linearGradient>
<clipPath id="clip0_1812_2653">
<rect width="1280" height="336" fill="white"/>
</clipPath>
</defs>
</svg>
