<svg width="335" height="424" viewBox="0 0 335 424" fill="none" xmlns="http://www.w3.org/2000/svg">
<g clip-path="url(#clip0_1812_6121)">
<rect width="335" height="424" fill="url(#paint0_linear_1812_6121)"/>
<path d="M213.801 -7.96973C143.317 -69.9539 49.681 -104 -50 -104H-345.828C-388.401 -104 -423 -73.5734 -423 -36.1341V484.171C-423 521.611 -388.401 552.037 -345.828 552.037H-50C49.681 552.037 143.317 517.878 213.801 456.007C284.285 394.023 323 311.679 323 224.019C323 136.358 284.157 54.0145 213.801 -7.96973Z" fill="url(#paint1_linear_1812_6121)" fill-opacity="0.3"/>
<g style="mix-blend-mode:lighten">
<path d="M96.2741 265.236C49.9776 224.419 -11.5259 202 -77 202H-271.31C-299.274 202 -322 222.036 -322 246.69V589.31C-322 613.964 -299.274 634 -271.31 634H-77C-11.5259 634 49.9776 611.506 96.2741 570.764C142.571 529.948 168 475.724 168 418C168 360.276 142.486 306.052 96.2741 265.236Z" fill="url(#paint2_linear_1812_6121)" fill-opacity="0.4"/>
</g>
</g>
<defs>
<linearGradient id="paint0_linear_1812_6121" x1="0" y1="0" x2="378.463" y2="20.5715" gradientUnits="userSpaceOnUse">
<stop stop-color="#0FAC90"/>
<stop offset="1" stop-color="#28D1B3"/>
</linearGradient>
<linearGradient id="paint1_linear_1812_6121" x1="158.368" y1="-38.6865" x2="221.181" y2="234.87" gradientUnits="userSpaceOnUse">
<stop stop-color="white"/>
<stop offset="0.891693" stop-color="white" stop-opacity="0"/>
</linearGradient>
<linearGradient id="paint2_linear_1812_6121" x1="168" y1="446.961" x2="81.0546" y2="211.962" gradientUnits="userSpaceOnUse">
<stop stop-color="white"/>
<stop offset="0.891693" stop-color="white" stop-opacity="0"/>
</linearGradient>
<clipPath id="clip0_1812_6121">
<rect width="335" height="424" fill="white"/>
</clipPath>
</defs>
</svg>
